<?xml version="1.0" encoding="UTF-8" standalone="no"?>
<svg
   xmlns:dc="http://purl.org/dc/elements/1.1/"
   xmlns:cc="http://creativecommons.org/ns#"
   xmlns:rdf="http://www.w3.org/1999/02/22-rdf-syntax-ns#"
   xmlns:svg="http://www.w3.org/2000/svg"
   xmlns="http://www.w3.org/2000/svg"
   id="svg8"
   version="1.1"
   viewBox="0 0 133.63043 133.71423"
   height="133.71423mm"
   width="133.63043mm">
  <defs
     id="defs2" />
  <metadata
     id="metadata5">
    <rdf:RDF>
      <cc:Work
         rdf:about="">
        <dc:format>image/svg+xml</dc:format>
        <dc:type
           rdf:resource="http://purl.org/dc/dcmitype/StillImage" />
        <dc:title></dc:title>
      </cc:Work>
    </rdf:RDF>
  </metadata>
  <g
     transform="translate(-30.690687,-22.977919)"
     id="layer1">
    <path
       id="path21"
       d="M 91.961604,156.52879 C 79.172095,155.12028 66.924942,149.86161 55.990747,141.08367 43.573715,131.11531 34.212952,117.08428 31.327344,104.11521 c -0.785886,-3.53209 -0.856224,-9.4585 -0.143959,-12.12949 0.774683,-2.90504 2.180406,-5.42317 4.234736,-7.58584 3.026728,-3.18636 7.204482,-5.65681 15.797649,-9.3417 10.01381,-4.29408 16.46619,-7.91356 21.298958,-11.94772 6.336007,-5.28899 9.573938,-10.374375 14.043999,-22.057028 2.486105,-6.49752 3.893339,-9.478814 5.650477,-11.970811 3.18115,-4.511536 7.67762,-6.434104 14.170486,-6.058911 5.40522,0.312342 10.11772,1.704715 16.67046,4.925516 7.20304,3.540435 13.66109,8.232238 19.84986,14.42101 11.72434,11.724337 18.92733,25.557964 21.08125,40.487364 0.51702,3.58355 0.42844,13.01695 -0.159,16.93333 -2.14471,14.29862 -8.662,27.33485 -18.69268,37.3901 -5.3844,5.39758 -10.91283,9.34995 -17.84609,12.75849 -6.50201,3.19652 -12.83003,5.16204 -20.02803,6.22081 -3.33863,0.49109 -12.234316,0.7054 -15.293856,0.36846 z"
       style="fill:#a5a5a5;stroke-width:0.26458335" />
  </g>
</svg>
