<?xml version="1.0" encoding="UTF-8" standalone="no"?>
<svg
   xmlns:dc="http://purl.org/dc/elements/1.1/"
   xmlns:cc="http://creativecommons.org/ns#"
   xmlns:rdf="http://www.w3.org/1999/02/22-rdf-syntax-ns#"
   xmlns:svg="http://www.w3.org/2000/svg"
   xmlns="http://www.w3.org/2000/svg"
   viewBox="0 0 57.619068 143.36932"
   height="143.36932"
   width="57.619068"
   xml:space="preserve"
   id="svg2"
   version="1.1"><metadata
     id="metadata8"><rdf:RDF><cc:Work
         rdf:about=""><dc:format>image/svg+xml</dc:format><dc:type
           rdf:resource="http://purl.org/dc/dcmitype/StillImage" /><dc:title></dc:title></cc:Work></rdf:RDF></metadata><defs
     id="defs6"><clipPath
       id="clipPath18"
       clipPathUnits="userSpaceOnUse"><path
         id="path16"
         d="M 0,107.527 H 43.214 V 0 H 0 Z" /></clipPath></defs><g
     transform="matrix(1.3333333,0,0,-1.3333333,0,143.36933)"
     id="g10"><g
       id="g12"><g
         clip-path="url(#clipPath18)"
         id="g14"><g
           transform="translate(11.5613,101.246)"
           id="g20"><path
             id="path22"
             style="fill:none;stroke:#d7dddd;stroke-width:2;stroke-linecap:round;stroke-linejoin:round;stroke-miterlimit:10;stroke-dasharray:none;stroke-opacity:1"
             d="m 0,0 c 0,-2.916 -2.364,-5.281 -5.281,-5.281 -2.916,0 -5.28,2.365 -5.28,5.281 0,2.916 2.364,5.281 5.28,5.281 C -2.364,5.281 0,2.916 0,0 Z" /></g><g
           transform="translate(38.4287,6.2807)"
           id="g24"><path
             id="path26"
             style="fill:none;stroke:#91c53f;stroke-width:2;stroke-linecap:round;stroke-linejoin:round;stroke-miterlimit:10;stroke-dasharray:none;stroke-opacity:1"
             d="m 0,0 c 0,-2.917 -2.364,-5.281 -5.281,-5.281 -2.916,0 -5.28,2.364 -5.28,5.281 0,2.916 2.364,5.281 5.28,5.281 C -2.364,5.281 0,2.916 0,0 Z" /></g><g
           transform="translate(3.2218,35.1726)"
           id="g28"><path
             id="path30"
             style="fill:none;stroke:#f5ca33;stroke-width:2;stroke-linecap:round;stroke-linejoin:round;stroke-miterlimit:10;stroke-dasharray:none;stroke-opacity:1"
             d="m 0,0 c 2.007,2.007 4.836,-0.821 6.843,1.186 2.008,2.008 -0.821,4.836 1.188,6.844 2.009,2.009 4.837,-0.819 6.846,1.19 2.009,2.009 -0.82,4.837 1.189,6.846 2.01,2.01 4.838,-0.819 6.847,1.19 2.01,2.01 -0.819,4.838 1.191,6.848 2.008,2.008 4.837,-0.82 6.845,1.188 2.01,2.01 -0.818,4.839 1.192,6.849 2.011,2.011 4.84,-0.817 6.851,1.195" /></g></g></g></g></svg>