<?xml version="1.0" encoding="UTF-8" standalone="no"?>
<svg
   xmlns:dc="http://purl.org/dc/elements/1.1/"
   xmlns:cc="http://creativecommons.org/ns#"
   xmlns:rdf="http://www.w3.org/1999/02/22-rdf-syntax-ns#"
   xmlns:svg="http://www.w3.org/2000/svg"
   xmlns="http://www.w3.org/2000/svg"
   viewBox="0 0 153.34933 87.615868"
   height="87.615868"
   width="153.34933"
   xml:space="preserve"
   id="svg2"
   version="1.1"><metadata
     id="metadata8"><rdf:RDF><cc:Work
         rdf:about=""><dc:format>image/svg+xml</dc:format><dc:type
           rdf:resource="http://purl.org/dc/dcmitype/StillImage" /><dc:title></dc:title></cc:Work></rdf:RDF></metadata><defs
     id="defs6"><clipPath
       id="clipPath18"
       clipPathUnits="userSpaceOnUse"><path
         id="path16"
         d="M 0,65.712 H 115.012 V 0 H 0 Z" /></clipPath><clipPath
       id="clipPath34"
       clipPathUnits="userSpaceOnUse"><path
         id="path32"
         d="M 0,65.712 H 115.012 V 0 H 0 Z" /></clipPath></defs><g
     transform="matrix(1.3333333,0,0,-1.3333333,0,87.615867)"
     id="g10"><g
       id="g12"><g
         clip-path="url(#clipPath18)"
         id="g14"><g
           transform="translate(59.7192,64.7119)"
           id="g20"><path
             id="path22"
             style="fill:none;stroke:#17103c;stroke-width:2;stroke-linecap:round;stroke-linejoin:round;stroke-miterlimit:10;stroke-dasharray:none;stroke-opacity:1"
             d="M 0,0 V -5.977" /></g></g></g><g
       transform="translate(62.7075,61.7235)"
       id="g24"><path
         id="path26"
         style="fill:none;stroke:#17103c;stroke-width:2;stroke-linecap:round;stroke-linejoin:round;stroke-miterlimit:10;stroke-dasharray:none;stroke-opacity:1"
         d="M 0,0 H -5.977" /></g><g
       id="g28"><g
         clip-path="url(#clipPath34)"
         id="g30"><g
           transform="translate(1,1)"
           id="g36"><path
             id="path38"
             style="fill:none;stroke:#f5ca33;stroke-width:2;stroke-linecap:round;stroke-linejoin:round;stroke-miterlimit:10;stroke-dasharray:none;stroke-opacity:1"
             d="m 0,0 c 2.007,2.007 4.836,-0.821 6.843,1.186 2.008,2.008 -0.821,4.836 1.188,6.845 2.009,2.009 4.837,-0.82 6.846,1.189 2.009,2.009 -0.819,4.837 1.19,6.846 2.009,2.01 4.837,-0.819 6.846,1.19 2.01,2.01 -0.819,4.838 1.191,6.848 2.008,2.008 4.837,-0.82 6.845,1.188 2.01,2.01 -0.818,4.839 1.192,6.849 2.012,2.011 4.84,-0.817 6.852,1.195" /></g><g
           transform="translate(114.0122,15.91)"
           id="g40"><path
             id="path42"
             style="fill:none;stroke:#17103c;stroke-width:2;stroke-linecap:round;stroke-linejoin:round;stroke-miterlimit:10;stroke-dasharray:none;stroke-opacity:1"
             d="M 0,0 -7.333,4.234 V -4.234 Z" /></g></g></g></g></svg>