<?xml version="1.0" encoding="UTF-8" standalone="no"?>
<svg
   xmlns:dc="http://purl.org/dc/elements/1.1/"
   xmlns:cc="http://creativecommons.org/ns#"
   xmlns:rdf="http://www.w3.org/1999/02/22-rdf-syntax-ns#"
   xmlns:svg="http://www.w3.org/2000/svg"
   xmlns="http://www.w3.org/2000/svg"
   viewBox="0 0 142.52 168.772"
   height="168.772"
   width="142.52"
   xml:space="preserve"
   id="svg2"
   version="1.1"><metadata
     id="metadata8"><rdf:RDF><cc:Work
         rdf:about=""><dc:format>image/svg+xml</dc:format><dc:type
           rdf:resource="http://purl.org/dc/dcmitype/StillImage" /><dc:title></dc:title></cc:Work></rdf:RDF></metadata><defs
     id="defs6"><clipPath
       id="clipPath22"
       clipPathUnits="userSpaceOnUse"><path
         id="path20"
         d="M 61.339,93.831 22.991,27.411 h 76.695 z" /></clipPath></defs><g
     transform="matrix(1.3333333,0,0,-1.3333333,0,168.772)"
     id="g10"><g
       transform="translate(20.3058,74.1546)"
       id="g12"><path
         id="path14"
         style="fill:#f5ca33;fill-opacity:1;fill-rule:nonzero;stroke:none"
         d="M 0,0 -20.306,-35.171 H 20.306 60.917 L 40.611,0 20.306,35.17 Z" /></g><g
       id="g16"><g
         clip-path="url(#clipPath22)"
         id="g18"><g
           transform="translate(62.7262,27.7537)"
           id="g24"><path
             id="path26"
             style="fill:#242c36;fill-opacity:1;fill-rule:nonzero;stroke:none"
             d="m 0,0 c 0.047,-0.453 -0.282,-0.859 -0.735,-0.906 -0.453,-0.047 -0.859,0.282 -0.906,0.735 -0.047,0.453 0.282,0.859 0.735,0.906 C -0.453,0.782 -0.047,0.453 0,0" /></g><g
           transform="translate(68.5865,27.7537)"
           id="g28"><path
             id="path30"
             style="fill:#242c36;fill-opacity:1;fill-rule:nonzero;stroke:none"
             d="m 0,0 c 0.047,-0.453 -0.282,-0.859 -0.735,-0.906 -0.453,-0.047 -0.859,0.282 -0.906,0.735 -0.047,0.453 0.282,0.859 0.735,0.906 C -0.453,0.782 -0.047,0.453 0,0" /></g><g
           transform="translate(74.8255,27.7537)"
           id="g32"><path
             id="path34"
             style="fill:#242c36;fill-opacity:1;fill-rule:nonzero;stroke:none"
             d="m 0,0 c 0.047,-0.453 -0.282,-0.859 -0.735,-0.906 -0.453,-0.047 -0.859,0.282 -0.906,0.735 -0.047,0.453 0.282,0.859 0.735,0.906 C -0.453,0.782 -0.047,0.453 0,0" /></g><g
           transform="translate(80.6858,27.7537)"
           id="g36"><path
             id="path38"
             style="fill:#242c36;fill-opacity:1;fill-rule:nonzero;stroke:none"
             d="m 0,0 c 0.047,-0.453 -0.282,-0.859 -0.735,-0.906 -0.453,-0.047 -0.859,0.282 -0.906,0.735 -0.047,0.453 0.282,0.859 0.735,0.906 C -0.453,0.782 -0.047,0.453 0,0" /></g><g
           transform="translate(85.8482,27.7537)"
           id="g40"><path
             id="path42"
             style="fill:#242c36;fill-opacity:1;fill-rule:nonzero;stroke:none"
             d="m 0,0 c 0.047,-0.453 -0.282,-0.859 -0.735,-0.906 -0.453,-0.047 -0.859,0.282 -0.906,0.735 -0.047,0.453 0.282,0.859 0.735,0.906 C -0.453,0.782 -0.047,0.453 0,0" /></g><g
           transform="translate(91.7085,27.7537)"
           id="g44"><path
             id="path46"
             style="fill:#242c36;fill-opacity:1;fill-rule:nonzero;stroke:none"
             d="m 0,0 c 0.047,-0.453 -0.282,-0.859 -0.735,-0.906 -0.453,-0.047 -0.859,0.282 -0.906,0.735 -0.047,0.453 0.282,0.859 0.735,0.906 C -0.453,0.782 -0.047,0.453 0,0" /></g><g
           transform="translate(97.9475,27.7537)"
           id="g48"><path
             id="path50"
             style="fill:#242c36;fill-opacity:1;fill-rule:nonzero;stroke:none"
             d="m 0,0 c 0.047,-0.453 -0.282,-0.859 -0.735,-0.906 -0.453,-0.047 -0.859,0.282 -0.906,0.735 -0.047,0.453 0.282,0.859 0.735,0.906 C -0.453,0.782 -0.047,0.453 0,0" /></g><g
           transform="translate(14.3553,27.7537)"
           id="g52"><path
             id="path54"
             style="fill:#242c36;fill-opacity:1;fill-rule:nonzero;stroke:none"
             d="m 0,0 c 0.047,-0.453 -0.282,-0.859 -0.735,-0.906 -0.453,-0.047 -0.859,0.282 -0.906,0.735 -0.047,0.453 0.282,0.859 0.735,0.906 C -0.453,0.782 -0.047,0.453 0,0" /></g><g
           transform="translate(20.2156,27.7537)"
           id="g56"><path
             id="path58"
             style="fill:#242c36;fill-opacity:1;fill-rule:nonzero;stroke:none"
             d="m 0,0 c 0.047,-0.453 -0.282,-0.859 -0.735,-0.906 -0.453,-0.047 -0.859,0.282 -0.906,0.735 -0.047,0.453 0.282,0.859 0.735,0.906 C -0.453,0.782 -0.047,0.453 0,0" /></g><g
           transform="translate(26.4545,27.7537)"
           id="g60"><path
             id="path62"
             style="fill:#242c36;fill-opacity:1;fill-rule:nonzero;stroke:none"
             d="m 0,0 c 0.047,-0.453 -0.282,-0.859 -0.735,-0.906 -0.453,-0.047 -0.859,0.282 -0.906,0.735 -0.047,0.453 0.282,0.859 0.735,0.906 C -0.453,0.782 -0.047,0.453 0,0" /></g><g
           transform="translate(32.3148,27.7537)"
           id="g64"><path
             id="path66"
             style="fill:#242c36;fill-opacity:1;fill-rule:nonzero;stroke:none"
             d="m 0,0 c 0.047,-0.453 -0.282,-0.859 -0.735,-0.906 -0.453,-0.047 -0.859,0.282 -0.906,0.735 -0.047,0.453 0.282,0.859 0.735,0.906 C -0.453,0.782 -0.047,0.453 0,0" /></g><g
           transform="translate(37.4773,27.7537)"
           id="g68"><path
             id="path70"
             style="fill:#242c36;fill-opacity:1;fill-rule:nonzero;stroke:none"
             d="m 0,0 c 0.047,-0.453 -0.282,-0.859 -0.735,-0.906 -0.453,-0.047 -0.859,0.282 -0.906,0.735 -0.047,0.453 0.282,0.859 0.735,0.906 C -0.453,0.782 -0.047,0.453 0,0" /></g><g
           transform="translate(43.3376,27.7537)"
           id="g72"><path
             id="path74"
             style="fill:#242c36;fill-opacity:1;fill-rule:nonzero;stroke:none"
             d="m 0,0 c 0.047,-0.453 -0.282,-0.859 -0.735,-0.906 -0.453,-0.047 -0.859,0.282 -0.906,0.735 -0.047,0.453 0.282,0.859 0.735,0.906 C -0.453,0.782 -0.047,0.453 0,0" /></g><g
           transform="translate(49.5765,27.7537)"
           id="g76"><path
             id="path78"
             style="fill:#242c36;fill-opacity:1;fill-rule:nonzero;stroke:none"
             d="m 0,0 c 0.047,-0.453 -0.282,-0.859 -0.735,-0.906 -0.453,-0.047 -0.859,0.282 -0.906,0.735 -0.047,0.453 0.282,0.859 0.735,0.906 C -0.453,0.782 -0.047,0.453 0,0" /></g><g
           transform="translate(55.4368,27.7537)"
           id="g80"><path
             id="path82"
             style="fill:#242c36;fill-opacity:1;fill-rule:nonzero;stroke:none"
             d="m 0,0 c 0.047,-0.453 -0.282,-0.859 -0.735,-0.906 -0.453,-0.047 -0.859,0.282 -0.906,0.735 -0.047,0.453 0.282,0.859 0.735,0.906 C -0.453,0.782 -0.047,0.453 0,0" /></g><g
           transform="translate(61.9057,34.8866)"
           id="g84"><path
             id="path86"
             style="fill:#242c36;fill-opacity:1;fill-rule:nonzero;stroke:none"
             d="M 0,0 C 0.456,0 0.825,-0.369 0.825,-0.825 0.825,-1.281 0.456,-1.65 0,-1.65 c -0.456,0 -0.825,0.369 -0.825,0.825 C -0.825,-0.369 -0.456,0 0,0" /></g><g
           transform="translate(62.7262,40.8579)"
           id="g88"><path
             id="path90"
             style="fill:#242c36;fill-opacity:1;fill-rule:nonzero;stroke:none"
             d="m 0,0 c 0.047,-0.453 -0.282,-0.859 -0.735,-0.906 -0.453,-0.047 -0.859,0.282 -0.906,0.735 -0.047,0.453 0.282,0.859 0.735,0.906 C -0.453,0.782 -0.047,0.453 0,0" /></g><g
           transform="translate(62.7262,47.5687)"
           id="g92"><path
             id="path94"
             style="fill:#242c36;fill-opacity:1;fill-rule:nonzero;stroke:none"
             d="m 0,0 c 0.047,-0.453 -0.282,-0.859 -0.735,-0.906 -0.453,-0.047 -0.859,0.282 -0.906,0.735 -0.047,0.453 0.282,0.859 0.735,0.906 C -0.453,0.782 -0.047,0.453 0,0" /></g><g
           transform="translate(62.7262,60.9903)"
           id="g96"><path
             id="path98"
             style="fill:#242c36;fill-opacity:1;fill-rule:nonzero;stroke:none"
             d="m 0,0 c 0.047,-0.453 -0.282,-0.859 -0.735,-0.906 -0.453,-0.047 -0.859,0.282 -0.906,0.735 -0.047,0.453 0.282,0.859 0.735,0.906 C -0.453,0.782 -0.047,0.453 0,0" /></g><g
           transform="translate(62.7262,54.2795)"
           id="g100"><path
             id="path102"
             style="fill:#242c36;fill-opacity:1;fill-rule:nonzero;stroke:none"
             d="m 0,0 c 0.047,-0.453 -0.282,-0.859 -0.735,-0.906 -0.453,-0.047 -0.859,0.282 -0.906,0.735 -0.047,0.453 0.282,0.859 0.735,0.906 C -0.453,0.782 -0.047,0.453 0,0" /></g><g
           transform="translate(67.766,34.8866)"
           id="g104"><path
             id="path106"
             style="fill:#242c36;fill-opacity:1;fill-rule:nonzero;stroke:none"
             d="M 0,0 C 0.456,0 0.825,-0.369 0.825,-0.825 0.825,-1.281 0.456,-1.65 0,-1.65 c -0.456,0 -0.825,0.369 -0.825,0.825 C -0.825,-0.369 -0.456,0 0,0" /></g><g
           transform="translate(68.5865,40.8579)"
           id="g108"><path
             id="path110"
             style="fill:#242c36;fill-opacity:1;fill-rule:nonzero;stroke:none"
             d="m 0,0 c 0.047,-0.453 -0.282,-0.859 -0.735,-0.906 -0.453,-0.047 -0.859,0.282 -0.906,0.735 -0.047,0.453 0.282,0.859 0.735,0.906 C -0.453,0.782 -0.047,0.453 0,0" /></g><g
           transform="translate(68.5865,47.5687)"
           id="g112"><path
             id="path114"
             style="fill:#242c36;fill-opacity:1;fill-rule:nonzero;stroke:none"
             d="m 0,0 c 0.047,-0.453 -0.282,-0.859 -0.735,-0.906 -0.453,-0.047 -0.859,0.282 -0.906,0.735 -0.047,0.453 0.282,0.859 0.735,0.906 C -0.453,0.782 -0.047,0.453 0,0" /></g><g
           transform="translate(68.5865,60.9903)"
           id="g116"><path
             id="path118"
             style="fill:#242c36;fill-opacity:1;fill-rule:nonzero;stroke:none"
             d="m 0,0 c 0.047,-0.453 -0.282,-0.859 -0.735,-0.906 -0.453,-0.047 -0.859,0.282 -0.906,0.735 -0.047,0.453 0.282,0.859 0.735,0.906 C -0.453,0.782 -0.047,0.453 0,0" /></g><g
           transform="translate(68.5865,54.2795)"
           id="g120"><path
             id="path122"
             style="fill:#242c36;fill-opacity:1;fill-rule:nonzero;stroke:none"
             d="m 0,0 c 0.047,-0.453 -0.282,-0.859 -0.735,-0.906 -0.453,-0.047 -0.859,0.282 -0.906,0.735 -0.047,0.453 0.282,0.859 0.735,0.906 C -0.453,0.782 -0.047,0.453 0,0" /></g><g
           transform="translate(74.005,34.8866)"
           id="g124"><path
             id="path126"
             style="fill:#242c36;fill-opacity:1;fill-rule:nonzero;stroke:none"
             d="M 0,0 C 0.456,0 0.825,-0.369 0.825,-0.825 0.825,-1.281 0.456,-1.65 0,-1.65 c -0.456,0 -0.825,0.369 -0.825,0.825 C -0.825,-0.369 -0.456,0 0,0" /></g><g
           transform="translate(74.8255,40.8579)"
           id="g128"><path
             id="path130"
             style="fill:#242c36;fill-opacity:1;fill-rule:nonzero;stroke:none"
             d="m 0,0 c 0.047,-0.453 -0.282,-0.859 -0.735,-0.906 -0.453,-0.047 -0.859,0.282 -0.906,0.735 -0.047,0.453 0.282,0.859 0.735,0.906 C -0.453,0.782 -0.047,0.453 0,0" /></g><g
           transform="translate(74.8255,47.5687)"
           id="g132"><path
             id="path134"
             style="fill:#242c36;fill-opacity:1;fill-rule:nonzero;stroke:none"
             d="m 0,0 c 0.047,-0.453 -0.282,-0.859 -0.735,-0.906 -0.453,-0.047 -0.859,0.282 -0.906,0.735 -0.047,0.453 0.282,0.859 0.735,0.906 C -0.453,0.782 -0.047,0.453 0,0" /></g><g
           transform="translate(74.8255,60.9903)"
           id="g136"><path
             id="path138"
             style="fill:#242c36;fill-opacity:1;fill-rule:nonzero;stroke:none"
             d="m 0,0 c 0.047,-0.453 -0.282,-0.859 -0.735,-0.906 -0.453,-0.047 -0.859,0.282 -0.906,0.735 -0.047,0.453 0.282,0.859 0.735,0.906 C -0.453,0.782 -0.047,0.453 0,0" /></g><g
           transform="translate(74.8255,54.2795)"
           id="g140"><path
             id="path142"
             style="fill:#242c36;fill-opacity:1;fill-rule:nonzero;stroke:none"
             d="m 0,0 c 0.047,-0.453 -0.282,-0.859 -0.735,-0.906 -0.453,-0.047 -0.859,0.282 -0.906,0.735 -0.047,0.453 0.282,0.859 0.735,0.906 C -0.453,0.782 -0.047,0.453 0,0" /></g><g
           transform="translate(79.8653,34.8866)"
           id="g144"><path
             id="path146"
             style="fill:#242c36;fill-opacity:1;fill-rule:nonzero;stroke:none"
             d="M 0,0 C 0.456,0 0.825,-0.369 0.825,-0.825 0.825,-1.281 0.456,-1.65 0,-1.65 c -0.456,0 -0.825,0.369 -0.825,0.825 C -0.825,-0.369 -0.456,0 0,0" /></g><g
           transform="translate(80.6858,40.8579)"
           id="g148"><path
             id="path150"
             style="fill:#242c36;fill-opacity:1;fill-rule:nonzero;stroke:none"
             d="m 0,0 c 0.047,-0.453 -0.282,-0.859 -0.735,-0.906 -0.453,-0.047 -0.859,0.282 -0.906,0.735 -0.047,0.453 0.282,0.859 0.735,0.906 C -0.453,0.782 -0.047,0.453 0,0" /></g><g
           transform="translate(80.6858,47.5687)"
           id="g152"><path
             id="path154"
             style="fill:#242c36;fill-opacity:1;fill-rule:nonzero;stroke:none"
             d="m 0,0 c 0.047,-0.453 -0.282,-0.859 -0.735,-0.906 -0.453,-0.047 -0.859,0.282 -0.906,0.735 -0.047,0.453 0.282,0.859 0.735,0.906 C -0.453,0.782 -0.047,0.453 0,0" /></g><g
           transform="translate(80.6858,60.9903)"
           id="g156"><path
             id="path158"
             style="fill:#242c36;fill-opacity:1;fill-rule:nonzero;stroke:none"
             d="m 0,0 c 0.047,-0.453 -0.282,-0.859 -0.735,-0.906 -0.453,-0.047 -0.859,0.282 -0.906,0.735 -0.047,0.453 0.282,0.859 0.735,0.906 C -0.453,0.782 -0.047,0.453 0,0" /></g><g
           transform="translate(80.6858,54.2795)"
           id="g160"><path
             id="path162"
             style="fill:#242c36;fill-opacity:1;fill-rule:nonzero;stroke:none"
             d="m 0,0 c 0.047,-0.453 -0.282,-0.859 -0.735,-0.906 -0.453,-0.047 -0.859,0.282 -0.906,0.735 -0.047,0.453 0.282,0.859 0.735,0.906 C -0.453,0.782 -0.047,0.453 0,0" /></g><g
           transform="translate(85.0277,34.8866)"
           id="g164"><path
             id="path166"
             style="fill:#242c36;fill-opacity:1;fill-rule:nonzero;stroke:none"
             d="M 0,0 C 0.456,0 0.825,-0.369 0.825,-0.825 0.825,-1.281 0.456,-1.65 0,-1.65 c -0.456,0 -0.825,0.369 -0.825,0.825 C -0.825,-0.369 -0.456,0 0,0" /></g><g
           transform="translate(85.8482,40.8579)"
           id="g168"><path
             id="path170"
             style="fill:#242c36;fill-opacity:1;fill-rule:nonzero;stroke:none"
             d="m 0,0 c 0.047,-0.453 -0.282,-0.859 -0.735,-0.906 -0.453,-0.047 -0.859,0.282 -0.906,0.735 -0.047,0.453 0.282,0.859 0.735,0.906 C -0.453,0.782 -0.047,0.453 0,0" /></g><g
           transform="translate(85.8482,47.5687)"
           id="g172"><path
             id="path174"
             style="fill:#242c36;fill-opacity:1;fill-rule:nonzero;stroke:none"
             d="m 0,0 c 0.047,-0.453 -0.282,-0.859 -0.735,-0.906 -0.453,-0.047 -0.859,0.282 -0.906,0.735 -0.047,0.453 0.282,0.859 0.735,0.906 C -0.453,0.782 -0.047,0.453 0,0" /></g><g
           transform="translate(85.8482,60.9903)"
           id="g176"><path
             id="path178"
             style="fill:#242c36;fill-opacity:1;fill-rule:nonzero;stroke:none"
             d="m 0,0 c 0.047,-0.453 -0.282,-0.859 -0.735,-0.906 -0.453,-0.047 -0.859,0.282 -0.906,0.735 -0.047,0.453 0.282,0.859 0.735,0.906 C -0.453,0.782 -0.047,0.453 0,0" /></g><g
           transform="translate(85.8482,54.2795)"
           id="g180"><path
             id="path182"
             style="fill:#242c36;fill-opacity:1;fill-rule:nonzero;stroke:none"
             d="m 0,0 c 0.047,-0.453 -0.282,-0.859 -0.735,-0.906 -0.453,-0.047 -0.859,0.282 -0.906,0.735 -0.047,0.453 0.282,0.859 0.735,0.906 C -0.453,0.782 -0.047,0.453 0,0" /></g><g
           transform="translate(90.888,34.8866)"
           id="g184"><path
             id="path186"
             style="fill:#242c36;fill-opacity:1;fill-rule:nonzero;stroke:none"
             d="M 0,0 C 0.456,0 0.825,-0.369 0.825,-0.825 0.825,-1.281 0.456,-1.65 0,-1.65 c -0.456,0 -0.825,0.369 -0.825,0.825 C -0.825,-0.369 -0.456,0 0,0" /></g><g
           transform="translate(91.7085,40.8579)"
           id="g188"><path
             id="path190"
             style="fill:#242c36;fill-opacity:1;fill-rule:nonzero;stroke:none"
             d="m 0,0 c 0.047,-0.453 -0.282,-0.859 -0.735,-0.906 -0.453,-0.047 -0.859,0.282 -0.906,0.735 -0.047,0.453 0.282,0.859 0.735,0.906 C -0.453,0.782 -0.047,0.453 0,0" /></g><g
           transform="translate(91.7085,47.5687)"
           id="g192"><path
             id="path194"
             style="fill:#242c36;fill-opacity:1;fill-rule:nonzero;stroke:none"
             d="m 0,0 c 0.047,-0.453 -0.282,-0.859 -0.735,-0.906 -0.453,-0.047 -0.859,0.282 -0.906,0.735 -0.047,0.453 0.282,0.859 0.735,0.906 C -0.453,0.782 -0.047,0.453 0,0" /></g><g
           transform="translate(91.7085,60.9903)"
           id="g196"><path
             id="path198"
             style="fill:#242c36;fill-opacity:1;fill-rule:nonzero;stroke:none"
             d="m 0,0 c 0.047,-0.453 -0.282,-0.859 -0.735,-0.906 -0.453,-0.047 -0.859,0.282 -0.906,0.735 -0.047,0.453 0.282,0.859 0.735,0.906 C -0.453,0.782 -0.047,0.453 0,0" /></g><g
           transform="translate(91.7085,54.2795)"
           id="g200"><path
             id="path202"
             style="fill:#242c36;fill-opacity:1;fill-rule:nonzero;stroke:none"
             d="m 0,0 c 0.047,-0.453 -0.282,-0.859 -0.735,-0.906 -0.453,-0.047 -0.859,0.282 -0.906,0.735 -0.047,0.453 0.282,0.859 0.735,0.906 C -0.453,0.782 -0.047,0.453 0,0" /></g><g
           transform="translate(97.127,34.8866)"
           id="g204"><path
             id="path206"
             style="fill:#242c36;fill-opacity:1;fill-rule:nonzero;stroke:none"
             d="M 0,0 C 0.456,0 0.825,-0.369 0.825,-0.825 0.825,-1.281 0.456,-1.65 0,-1.65 c -0.456,0 -0.825,0.369 -0.825,0.825 C -0.825,-0.369 -0.456,0 0,0" /></g><g
           transform="translate(97.9475,40.8579)"
           id="g208"><path
             id="path210"
             style="fill:#242c36;fill-opacity:1;fill-rule:nonzero;stroke:none"
             d="m 0,0 c 0.047,-0.453 -0.282,-0.859 -0.735,-0.906 -0.453,-0.047 -0.859,0.282 -0.906,0.735 -0.047,0.453 0.282,0.859 0.735,0.906 C -0.453,0.782 -0.047,0.453 0,0" /></g><g
           transform="translate(97.9475,47.5687)"
           id="g212"><path
             id="path214"
             style="fill:#242c36;fill-opacity:1;fill-rule:nonzero;stroke:none"
             d="m 0,0 c 0.047,-0.453 -0.282,-0.859 -0.735,-0.906 -0.453,-0.047 -0.859,0.282 -0.906,0.735 -0.047,0.453 0.282,0.859 0.735,0.906 C -0.453,0.782 -0.047,0.453 0,0" /></g><g
           transform="translate(97.9475,60.9903)"
           id="g216"><path
             id="path218"
             style="fill:#242c36;fill-opacity:1;fill-rule:nonzero;stroke:none"
             d="m 0,0 c 0.047,-0.453 -0.282,-0.859 -0.735,-0.906 -0.453,-0.047 -0.859,0.282 -0.906,0.735 -0.047,0.453 0.282,0.859 0.735,0.906 C -0.453,0.782 -0.047,0.453 0,0" /></g><g
           transform="translate(97.9475,54.2795)"
           id="g220"><path
             id="path222"
             style="fill:#242c36;fill-opacity:1;fill-rule:nonzero;stroke:none"
             d="m 0,0 c 0.047,-0.453 -0.282,-0.859 -0.735,-0.906 -0.453,-0.047 -0.859,0.282 -0.906,0.735 -0.047,0.453 0.282,0.859 0.735,0.906 C -0.453,0.782 -0.047,0.453 0,0" /></g><g
           transform="translate(13.5348,34.8866)"
           id="g224"><path
             id="path226"
             style="fill:#242c36;fill-opacity:1;fill-rule:nonzero;stroke:none"
             d="M 0,0 C 0.456,0 0.825,-0.369 0.825,-0.825 0.825,-1.281 0.456,-1.65 0,-1.65 c -0.456,0 -0.825,0.369 -0.825,0.825 C -0.825,-0.369 -0.456,0 0,0" /></g><g
           transform="translate(14.3553,40.8579)"
           id="g228"><path
             id="path230"
             style="fill:#242c36;fill-opacity:1;fill-rule:nonzero;stroke:none"
             d="m 0,0 c 0.047,-0.453 -0.282,-0.859 -0.735,-0.906 -0.453,-0.047 -0.859,0.282 -0.906,0.735 -0.047,0.453 0.282,0.859 0.735,0.906 C -0.453,0.782 -0.047,0.453 0,0" /></g><g
           transform="translate(14.3553,47.5687)"
           id="g232"><path
             id="path234"
             style="fill:#242c36;fill-opacity:1;fill-rule:nonzero;stroke:none"
             d="m 0,0 c 0.047,-0.453 -0.282,-0.859 -0.735,-0.906 -0.453,-0.047 -0.859,0.282 -0.906,0.735 -0.047,0.453 0.282,0.859 0.735,0.906 C -0.453,0.782 -0.047,0.453 0,0" /></g><g
           transform="translate(14.3553,60.9903)"
           id="g236"><path
             id="path238"
             style="fill:#242c36;fill-opacity:1;fill-rule:nonzero;stroke:none"
             d="m 0,0 c 0.047,-0.453 -0.282,-0.859 -0.735,-0.906 -0.453,-0.047 -0.859,0.282 -0.906,0.735 -0.047,0.453 0.282,0.859 0.735,0.906 C -0.453,0.782 -0.047,0.453 0,0" /></g><g
           transform="translate(14.3553,54.2795)"
           id="g240"><path
             id="path242"
             style="fill:#242c36;fill-opacity:1;fill-rule:nonzero;stroke:none"
             d="m 0,0 c 0.047,-0.453 -0.282,-0.859 -0.735,-0.906 -0.453,-0.047 -0.859,0.282 -0.906,0.735 -0.047,0.453 0.282,0.859 0.735,0.906 C -0.453,0.782 -0.047,0.453 0,0" /></g><g
           transform="translate(19.395,34.8866)"
           id="g244"><path
             id="path246"
             style="fill:#242c36;fill-opacity:1;fill-rule:nonzero;stroke:none"
             d="M 0,0 C 0.456,0 0.825,-0.369 0.825,-0.825 0.825,-1.281 0.456,-1.65 0,-1.65 c -0.456,0 -0.825,0.369 -0.825,0.825 C -0.825,-0.369 -0.456,0 0,0" /></g><g
           transform="translate(20.2156,40.8579)"
           id="g248"><path
             id="path250"
             style="fill:#242c36;fill-opacity:1;fill-rule:nonzero;stroke:none"
             d="m 0,0 c 0.047,-0.453 -0.282,-0.859 -0.735,-0.906 -0.453,-0.047 -0.859,0.282 -0.906,0.735 -0.047,0.453 0.282,0.859 0.735,0.906 C -0.453,0.782 -0.047,0.453 0,0" /></g><g
           transform="translate(20.2156,47.5687)"
           id="g252"><path
             id="path254"
             style="fill:#242c36;fill-opacity:1;fill-rule:nonzero;stroke:none"
             d="m 0,0 c 0.047,-0.453 -0.282,-0.859 -0.735,-0.906 -0.453,-0.047 -0.859,0.282 -0.906,0.735 -0.047,0.453 0.282,0.859 0.735,0.906 C -0.453,0.782 -0.047,0.453 0,0" /></g><g
           transform="translate(20.2156,60.9903)"
           id="g256"><path
             id="path258"
             style="fill:#242c36;fill-opacity:1;fill-rule:nonzero;stroke:none"
             d="m 0,0 c 0.047,-0.453 -0.282,-0.859 -0.735,-0.906 -0.453,-0.047 -0.859,0.282 -0.906,0.735 -0.047,0.453 0.282,0.859 0.735,0.906 C -0.453,0.782 -0.047,0.453 0,0" /></g><g
           transform="translate(20.2156,54.2795)"
           id="g260"><path
             id="path262"
             style="fill:#242c36;fill-opacity:1;fill-rule:nonzero;stroke:none"
             d="m 0,0 c 0.047,-0.453 -0.282,-0.859 -0.735,-0.906 -0.453,-0.047 -0.859,0.282 -0.906,0.735 -0.047,0.453 0.282,0.859 0.735,0.906 C -0.453,0.782 -0.047,0.453 0,0" /></g><g
           transform="translate(25.634,34.8866)"
           id="g264"><path
             id="path266"
             style="fill:#242c36;fill-opacity:1;fill-rule:nonzero;stroke:none"
             d="M 0,0 C 0.456,0 0.825,-0.369 0.825,-0.825 0.825,-1.281 0.456,-1.65 0,-1.65 c -0.456,0 -0.825,0.369 -0.825,0.825 C -0.825,-0.369 -0.456,0 0,0" /></g><g
           transform="translate(26.4545,40.8579)"
           id="g268"><path
             id="path270"
             style="fill:#242c36;fill-opacity:1;fill-rule:nonzero;stroke:none"
             d="m 0,0 c 0.047,-0.453 -0.282,-0.859 -0.735,-0.906 -0.453,-0.047 -0.859,0.282 -0.906,0.735 -0.047,0.453 0.282,0.859 0.735,0.906 C -0.453,0.782 -0.047,0.453 0,0" /></g><g
           transform="translate(26.4545,47.5687)"
           id="g272"><path
             id="path274"
             style="fill:#242c36;fill-opacity:1;fill-rule:nonzero;stroke:none"
             d="m 0,0 c 0.047,-0.453 -0.282,-0.859 -0.735,-0.906 -0.453,-0.047 -0.859,0.282 -0.906,0.735 -0.047,0.453 0.282,0.859 0.735,0.906 C -0.453,0.782 -0.047,0.453 0,0" /></g><g
           transform="translate(26.4545,60.9903)"
           id="g276"><path
             id="path278"
             style="fill:#242c36;fill-opacity:1;fill-rule:nonzero;stroke:none"
             d="m 0,0 c 0.047,-0.453 -0.282,-0.859 -0.735,-0.906 -0.453,-0.047 -0.859,0.282 -0.906,0.735 -0.047,0.453 0.282,0.859 0.735,0.906 C -0.453,0.782 -0.047,0.453 0,0" /></g><g
           transform="translate(26.4545,54.2795)"
           id="g280"><path
             id="path282"
             style="fill:#242c36;fill-opacity:1;fill-rule:nonzero;stroke:none"
             d="m 0,0 c 0.047,-0.453 -0.282,-0.859 -0.735,-0.906 -0.453,-0.047 -0.859,0.282 -0.906,0.735 -0.047,0.453 0.282,0.859 0.735,0.906 C -0.453,0.782 -0.047,0.453 0,0" /></g><g
           transform="translate(31.4943,34.8866)"
           id="g284"><path
             id="path286"
             style="fill:#242c36;fill-opacity:1;fill-rule:nonzero;stroke:none"
             d="M 0,0 C 0.456,0 0.825,-0.369 0.825,-0.825 0.825,-1.281 0.456,-1.65 0,-1.65 c -0.456,0 -0.825,0.369 -0.825,0.825 C -0.825,-0.369 -0.456,0 0,0" /></g><g
           transform="translate(32.3148,40.8579)"
           id="g288"><path
             id="path290"
             style="fill:#242c36;fill-opacity:1;fill-rule:nonzero;stroke:none"
             d="m 0,0 c 0.047,-0.453 -0.282,-0.859 -0.735,-0.906 -0.453,-0.047 -0.859,0.282 -0.906,0.735 -0.047,0.453 0.282,0.859 0.735,0.906 C -0.453,0.782 -0.047,0.453 0,0" /></g><g
           transform="translate(32.3148,47.5687)"
           id="g292"><path
             id="path294"
             style="fill:#242c36;fill-opacity:1;fill-rule:nonzero;stroke:none"
             d="m 0,0 c 0.047,-0.453 -0.282,-0.859 -0.735,-0.906 -0.453,-0.047 -0.859,0.282 -0.906,0.735 -0.047,0.453 0.282,0.859 0.735,0.906 C -0.453,0.782 -0.047,0.453 0,0" /></g><g
           transform="translate(32.3148,60.9903)"
           id="g296"><path
             id="path298"
             style="fill:#242c36;fill-opacity:1;fill-rule:nonzero;stroke:none"
             d="m 0,0 c 0.047,-0.453 -0.282,-0.859 -0.735,-0.906 -0.453,-0.047 -0.859,0.282 -0.906,0.735 -0.047,0.453 0.282,0.859 0.735,0.906 C -0.453,0.782 -0.047,0.453 0,0" /></g><g
           transform="translate(32.3148,54.2795)"
           id="g300"><path
             id="path302"
             style="fill:#242c36;fill-opacity:1;fill-rule:nonzero;stroke:none"
             d="m 0,0 c 0.047,-0.453 -0.282,-0.859 -0.735,-0.906 -0.453,-0.047 -0.859,0.282 -0.906,0.735 -0.047,0.453 0.282,0.859 0.735,0.906 C -0.453,0.782 -0.047,0.453 0,0" /></g><g
           transform="translate(36.6568,34.8866)"
           id="g304"><path
             id="path306"
             style="fill:#242c36;fill-opacity:1;fill-rule:nonzero;stroke:none"
             d="M 0,0 C 0.456,0 0.825,-0.369 0.825,-0.825 0.825,-1.281 0.456,-1.65 0,-1.65 c -0.456,0 -0.825,0.369 -0.825,0.825 C -0.825,-0.369 -0.456,0 0,0" /></g><g
           transform="translate(37.4773,40.8579)"
           id="g308"><path
             id="path310"
             style="fill:#242c36;fill-opacity:1;fill-rule:nonzero;stroke:none"
             d="m 0,0 c 0.047,-0.453 -0.282,-0.859 -0.735,-0.906 -0.453,-0.047 -0.859,0.282 -0.906,0.735 -0.047,0.453 0.282,0.859 0.735,0.906 C -0.453,0.782 -0.047,0.453 0,0" /></g><g
           transform="translate(37.4773,47.5687)"
           id="g312"><path
             id="path314"
             style="fill:#242c36;fill-opacity:1;fill-rule:nonzero;stroke:none"
             d="m 0,0 c 0.047,-0.453 -0.282,-0.859 -0.735,-0.906 -0.453,-0.047 -0.859,0.282 -0.906,0.735 -0.047,0.453 0.282,0.859 0.735,0.906 C -0.453,0.782 -0.047,0.453 0,0" /></g><g
           transform="translate(37.4773,60.9903)"
           id="g316"><path
             id="path318"
             style="fill:#242c36;fill-opacity:1;fill-rule:nonzero;stroke:none"
             d="m 0,0 c 0.047,-0.453 -0.282,-0.859 -0.735,-0.906 -0.453,-0.047 -0.859,0.282 -0.906,0.735 -0.047,0.453 0.282,0.859 0.735,0.906 C -0.453,0.782 -0.047,0.453 0,0" /></g><g
           transform="translate(37.4773,54.2795)"
           id="g320"><path
             id="path322"
             style="fill:#242c36;fill-opacity:1;fill-rule:nonzero;stroke:none"
             d="m 0,0 c 0.047,-0.453 -0.282,-0.859 -0.735,-0.906 -0.453,-0.047 -0.859,0.282 -0.906,0.735 -0.047,0.453 0.282,0.859 0.735,0.906 C -0.453,0.782 -0.047,0.453 0,0" /></g><g
           transform="translate(42.517,34.8866)"
           id="g324"><path
             id="path326"
             style="fill:#242c36;fill-opacity:1;fill-rule:nonzero;stroke:none"
             d="M 0,0 C 0.456,0 0.825,-0.369 0.825,-0.825 0.825,-1.281 0.456,-1.65 0,-1.65 c -0.456,0 -0.825,0.369 -0.825,0.825 C -0.825,-0.369 -0.456,0 0,0" /></g><g
           transform="translate(43.3376,40.8579)"
           id="g328"><path
             id="path330"
             style="fill:#242c36;fill-opacity:1;fill-rule:nonzero;stroke:none"
             d="m 0,0 c 0.047,-0.453 -0.282,-0.859 -0.735,-0.906 -0.453,-0.047 -0.859,0.282 -0.906,0.735 -0.047,0.453 0.282,0.859 0.735,0.906 C -0.453,0.782 -0.047,0.453 0,0" /></g><g
           transform="translate(43.3376,47.5687)"
           id="g332"><path
             id="path334"
             style="fill:#242c36;fill-opacity:1;fill-rule:nonzero;stroke:none"
             d="m 0,0 c 0.047,-0.453 -0.282,-0.859 -0.735,-0.906 -0.453,-0.047 -0.859,0.282 -0.906,0.735 -0.047,0.453 0.282,0.859 0.735,0.906 C -0.453,0.782 -0.047,0.453 0,0" /></g><g
           transform="translate(43.3376,60.9903)"
           id="g336"><path
             id="path338"
             style="fill:#242c36;fill-opacity:1;fill-rule:nonzero;stroke:none"
             d="m 0,0 c 0.047,-0.453 -0.282,-0.859 -0.735,-0.906 -0.453,-0.047 -0.859,0.282 -0.906,0.735 -0.047,0.453 0.282,0.859 0.735,0.906 C -0.453,0.782 -0.047,0.453 0,0" /></g><g
           transform="translate(43.3376,54.2795)"
           id="g340"><path
             id="path342"
             style="fill:#242c36;fill-opacity:1;fill-rule:nonzero;stroke:none"
             d="m 0,0 c 0.047,-0.453 -0.282,-0.859 -0.735,-0.906 -0.453,-0.047 -0.859,0.282 -0.906,0.735 -0.047,0.453 0.282,0.859 0.735,0.906 C -0.453,0.782 -0.047,0.453 0,0" /></g><g
           transform="translate(48.756,34.8866)"
           id="g344"><path
             id="path346"
             style="fill:#242c36;fill-opacity:1;fill-rule:nonzero;stroke:none"
             d="M 0,0 C 0.456,0 0.825,-0.369 0.825,-0.825 0.825,-1.281 0.456,-1.65 0,-1.65 c -0.456,0 -0.825,0.369 -0.825,0.825 C -0.825,-0.369 -0.456,0 0,0" /></g><g
           transform="translate(49.5765,40.8579)"
           id="g348"><path
             id="path350"
             style="fill:#242c36;fill-opacity:1;fill-rule:nonzero;stroke:none"
             d="m 0,0 c 0.047,-0.453 -0.282,-0.859 -0.735,-0.906 -0.453,-0.047 -0.859,0.282 -0.906,0.735 -0.047,0.453 0.282,0.859 0.735,0.906 C -0.453,0.782 -0.047,0.453 0,0" /></g><g
           transform="translate(49.5765,47.5687)"
           id="g352"><path
             id="path354"
             style="fill:#242c36;fill-opacity:1;fill-rule:nonzero;stroke:none"
             d="m 0,0 c 0.047,-0.453 -0.282,-0.859 -0.735,-0.906 -0.453,-0.047 -0.859,0.282 -0.906,0.735 -0.047,0.453 0.282,0.859 0.735,0.906 C -0.453,0.782 -0.047,0.453 0,0" /></g><g
           transform="translate(49.5765,60.9903)"
           id="g356"><path
             id="path358"
             style="fill:#242c36;fill-opacity:1;fill-rule:nonzero;stroke:none"
             d="m 0,0 c 0.047,-0.453 -0.282,-0.859 -0.735,-0.906 -0.453,-0.047 -0.859,0.282 -0.906,0.735 -0.047,0.453 0.282,0.859 0.735,0.906 C -0.453,0.782 -0.047,0.453 0,0" /></g><g
           transform="translate(49.5765,54.2795)"
           id="g360"><path
             id="path362"
             style="fill:#242c36;fill-opacity:1;fill-rule:nonzero;stroke:none"
             d="m 0,0 c 0.047,-0.453 -0.282,-0.859 -0.735,-0.906 -0.453,-0.047 -0.859,0.282 -0.906,0.735 -0.047,0.453 0.282,0.859 0.735,0.906 C -0.453,0.782 -0.047,0.453 0,0" /></g><g
           transform="translate(54.6163,34.8866)"
           id="g364"><path
             id="path366"
             style="fill:#242c36;fill-opacity:1;fill-rule:nonzero;stroke:none"
             d="M 0,0 C 0.456,0 0.825,-0.369 0.825,-0.825 0.825,-1.281 0.456,-1.65 0,-1.65 c -0.456,0 -0.825,0.369 -0.825,0.825 C -0.825,-0.369 -0.456,0 0,0" /></g><g
           transform="translate(55.4368,40.8579)"
           id="g368"><path
             id="path370"
             style="fill:#242c36;fill-opacity:1;fill-rule:nonzero;stroke:none"
             d="m 0,0 c 0.047,-0.453 -0.282,-0.859 -0.735,-0.906 -0.453,-0.047 -0.859,0.282 -0.906,0.735 -0.047,0.453 0.282,0.859 0.735,0.906 C -0.453,0.782 -0.047,0.453 0,0" /></g><g
           transform="translate(55.4368,47.5687)"
           id="g372"><path
             id="path374"
             style="fill:#242c36;fill-opacity:1;fill-rule:nonzero;stroke:none"
             d="m 0,0 c 0.047,-0.453 -0.282,-0.859 -0.735,-0.906 -0.453,-0.047 -0.859,0.282 -0.906,0.735 -0.047,0.453 0.282,0.859 0.735,0.906 C -0.453,0.782 -0.047,0.453 0,0" /></g><g
           transform="translate(55.4368,60.9903)"
           id="g376"><path
             id="path378"
             style="fill:#242c36;fill-opacity:1;fill-rule:nonzero;stroke:none"
             d="m 0,0 c 0.047,-0.453 -0.282,-0.859 -0.735,-0.906 -0.453,-0.047 -0.859,0.282 -0.906,0.735 -0.047,0.453 0.282,0.859 0.735,0.906 C -0.453,0.782 -0.047,0.453 0,0" /></g><g
           transform="translate(55.4368,54.2795)"
           id="g380"><path
             id="path382"
             style="fill:#242c36;fill-opacity:1;fill-rule:nonzero;stroke:none"
             d="m 0,0 c 0.047,-0.453 -0.282,-0.859 -0.735,-0.906 -0.453,-0.047 -0.859,0.282 -0.906,0.735 -0.047,0.453 0.282,0.859 0.735,0.906 C -0.453,0.782 -0.047,0.453 0,0" /></g><g
           transform="translate(61.9057,67.8369)"
           id="g384"><path
             id="path386"
             style="fill:#242c36;fill-opacity:1;fill-rule:nonzero;stroke:none"
             d="M 0,0 C 0.456,0 0.825,-0.369 0.825,-0.825 0.825,-1.281 0.456,-1.65 0,-1.65 c -0.456,0 -0.825,0.369 -0.825,0.825 C -0.825,-0.369 -0.456,0 0,0" /></g><g
           transform="translate(62.7262,73.8082)"
           id="g388"><path
             id="path390"
             style="fill:#242c36;fill-opacity:1;fill-rule:nonzero;stroke:none"
             d="m 0,0 c 0.047,-0.453 -0.282,-0.859 -0.735,-0.906 -0.453,-0.047 -0.859,0.282 -0.906,0.735 -0.047,0.453 0.282,0.859 0.735,0.906 C -0.453,0.782 -0.047,0.453 0,0" /></g><g
           transform="translate(62.7262,80.519)"
           id="g392"><path
             id="path394"
             style="fill:#242c36;fill-opacity:1;fill-rule:nonzero;stroke:none"
             d="m 0,0 c 0.047,-0.453 -0.282,-0.859 -0.735,-0.906 -0.453,-0.047 -0.859,0.282 -0.906,0.735 -0.047,0.453 0.282,0.859 0.735,0.906 C -0.453,0.782 -0.047,0.453 0,0" /></g><g
           transform="translate(62.7262,93.9406)"
           id="g396"><path
             id="path398"
             style="fill:#242c36;fill-opacity:1;fill-rule:nonzero;stroke:none"
             d="m 0,0 c 0.047,-0.453 -0.282,-0.859 -0.735,-0.906 -0.453,-0.047 -0.859,0.282 -0.906,0.735 -0.047,0.453 0.282,0.859 0.735,0.906 C -0.453,0.782 -0.047,0.453 0,0" /></g><g
           transform="translate(62.7262,87.2298)"
           id="g400"><path
             id="path402"
             style="fill:#242c36;fill-opacity:1;fill-rule:nonzero;stroke:none"
             d="m 0,0 c 0.047,-0.453 -0.282,-0.859 -0.735,-0.906 -0.453,-0.047 -0.859,0.282 -0.906,0.735 -0.047,0.453 0.282,0.859 0.735,0.906 C -0.453,0.782 -0.047,0.453 0,0" /></g><g
           transform="translate(67.766,67.8369)"
           id="g404"><path
             id="path406"
             style="fill:#242c36;fill-opacity:1;fill-rule:nonzero;stroke:none"
             d="M 0,0 C 0.456,0 0.825,-0.369 0.825,-0.825 0.825,-1.281 0.456,-1.65 0,-1.65 c -0.456,0 -0.825,0.369 -0.825,0.825 C -0.825,-0.369 -0.456,0 0,0" /></g><g
           transform="translate(68.5865,73.8082)"
           id="g408"><path
             id="path410"
             style="fill:#242c36;fill-opacity:1;fill-rule:nonzero;stroke:none"
             d="m 0,0 c 0.047,-0.453 -0.282,-0.859 -0.735,-0.906 -0.453,-0.047 -0.859,0.282 -0.906,0.735 -0.047,0.453 0.282,0.859 0.735,0.906 C -0.453,0.782 -0.047,0.453 0,0" /></g><g
           transform="translate(68.5865,80.519)"
           id="g412"><path
             id="path414"
             style="fill:#242c36;fill-opacity:1;fill-rule:nonzero;stroke:none"
             d="m 0,0 c 0.047,-0.453 -0.282,-0.859 -0.735,-0.906 -0.453,-0.047 -0.859,0.282 -0.906,0.735 -0.047,0.453 0.282,0.859 0.735,0.906 C -0.453,0.782 -0.047,0.453 0,0" /></g><g
           transform="translate(68.5865,93.9406)"
           id="g416"><path
             id="path418"
             style="fill:#242c36;fill-opacity:1;fill-rule:nonzero;stroke:none"
             d="m 0,0 c 0.047,-0.453 -0.282,-0.859 -0.735,-0.906 -0.453,-0.047 -0.859,0.282 -0.906,0.735 -0.047,0.453 0.282,0.859 0.735,0.906 C -0.453,0.782 -0.047,0.453 0,0" /></g><g
           transform="translate(68.5865,87.2298)"
           id="g420"><path
             id="path422"
             style="fill:#242c36;fill-opacity:1;fill-rule:nonzero;stroke:none"
             d="m 0,0 c 0.047,-0.453 -0.282,-0.859 -0.735,-0.906 -0.453,-0.047 -0.859,0.282 -0.906,0.735 -0.047,0.453 0.282,0.859 0.735,0.906 C -0.453,0.782 -0.047,0.453 0,0" /></g><g
           transform="translate(74.005,67.8369)"
           id="g424"><path
             id="path426"
             style="fill:#242c36;fill-opacity:1;fill-rule:nonzero;stroke:none"
             d="M 0,0 C 0.456,0 0.825,-0.369 0.825,-0.825 0.825,-1.281 0.456,-1.65 0,-1.65 c -0.456,0 -0.825,0.369 -0.825,0.825 C -0.825,-0.369 -0.456,0 0,0" /></g><g
           transform="translate(74.8255,73.8082)"
           id="g428"><path
             id="path430"
             style="fill:#242c36;fill-opacity:1;fill-rule:nonzero;stroke:none"
             d="m 0,0 c 0.047,-0.453 -0.282,-0.859 -0.735,-0.906 -0.453,-0.047 -0.859,0.282 -0.906,0.735 -0.047,0.453 0.282,0.859 0.735,0.906 C -0.453,0.782 -0.047,0.453 0,0" /></g><g
           transform="translate(74.8255,80.519)"
           id="g432"><path
             id="path434"
             style="fill:#242c36;fill-opacity:1;fill-rule:nonzero;stroke:none"
             d="m 0,0 c 0.047,-0.453 -0.282,-0.859 -0.735,-0.906 -0.453,-0.047 -0.859,0.282 -0.906,0.735 -0.047,0.453 0.282,0.859 0.735,0.906 C -0.453,0.782 -0.047,0.453 0,0" /></g><g
           transform="translate(74.8255,93.9406)"
           id="g436"><path
             id="path438"
             style="fill:#242c36;fill-opacity:1;fill-rule:nonzero;stroke:none"
             d="m 0,0 c 0.047,-0.453 -0.282,-0.859 -0.735,-0.906 -0.453,-0.047 -0.859,0.282 -0.906,0.735 -0.047,0.453 0.282,0.859 0.735,0.906 C -0.453,0.782 -0.047,0.453 0,0" /></g><g
           transform="translate(74.8255,87.2298)"
           id="g440"><path
             id="path442"
             style="fill:#242c36;fill-opacity:1;fill-rule:nonzero;stroke:none"
             d="m 0,0 c 0.047,-0.453 -0.282,-0.859 -0.735,-0.906 -0.453,-0.047 -0.859,0.282 -0.906,0.735 -0.047,0.453 0.282,0.859 0.735,0.906 C -0.453,0.782 -0.047,0.453 0,0" /></g><g
           transform="translate(79.8653,67.8369)"
           id="g444"><path
             id="path446"
             style="fill:#242c36;fill-opacity:1;fill-rule:nonzero;stroke:none"
             d="M 0,0 C 0.456,0 0.825,-0.369 0.825,-0.825 0.825,-1.281 0.456,-1.65 0,-1.65 c -0.456,0 -0.825,0.369 -0.825,0.825 C -0.825,-0.369 -0.456,0 0,0" /></g><g
           transform="translate(80.6858,73.8082)"
           id="g448"><path
             id="path450"
             style="fill:#242c36;fill-opacity:1;fill-rule:nonzero;stroke:none"
             d="m 0,0 c 0.047,-0.453 -0.282,-0.859 -0.735,-0.906 -0.453,-0.047 -0.859,0.282 -0.906,0.735 -0.047,0.453 0.282,0.859 0.735,0.906 C -0.453,0.782 -0.047,0.453 0,0" /></g><g
           transform="translate(80.6858,80.519)"
           id="g452"><path
             id="path454"
             style="fill:#242c36;fill-opacity:1;fill-rule:nonzero;stroke:none"
             d="m 0,0 c 0.047,-0.453 -0.282,-0.859 -0.735,-0.906 -0.453,-0.047 -0.859,0.282 -0.906,0.735 -0.047,0.453 0.282,0.859 0.735,0.906 C -0.453,0.782 -0.047,0.453 0,0" /></g><g
           transform="translate(80.6858,93.9406)"
           id="g456"><path
             id="path458"
             style="fill:#242c36;fill-opacity:1;fill-rule:nonzero;stroke:none"
             d="m 0,0 c 0.047,-0.453 -0.282,-0.859 -0.735,-0.906 -0.453,-0.047 -0.859,0.282 -0.906,0.735 -0.047,0.453 0.282,0.859 0.735,0.906 C -0.453,0.782 -0.047,0.453 0,0" /></g><g
           transform="translate(80.6858,87.2298)"
           id="g460"><path
             id="path462"
             style="fill:#242c36;fill-opacity:1;fill-rule:nonzero;stroke:none"
             d="m 0,0 c 0.047,-0.453 -0.282,-0.859 -0.735,-0.906 -0.453,-0.047 -0.859,0.282 -0.906,0.735 -0.047,0.453 0.282,0.859 0.735,0.906 C -0.453,0.782 -0.047,0.453 0,0" /></g><g
           transform="translate(85.0277,67.8369)"
           id="g464"><path
             id="path466"
             style="fill:#242c36;fill-opacity:1;fill-rule:nonzero;stroke:none"
             d="M 0,0 C 0.456,0 0.825,-0.369 0.825,-0.825 0.825,-1.281 0.456,-1.65 0,-1.65 c -0.456,0 -0.825,0.369 -0.825,0.825 C -0.825,-0.369 -0.456,0 0,0" /></g><g
           transform="translate(85.8482,73.8082)"
           id="g468"><path
             id="path470"
             style="fill:#242c36;fill-opacity:1;fill-rule:nonzero;stroke:none"
             d="m 0,0 c 0.047,-0.453 -0.282,-0.859 -0.735,-0.906 -0.453,-0.047 -0.859,0.282 -0.906,0.735 -0.047,0.453 0.282,0.859 0.735,0.906 C -0.453,0.782 -0.047,0.453 0,0" /></g><g
           transform="translate(85.8482,80.519)"
           id="g472"><path
             id="path474"
             style="fill:#242c36;fill-opacity:1;fill-rule:nonzero;stroke:none"
             d="m 0,0 c 0.047,-0.453 -0.282,-0.859 -0.735,-0.906 -0.453,-0.047 -0.859,0.282 -0.906,0.735 -0.047,0.453 0.282,0.859 0.735,0.906 C -0.453,0.782 -0.047,0.453 0,0" /></g><g
           transform="translate(85.8482,93.9406)"
           id="g476"><path
             id="path478"
             style="fill:#242c36;fill-opacity:1;fill-rule:nonzero;stroke:none"
             d="m 0,0 c 0.047,-0.453 -0.282,-0.859 -0.735,-0.906 -0.453,-0.047 -0.859,0.282 -0.906,0.735 -0.047,0.453 0.282,0.859 0.735,0.906 C -0.453,0.782 -0.047,0.453 0,0" /></g><g
           transform="translate(85.8482,87.2298)"
           id="g480"><path
             id="path482"
             style="fill:#242c36;fill-opacity:1;fill-rule:nonzero;stroke:none"
             d="m 0,0 c 0.047,-0.453 -0.282,-0.859 -0.735,-0.906 -0.453,-0.047 -0.859,0.282 -0.906,0.735 -0.047,0.453 0.282,0.859 0.735,0.906 C -0.453,0.782 -0.047,0.453 0,0" /></g><g
           transform="translate(90.888,67.8369)"
           id="g484"><path
             id="path486"
             style="fill:#242c36;fill-opacity:1;fill-rule:nonzero;stroke:none"
             d="M 0,0 C 0.456,0 0.825,-0.369 0.825,-0.825 0.825,-1.281 0.456,-1.65 0,-1.65 c -0.456,0 -0.825,0.369 -0.825,0.825 C -0.825,-0.369 -0.456,0 0,0" /></g><g
           transform="translate(91.7085,73.8082)"
           id="g488"><path
             id="path490"
             style="fill:#242c36;fill-opacity:1;fill-rule:nonzero;stroke:none"
             d="m 0,0 c 0.047,-0.453 -0.282,-0.859 -0.735,-0.906 -0.453,-0.047 -0.859,0.282 -0.906,0.735 -0.047,0.453 0.282,0.859 0.735,0.906 C -0.453,0.782 -0.047,0.453 0,0" /></g><g
           transform="translate(91.7085,80.519)"
           id="g492"><path
             id="path494"
             style="fill:#242c36;fill-opacity:1;fill-rule:nonzero;stroke:none"
             d="m 0,0 c 0.047,-0.453 -0.282,-0.859 -0.735,-0.906 -0.453,-0.047 -0.859,0.282 -0.906,0.735 -0.047,0.453 0.282,0.859 0.735,0.906 C -0.453,0.782 -0.047,0.453 0,0" /></g><g
           transform="translate(91.7085,93.9406)"
           id="g496"><path
             id="path498"
             style="fill:#242c36;fill-opacity:1;fill-rule:nonzero;stroke:none"
             d="m 0,0 c 0.047,-0.453 -0.282,-0.859 -0.735,-0.906 -0.453,-0.047 -0.859,0.282 -0.906,0.735 -0.047,0.453 0.282,0.859 0.735,0.906 C -0.453,0.782 -0.047,0.453 0,0" /></g><g
           transform="translate(91.7085,87.2298)"
           id="g500"><path
             id="path502"
             style="fill:#242c36;fill-opacity:1;fill-rule:nonzero;stroke:none"
             d="m 0,0 c 0.047,-0.453 -0.282,-0.859 -0.735,-0.906 -0.453,-0.047 -0.859,0.282 -0.906,0.735 -0.047,0.453 0.282,0.859 0.735,0.906 C -0.453,0.782 -0.047,0.453 0,0" /></g><g
           transform="translate(97.127,67.8369)"
           id="g504"><path
             id="path506"
             style="fill:#242c36;fill-opacity:1;fill-rule:nonzero;stroke:none"
             d="M 0,0 C 0.456,0 0.825,-0.369 0.825,-0.825 0.825,-1.281 0.456,-1.65 0,-1.65 c -0.456,0 -0.825,0.369 -0.825,0.825 C -0.825,-0.369 -0.456,0 0,0" /></g><g
           transform="translate(97.9475,73.8082)"
           id="g508"><path
             id="path510"
             style="fill:#242c36;fill-opacity:1;fill-rule:nonzero;stroke:none"
             d="m 0,0 c 0.047,-0.453 -0.282,-0.859 -0.735,-0.906 -0.453,-0.047 -0.859,0.282 -0.906,0.735 -0.047,0.453 0.282,0.859 0.735,0.906 C -0.453,0.782 -0.047,0.453 0,0" /></g><g
           transform="translate(97.9475,80.519)"
           id="g512"><path
             id="path514"
             style="fill:#242c36;fill-opacity:1;fill-rule:nonzero;stroke:none"
             d="m 0,0 c 0.047,-0.453 -0.282,-0.859 -0.735,-0.906 -0.453,-0.047 -0.859,0.282 -0.906,0.735 -0.047,0.453 0.282,0.859 0.735,0.906 C -0.453,0.782 -0.047,0.453 0,0" /></g><g
           transform="translate(97.9475,93.9406)"
           id="g516"><path
             id="path518"
             style="fill:#242c36;fill-opacity:1;fill-rule:nonzero;stroke:none"
             d="m 0,0 c 0.047,-0.453 -0.282,-0.859 -0.735,-0.906 -0.453,-0.047 -0.859,0.282 -0.906,0.735 -0.047,0.453 0.282,0.859 0.735,0.906 C -0.453,0.782 -0.047,0.453 0,0" /></g><g
           transform="translate(97.9475,87.2298)"
           id="g520"><path
             id="path522"
             style="fill:#242c36;fill-opacity:1;fill-rule:nonzero;stroke:none"
             d="m 0,0 c 0.047,-0.453 -0.282,-0.859 -0.735,-0.906 -0.453,-0.047 -0.859,0.282 -0.906,0.735 -0.047,0.453 0.282,0.859 0.735,0.906 C -0.453,0.782 -0.047,0.453 0,0" /></g><g
           transform="translate(13.5348,67.8369)"
           id="g524"><path
             id="path526"
             style="fill:#242c36;fill-opacity:1;fill-rule:nonzero;stroke:none"
             d="M 0,0 C 0.456,0 0.825,-0.369 0.825,-0.825 0.825,-1.281 0.456,-1.65 0,-1.65 c -0.456,0 -0.825,0.369 -0.825,0.825 C -0.825,-0.369 -0.456,0 0,0" /></g><g
           transform="translate(14.3553,73.8082)"
           id="g528"><path
             id="path530"
             style="fill:#242c36;fill-opacity:1;fill-rule:nonzero;stroke:none"
             d="m 0,0 c 0.047,-0.453 -0.282,-0.859 -0.735,-0.906 -0.453,-0.047 -0.859,0.282 -0.906,0.735 -0.047,0.453 0.282,0.859 0.735,0.906 C -0.453,0.782 -0.047,0.453 0,0" /></g><g
           transform="translate(14.3553,80.519)"
           id="g532"><path
             id="path534"
             style="fill:#242c36;fill-opacity:1;fill-rule:nonzero;stroke:none"
             d="m 0,0 c 0.047,-0.453 -0.282,-0.859 -0.735,-0.906 -0.453,-0.047 -0.859,0.282 -0.906,0.735 -0.047,0.453 0.282,0.859 0.735,0.906 C -0.453,0.782 -0.047,0.453 0,0" /></g><g
           transform="translate(14.3553,93.9406)"
           id="g536"><path
             id="path538"
             style="fill:#242c36;fill-opacity:1;fill-rule:nonzero;stroke:none"
             d="m 0,0 c 0.047,-0.453 -0.282,-0.859 -0.735,-0.906 -0.453,-0.047 -0.859,0.282 -0.906,0.735 -0.047,0.453 0.282,0.859 0.735,0.906 C -0.453,0.782 -0.047,0.453 0,0" /></g><g
           transform="translate(14.3553,87.2298)"
           id="g540"><path
             id="path542"
             style="fill:#242c36;fill-opacity:1;fill-rule:nonzero;stroke:none"
             d="m 0,0 c 0.047,-0.453 -0.282,-0.859 -0.735,-0.906 -0.453,-0.047 -0.859,0.282 -0.906,0.735 -0.047,0.453 0.282,0.859 0.735,0.906 C -0.453,0.782 -0.047,0.453 0,0" /></g><g
           transform="translate(19.395,67.8369)"
           id="g544"><path
             id="path546"
             style="fill:#242c36;fill-opacity:1;fill-rule:nonzero;stroke:none"
             d="M 0,0 C 0.456,0 0.825,-0.369 0.825,-0.825 0.825,-1.281 0.456,-1.65 0,-1.65 c -0.456,0 -0.825,0.369 -0.825,0.825 C -0.825,-0.369 -0.456,0 0,0" /></g><g
           transform="translate(20.2156,73.8082)"
           id="g548"><path
             id="path550"
             style="fill:#242c36;fill-opacity:1;fill-rule:nonzero;stroke:none"
             d="m 0,0 c 0.047,-0.453 -0.282,-0.859 -0.735,-0.906 -0.453,-0.047 -0.859,0.282 -0.906,0.735 -0.047,0.453 0.282,0.859 0.735,0.906 C -0.453,0.782 -0.047,0.453 0,0" /></g><g
           transform="translate(20.2156,80.519)"
           id="g552"><path
             id="path554"
             style="fill:#242c36;fill-opacity:1;fill-rule:nonzero;stroke:none"
             d="m 0,0 c 0.047,-0.453 -0.282,-0.859 -0.735,-0.906 -0.453,-0.047 -0.859,0.282 -0.906,0.735 -0.047,0.453 0.282,0.859 0.735,0.906 C -0.453,0.782 -0.047,0.453 0,0" /></g><g
           transform="translate(20.2156,93.9406)"
           id="g556"><path
             id="path558"
             style="fill:#242c36;fill-opacity:1;fill-rule:nonzero;stroke:none"
             d="m 0,0 c 0.047,-0.453 -0.282,-0.859 -0.735,-0.906 -0.453,-0.047 -0.859,0.282 -0.906,0.735 -0.047,0.453 0.282,0.859 0.735,0.906 C -0.453,0.782 -0.047,0.453 0,0" /></g><g
           transform="translate(20.2156,87.2298)"
           id="g560"><path
             id="path562"
             style="fill:#242c36;fill-opacity:1;fill-rule:nonzero;stroke:none"
             d="m 0,0 c 0.047,-0.453 -0.282,-0.859 -0.735,-0.906 -0.453,-0.047 -0.859,0.282 -0.906,0.735 -0.047,0.453 0.282,0.859 0.735,0.906 C -0.453,0.782 -0.047,0.453 0,0" /></g><g
           transform="translate(25.634,67.8369)"
           id="g564"><path
             id="path566"
             style="fill:#242c36;fill-opacity:1;fill-rule:nonzero;stroke:none"
             d="M 0,0 C 0.456,0 0.825,-0.369 0.825,-0.825 0.825,-1.281 0.456,-1.65 0,-1.65 c -0.456,0 -0.825,0.369 -0.825,0.825 C -0.825,-0.369 -0.456,0 0,0" /></g><g
           transform="translate(26.4545,73.8082)"
           id="g568"><path
             id="path570"
             style="fill:#242c36;fill-opacity:1;fill-rule:nonzero;stroke:none"
             d="m 0,0 c 0.047,-0.453 -0.282,-0.859 -0.735,-0.906 -0.453,-0.047 -0.859,0.282 -0.906,0.735 -0.047,0.453 0.282,0.859 0.735,0.906 C -0.453,0.782 -0.047,0.453 0,0" /></g><g
           transform="translate(26.4545,80.519)"
           id="g572"><path
             id="path574"
             style="fill:#242c36;fill-opacity:1;fill-rule:nonzero;stroke:none"
             d="m 0,0 c 0.047,-0.453 -0.282,-0.859 -0.735,-0.906 -0.453,-0.047 -0.859,0.282 -0.906,0.735 -0.047,0.453 0.282,0.859 0.735,0.906 C -0.453,0.782 -0.047,0.453 0,0" /></g><g
           transform="translate(26.4545,93.9406)"
           id="g576"><path
             id="path578"
             style="fill:#242c36;fill-opacity:1;fill-rule:nonzero;stroke:none"
             d="m 0,0 c 0.047,-0.453 -0.282,-0.859 -0.735,-0.906 -0.453,-0.047 -0.859,0.282 -0.906,0.735 -0.047,0.453 0.282,0.859 0.735,0.906 C -0.453,0.782 -0.047,0.453 0,0" /></g><g
           transform="translate(26.4545,87.2298)"
           id="g580"><path
             id="path582"
             style="fill:#242c36;fill-opacity:1;fill-rule:nonzero;stroke:none"
             d="m 0,0 c 0.047,-0.453 -0.282,-0.859 -0.735,-0.906 -0.453,-0.047 -0.859,0.282 -0.906,0.735 -0.047,0.453 0.282,0.859 0.735,0.906 C -0.453,0.782 -0.047,0.453 0,0" /></g><g
           transform="translate(31.4943,67.8369)"
           id="g584"><path
             id="path586"
             style="fill:#242c36;fill-opacity:1;fill-rule:nonzero;stroke:none"
             d="M 0,0 C 0.456,0 0.825,-0.369 0.825,-0.825 0.825,-1.281 0.456,-1.65 0,-1.65 c -0.456,0 -0.825,0.369 -0.825,0.825 C -0.825,-0.369 -0.456,0 0,0" /></g><g
           transform="translate(32.3148,73.8082)"
           id="g588"><path
             id="path590"
             style="fill:#242c36;fill-opacity:1;fill-rule:nonzero;stroke:none"
             d="m 0,0 c 0.047,-0.453 -0.282,-0.859 -0.735,-0.906 -0.453,-0.047 -0.859,0.282 -0.906,0.735 -0.047,0.453 0.282,0.859 0.735,0.906 C -0.453,0.782 -0.047,0.453 0,0" /></g><g
           transform="translate(32.3148,80.519)"
           id="g592"><path
             id="path594"
             style="fill:#242c36;fill-opacity:1;fill-rule:nonzero;stroke:none"
             d="m 0,0 c 0.047,-0.453 -0.282,-0.859 -0.735,-0.906 -0.453,-0.047 -0.859,0.282 -0.906,0.735 -0.047,0.453 0.282,0.859 0.735,0.906 C -0.453,0.782 -0.047,0.453 0,0" /></g><g
           transform="translate(32.3148,93.9406)"
           id="g596"><path
             id="path598"
             style="fill:#242c36;fill-opacity:1;fill-rule:nonzero;stroke:none"
             d="m 0,0 c 0.047,-0.453 -0.282,-0.859 -0.735,-0.906 -0.453,-0.047 -0.859,0.282 -0.906,0.735 -0.047,0.453 0.282,0.859 0.735,0.906 C -0.453,0.782 -0.047,0.453 0,0" /></g><g
           transform="translate(32.3148,87.2298)"
           id="g600"><path
             id="path602"
             style="fill:#242c36;fill-opacity:1;fill-rule:nonzero;stroke:none"
             d="m 0,0 c 0.047,-0.453 -0.282,-0.859 -0.735,-0.906 -0.453,-0.047 -0.859,0.282 -0.906,0.735 -0.047,0.453 0.282,0.859 0.735,0.906 C -0.453,0.782 -0.047,0.453 0,0" /></g><g
           transform="translate(36.6568,67.8369)"
           id="g604"><path
             id="path606"
             style="fill:#242c36;fill-opacity:1;fill-rule:nonzero;stroke:none"
             d="M 0,0 C 0.456,0 0.825,-0.369 0.825,-0.825 0.825,-1.281 0.456,-1.65 0,-1.65 c -0.456,0 -0.825,0.369 -0.825,0.825 C -0.825,-0.369 -0.456,0 0,0" /></g><g
           transform="translate(37.4773,73.8082)"
           id="g608"><path
             id="path610"
             style="fill:#242c36;fill-opacity:1;fill-rule:nonzero;stroke:none"
             d="m 0,0 c 0.047,-0.453 -0.282,-0.859 -0.735,-0.906 -0.453,-0.047 -0.859,0.282 -0.906,0.735 -0.047,0.453 0.282,0.859 0.735,0.906 C -0.453,0.782 -0.047,0.453 0,0" /></g><g
           transform="translate(37.4773,80.519)"
           id="g612"><path
             id="path614"
             style="fill:#242c36;fill-opacity:1;fill-rule:nonzero;stroke:none"
             d="m 0,0 c 0.047,-0.453 -0.282,-0.859 -0.735,-0.906 -0.453,-0.047 -0.859,0.282 -0.906,0.735 -0.047,0.453 0.282,0.859 0.735,0.906 C -0.453,0.782 -0.047,0.453 0,0" /></g><g
           transform="translate(37.4773,93.9406)"
           id="g616"><path
             id="path618"
             style="fill:#242c36;fill-opacity:1;fill-rule:nonzero;stroke:none"
             d="m 0,0 c 0.047,-0.453 -0.282,-0.859 -0.735,-0.906 -0.453,-0.047 -0.859,0.282 -0.906,0.735 -0.047,0.453 0.282,0.859 0.735,0.906 C -0.453,0.782 -0.047,0.453 0,0" /></g><g
           transform="translate(37.4773,87.2298)"
           id="g620"><path
             id="path622"
             style="fill:#242c36;fill-opacity:1;fill-rule:nonzero;stroke:none"
             d="m 0,0 c 0.047,-0.453 -0.282,-0.859 -0.735,-0.906 -0.453,-0.047 -0.859,0.282 -0.906,0.735 -0.047,0.453 0.282,0.859 0.735,0.906 C -0.453,0.782 -0.047,0.453 0,0" /></g><g
           transform="translate(42.517,67.8369)"
           id="g624"><path
             id="path626"
             style="fill:#242c36;fill-opacity:1;fill-rule:nonzero;stroke:none"
             d="M 0,0 C 0.456,0 0.825,-0.369 0.825,-0.825 0.825,-1.281 0.456,-1.65 0,-1.65 c -0.456,0 -0.825,0.369 -0.825,0.825 C -0.825,-0.369 -0.456,0 0,0" /></g><g
           transform="translate(43.3376,73.8082)"
           id="g628"><path
             id="path630"
             style="fill:#242c36;fill-opacity:1;fill-rule:nonzero;stroke:none"
             d="m 0,0 c 0.047,-0.453 -0.282,-0.859 -0.735,-0.906 -0.453,-0.047 -0.859,0.282 -0.906,0.735 -0.047,0.453 0.282,0.859 0.735,0.906 C -0.453,0.782 -0.047,0.453 0,0" /></g><g
           transform="translate(43.3376,80.519)"
           id="g632"><path
             id="path634"
             style="fill:#242c36;fill-opacity:1;fill-rule:nonzero;stroke:none"
             d="m 0,0 c 0.047,-0.453 -0.282,-0.859 -0.735,-0.906 -0.453,-0.047 -0.859,0.282 -0.906,0.735 -0.047,0.453 0.282,0.859 0.735,0.906 C -0.453,0.782 -0.047,0.453 0,0" /></g><g
           transform="translate(43.3376,93.9406)"
           id="g636"><path
             id="path638"
             style="fill:#242c36;fill-opacity:1;fill-rule:nonzero;stroke:none"
             d="m 0,0 c 0.047,-0.453 -0.282,-0.859 -0.735,-0.906 -0.453,-0.047 -0.859,0.282 -0.906,0.735 -0.047,0.453 0.282,0.859 0.735,0.906 C -0.453,0.782 -0.047,0.453 0,0" /></g><g
           transform="translate(43.3376,87.2298)"
           id="g640"><path
             id="path642"
             style="fill:#242c36;fill-opacity:1;fill-rule:nonzero;stroke:none"
             d="m 0,0 c 0.047,-0.453 -0.282,-0.859 -0.735,-0.906 -0.453,-0.047 -0.859,0.282 -0.906,0.735 -0.047,0.453 0.282,0.859 0.735,0.906 C -0.453,0.782 -0.047,0.453 0,0" /></g><g
           transform="translate(48.756,67.8369)"
           id="g644"><path
             id="path646"
             style="fill:#242c36;fill-opacity:1;fill-rule:nonzero;stroke:none"
             d="M 0,0 C 0.456,0 0.825,-0.369 0.825,-0.825 0.825,-1.281 0.456,-1.65 0,-1.65 c -0.456,0 -0.825,0.369 -0.825,0.825 C -0.825,-0.369 -0.456,0 0,0" /></g><g
           transform="translate(49.5765,73.8082)"
           id="g648"><path
             id="path650"
             style="fill:#242c36;fill-opacity:1;fill-rule:nonzero;stroke:none"
             d="m 0,0 c 0.047,-0.453 -0.282,-0.859 -0.735,-0.906 -0.453,-0.047 -0.859,0.282 -0.906,0.735 -0.047,0.453 0.282,0.859 0.735,0.906 C -0.453,0.782 -0.047,0.453 0,0" /></g><g
           transform="translate(49.5765,80.519)"
           id="g652"><path
             id="path654"
             style="fill:#242c36;fill-opacity:1;fill-rule:nonzero;stroke:none"
             d="m 0,0 c 0.047,-0.453 -0.282,-0.859 -0.735,-0.906 -0.453,-0.047 -0.859,0.282 -0.906,0.735 -0.047,0.453 0.282,0.859 0.735,0.906 C -0.453,0.782 -0.047,0.453 0,0" /></g><g
           transform="translate(49.5765,93.9406)"
           id="g656"><path
             id="path658"
             style="fill:#242c36;fill-opacity:1;fill-rule:nonzero;stroke:none"
             d="m 0,0 c 0.047,-0.453 -0.282,-0.859 -0.735,-0.906 -0.453,-0.047 -0.859,0.282 -0.906,0.735 -0.047,0.453 0.282,0.859 0.735,0.906 C -0.453,0.782 -0.047,0.453 0,0" /></g><g
           transform="translate(49.5765,87.2298)"
           id="g660"><path
             id="path662"
             style="fill:#242c36;fill-opacity:1;fill-rule:nonzero;stroke:none"
             d="m 0,0 c 0.047,-0.453 -0.282,-0.859 -0.735,-0.906 -0.453,-0.047 -0.859,0.282 -0.906,0.735 -0.047,0.453 0.282,0.859 0.735,0.906 C -0.453,0.782 -0.047,0.453 0,0" /></g><g
           transform="translate(54.6163,67.8369)"
           id="g664"><path
             id="path666"
             style="fill:#242c36;fill-opacity:1;fill-rule:nonzero;stroke:none"
             d="M 0,0 C 0.456,0 0.825,-0.369 0.825,-0.825 0.825,-1.281 0.456,-1.65 0,-1.65 c -0.456,0 -0.825,0.369 -0.825,0.825 C -0.825,-0.369 -0.456,0 0,0" /></g><g
           transform="translate(55.4368,73.8082)"
           id="g668"><path
             id="path670"
             style="fill:#242c36;fill-opacity:1;fill-rule:nonzero;stroke:none"
             d="m 0,0 c 0.047,-0.453 -0.282,-0.859 -0.735,-0.906 -0.453,-0.047 -0.859,0.282 -0.906,0.735 -0.047,0.453 0.282,0.859 0.735,0.906 C -0.453,0.782 -0.047,0.453 0,0" /></g><g
           transform="translate(55.4368,80.519)"
           id="g672"><path
             id="path674"
             style="fill:#242c36;fill-opacity:1;fill-rule:nonzero;stroke:none"
             d="m 0,0 c 0.047,-0.453 -0.282,-0.859 -0.735,-0.906 -0.453,-0.047 -0.859,0.282 -0.906,0.735 -0.047,0.453 0.282,0.859 0.735,0.906 C -0.453,0.782 -0.047,0.453 0,0" /></g><g
           transform="translate(55.4368,93.9406)"
           id="g676"><path
             id="path678"
             style="fill:#242c36;fill-opacity:1;fill-rule:nonzero;stroke:none"
             d="m 0,0 c 0.047,-0.453 -0.282,-0.859 -0.735,-0.906 -0.453,-0.047 -0.859,0.282 -0.906,0.735 -0.047,0.453 0.282,0.859 0.735,0.906 C -0.453,0.782 -0.047,0.453 0,0" /></g><g
           transform="translate(55.4368,87.2298)"
           id="g680"><path
             id="path682"
             style="fill:#242c36;fill-opacity:1;fill-rule:nonzero;stroke:none"
             d="m 0,0 c 0.047,-0.453 -0.282,-0.859 -0.735,-0.906 -0.453,-0.047 -0.859,0.282 -0.906,0.735 -0.047,0.453 0.282,0.859 0.735,0.906 C -0.453,0.782 -0.047,0.453 0,0" /></g><g
           transform="translate(64.9835,99.7358)"
           id="g684"><path
             id="path686"
             style="fill:#242c36;fill-opacity:1;fill-rule:nonzero;stroke:none"
             d="M 0,0 C 0.456,0 0.825,-0.369 0.825,-0.825 0.825,-1.281 0.456,-1.65 0,-1.65 c -0.456,0 -0.825,0.369 -0.825,0.825 C -0.825,-0.369 -0.456,0 0,0" /></g><g
           transform="translate(65.804,105.7072)"
           id="g688"><path
             id="path690"
             style="fill:#242c36;fill-opacity:1;fill-rule:nonzero;stroke:none"
             d="m 0,0 c 0.047,-0.453 -0.282,-0.859 -0.735,-0.906 -0.453,-0.047 -0.859,0.282 -0.906,0.735 -0.047,0.453 0.282,0.859 0.735,0.906 C -0.453,0.782 -0.047,0.453 0,0" /></g><g
           transform="translate(70.8437,99.7358)"
           id="g692"><path
             id="path694"
             style="fill:#242c36;fill-opacity:1;fill-rule:nonzero;stroke:none"
             d="M 0,0 C 0.456,0 0.825,-0.369 0.825,-0.825 0.825,-1.281 0.456,-1.65 0,-1.65 c -0.456,0 -0.825,0.369 -0.825,0.825 C -0.825,-0.369 -0.456,0 0,0" /></g><g
           transform="translate(71.6643,105.7072)"
           id="g696"><path
             id="path698"
             style="fill:#242c36;fill-opacity:1;fill-rule:nonzero;stroke:none"
             d="m 0,0 c 0.047,-0.453 -0.282,-0.859 -0.735,-0.906 -0.453,-0.047 -0.859,0.282 -0.906,0.735 -0.047,0.453 0.282,0.859 0.735,0.906 C -0.453,0.782 -0.047,0.453 0,0" /></g><g
           transform="translate(77.0827,99.7358)"
           id="g700"><path
             id="path702"
             style="fill:#242c36;fill-opacity:1;fill-rule:nonzero;stroke:none"
             d="M 0,0 C 0.456,0 0.825,-0.369 0.825,-0.825 0.825,-1.281 0.456,-1.65 0,-1.65 c -0.456,0 -0.825,0.369 -0.825,0.825 C -0.825,-0.369 -0.456,0 0,0" /></g><g
           transform="translate(77.9032,105.7072)"
           id="g704"><path
             id="path706"
             style="fill:#242c36;fill-opacity:1;fill-rule:nonzero;stroke:none"
             d="m 0,0 c 0.047,-0.453 -0.282,-0.859 -0.735,-0.906 -0.453,-0.047 -0.859,0.282 -0.906,0.735 -0.047,0.453 0.282,0.859 0.735,0.906 C -0.453,0.782 -0.047,0.453 0,0" /></g><g
           transform="translate(82.943,99.7358)"
           id="g708"><path
             id="path710"
             style="fill:#242c36;fill-opacity:1;fill-rule:nonzero;stroke:none"
             d="M 0,0 C 0.456,0 0.825,-0.369 0.825,-0.825 0.825,-1.281 0.456,-1.65 0,-1.65 c -0.456,0 -0.825,0.369 -0.825,0.825 C -0.825,-0.369 -0.456,0 0,0" /></g><g
           transform="translate(83.7635,105.7072)"
           id="g712"><path
             id="path714"
             style="fill:#242c36;fill-opacity:1;fill-rule:nonzero;stroke:none"
             d="m 0,0 c 0.047,-0.453 -0.282,-0.859 -0.735,-0.906 -0.453,-0.047 -0.859,0.282 -0.906,0.735 -0.047,0.453 0.282,0.859 0.735,0.906 C -0.453,0.782 -0.047,0.453 0,0" /></g><g
           transform="translate(88.1055,99.7358)"
           id="g716"><path
             id="path718"
             style="fill:#242c36;fill-opacity:1;fill-rule:nonzero;stroke:none"
             d="M 0,0 C 0.456,0 0.825,-0.369 0.825,-0.825 0.825,-1.281 0.456,-1.65 0,-1.65 c -0.456,0 -0.825,0.369 -0.825,0.825 C -0.825,-0.369 -0.456,0 0,0" /></g><g
           transform="translate(88.926,105.7072)"
           id="g720"><path
             id="path722"
             style="fill:#242c36;fill-opacity:1;fill-rule:nonzero;stroke:none"
             d="m 0,0 c 0.047,-0.453 -0.282,-0.859 -0.735,-0.906 -0.453,-0.047 -0.859,0.282 -0.906,0.735 -0.047,0.453 0.282,0.859 0.735,0.906 C -0.453,0.782 -0.047,0.453 0,0" /></g><g
           transform="translate(93.9657,99.7358)"
           id="g724"><path
             id="path726"
             style="fill:#242c36;fill-opacity:1;fill-rule:nonzero;stroke:none"
             d="M 0,0 C 0.456,0 0.825,-0.369 0.825,-0.825 0.825,-1.281 0.456,-1.65 0,-1.65 c -0.456,0 -0.825,0.369 -0.825,0.825 C -0.825,-0.369 -0.456,0 0,0" /></g><g
           transform="translate(94.7863,105.7072)"
           id="g728"><path
             id="path730"
             style="fill:#242c36;fill-opacity:1;fill-rule:nonzero;stroke:none"
             d="m 0,0 c 0.047,-0.453 -0.282,-0.859 -0.735,-0.906 -0.453,-0.047 -0.859,0.282 -0.906,0.735 -0.047,0.453 0.282,0.859 0.735,0.906 C -0.453,0.782 -0.047,0.453 0,0" /></g><g
           transform="translate(100.2047,99.7358)"
           id="g732"><path
             id="path734"
             style="fill:#242c36;fill-opacity:1;fill-rule:nonzero;stroke:none"
             d="M 0,0 C 0.456,0 0.825,-0.369 0.825,-0.825 0.825,-1.281 0.456,-1.65 0,-1.65 c -0.456,0 -0.825,0.369 -0.825,0.825 C -0.825,-0.369 -0.456,0 0,0" /></g><g
           transform="translate(101.0252,105.7072)"
           id="g736"><path
             id="path738"
             style="fill:#242c36;fill-opacity:1;fill-rule:nonzero;stroke:none"
             d="m 0,0 c 0.047,-0.453 -0.282,-0.859 -0.735,-0.906 -0.453,-0.047 -0.859,0.282 -0.906,0.735 -0.047,0.453 0.282,0.859 0.735,0.906 C -0.453,0.782 -0.047,0.453 0,0" /></g><g
           transform="translate(16.6125,99.7358)"
           id="g740"><path
             id="path742"
             style="fill:#242c36;fill-opacity:1;fill-rule:nonzero;stroke:none"
             d="M 0,0 C 0.456,0 0.825,-0.369 0.825,-0.825 0.825,-1.281 0.456,-1.65 0,-1.65 c -0.456,0 -0.825,0.369 -0.825,0.825 C -0.825,-0.369 -0.456,0 0,0" /></g><g
           transform="translate(17.433,105.7072)"
           id="g744"><path
             id="path746"
             style="fill:#242c36;fill-opacity:1;fill-rule:nonzero;stroke:none"
             d="m 0,0 c 0.047,-0.453 -0.282,-0.859 -0.735,-0.906 -0.453,-0.047 -0.859,0.282 -0.906,0.735 -0.047,0.453 0.282,0.859 0.735,0.906 C -0.453,0.782 -0.047,0.453 0,0" /></g><g
           transform="translate(22.4728,99.7358)"
           id="g748"><path
             id="path750"
             style="fill:#242c36;fill-opacity:1;fill-rule:nonzero;stroke:none"
             d="M 0,0 C 0.456,0 0.825,-0.369 0.825,-0.825 0.825,-1.281 0.456,-1.65 0,-1.65 c -0.456,0 -0.825,0.369 -0.825,0.825 C -0.825,-0.369 -0.456,0 0,0" /></g><g
           transform="translate(23.2933,105.7072)"
           id="g752"><path
             id="path754"
             style="fill:#242c36;fill-opacity:1;fill-rule:nonzero;stroke:none"
             d="m 0,0 c 0.047,-0.453 -0.282,-0.859 -0.735,-0.906 -0.453,-0.047 -0.859,0.282 -0.906,0.735 -0.047,0.453 0.282,0.859 0.735,0.906 C -0.453,0.782 -0.047,0.453 0,0" /></g><g
           transform="translate(28.7118,99.7358)"
           id="g756"><path
             id="path758"
             style="fill:#242c36;fill-opacity:1;fill-rule:nonzero;stroke:none"
             d="M 0,0 C 0.456,0 0.825,-0.369 0.825,-0.825 0.825,-1.281 0.456,-1.65 0,-1.65 c -0.456,0 -0.825,0.369 -0.825,0.825 C -0.825,-0.369 -0.456,0 0,0" /></g><g
           transform="translate(29.5323,105.7072)"
           id="g760"><path
             id="path762"
             style="fill:#242c36;fill-opacity:1;fill-rule:nonzero;stroke:none"
             d="m 0,0 c 0.047,-0.453 -0.282,-0.859 -0.735,-0.906 -0.453,-0.047 -0.859,0.282 -0.906,0.735 -0.047,0.453 0.282,0.859 0.735,0.906 C -0.453,0.782 -0.047,0.453 0,0" /></g><g
           transform="translate(34.572,99.7358)"
           id="g764"><path
             id="path766"
             style="fill:#242c36;fill-opacity:1;fill-rule:nonzero;stroke:none"
             d="M 0,0 C 0.456,0 0.825,-0.369 0.825,-0.825 0.825,-1.281 0.456,-1.65 0,-1.65 c -0.456,0 -0.825,0.369 -0.825,0.825 C -0.825,-0.369 -0.456,0 0,0" /></g><g
           transform="translate(35.3926,105.7072)"
           id="g768"><path
             id="path770"
             style="fill:#242c36;fill-opacity:1;fill-rule:nonzero;stroke:none"
             d="m 0,0 c 0.047,-0.453 -0.282,-0.859 -0.735,-0.906 -0.453,-0.047 -0.859,0.282 -0.906,0.735 -0.047,0.453 0.282,0.859 0.735,0.906 C -0.453,0.782 -0.047,0.453 0,0" /></g><g
           transform="translate(39.7345,99.7358)"
           id="g772"><path
             id="path774"
             style="fill:#242c36;fill-opacity:1;fill-rule:nonzero;stroke:none"
             d="M 0,0 C 0.456,0 0.825,-0.369 0.825,-0.825 0.825,-1.281 0.456,-1.65 0,-1.65 c -0.456,0 -0.825,0.369 -0.825,0.825 C -0.825,-0.369 -0.456,0 0,0" /></g><g
           transform="translate(40.555,105.7072)"
           id="g776"><path
             id="path778"
             style="fill:#242c36;fill-opacity:1;fill-rule:nonzero;stroke:none"
             d="m 0,0 c 0.047,-0.453 -0.282,-0.859 -0.735,-0.906 -0.453,-0.047 -0.859,0.282 -0.906,0.735 -0.047,0.453 0.282,0.859 0.735,0.906 C -0.453,0.782 -0.047,0.453 0,0" /></g><g
           transform="translate(45.5948,99.7358)"
           id="g780"><path
             id="path782"
             style="fill:#242c36;fill-opacity:1;fill-rule:nonzero;stroke:none"
             d="M 0,0 C 0.456,0 0.825,-0.369 0.825,-0.825 0.825,-1.281 0.456,-1.65 0,-1.65 c -0.456,0 -0.825,0.369 -0.825,0.825 C -0.825,-0.369 -0.456,0 0,0" /></g><g
           transform="translate(46.4153,105.7072)"
           id="g784"><path
             id="path786"
             style="fill:#242c36;fill-opacity:1;fill-rule:nonzero;stroke:none"
             d="m 0,0 c 0.047,-0.453 -0.282,-0.859 -0.735,-0.906 -0.453,-0.047 -0.859,0.282 -0.906,0.735 -0.047,0.453 0.282,0.859 0.735,0.906 C -0.453,0.782 -0.047,0.453 0,0" /></g><g
           transform="translate(51.8338,99.7358)"
           id="g788"><path
             id="path790"
             style="fill:#242c36;fill-opacity:1;fill-rule:nonzero;stroke:none"
             d="M 0,0 C 0.456,0 0.825,-0.369 0.825,-0.825 0.825,-1.281 0.456,-1.65 0,-1.65 c -0.456,0 -0.825,0.369 -0.825,0.825 C -0.825,-0.369 -0.456,0 0,0" /></g><g
           transform="translate(52.6543,105.7072)"
           id="g792"><path
             id="path794"
             style="fill:#242c36;fill-opacity:1;fill-rule:nonzero;stroke:none"
             d="m 0,0 c 0.047,-0.453 -0.282,-0.859 -0.735,-0.906 -0.453,-0.047 -0.859,0.282 -0.906,0.735 -0.047,0.453 0.282,0.859 0.735,0.906 C -0.453,0.782 -0.047,0.453 0,0" /></g><g
           transform="translate(57.694,99.7358)"
           id="g796"><path
             id="path798"
             style="fill:#242c36;fill-opacity:1;fill-rule:nonzero;stroke:none"
             d="M 0,0 C 0.456,0 0.825,-0.369 0.825,-0.825 0.825,-1.281 0.456,-1.65 0,-1.65 c -0.456,0 -0.825,0.369 -0.825,0.825 C -0.825,-0.369 -0.456,0 0,0" /></g><g
           transform="translate(58.5146,105.7072)"
           id="g800"><path
             id="path802"
             style="fill:#242c36;fill-opacity:1;fill-rule:nonzero;stroke:none"
             d="m 0,0 c 0.047,-0.453 -0.282,-0.859 -0.735,-0.906 -0.453,-0.047 -0.859,0.282 -0.906,0.735 -0.047,0.453 0.282,0.859 0.735,0.906 C -0.453,0.782 -0.047,0.453 0,0" /></g></g></g></g></svg>