<?xml version="1.0" encoding="UTF-8" standalone="no"?>
<svg
   xmlns:dc="http://purl.org/dc/elements/1.1/"
   xmlns:cc="http://creativecommons.org/ns#"
   xmlns:rdf="http://www.w3.org/1999/02/22-rdf-syntax-ns#"
   xmlns:svg="http://www.w3.org/2000/svg"
   xmlns="http://www.w3.org/2000/svg"
   viewBox="0 0 120.98187 154.42934"
   height="154.42934"
   width="120.98187"
   xml:space="preserve"
   id="svg2"
   version="1.1"><metadata
     id="metadata8"><rdf:RDF><cc:Work
         rdf:about=""><dc:format>image/svg+xml</dc:format><dc:type
           rdf:resource="http://purl.org/dc/dcmitype/StillImage" /><dc:title></dc:title></cc:Work></rdf:RDF></metadata><defs
     id="defs6"><clipPath
       id="clipPath22"
       clipPathUnits="userSpaceOnUse"><path
         id="path20"
         d="M 0,115.822 H 90.736 V 0 H 0 Z" /></clipPath></defs><g
     transform="matrix(1.3333333,0,0,-1.3333333,0,154.42933)"
     id="g10"><g
       transform="translate(58.6341,97.2873)"
       id="g12"><path
         id="path14"
         style="fill:#ffcb0e;fill-opacity:1;fill-rule:nonzero;stroke:none"
         d="M 0,0 4.966,-18.535 18.535,-4.966 32.102,8.603 13.568,13.569 -4.966,18.535 Z" /></g><g
       id="g16"><g
         clip-path="url(#clipPath22)"
         id="g18"><g
           transform="translate(9.1758,67.1022)"
           id="g24"><path
             id="path26"
             style="fill:#e2ddce;fill-opacity:1;fill-rule:nonzero;stroke:none"
             d="m 0,0 c -2.82,0 -5.115,-2.296 -5.115,-5.117 0,-2.819 2.295,-5.114 5.115,-5.114 2.822,0 5.116,2.295 5.116,5.114 C 5.116,-2.296 2.822,0 0,0 m 0,-14.292 c -5.059,0 -9.176,4.116 -9.176,9.175 0,5.061 4.117,9.178 9.176,9.178 5.061,0 9.178,-4.117 9.178,-9.178 0,-5.059 -4.117,-9.175 -9.178,-9.175" /></g><g
           transform="translate(58.565,48.8643)"
           id="g28"><path
             id="path30"
             style="fill:#ffcb0e;fill-opacity:1;fill-rule:nonzero;stroke:none"
             d="m 0,0 c 0.76,0 1.52,-0.29 2.099,-0.87 1.16,-1.159 1.16,-3.04 0,-4.199 l -42.676,-42.676 c -1.16,-1.159 -3.039,-1.159 -4.199,0 -1.16,1.16 -1.16,3.04 0,4.2 L -2.1,-0.87 C -1.52,-0.29 -0.76,0 0,0" /></g><g
           transform="translate(58.565,48.8643)"
           id="g32"><path
             id="path34"
             style="fill:none;stroke:#f5f9fa;stroke-width:0.5;stroke-linecap:butt;stroke-linejoin:miter;stroke-miterlimit:10;stroke-dasharray:none;stroke-opacity:1"
             d="m 0,0 c 0.76,0 1.52,-0.29 2.099,-0.87 1.16,-1.159 1.16,-3.04 0,-4.199 l -42.676,-42.676 c -1.16,-1.159 -3.039,-1.159 -4.199,0 -1.16,1.16 -1.16,3.04 0,4.2 L -2.1,-0.87 C -1.52,-0.29 -0.76,0 0,0 Z" /></g></g></g></g></svg>