<?xml version="1.0" encoding="UTF-8" standalone="no"?>
<!-- Created with Inkscape (http://www.inkscape.org/) -->

<svg
   xmlns:dc="http://purl.org/dc/elements/1.1/"
   xmlns:cc="http://creativecommons.org/ns#"
   xmlns:rdf="http://www.w3.org/1999/02/22-rdf-syntax-ns#"
   xmlns:svg="http://www.w3.org/2000/svg"
   xmlns="http://www.w3.org/2000/svg"
   xmlns:sodipodi="http://sodipodi.sourceforge.net/DTD/sodipodi-0.dtd"
   xmlns:inkscape="http://www.inkscape.org/namespaces/inkscape"
   version="1.1"
   id="svg2"
   xml:space="preserve"
   width="142.52"
   height="168.772"
   viewBox="0 0 142.52 168.772"
   sodipodi:docname="10.svg"
   inkscape:version="0.92.4 (5da689c313, 2019-01-14)"><metadata
     id="metadata8"><rdf:RDF><cc:Work
         rdf:about=""><dc:format>image/svg+xml</dc:format><dc:type
           rdf:resource="http://purl.org/dc/dcmitype/StillImage" /><dc:title></dc:title></cc:Work></rdf:RDF></metadata><defs
     id="defs6"><clipPath
       clipPathUnits="userSpaceOnUse"
       id="clipPath22"><path
         d="M 61.339,93.831 22.991,27.411 h 76.695 z"
         id="path20"
         inkscape:connector-curvature="0" /></clipPath></defs><sodipodi:namedview
     pagecolor="#ffffff"
     bordercolor="#666666"
     borderopacity="1"
     objecttolerance="10"
     gridtolerance="10"
     guidetolerance="10"
     inkscape:pageopacity="0"
     inkscape:pageshadow="2"
     inkscape:window-width="640"
     inkscape:window-height="480"
     id="namedview4"
     showgrid="false"
     inkscape:zoom="1.3983362"
     inkscape:cx="71.260002"
     inkscape:cy="84.386002"
     inkscape:window-x="0"
     inkscape:window-y="0"
     inkscape:window-maximized="0"
     inkscape:current-layer="g10" /><g
     id="g10"
     inkscape:groupmode="layer"
     inkscape:label="Векторный смарт-объект4"
     transform="matrix(1.3333333,0,0,-1.3333333,0,168.772)"><g
       id="g12"
       transform="translate(20.3058,74.1546)"><path
         d="M 0,0 -20.306,-35.171 H 20.306 60.917 L 40.611,0 20.306,35.17 Z"
         style="fill:#f5ca33;fill-opacity:1;fill-rule:nonzero;stroke:none"
         id="path14"
         inkscape:connector-curvature="0" /></g><g
       id="g16"><g
         id="g18"
         clip-path="url(#clipPath22)"><g
           id="g24"
           transform="translate(62.7262,27.7537)"><path
             d="m 0,0 c 0.047,-0.453 -0.282,-0.859 -0.735,-0.906 -0.453,-0.047 -0.859,0.282 -0.906,0.735 -0.047,0.453 0.282,0.859 0.735,0.906 C -0.453,0.782 -0.047,0.453 0,0"
             style="fill:#242c36;fill-opacity:1;fill-rule:nonzero;stroke:none"
             id="path26"
             inkscape:connector-curvature="0" /></g><g
           id="g28"
           transform="translate(68.5865,27.7537)"><path
             d="m 0,0 c 0.047,-0.453 -0.282,-0.859 -0.735,-0.906 -0.453,-0.047 -0.859,0.282 -0.906,0.735 -0.047,0.453 0.282,0.859 0.735,0.906 C -0.453,0.782 -0.047,0.453 0,0"
             style="fill:#242c36;fill-opacity:1;fill-rule:nonzero;stroke:none"
             id="path30"
             inkscape:connector-curvature="0" /></g><g
           id="g32"
           transform="translate(74.8255,27.7537)"><path
             d="m 0,0 c 0.047,-0.453 -0.282,-0.859 -0.735,-0.906 -0.453,-0.047 -0.859,0.282 -0.906,0.735 -0.047,0.453 0.282,0.859 0.735,0.906 C -0.453,0.782 -0.047,0.453 0,0"
             style="fill:#242c36;fill-opacity:1;fill-rule:nonzero;stroke:none"
             id="path34"
             inkscape:connector-curvature="0" /></g><g
           id="g36"
           transform="translate(80.6858,27.7537)"><path
             d="m 0,0 c 0.047,-0.453 -0.282,-0.859 -0.735,-0.906 -0.453,-0.047 -0.859,0.282 -0.906,0.735 -0.047,0.453 0.282,0.859 0.735,0.906 C -0.453,0.782 -0.047,0.453 0,0"
             style="fill:#242c36;fill-opacity:1;fill-rule:nonzero;stroke:none"
             id="path38"
             inkscape:connector-curvature="0" /></g><g
           id="g40"
           transform="translate(85.8482,27.7537)"><path
             d="m 0,0 c 0.047,-0.453 -0.282,-0.859 -0.735,-0.906 -0.453,-0.047 -0.859,0.282 -0.906,0.735 -0.047,0.453 0.282,0.859 0.735,0.906 C -0.453,0.782 -0.047,0.453 0,0"
             style="fill:#242c36;fill-opacity:1;fill-rule:nonzero;stroke:none"
             id="path42"
             inkscape:connector-curvature="0" /></g><g
           id="g44"
           transform="translate(91.7085,27.7537)"><path
             d="m 0,0 c 0.047,-0.453 -0.282,-0.859 -0.735,-0.906 -0.453,-0.047 -0.859,0.282 -0.906,0.735 -0.047,0.453 0.282,0.859 0.735,0.906 C -0.453,0.782 -0.047,0.453 0,0"
             style="fill:#242c36;fill-opacity:1;fill-rule:nonzero;stroke:none"
             id="path46"
             inkscape:connector-curvature="0" /></g><g
           id="g48"
           transform="translate(97.9475,27.7537)"><path
             d="m 0,0 c 0.047,-0.453 -0.282,-0.859 -0.735,-0.906 -0.453,-0.047 -0.859,0.282 -0.906,0.735 -0.047,0.453 0.282,0.859 0.735,0.906 C -0.453,0.782 -0.047,0.453 0,0"
             style="fill:#242c36;fill-opacity:1;fill-rule:nonzero;stroke:none"
             id="path50"
             inkscape:connector-curvature="0" /></g><g
           id="g52"
           transform="translate(14.3553,27.7537)"><path
             d="m 0,0 c 0.047,-0.453 -0.282,-0.859 -0.735,-0.906 -0.453,-0.047 -0.859,0.282 -0.906,0.735 -0.047,0.453 0.282,0.859 0.735,0.906 C -0.453,0.782 -0.047,0.453 0,0"
             style="fill:#242c36;fill-opacity:1;fill-rule:nonzero;stroke:none"
             id="path54"
             inkscape:connector-curvature="0" /></g><g
           id="g56"
           transform="translate(20.2156,27.7537)"><path
             d="m 0,0 c 0.047,-0.453 -0.282,-0.859 -0.735,-0.906 -0.453,-0.047 -0.859,0.282 -0.906,0.735 -0.047,0.453 0.282,0.859 0.735,0.906 C -0.453,0.782 -0.047,0.453 0,0"
             style="fill:#242c36;fill-opacity:1;fill-rule:nonzero;stroke:none"
             id="path58"
             inkscape:connector-curvature="0" /></g><g
           id="g60"
           transform="translate(26.4545,27.7537)"><path
             d="m 0,0 c 0.047,-0.453 -0.282,-0.859 -0.735,-0.906 -0.453,-0.047 -0.859,0.282 -0.906,0.735 -0.047,0.453 0.282,0.859 0.735,0.906 C -0.453,0.782 -0.047,0.453 0,0"
             style="fill:#242c36;fill-opacity:1;fill-rule:nonzero;stroke:none"
             id="path62"
             inkscape:connector-curvature="0" /></g><g
           id="g64"
           transform="translate(32.3148,27.7537)"><path
             d="m 0,0 c 0.047,-0.453 -0.282,-0.859 -0.735,-0.906 -0.453,-0.047 -0.859,0.282 -0.906,0.735 -0.047,0.453 0.282,0.859 0.735,0.906 C -0.453,0.782 -0.047,0.453 0,0"
             style="fill:#242c36;fill-opacity:1;fill-rule:nonzero;stroke:none"
             id="path66"
             inkscape:connector-curvature="0" /></g><g
           id="g68"
           transform="translate(37.4773,27.7537)"><path
             d="m 0,0 c 0.047,-0.453 -0.282,-0.859 -0.735,-0.906 -0.453,-0.047 -0.859,0.282 -0.906,0.735 -0.047,0.453 0.282,0.859 0.735,0.906 C -0.453,0.782 -0.047,0.453 0,0"
             style="fill:#242c36;fill-opacity:1;fill-rule:nonzero;stroke:none"
             id="path70"
             inkscape:connector-curvature="0" /></g><g
           id="g72"
           transform="translate(43.3376,27.7537)"><path
             d="m 0,0 c 0.047,-0.453 -0.282,-0.859 -0.735,-0.906 -0.453,-0.047 -0.859,0.282 -0.906,0.735 -0.047,0.453 0.282,0.859 0.735,0.906 C -0.453,0.782 -0.047,0.453 0,0"
             style="fill:#242c36;fill-opacity:1;fill-rule:nonzero;stroke:none"
             id="path74"
             inkscape:connector-curvature="0" /></g><g
           id="g76"
           transform="translate(49.5765,27.7537)"><path
             d="m 0,0 c 0.047,-0.453 -0.282,-0.859 -0.735,-0.906 -0.453,-0.047 -0.859,0.282 -0.906,0.735 -0.047,0.453 0.282,0.859 0.735,0.906 C -0.453,0.782 -0.047,0.453 0,0"
             style="fill:#242c36;fill-opacity:1;fill-rule:nonzero;stroke:none"
             id="path78"
             inkscape:connector-curvature="0" /></g><g
           id="g80"
           transform="translate(55.4368,27.7537)"><path
             d="m 0,0 c 0.047,-0.453 -0.282,-0.859 -0.735,-0.906 -0.453,-0.047 -0.859,0.282 -0.906,0.735 -0.047,0.453 0.282,0.859 0.735,0.906 C -0.453,0.782 -0.047,0.453 0,0"
             style="fill:#242c36;fill-opacity:1;fill-rule:nonzero;stroke:none"
             id="path82"
             inkscape:connector-curvature="0" /></g><g
           id="g84"
           transform="translate(61.9057,34.8866)"><path
             d="M 0,0 C 0.456,0 0.825,-0.369 0.825,-0.825 0.825,-1.281 0.456,-1.65 0,-1.65 c -0.456,0 -0.825,0.369 -0.825,0.825 C -0.825,-0.369 -0.456,0 0,0"
             style="fill:#242c36;fill-opacity:1;fill-rule:nonzero;stroke:none"
             id="path86"
             inkscape:connector-curvature="0" /></g><g
           id="g88"
           transform="translate(62.7262,40.8579)"><path
             d="m 0,0 c 0.047,-0.453 -0.282,-0.859 -0.735,-0.906 -0.453,-0.047 -0.859,0.282 -0.906,0.735 -0.047,0.453 0.282,0.859 0.735,0.906 C -0.453,0.782 -0.047,0.453 0,0"
             style="fill:#242c36;fill-opacity:1;fill-rule:nonzero;stroke:none"
             id="path90"
             inkscape:connector-curvature="0" /></g><g
           id="g92"
           transform="translate(62.7262,47.5687)"><path
             d="m 0,0 c 0.047,-0.453 -0.282,-0.859 -0.735,-0.906 -0.453,-0.047 -0.859,0.282 -0.906,0.735 -0.047,0.453 0.282,0.859 0.735,0.906 C -0.453,0.782 -0.047,0.453 0,0"
             style="fill:#242c36;fill-opacity:1;fill-rule:nonzero;stroke:none"
             id="path94"
             inkscape:connector-curvature="0" /></g><g
           id="g96"
           transform="translate(62.7262,60.9903)"><path
             d="m 0,0 c 0.047,-0.453 -0.282,-0.859 -0.735,-0.906 -0.453,-0.047 -0.859,0.282 -0.906,0.735 -0.047,0.453 0.282,0.859 0.735,0.906 C -0.453,0.782 -0.047,0.453 0,0"
             style="fill:#242c36;fill-opacity:1;fill-rule:nonzero;stroke:none"
             id="path98"
             inkscape:connector-curvature="0" /></g><g
           id="g100"
           transform="translate(62.7262,54.2795)"><path
             d="m 0,0 c 0.047,-0.453 -0.282,-0.859 -0.735,-0.906 -0.453,-0.047 -0.859,0.282 -0.906,0.735 -0.047,0.453 0.282,0.859 0.735,0.906 C -0.453,0.782 -0.047,0.453 0,0"
             style="fill:#242c36;fill-opacity:1;fill-rule:nonzero;stroke:none"
             id="path102"
             inkscape:connector-curvature="0" /></g><g
           id="g104"
           transform="translate(67.766,34.8866)"><path
             d="M 0,0 C 0.456,0 0.825,-0.369 0.825,-0.825 0.825,-1.281 0.456,-1.65 0,-1.65 c -0.456,0 -0.825,0.369 -0.825,0.825 C -0.825,-0.369 -0.456,0 0,0"
             style="fill:#242c36;fill-opacity:1;fill-rule:nonzero;stroke:none"
             id="path106"
             inkscape:connector-curvature="0" /></g><g
           id="g108"
           transform="translate(68.5865,40.8579)"><path
             d="m 0,0 c 0.047,-0.453 -0.282,-0.859 -0.735,-0.906 -0.453,-0.047 -0.859,0.282 -0.906,0.735 -0.047,0.453 0.282,0.859 0.735,0.906 C -0.453,0.782 -0.047,0.453 0,0"
             style="fill:#242c36;fill-opacity:1;fill-rule:nonzero;stroke:none"
             id="path110"
             inkscape:connector-curvature="0" /></g><g
           id="g112"
           transform="translate(68.5865,47.5687)"><path
             d="m 0,0 c 0.047,-0.453 -0.282,-0.859 -0.735,-0.906 -0.453,-0.047 -0.859,0.282 -0.906,0.735 -0.047,0.453 0.282,0.859 0.735,0.906 C -0.453,0.782 -0.047,0.453 0,0"
             style="fill:#242c36;fill-opacity:1;fill-rule:nonzero;stroke:none"
             id="path114"
             inkscape:connector-curvature="0" /></g><g
           id="g116"
           transform="translate(68.5865,60.9903)"><path
             d="m 0,0 c 0.047,-0.453 -0.282,-0.859 -0.735,-0.906 -0.453,-0.047 -0.859,0.282 -0.906,0.735 -0.047,0.453 0.282,0.859 0.735,0.906 C -0.453,0.782 -0.047,0.453 0,0"
             style="fill:#242c36;fill-opacity:1;fill-rule:nonzero;stroke:none"
             id="path118"
             inkscape:connector-curvature="0" /></g><g
           id="g120"
           transform="translate(68.5865,54.2795)"><path
             d="m 0,0 c 0.047,-0.453 -0.282,-0.859 -0.735,-0.906 -0.453,-0.047 -0.859,0.282 -0.906,0.735 -0.047,0.453 0.282,0.859 0.735,0.906 C -0.453,0.782 -0.047,0.453 0,0"
             style="fill:#242c36;fill-opacity:1;fill-rule:nonzero;stroke:none"
             id="path122"
             inkscape:connector-curvature="0" /></g><g
           id="g124"
           transform="translate(74.005,34.8866)"><path
             d="M 0,0 C 0.456,0 0.825,-0.369 0.825,-0.825 0.825,-1.281 0.456,-1.65 0,-1.65 c -0.456,0 -0.825,0.369 -0.825,0.825 C -0.825,-0.369 -0.456,0 0,0"
             style="fill:#242c36;fill-opacity:1;fill-rule:nonzero;stroke:none"
             id="path126"
             inkscape:connector-curvature="0" /></g><g
           id="g128"
           transform="translate(74.8255,40.8579)"><path
             d="m 0,0 c 0.047,-0.453 -0.282,-0.859 -0.735,-0.906 -0.453,-0.047 -0.859,0.282 -0.906,0.735 -0.047,0.453 0.282,0.859 0.735,0.906 C -0.453,0.782 -0.047,0.453 0,0"
             style="fill:#242c36;fill-opacity:1;fill-rule:nonzero;stroke:none"
             id="path130"
             inkscape:connector-curvature="0" /></g><g
           id="g132"
           transform="translate(74.8255,47.5687)"><path
             d="m 0,0 c 0.047,-0.453 -0.282,-0.859 -0.735,-0.906 -0.453,-0.047 -0.859,0.282 -0.906,0.735 -0.047,0.453 0.282,0.859 0.735,0.906 C -0.453,0.782 -0.047,0.453 0,0"
             style="fill:#242c36;fill-opacity:1;fill-rule:nonzero;stroke:none"
             id="path134"
             inkscape:connector-curvature="0" /></g><g
           id="g136"
           transform="translate(74.8255,60.9903)"><path
             d="m 0,0 c 0.047,-0.453 -0.282,-0.859 -0.735,-0.906 -0.453,-0.047 -0.859,0.282 -0.906,0.735 -0.047,0.453 0.282,0.859 0.735,0.906 C -0.453,0.782 -0.047,0.453 0,0"
             style="fill:#242c36;fill-opacity:1;fill-rule:nonzero;stroke:none"
             id="path138"
             inkscape:connector-curvature="0" /></g><g
           id="g140"
           transform="translate(74.8255,54.2795)"><path
             d="m 0,0 c 0.047,-0.453 -0.282,-0.859 -0.735,-0.906 -0.453,-0.047 -0.859,0.282 -0.906,0.735 -0.047,0.453 0.282,0.859 0.735,0.906 C -0.453,0.782 -0.047,0.453 0,0"
             style="fill:#242c36;fill-opacity:1;fill-rule:nonzero;stroke:none"
             id="path142"
             inkscape:connector-curvature="0" /></g><g
           id="g144"
           transform="translate(79.8653,34.8866)"><path
             d="M 0,0 C 0.456,0 0.825,-0.369 0.825,-0.825 0.825,-1.281 0.456,-1.65 0,-1.65 c -0.456,0 -0.825,0.369 -0.825,0.825 C -0.825,-0.369 -0.456,0 0,0"
             style="fill:#242c36;fill-opacity:1;fill-rule:nonzero;stroke:none"
             id="path146"
             inkscape:connector-curvature="0" /></g><g
           id="g148"
           transform="translate(80.6858,40.8579)"><path
             d="m 0,0 c 0.047,-0.453 -0.282,-0.859 -0.735,-0.906 -0.453,-0.047 -0.859,0.282 -0.906,0.735 -0.047,0.453 0.282,0.859 0.735,0.906 C -0.453,0.782 -0.047,0.453 0,0"
             style="fill:#242c36;fill-opacity:1;fill-rule:nonzero;stroke:none"
             id="path150"
             inkscape:connector-curvature="0" /></g><g
           id="g152"
           transform="translate(80.6858,47.5687)"><path
             d="m 0,0 c 0.047,-0.453 -0.282,-0.859 -0.735,-0.906 -0.453,-0.047 -0.859,0.282 -0.906,0.735 -0.047,0.453 0.282,0.859 0.735,0.906 C -0.453,0.782 -0.047,0.453 0,0"
             style="fill:#242c36;fill-opacity:1;fill-rule:nonzero;stroke:none"
             id="path154"
             inkscape:connector-curvature="0" /></g><g
           id="g156"
           transform="translate(80.6858,60.9903)"><path
             d="m 0,0 c 0.047,-0.453 -0.282,-0.859 -0.735,-0.906 -0.453,-0.047 -0.859,0.282 -0.906,0.735 -0.047,0.453 0.282,0.859 0.735,0.906 C -0.453,0.782 -0.047,0.453 0,0"
             style="fill:#242c36;fill-opacity:1;fill-rule:nonzero;stroke:none"
             id="path158"
             inkscape:connector-curvature="0" /></g><g
           id="g160"
           transform="translate(80.6858,54.2795)"><path
             d="m 0,0 c 0.047,-0.453 -0.282,-0.859 -0.735,-0.906 -0.453,-0.047 -0.859,0.282 -0.906,0.735 -0.047,0.453 0.282,0.859 0.735,0.906 C -0.453,0.782 -0.047,0.453 0,0"
             style="fill:#242c36;fill-opacity:1;fill-rule:nonzero;stroke:none"
             id="path162"
             inkscape:connector-curvature="0" /></g><g
           id="g164"
           transform="translate(85.0277,34.8866)"><path
             d="M 0,0 C 0.456,0 0.825,-0.369 0.825,-0.825 0.825,-1.281 0.456,-1.65 0,-1.65 c -0.456,0 -0.825,0.369 -0.825,0.825 C -0.825,-0.369 -0.456,0 0,0"
             style="fill:#242c36;fill-opacity:1;fill-rule:nonzero;stroke:none"
             id="path166"
             inkscape:connector-curvature="0" /></g><g
           id="g168"
           transform="translate(85.8482,40.8579)"><path
             d="m 0,0 c 0.047,-0.453 -0.282,-0.859 -0.735,-0.906 -0.453,-0.047 -0.859,0.282 -0.906,0.735 -0.047,0.453 0.282,0.859 0.735,0.906 C -0.453,0.782 -0.047,0.453 0,0"
             style="fill:#242c36;fill-opacity:1;fill-rule:nonzero;stroke:none"
             id="path170"
             inkscape:connector-curvature="0" /></g><g
           id="g172"
           transform="translate(85.8482,47.5687)"><path
             d="m 0,0 c 0.047,-0.453 -0.282,-0.859 -0.735,-0.906 -0.453,-0.047 -0.859,0.282 -0.906,0.735 -0.047,0.453 0.282,0.859 0.735,0.906 C -0.453,0.782 -0.047,0.453 0,0"
             style="fill:#242c36;fill-opacity:1;fill-rule:nonzero;stroke:none"
             id="path174"
             inkscape:connector-curvature="0" /></g><g
           id="g176"
           transform="translate(85.8482,60.9903)"><path
             d="m 0,0 c 0.047,-0.453 -0.282,-0.859 -0.735,-0.906 -0.453,-0.047 -0.859,0.282 -0.906,0.735 -0.047,0.453 0.282,0.859 0.735,0.906 C -0.453,0.782 -0.047,0.453 0,0"
             style="fill:#242c36;fill-opacity:1;fill-rule:nonzero;stroke:none"
             id="path178"
             inkscape:connector-curvature="0" /></g><g
           id="g180"
           transform="translate(85.8482,54.2795)"><path
             d="m 0,0 c 0.047,-0.453 -0.282,-0.859 -0.735,-0.906 -0.453,-0.047 -0.859,0.282 -0.906,0.735 -0.047,0.453 0.282,0.859 0.735,0.906 C -0.453,0.782 -0.047,0.453 0,0"
             style="fill:#242c36;fill-opacity:1;fill-rule:nonzero;stroke:none"
             id="path182"
             inkscape:connector-curvature="0" /></g><g
           id="g184"
           transform="translate(90.888,34.8866)"><path
             d="M 0,0 C 0.456,0 0.825,-0.369 0.825,-0.825 0.825,-1.281 0.456,-1.65 0,-1.65 c -0.456,0 -0.825,0.369 -0.825,0.825 C -0.825,-0.369 -0.456,0 0,0"
             style="fill:#242c36;fill-opacity:1;fill-rule:nonzero;stroke:none"
             id="path186"
             inkscape:connector-curvature="0" /></g><g
           id="g188"
           transform="translate(91.7085,40.8579)"><path
             d="m 0,0 c 0.047,-0.453 -0.282,-0.859 -0.735,-0.906 -0.453,-0.047 -0.859,0.282 -0.906,0.735 -0.047,0.453 0.282,0.859 0.735,0.906 C -0.453,0.782 -0.047,0.453 0,0"
             style="fill:#242c36;fill-opacity:1;fill-rule:nonzero;stroke:none"
             id="path190"
             inkscape:connector-curvature="0" /></g><g
           id="g192"
           transform="translate(91.7085,47.5687)"><path
             d="m 0,0 c 0.047,-0.453 -0.282,-0.859 -0.735,-0.906 -0.453,-0.047 -0.859,0.282 -0.906,0.735 -0.047,0.453 0.282,0.859 0.735,0.906 C -0.453,0.782 -0.047,0.453 0,0"
             style="fill:#242c36;fill-opacity:1;fill-rule:nonzero;stroke:none"
             id="path194"
             inkscape:connector-curvature="0" /></g><g
           id="g196"
           transform="translate(91.7085,60.9903)"><path
             d="m 0,0 c 0.047,-0.453 -0.282,-0.859 -0.735,-0.906 -0.453,-0.047 -0.859,0.282 -0.906,0.735 -0.047,0.453 0.282,0.859 0.735,0.906 C -0.453,0.782 -0.047,0.453 0,0"
             style="fill:#242c36;fill-opacity:1;fill-rule:nonzero;stroke:none"
             id="path198"
             inkscape:connector-curvature="0" /></g><g
           id="g200"
           transform="translate(91.7085,54.2795)"><path
             d="m 0,0 c 0.047,-0.453 -0.282,-0.859 -0.735,-0.906 -0.453,-0.047 -0.859,0.282 -0.906,0.735 -0.047,0.453 0.282,0.859 0.735,0.906 C -0.453,0.782 -0.047,0.453 0,0"
             style="fill:#242c36;fill-opacity:1;fill-rule:nonzero;stroke:none"
             id="path202"
             inkscape:connector-curvature="0" /></g><g
           id="g204"
           transform="translate(97.127,34.8866)"><path
             d="M 0,0 C 0.456,0 0.825,-0.369 0.825,-0.825 0.825,-1.281 0.456,-1.65 0,-1.65 c -0.456,0 -0.825,0.369 -0.825,0.825 C -0.825,-0.369 -0.456,0 0,0"
             style="fill:#242c36;fill-opacity:1;fill-rule:nonzero;stroke:none"
             id="path206"
             inkscape:connector-curvature="0" /></g><g
           id="g208"
           transform="translate(97.9475,40.8579)"><path
             d="m 0,0 c 0.047,-0.453 -0.282,-0.859 -0.735,-0.906 -0.453,-0.047 -0.859,0.282 -0.906,0.735 -0.047,0.453 0.282,0.859 0.735,0.906 C -0.453,0.782 -0.047,0.453 0,0"
             style="fill:#242c36;fill-opacity:1;fill-rule:nonzero;stroke:none"
             id="path210"
             inkscape:connector-curvature="0" /></g><g
           id="g212"
           transform="translate(97.9475,47.5687)"><path
             d="m 0,0 c 0.047,-0.453 -0.282,-0.859 -0.735,-0.906 -0.453,-0.047 -0.859,0.282 -0.906,0.735 -0.047,0.453 0.282,0.859 0.735,0.906 C -0.453,0.782 -0.047,0.453 0,0"
             style="fill:#242c36;fill-opacity:1;fill-rule:nonzero;stroke:none"
             id="path214"
             inkscape:connector-curvature="0" /></g><g
           id="g216"
           transform="translate(97.9475,60.9903)"><path
             d="m 0,0 c 0.047,-0.453 -0.282,-0.859 -0.735,-0.906 -0.453,-0.047 -0.859,0.282 -0.906,0.735 -0.047,0.453 0.282,0.859 0.735,0.906 C -0.453,0.782 -0.047,0.453 0,0"
             style="fill:#242c36;fill-opacity:1;fill-rule:nonzero;stroke:none"
             id="path218"
             inkscape:connector-curvature="0" /></g><g
           id="g220"
           transform="translate(97.9475,54.2795)"><path
             d="m 0,0 c 0.047,-0.453 -0.282,-0.859 -0.735,-0.906 -0.453,-0.047 -0.859,0.282 -0.906,0.735 -0.047,0.453 0.282,0.859 0.735,0.906 C -0.453,0.782 -0.047,0.453 0,0"
             style="fill:#242c36;fill-opacity:1;fill-rule:nonzero;stroke:none"
             id="path222"
             inkscape:connector-curvature="0" /></g><g
           id="g224"
           transform="translate(13.5348,34.8866)"><path
             d="M 0,0 C 0.456,0 0.825,-0.369 0.825,-0.825 0.825,-1.281 0.456,-1.65 0,-1.65 c -0.456,0 -0.825,0.369 -0.825,0.825 C -0.825,-0.369 -0.456,0 0,0"
             style="fill:#242c36;fill-opacity:1;fill-rule:nonzero;stroke:none"
             id="path226"
             inkscape:connector-curvature="0" /></g><g
           id="g228"
           transform="translate(14.3553,40.8579)"><path
             d="m 0,0 c 0.047,-0.453 -0.282,-0.859 -0.735,-0.906 -0.453,-0.047 -0.859,0.282 -0.906,0.735 -0.047,0.453 0.282,0.859 0.735,0.906 C -0.453,0.782 -0.047,0.453 0,0"
             style="fill:#242c36;fill-opacity:1;fill-rule:nonzero;stroke:none"
             id="path230"
             inkscape:connector-curvature="0" /></g><g
           id="g232"
           transform="translate(14.3553,47.5687)"><path
             d="m 0,0 c 0.047,-0.453 -0.282,-0.859 -0.735,-0.906 -0.453,-0.047 -0.859,0.282 -0.906,0.735 -0.047,0.453 0.282,0.859 0.735,0.906 C -0.453,0.782 -0.047,0.453 0,0"
             style="fill:#242c36;fill-opacity:1;fill-rule:nonzero;stroke:none"
             id="path234"
             inkscape:connector-curvature="0" /></g><g
           id="g236"
           transform="translate(14.3553,60.9903)"><path
             d="m 0,0 c 0.047,-0.453 -0.282,-0.859 -0.735,-0.906 -0.453,-0.047 -0.859,0.282 -0.906,0.735 -0.047,0.453 0.282,0.859 0.735,0.906 C -0.453,0.782 -0.047,0.453 0,0"
             style="fill:#242c36;fill-opacity:1;fill-rule:nonzero;stroke:none"
             id="path238"
             inkscape:connector-curvature="0" /></g><g
           id="g240"
           transform="translate(14.3553,54.2795)"><path
             d="m 0,0 c 0.047,-0.453 -0.282,-0.859 -0.735,-0.906 -0.453,-0.047 -0.859,0.282 -0.906,0.735 -0.047,0.453 0.282,0.859 0.735,0.906 C -0.453,0.782 -0.047,0.453 0,0"
             style="fill:#242c36;fill-opacity:1;fill-rule:nonzero;stroke:none"
             id="path242"
             inkscape:connector-curvature="0" /></g><g
           id="g244"
           transform="translate(19.395,34.8866)"><path
             d="M 0,0 C 0.456,0 0.825,-0.369 0.825,-0.825 0.825,-1.281 0.456,-1.65 0,-1.65 c -0.456,0 -0.825,0.369 -0.825,0.825 C -0.825,-0.369 -0.456,0 0,0"
             style="fill:#242c36;fill-opacity:1;fill-rule:nonzero;stroke:none"
             id="path246"
             inkscape:connector-curvature="0" /></g><g
           id="g248"
           transform="translate(20.2156,40.8579)"><path
             d="m 0,0 c 0.047,-0.453 -0.282,-0.859 -0.735,-0.906 -0.453,-0.047 -0.859,0.282 -0.906,0.735 -0.047,0.453 0.282,0.859 0.735,0.906 C -0.453,0.782 -0.047,0.453 0,0"
             style="fill:#242c36;fill-opacity:1;fill-rule:nonzero;stroke:none"
             id="path250"
             inkscape:connector-curvature="0" /></g><g
           id="g252"
           transform="translate(20.2156,47.5687)"><path
             d="m 0,0 c 0.047,-0.453 -0.282,-0.859 -0.735,-0.906 -0.453,-0.047 -0.859,0.282 -0.906,0.735 -0.047,0.453 0.282,0.859 0.735,0.906 C -0.453,0.782 -0.047,0.453 0,0"
             style="fill:#242c36;fill-opacity:1;fill-rule:nonzero;stroke:none"
             id="path254"
             inkscape:connector-curvature="0" /></g><g
           id="g256"
           transform="translate(20.2156,60.9903)"><path
             d="m 0,0 c 0.047,-0.453 -0.282,-0.859 -0.735,-0.906 -0.453,-0.047 -0.859,0.282 -0.906,0.735 -0.047,0.453 0.282,0.859 0.735,0.906 C -0.453,0.782 -0.047,0.453 0,0"
             style="fill:#242c36;fill-opacity:1;fill-rule:nonzero;stroke:none"
             id="path258"
             inkscape:connector-curvature="0" /></g><g
           id="g260"
           transform="translate(20.2156,54.2795)"><path
             d="m 0,0 c 0.047,-0.453 -0.282,-0.859 -0.735,-0.906 -0.453,-0.047 -0.859,0.282 -0.906,0.735 -0.047,0.453 0.282,0.859 0.735,0.906 C -0.453,0.782 -0.047,0.453 0,0"
             style="fill:#242c36;fill-opacity:1;fill-rule:nonzero;stroke:none"
             id="path262"
             inkscape:connector-curvature="0" /></g><g
           id="g264"
           transform="translate(25.634,34.8866)"><path
             d="M 0,0 C 0.456,0 0.825,-0.369 0.825,-0.825 0.825,-1.281 0.456,-1.65 0,-1.65 c -0.456,0 -0.825,0.369 -0.825,0.825 C -0.825,-0.369 -0.456,0 0,0"
             style="fill:#242c36;fill-opacity:1;fill-rule:nonzero;stroke:none"
             id="path266"
             inkscape:connector-curvature="0" /></g><g
           id="g268"
           transform="translate(26.4545,40.8579)"><path
             d="m 0,0 c 0.047,-0.453 -0.282,-0.859 -0.735,-0.906 -0.453,-0.047 -0.859,0.282 -0.906,0.735 -0.047,0.453 0.282,0.859 0.735,0.906 C -0.453,0.782 -0.047,0.453 0,0"
             style="fill:#242c36;fill-opacity:1;fill-rule:nonzero;stroke:none"
             id="path270"
             inkscape:connector-curvature="0" /></g><g
           id="g272"
           transform="translate(26.4545,47.5687)"><path
             d="m 0,0 c 0.047,-0.453 -0.282,-0.859 -0.735,-0.906 -0.453,-0.047 -0.859,0.282 -0.906,0.735 -0.047,0.453 0.282,0.859 0.735,0.906 C -0.453,0.782 -0.047,0.453 0,0"
             style="fill:#242c36;fill-opacity:1;fill-rule:nonzero;stroke:none"
             id="path274"
             inkscape:connector-curvature="0" /></g><g
           id="g276"
           transform="translate(26.4545,60.9903)"><path
             d="m 0,0 c 0.047,-0.453 -0.282,-0.859 -0.735,-0.906 -0.453,-0.047 -0.859,0.282 -0.906,0.735 -0.047,0.453 0.282,0.859 0.735,0.906 C -0.453,0.782 -0.047,0.453 0,0"
             style="fill:#242c36;fill-opacity:1;fill-rule:nonzero;stroke:none"
             id="path278"
             inkscape:connector-curvature="0" /></g><g
           id="g280"
           transform="translate(26.4545,54.2795)"><path
             d="m 0,0 c 0.047,-0.453 -0.282,-0.859 -0.735,-0.906 -0.453,-0.047 -0.859,0.282 -0.906,0.735 -0.047,0.453 0.282,0.859 0.735,0.906 C -0.453,0.782 -0.047,0.453 0,0"
             style="fill:#242c36;fill-opacity:1;fill-rule:nonzero;stroke:none"
             id="path282"
             inkscape:connector-curvature="0" /></g><g
           id="g284"
           transform="translate(31.4943,34.8866)"><path
             d="M 0,0 C 0.456,0 0.825,-0.369 0.825,-0.825 0.825,-1.281 0.456,-1.65 0,-1.65 c -0.456,0 -0.825,0.369 -0.825,0.825 C -0.825,-0.369 -0.456,0 0,0"
             style="fill:#242c36;fill-opacity:1;fill-rule:nonzero;stroke:none"
             id="path286"
             inkscape:connector-curvature="0" /></g><g
           id="g288"
           transform="translate(32.3148,40.8579)"><path
             d="m 0,0 c 0.047,-0.453 -0.282,-0.859 -0.735,-0.906 -0.453,-0.047 -0.859,0.282 -0.906,0.735 -0.047,0.453 0.282,0.859 0.735,0.906 C -0.453,0.782 -0.047,0.453 0,0"
             style="fill:#242c36;fill-opacity:1;fill-rule:nonzero;stroke:none"
             id="path290"
             inkscape:connector-curvature="0" /></g><g
           id="g292"
           transform="translate(32.3148,47.5687)"><path
             d="m 0,0 c 0.047,-0.453 -0.282,-0.859 -0.735,-0.906 -0.453,-0.047 -0.859,0.282 -0.906,0.735 -0.047,0.453 0.282,0.859 0.735,0.906 C -0.453,0.782 -0.047,0.453 0,0"
             style="fill:#242c36;fill-opacity:1;fill-rule:nonzero;stroke:none"
             id="path294"
             inkscape:connector-curvature="0" /></g><g
           id="g296"
           transform="translate(32.3148,60.9903)"><path
             d="m 0,0 c 0.047,-0.453 -0.282,-0.859 -0.735,-0.906 -0.453,-0.047 -0.859,0.282 -0.906,0.735 -0.047,0.453 0.282,0.859 0.735,0.906 C -0.453,0.782 -0.047,0.453 0,0"
             style="fill:#242c36;fill-opacity:1;fill-rule:nonzero;stroke:none"
             id="path298"
             inkscape:connector-curvature="0" /></g><g
           id="g300"
           transform="translate(32.3148,54.2795)"><path
             d="m 0,0 c 0.047,-0.453 -0.282,-0.859 -0.735,-0.906 -0.453,-0.047 -0.859,0.282 -0.906,0.735 -0.047,0.453 0.282,0.859 0.735,0.906 C -0.453,0.782 -0.047,0.453 0,0"
             style="fill:#242c36;fill-opacity:1;fill-rule:nonzero;stroke:none"
             id="path302"
             inkscape:connector-curvature="0" /></g><g
           id="g304"
           transform="translate(36.6568,34.8866)"><path
             d="M 0,0 C 0.456,0 0.825,-0.369 0.825,-0.825 0.825,-1.281 0.456,-1.65 0,-1.65 c -0.456,0 -0.825,0.369 -0.825,0.825 C -0.825,-0.369 -0.456,0 0,0"
             style="fill:#242c36;fill-opacity:1;fill-rule:nonzero;stroke:none"
             id="path306"
             inkscape:connector-curvature="0" /></g><g
           id="g308"
           transform="translate(37.4773,40.8579)"><path
             d="m 0,0 c 0.047,-0.453 -0.282,-0.859 -0.735,-0.906 -0.453,-0.047 -0.859,0.282 -0.906,0.735 -0.047,0.453 0.282,0.859 0.735,0.906 C -0.453,0.782 -0.047,0.453 0,0"
             style="fill:#242c36;fill-opacity:1;fill-rule:nonzero;stroke:none"
             id="path310"
             inkscape:connector-curvature="0" /></g><g
           id="g312"
           transform="translate(37.4773,47.5687)"><path
             d="m 0,0 c 0.047,-0.453 -0.282,-0.859 -0.735,-0.906 -0.453,-0.047 -0.859,0.282 -0.906,0.735 -0.047,0.453 0.282,0.859 0.735,0.906 C -0.453,0.782 -0.047,0.453 0,0"
             style="fill:#242c36;fill-opacity:1;fill-rule:nonzero;stroke:none"
             id="path314"
             inkscape:connector-curvature="0" /></g><g
           id="g316"
           transform="translate(37.4773,60.9903)"><path
             d="m 0,0 c 0.047,-0.453 -0.282,-0.859 -0.735,-0.906 -0.453,-0.047 -0.859,0.282 -0.906,0.735 -0.047,0.453 0.282,0.859 0.735,0.906 C -0.453,0.782 -0.047,0.453 0,0"
             style="fill:#242c36;fill-opacity:1;fill-rule:nonzero;stroke:none"
             id="path318"
             inkscape:connector-curvature="0" /></g><g
           id="g320"
           transform="translate(37.4773,54.2795)"><path
             d="m 0,0 c 0.047,-0.453 -0.282,-0.859 -0.735,-0.906 -0.453,-0.047 -0.859,0.282 -0.906,0.735 -0.047,0.453 0.282,0.859 0.735,0.906 C -0.453,0.782 -0.047,0.453 0,0"
             style="fill:#242c36;fill-opacity:1;fill-rule:nonzero;stroke:none"
             id="path322"
             inkscape:connector-curvature="0" /></g><g
           id="g324"
           transform="translate(42.517,34.8866)"><path
             d="M 0,0 C 0.456,0 0.825,-0.369 0.825,-0.825 0.825,-1.281 0.456,-1.65 0,-1.65 c -0.456,0 -0.825,0.369 -0.825,0.825 C -0.825,-0.369 -0.456,0 0,0"
             style="fill:#242c36;fill-opacity:1;fill-rule:nonzero;stroke:none"
             id="path326"
             inkscape:connector-curvature="0" /></g><g
           id="g328"
           transform="translate(43.3376,40.8579)"><path
             d="m 0,0 c 0.047,-0.453 -0.282,-0.859 -0.735,-0.906 -0.453,-0.047 -0.859,0.282 -0.906,0.735 -0.047,0.453 0.282,0.859 0.735,0.906 C -0.453,0.782 -0.047,0.453 0,0"
             style="fill:#242c36;fill-opacity:1;fill-rule:nonzero;stroke:none"
             id="path330"
             inkscape:connector-curvature="0" /></g><g
           id="g332"
           transform="translate(43.3376,47.5687)"><path
             d="m 0,0 c 0.047,-0.453 -0.282,-0.859 -0.735,-0.906 -0.453,-0.047 -0.859,0.282 -0.906,0.735 -0.047,0.453 0.282,0.859 0.735,0.906 C -0.453,0.782 -0.047,0.453 0,0"
             style="fill:#242c36;fill-opacity:1;fill-rule:nonzero;stroke:none"
             id="path334"
             inkscape:connector-curvature="0" /></g><g
           id="g336"
           transform="translate(43.3376,60.9903)"><path
             d="m 0,0 c 0.047,-0.453 -0.282,-0.859 -0.735,-0.906 -0.453,-0.047 -0.859,0.282 -0.906,0.735 -0.047,0.453 0.282,0.859 0.735,0.906 C -0.453,0.782 -0.047,0.453 0,0"
             style="fill:#242c36;fill-opacity:1;fill-rule:nonzero;stroke:none"
             id="path338"
             inkscape:connector-curvature="0" /></g><g
           id="g340"
           transform="translate(43.3376,54.2795)"><path
             d="m 0,0 c 0.047,-0.453 -0.282,-0.859 -0.735,-0.906 -0.453,-0.047 -0.859,0.282 -0.906,0.735 -0.047,0.453 0.282,0.859 0.735,0.906 C -0.453,0.782 -0.047,0.453 0,0"
             style="fill:#242c36;fill-opacity:1;fill-rule:nonzero;stroke:none"
             id="path342"
             inkscape:connector-curvature="0" /></g><g
           id="g344"
           transform="translate(48.756,34.8866)"><path
             d="M 0,0 C 0.456,0 0.825,-0.369 0.825,-0.825 0.825,-1.281 0.456,-1.65 0,-1.65 c -0.456,0 -0.825,0.369 -0.825,0.825 C -0.825,-0.369 -0.456,0 0,0"
             style="fill:#242c36;fill-opacity:1;fill-rule:nonzero;stroke:none"
             id="path346"
             inkscape:connector-curvature="0" /></g><g
           id="g348"
           transform="translate(49.5765,40.8579)"><path
             d="m 0,0 c 0.047,-0.453 -0.282,-0.859 -0.735,-0.906 -0.453,-0.047 -0.859,0.282 -0.906,0.735 -0.047,0.453 0.282,0.859 0.735,0.906 C -0.453,0.782 -0.047,0.453 0,0"
             style="fill:#242c36;fill-opacity:1;fill-rule:nonzero;stroke:none"
             id="path350"
             inkscape:connector-curvature="0" /></g><g
           id="g352"
           transform="translate(49.5765,47.5687)"><path
             d="m 0,0 c 0.047,-0.453 -0.282,-0.859 -0.735,-0.906 -0.453,-0.047 -0.859,0.282 -0.906,0.735 -0.047,0.453 0.282,0.859 0.735,0.906 C -0.453,0.782 -0.047,0.453 0,0"
             style="fill:#242c36;fill-opacity:1;fill-rule:nonzero;stroke:none"
             id="path354"
             inkscape:connector-curvature="0" /></g><g
           id="g356"
           transform="translate(49.5765,60.9903)"><path
             d="m 0,0 c 0.047,-0.453 -0.282,-0.859 -0.735,-0.906 -0.453,-0.047 -0.859,0.282 -0.906,0.735 -0.047,0.453 0.282,0.859 0.735,0.906 C -0.453,0.782 -0.047,0.453 0,0"
             style="fill:#242c36;fill-opacity:1;fill-rule:nonzero;stroke:none"
             id="path358"
             inkscape:connector-curvature="0" /></g><g
           id="g360"
           transform="translate(49.5765,54.2795)"><path
             d="m 0,0 c 0.047,-0.453 -0.282,-0.859 -0.735,-0.906 -0.453,-0.047 -0.859,0.282 -0.906,0.735 -0.047,0.453 0.282,0.859 0.735,0.906 C -0.453,0.782 -0.047,0.453 0,0"
             style="fill:#242c36;fill-opacity:1;fill-rule:nonzero;stroke:none"
             id="path362"
             inkscape:connector-curvature="0" /></g><g
           id="g364"
           transform="translate(54.6163,34.8866)"><path
             d="M 0,0 C 0.456,0 0.825,-0.369 0.825,-0.825 0.825,-1.281 0.456,-1.65 0,-1.65 c -0.456,0 -0.825,0.369 -0.825,0.825 C -0.825,-0.369 -0.456,0 0,0"
             style="fill:#242c36;fill-opacity:1;fill-rule:nonzero;stroke:none"
             id="path366"
             inkscape:connector-curvature="0" /></g><g
           id="g368"
           transform="translate(55.4368,40.8579)"><path
             d="m 0,0 c 0.047,-0.453 -0.282,-0.859 -0.735,-0.906 -0.453,-0.047 -0.859,0.282 -0.906,0.735 -0.047,0.453 0.282,0.859 0.735,0.906 C -0.453,0.782 -0.047,0.453 0,0"
             style="fill:#242c36;fill-opacity:1;fill-rule:nonzero;stroke:none"
             id="path370"
             inkscape:connector-curvature="0" /></g><g
           id="g372"
           transform="translate(55.4368,47.5687)"><path
             d="m 0,0 c 0.047,-0.453 -0.282,-0.859 -0.735,-0.906 -0.453,-0.047 -0.859,0.282 -0.906,0.735 -0.047,0.453 0.282,0.859 0.735,0.906 C -0.453,0.782 -0.047,0.453 0,0"
             style="fill:#242c36;fill-opacity:1;fill-rule:nonzero;stroke:none"
             id="path374"
             inkscape:connector-curvature="0" /></g><g
           id="g376"
           transform="translate(55.4368,60.9903)"><path
             d="m 0,0 c 0.047,-0.453 -0.282,-0.859 -0.735,-0.906 -0.453,-0.047 -0.859,0.282 -0.906,0.735 -0.047,0.453 0.282,0.859 0.735,0.906 C -0.453,0.782 -0.047,0.453 0,0"
             style="fill:#242c36;fill-opacity:1;fill-rule:nonzero;stroke:none"
             id="path378"
             inkscape:connector-curvature="0" /></g><g
           id="g380"
           transform="translate(55.4368,54.2795)"><path
             d="m 0,0 c 0.047,-0.453 -0.282,-0.859 -0.735,-0.906 -0.453,-0.047 -0.859,0.282 -0.906,0.735 -0.047,0.453 0.282,0.859 0.735,0.906 C -0.453,0.782 -0.047,0.453 0,0"
             style="fill:#242c36;fill-opacity:1;fill-rule:nonzero;stroke:none"
             id="path382"
             inkscape:connector-curvature="0" /></g><g
           id="g384"
           transform="translate(61.9057,67.8369)"><path
             d="M 0,0 C 0.456,0 0.825,-0.369 0.825,-0.825 0.825,-1.281 0.456,-1.65 0,-1.65 c -0.456,0 -0.825,0.369 -0.825,0.825 C -0.825,-0.369 -0.456,0 0,0"
             style="fill:#242c36;fill-opacity:1;fill-rule:nonzero;stroke:none"
             id="path386"
             inkscape:connector-curvature="0" /></g><g
           id="g388"
           transform="translate(62.7262,73.8082)"><path
             d="m 0,0 c 0.047,-0.453 -0.282,-0.859 -0.735,-0.906 -0.453,-0.047 -0.859,0.282 -0.906,0.735 -0.047,0.453 0.282,0.859 0.735,0.906 C -0.453,0.782 -0.047,0.453 0,0"
             style="fill:#242c36;fill-opacity:1;fill-rule:nonzero;stroke:none"
             id="path390"
             inkscape:connector-curvature="0" /></g><g
           id="g392"
           transform="translate(62.7262,80.519)"><path
             d="m 0,0 c 0.047,-0.453 -0.282,-0.859 -0.735,-0.906 -0.453,-0.047 -0.859,0.282 -0.906,0.735 -0.047,0.453 0.282,0.859 0.735,0.906 C -0.453,0.782 -0.047,0.453 0,0"
             style="fill:#242c36;fill-opacity:1;fill-rule:nonzero;stroke:none"
             id="path394"
             inkscape:connector-curvature="0" /></g><g
           id="g396"
           transform="translate(62.7262,93.9406)"><path
             d="m 0,0 c 0.047,-0.453 -0.282,-0.859 -0.735,-0.906 -0.453,-0.047 -0.859,0.282 -0.906,0.735 -0.047,0.453 0.282,0.859 0.735,0.906 C -0.453,0.782 -0.047,0.453 0,0"
             style="fill:#242c36;fill-opacity:1;fill-rule:nonzero;stroke:none"
             id="path398"
             inkscape:connector-curvature="0" /></g><g
           id="g400"
           transform="translate(62.7262,87.2298)"><path
             d="m 0,0 c 0.047,-0.453 -0.282,-0.859 -0.735,-0.906 -0.453,-0.047 -0.859,0.282 -0.906,0.735 -0.047,0.453 0.282,0.859 0.735,0.906 C -0.453,0.782 -0.047,0.453 0,0"
             style="fill:#242c36;fill-opacity:1;fill-rule:nonzero;stroke:none"
             id="path402"
             inkscape:connector-curvature="0" /></g><g
           id="g404"
           transform="translate(67.766,67.8369)"><path
             d="M 0,0 C 0.456,0 0.825,-0.369 0.825,-0.825 0.825,-1.281 0.456,-1.65 0,-1.65 c -0.456,0 -0.825,0.369 -0.825,0.825 C -0.825,-0.369 -0.456,0 0,0"
             style="fill:#242c36;fill-opacity:1;fill-rule:nonzero;stroke:none"
             id="path406"
             inkscape:connector-curvature="0" /></g><g
           id="g408"
           transform="translate(68.5865,73.8082)"><path
             d="m 0,0 c 0.047,-0.453 -0.282,-0.859 -0.735,-0.906 -0.453,-0.047 -0.859,0.282 -0.906,0.735 -0.047,0.453 0.282,0.859 0.735,0.906 C -0.453,0.782 -0.047,0.453 0,0"
             style="fill:#242c36;fill-opacity:1;fill-rule:nonzero;stroke:none"
             id="path410"
             inkscape:connector-curvature="0" /></g><g
           id="g412"
           transform="translate(68.5865,80.519)"><path
             d="m 0,0 c 0.047,-0.453 -0.282,-0.859 -0.735,-0.906 -0.453,-0.047 -0.859,0.282 -0.906,0.735 -0.047,0.453 0.282,0.859 0.735,0.906 C -0.453,0.782 -0.047,0.453 0,0"
             style="fill:#242c36;fill-opacity:1;fill-rule:nonzero;stroke:none"
             id="path414"
             inkscape:connector-curvature="0" /></g><g
           id="g416"
           transform="translate(68.5865,93.9406)"><path
             d="m 0,0 c 0.047,-0.453 -0.282,-0.859 -0.735,-0.906 -0.453,-0.047 -0.859,0.282 -0.906,0.735 -0.047,0.453 0.282,0.859 0.735,0.906 C -0.453,0.782 -0.047,0.453 0,0"
             style="fill:#242c36;fill-opacity:1;fill-rule:nonzero;stroke:none"
             id="path418"
             inkscape:connector-curvature="0" /></g><g
           id="g420"
           transform="translate(68.5865,87.2298)"><path
             d="m 0,0 c 0.047,-0.453 -0.282,-0.859 -0.735,-0.906 -0.453,-0.047 -0.859,0.282 -0.906,0.735 -0.047,0.453 0.282,0.859 0.735,0.906 C -0.453,0.782 -0.047,0.453 0,0"
             style="fill:#242c36;fill-opacity:1;fill-rule:nonzero;stroke:none"
             id="path422"
             inkscape:connector-curvature="0" /></g><g
           id="g424"
           transform="translate(74.005,67.8369)"><path
             d="M 0,0 C 0.456,0 0.825,-0.369 0.825,-0.825 0.825,-1.281 0.456,-1.65 0,-1.65 c -0.456,0 -0.825,0.369 -0.825,0.825 C -0.825,-0.369 -0.456,0 0,0"
             style="fill:#242c36;fill-opacity:1;fill-rule:nonzero;stroke:none"
             id="path426"
             inkscape:connector-curvature="0" /></g><g
           id="g428"
           transform="translate(74.8255,73.8082)"><path
             d="m 0,0 c 0.047,-0.453 -0.282,-0.859 -0.735,-0.906 -0.453,-0.047 -0.859,0.282 -0.906,0.735 -0.047,0.453 0.282,0.859 0.735,0.906 C -0.453,0.782 -0.047,0.453 0,0"
             style="fill:#242c36;fill-opacity:1;fill-rule:nonzero;stroke:none"
             id="path430"
             inkscape:connector-curvature="0" /></g><g
           id="g432"
           transform="translate(74.8255,80.519)"><path
             d="m 0,0 c 0.047,-0.453 -0.282,-0.859 -0.735,-0.906 -0.453,-0.047 -0.859,0.282 -0.906,0.735 -0.047,0.453 0.282,0.859 0.735,0.906 C -0.453,0.782 -0.047,0.453 0,0"
             style="fill:#242c36;fill-opacity:1;fill-rule:nonzero;stroke:none"
             id="path434"
             inkscape:connector-curvature="0" /></g><g
           id="g436"
           transform="translate(74.8255,93.9406)"><path
             d="m 0,0 c 0.047,-0.453 -0.282,-0.859 -0.735,-0.906 -0.453,-0.047 -0.859,0.282 -0.906,0.735 -0.047,0.453 0.282,0.859 0.735,0.906 C -0.453,0.782 -0.047,0.453 0,0"
             style="fill:#242c36;fill-opacity:1;fill-rule:nonzero;stroke:none"
             id="path438"
             inkscape:connector-curvature="0" /></g><g
           id="g440"
           transform="translate(74.8255,87.2298)"><path
             d="m 0,0 c 0.047,-0.453 -0.282,-0.859 -0.735,-0.906 -0.453,-0.047 -0.859,0.282 -0.906,0.735 -0.047,0.453 0.282,0.859 0.735,0.906 C -0.453,0.782 -0.047,0.453 0,0"
             style="fill:#242c36;fill-opacity:1;fill-rule:nonzero;stroke:none"
             id="path442"
             inkscape:connector-curvature="0" /></g><g
           id="g444"
           transform="translate(79.8653,67.8369)"><path
             d="M 0,0 C 0.456,0 0.825,-0.369 0.825,-0.825 0.825,-1.281 0.456,-1.65 0,-1.65 c -0.456,0 -0.825,0.369 -0.825,0.825 C -0.825,-0.369 -0.456,0 0,0"
             style="fill:#242c36;fill-opacity:1;fill-rule:nonzero;stroke:none"
             id="path446"
             inkscape:connector-curvature="0" /></g><g
           id="g448"
           transform="translate(80.6858,73.8082)"><path
             d="m 0,0 c 0.047,-0.453 -0.282,-0.859 -0.735,-0.906 -0.453,-0.047 -0.859,0.282 -0.906,0.735 -0.047,0.453 0.282,0.859 0.735,0.906 C -0.453,0.782 -0.047,0.453 0,0"
             style="fill:#242c36;fill-opacity:1;fill-rule:nonzero;stroke:none"
             id="path450"
             inkscape:connector-curvature="0" /></g><g
           id="g452"
           transform="translate(80.6858,80.519)"><path
             d="m 0,0 c 0.047,-0.453 -0.282,-0.859 -0.735,-0.906 -0.453,-0.047 -0.859,0.282 -0.906,0.735 -0.047,0.453 0.282,0.859 0.735,0.906 C -0.453,0.782 -0.047,0.453 0,0"
             style="fill:#242c36;fill-opacity:1;fill-rule:nonzero;stroke:none"
             id="path454"
             inkscape:connector-curvature="0" /></g><g
           id="g456"
           transform="translate(80.6858,93.9406)"><path
             d="m 0,0 c 0.047,-0.453 -0.282,-0.859 -0.735,-0.906 -0.453,-0.047 -0.859,0.282 -0.906,0.735 -0.047,0.453 0.282,0.859 0.735,0.906 C -0.453,0.782 -0.047,0.453 0,0"
             style="fill:#242c36;fill-opacity:1;fill-rule:nonzero;stroke:none"
             id="path458"
             inkscape:connector-curvature="0" /></g><g
           id="g460"
           transform="translate(80.6858,87.2298)"><path
             d="m 0,0 c 0.047,-0.453 -0.282,-0.859 -0.735,-0.906 -0.453,-0.047 -0.859,0.282 -0.906,0.735 -0.047,0.453 0.282,0.859 0.735,0.906 C -0.453,0.782 -0.047,0.453 0,0"
             style="fill:#242c36;fill-opacity:1;fill-rule:nonzero;stroke:none"
             id="path462"
             inkscape:connector-curvature="0" /></g><g
           id="g464"
           transform="translate(85.0277,67.8369)"><path
             d="M 0,0 C 0.456,0 0.825,-0.369 0.825,-0.825 0.825,-1.281 0.456,-1.65 0,-1.65 c -0.456,0 -0.825,0.369 -0.825,0.825 C -0.825,-0.369 -0.456,0 0,0"
             style="fill:#242c36;fill-opacity:1;fill-rule:nonzero;stroke:none"
             id="path466"
             inkscape:connector-curvature="0" /></g><g
           id="g468"
           transform="translate(85.8482,73.8082)"><path
             d="m 0,0 c 0.047,-0.453 -0.282,-0.859 -0.735,-0.906 -0.453,-0.047 -0.859,0.282 -0.906,0.735 -0.047,0.453 0.282,0.859 0.735,0.906 C -0.453,0.782 -0.047,0.453 0,0"
             style="fill:#242c36;fill-opacity:1;fill-rule:nonzero;stroke:none"
             id="path470"
             inkscape:connector-curvature="0" /></g><g
           id="g472"
           transform="translate(85.8482,80.519)"><path
             d="m 0,0 c 0.047,-0.453 -0.282,-0.859 -0.735,-0.906 -0.453,-0.047 -0.859,0.282 -0.906,0.735 -0.047,0.453 0.282,0.859 0.735,0.906 C -0.453,0.782 -0.047,0.453 0,0"
             style="fill:#242c36;fill-opacity:1;fill-rule:nonzero;stroke:none"
             id="path474"
             inkscape:connector-curvature="0" /></g><g
           id="g476"
           transform="translate(85.8482,93.9406)"><path
             d="m 0,0 c 0.047,-0.453 -0.282,-0.859 -0.735,-0.906 -0.453,-0.047 -0.859,0.282 -0.906,0.735 -0.047,0.453 0.282,0.859 0.735,0.906 C -0.453,0.782 -0.047,0.453 0,0"
             style="fill:#242c36;fill-opacity:1;fill-rule:nonzero;stroke:none"
             id="path478"
             inkscape:connector-curvature="0" /></g><g
           id="g480"
           transform="translate(85.8482,87.2298)"><path
             d="m 0,0 c 0.047,-0.453 -0.282,-0.859 -0.735,-0.906 -0.453,-0.047 -0.859,0.282 -0.906,0.735 -0.047,0.453 0.282,0.859 0.735,0.906 C -0.453,0.782 -0.047,0.453 0,0"
             style="fill:#242c36;fill-opacity:1;fill-rule:nonzero;stroke:none"
             id="path482"
             inkscape:connector-curvature="0" /></g><g
           id="g484"
           transform="translate(90.888,67.8369)"><path
             d="M 0,0 C 0.456,0 0.825,-0.369 0.825,-0.825 0.825,-1.281 0.456,-1.65 0,-1.65 c -0.456,0 -0.825,0.369 -0.825,0.825 C -0.825,-0.369 -0.456,0 0,0"
             style="fill:#242c36;fill-opacity:1;fill-rule:nonzero;stroke:none"
             id="path486"
             inkscape:connector-curvature="0" /></g><g
           id="g488"
           transform="translate(91.7085,73.8082)"><path
             d="m 0,0 c 0.047,-0.453 -0.282,-0.859 -0.735,-0.906 -0.453,-0.047 -0.859,0.282 -0.906,0.735 -0.047,0.453 0.282,0.859 0.735,0.906 C -0.453,0.782 -0.047,0.453 0,0"
             style="fill:#242c36;fill-opacity:1;fill-rule:nonzero;stroke:none"
             id="path490"
             inkscape:connector-curvature="0" /></g><g
           id="g492"
           transform="translate(91.7085,80.519)"><path
             d="m 0,0 c 0.047,-0.453 -0.282,-0.859 -0.735,-0.906 -0.453,-0.047 -0.859,0.282 -0.906,0.735 -0.047,0.453 0.282,0.859 0.735,0.906 C -0.453,0.782 -0.047,0.453 0,0"
             style="fill:#242c36;fill-opacity:1;fill-rule:nonzero;stroke:none"
             id="path494"
             inkscape:connector-curvature="0" /></g><g
           id="g496"
           transform="translate(91.7085,93.9406)"><path
             d="m 0,0 c 0.047,-0.453 -0.282,-0.859 -0.735,-0.906 -0.453,-0.047 -0.859,0.282 -0.906,0.735 -0.047,0.453 0.282,0.859 0.735,0.906 C -0.453,0.782 -0.047,0.453 0,0"
             style="fill:#242c36;fill-opacity:1;fill-rule:nonzero;stroke:none"
             id="path498"
             inkscape:connector-curvature="0" /></g><g
           id="g500"
           transform="translate(91.7085,87.2298)"><path
             d="m 0,0 c 0.047,-0.453 -0.282,-0.859 -0.735,-0.906 -0.453,-0.047 -0.859,0.282 -0.906,0.735 -0.047,0.453 0.282,0.859 0.735,0.906 C -0.453,0.782 -0.047,0.453 0,0"
             style="fill:#242c36;fill-opacity:1;fill-rule:nonzero;stroke:none"
             id="path502"
             inkscape:connector-curvature="0" /></g><g
           id="g504"
           transform="translate(97.127,67.8369)"><path
             d="M 0,0 C 0.456,0 0.825,-0.369 0.825,-0.825 0.825,-1.281 0.456,-1.65 0,-1.65 c -0.456,0 -0.825,0.369 -0.825,0.825 C -0.825,-0.369 -0.456,0 0,0"
             style="fill:#242c36;fill-opacity:1;fill-rule:nonzero;stroke:none"
             id="path506"
             inkscape:connector-curvature="0" /></g><g
           id="g508"
           transform="translate(97.9475,73.8082)"><path
             d="m 0,0 c 0.047,-0.453 -0.282,-0.859 -0.735,-0.906 -0.453,-0.047 -0.859,0.282 -0.906,0.735 -0.047,0.453 0.282,0.859 0.735,0.906 C -0.453,0.782 -0.047,0.453 0,0"
             style="fill:#242c36;fill-opacity:1;fill-rule:nonzero;stroke:none"
             id="path510"
             inkscape:connector-curvature="0" /></g><g
           id="g512"
           transform="translate(97.9475,80.519)"><path
             d="m 0,0 c 0.047,-0.453 -0.282,-0.859 -0.735,-0.906 -0.453,-0.047 -0.859,0.282 -0.906,0.735 -0.047,0.453 0.282,0.859 0.735,0.906 C -0.453,0.782 -0.047,0.453 0,0"
             style="fill:#242c36;fill-opacity:1;fill-rule:nonzero;stroke:none"
             id="path514"
             inkscape:connector-curvature="0" /></g><g
           id="g516"
           transform="translate(97.9475,93.9406)"><path
             d="m 0,0 c 0.047,-0.453 -0.282,-0.859 -0.735,-0.906 -0.453,-0.047 -0.859,0.282 -0.906,0.735 -0.047,0.453 0.282,0.859 0.735,0.906 C -0.453,0.782 -0.047,0.453 0,0"
             style="fill:#242c36;fill-opacity:1;fill-rule:nonzero;stroke:none"
             id="path518"
             inkscape:connector-curvature="0" /></g><g
           id="g520"
           transform="translate(97.9475,87.2298)"><path
             d="m 0,0 c 0.047,-0.453 -0.282,-0.859 -0.735,-0.906 -0.453,-0.047 -0.859,0.282 -0.906,0.735 -0.047,0.453 0.282,0.859 0.735,0.906 C -0.453,0.782 -0.047,0.453 0,0"
             style="fill:#242c36;fill-opacity:1;fill-rule:nonzero;stroke:none"
             id="path522"
             inkscape:connector-curvature="0" /></g><g
           id="g524"
           transform="translate(13.5348,67.8369)"><path
             d="M 0,0 C 0.456,0 0.825,-0.369 0.825,-0.825 0.825,-1.281 0.456,-1.65 0,-1.65 c -0.456,0 -0.825,0.369 -0.825,0.825 C -0.825,-0.369 -0.456,0 0,0"
             style="fill:#242c36;fill-opacity:1;fill-rule:nonzero;stroke:none"
             id="path526"
             inkscape:connector-curvature="0" /></g><g
           id="g528"
           transform="translate(14.3553,73.8082)"><path
             d="m 0,0 c 0.047,-0.453 -0.282,-0.859 -0.735,-0.906 -0.453,-0.047 -0.859,0.282 -0.906,0.735 -0.047,0.453 0.282,0.859 0.735,0.906 C -0.453,0.782 -0.047,0.453 0,0"
             style="fill:#242c36;fill-opacity:1;fill-rule:nonzero;stroke:none"
             id="path530"
             inkscape:connector-curvature="0" /></g><g
           id="g532"
           transform="translate(14.3553,80.519)"><path
             d="m 0,0 c 0.047,-0.453 -0.282,-0.859 -0.735,-0.906 -0.453,-0.047 -0.859,0.282 -0.906,0.735 -0.047,0.453 0.282,0.859 0.735,0.906 C -0.453,0.782 -0.047,0.453 0,0"
             style="fill:#242c36;fill-opacity:1;fill-rule:nonzero;stroke:none"
             id="path534"
             inkscape:connector-curvature="0" /></g><g
           id="g536"
           transform="translate(14.3553,93.9406)"><path
             d="m 0,0 c 0.047,-0.453 -0.282,-0.859 -0.735,-0.906 -0.453,-0.047 -0.859,0.282 -0.906,0.735 -0.047,0.453 0.282,0.859 0.735,0.906 C -0.453,0.782 -0.047,0.453 0,0"
             style="fill:#242c36;fill-opacity:1;fill-rule:nonzero;stroke:none"
             id="path538"
             inkscape:connector-curvature="0" /></g><g
           id="g540"
           transform="translate(14.3553,87.2298)"><path
             d="m 0,0 c 0.047,-0.453 -0.282,-0.859 -0.735,-0.906 -0.453,-0.047 -0.859,0.282 -0.906,0.735 -0.047,0.453 0.282,0.859 0.735,0.906 C -0.453,0.782 -0.047,0.453 0,0"
             style="fill:#242c36;fill-opacity:1;fill-rule:nonzero;stroke:none"
             id="path542"
             inkscape:connector-curvature="0" /></g><g
           id="g544"
           transform="translate(19.395,67.8369)"><path
             d="M 0,0 C 0.456,0 0.825,-0.369 0.825,-0.825 0.825,-1.281 0.456,-1.65 0,-1.65 c -0.456,0 -0.825,0.369 -0.825,0.825 C -0.825,-0.369 -0.456,0 0,0"
             style="fill:#242c36;fill-opacity:1;fill-rule:nonzero;stroke:none"
             id="path546"
             inkscape:connector-curvature="0" /></g><g
           id="g548"
           transform="translate(20.2156,73.8082)"><path
             d="m 0,0 c 0.047,-0.453 -0.282,-0.859 -0.735,-0.906 -0.453,-0.047 -0.859,0.282 -0.906,0.735 -0.047,0.453 0.282,0.859 0.735,0.906 C -0.453,0.782 -0.047,0.453 0,0"
             style="fill:#242c36;fill-opacity:1;fill-rule:nonzero;stroke:none"
             id="path550"
             inkscape:connector-curvature="0" /></g><g
           id="g552"
           transform="translate(20.2156,80.519)"><path
             d="m 0,0 c 0.047,-0.453 -0.282,-0.859 -0.735,-0.906 -0.453,-0.047 -0.859,0.282 -0.906,0.735 -0.047,0.453 0.282,0.859 0.735,0.906 C -0.453,0.782 -0.047,0.453 0,0"
             style="fill:#242c36;fill-opacity:1;fill-rule:nonzero;stroke:none"
             id="path554"
             inkscape:connector-curvature="0" /></g><g
           id="g556"
           transform="translate(20.2156,93.9406)"><path
             d="m 0,0 c 0.047,-0.453 -0.282,-0.859 -0.735,-0.906 -0.453,-0.047 -0.859,0.282 -0.906,0.735 -0.047,0.453 0.282,0.859 0.735,0.906 C -0.453,0.782 -0.047,0.453 0,0"
             style="fill:#242c36;fill-opacity:1;fill-rule:nonzero;stroke:none"
             id="path558"
             inkscape:connector-curvature="0" /></g><g
           id="g560"
           transform="translate(20.2156,87.2298)"><path
             d="m 0,0 c 0.047,-0.453 -0.282,-0.859 -0.735,-0.906 -0.453,-0.047 -0.859,0.282 -0.906,0.735 -0.047,0.453 0.282,0.859 0.735,0.906 C -0.453,0.782 -0.047,0.453 0,0"
             style="fill:#242c36;fill-opacity:1;fill-rule:nonzero;stroke:none"
             id="path562"
             inkscape:connector-curvature="0" /></g><g
           id="g564"
           transform="translate(25.634,67.8369)"><path
             d="M 0,0 C 0.456,0 0.825,-0.369 0.825,-0.825 0.825,-1.281 0.456,-1.65 0,-1.65 c -0.456,0 -0.825,0.369 -0.825,0.825 C -0.825,-0.369 -0.456,0 0,0"
             style="fill:#242c36;fill-opacity:1;fill-rule:nonzero;stroke:none"
             id="path566"
             inkscape:connector-curvature="0" /></g><g
           id="g568"
           transform="translate(26.4545,73.8082)"><path
             d="m 0,0 c 0.047,-0.453 -0.282,-0.859 -0.735,-0.906 -0.453,-0.047 -0.859,0.282 -0.906,0.735 -0.047,0.453 0.282,0.859 0.735,0.906 C -0.453,0.782 -0.047,0.453 0,0"
             style="fill:#242c36;fill-opacity:1;fill-rule:nonzero;stroke:none"
             id="path570"
             inkscape:connector-curvature="0" /></g><g
           id="g572"
           transform="translate(26.4545,80.519)"><path
             d="m 0,0 c 0.047,-0.453 -0.282,-0.859 -0.735,-0.906 -0.453,-0.047 -0.859,0.282 -0.906,0.735 -0.047,0.453 0.282,0.859 0.735,0.906 C -0.453,0.782 -0.047,0.453 0,0"
             style="fill:#242c36;fill-opacity:1;fill-rule:nonzero;stroke:none"
             id="path574"
             inkscape:connector-curvature="0" /></g><g
           id="g576"
           transform="translate(26.4545,93.9406)"><path
             d="m 0,0 c 0.047,-0.453 -0.282,-0.859 -0.735,-0.906 -0.453,-0.047 -0.859,0.282 -0.906,0.735 -0.047,0.453 0.282,0.859 0.735,0.906 C -0.453,0.782 -0.047,0.453 0,0"
             style="fill:#242c36;fill-opacity:1;fill-rule:nonzero;stroke:none"
             id="path578"
             inkscape:connector-curvature="0" /></g><g
           id="g580"
           transform="translate(26.4545,87.2298)"><path
             d="m 0,0 c 0.047,-0.453 -0.282,-0.859 -0.735,-0.906 -0.453,-0.047 -0.859,0.282 -0.906,0.735 -0.047,0.453 0.282,0.859 0.735,0.906 C -0.453,0.782 -0.047,0.453 0,0"
             style="fill:#242c36;fill-opacity:1;fill-rule:nonzero;stroke:none"
             id="path582"
             inkscape:connector-curvature="0" /></g><g
           id="g584"
           transform="translate(31.4943,67.8369)"><path
             d="M 0,0 C 0.456,0 0.825,-0.369 0.825,-0.825 0.825,-1.281 0.456,-1.65 0,-1.65 c -0.456,0 -0.825,0.369 -0.825,0.825 C -0.825,-0.369 -0.456,0 0,0"
             style="fill:#242c36;fill-opacity:1;fill-rule:nonzero;stroke:none"
             id="path586"
             inkscape:connector-curvature="0" /></g><g
           id="g588"
           transform="translate(32.3148,73.8082)"><path
             d="m 0,0 c 0.047,-0.453 -0.282,-0.859 -0.735,-0.906 -0.453,-0.047 -0.859,0.282 -0.906,0.735 -0.047,0.453 0.282,0.859 0.735,0.906 C -0.453,0.782 -0.047,0.453 0,0"
             style="fill:#242c36;fill-opacity:1;fill-rule:nonzero;stroke:none"
             id="path590"
             inkscape:connector-curvature="0" /></g><g
           id="g592"
           transform="translate(32.3148,80.519)"><path
             d="m 0,0 c 0.047,-0.453 -0.282,-0.859 -0.735,-0.906 -0.453,-0.047 -0.859,0.282 -0.906,0.735 -0.047,0.453 0.282,0.859 0.735,0.906 C -0.453,0.782 -0.047,0.453 0,0"
             style="fill:#242c36;fill-opacity:1;fill-rule:nonzero;stroke:none"
             id="path594"
             inkscape:connector-curvature="0" /></g><g
           id="g596"
           transform="translate(32.3148,93.9406)"><path
             d="m 0,0 c 0.047,-0.453 -0.282,-0.859 -0.735,-0.906 -0.453,-0.047 -0.859,0.282 -0.906,0.735 -0.047,0.453 0.282,0.859 0.735,0.906 C -0.453,0.782 -0.047,0.453 0,0"
             style="fill:#242c36;fill-opacity:1;fill-rule:nonzero;stroke:none"
             id="path598"
             inkscape:connector-curvature="0" /></g><g
           id="g600"
           transform="translate(32.3148,87.2298)"><path
             d="m 0,0 c 0.047,-0.453 -0.282,-0.859 -0.735,-0.906 -0.453,-0.047 -0.859,0.282 -0.906,0.735 -0.047,0.453 0.282,0.859 0.735,0.906 C -0.453,0.782 -0.047,0.453 0,0"
             style="fill:#242c36;fill-opacity:1;fill-rule:nonzero;stroke:none"
             id="path602"
             inkscape:connector-curvature="0" /></g><g
           id="g604"
           transform="translate(36.6568,67.8369)"><path
             d="M 0,0 C 0.456,0 0.825,-0.369 0.825,-0.825 0.825,-1.281 0.456,-1.65 0,-1.65 c -0.456,0 -0.825,0.369 -0.825,0.825 C -0.825,-0.369 -0.456,0 0,0"
             style="fill:#242c36;fill-opacity:1;fill-rule:nonzero;stroke:none"
             id="path606"
             inkscape:connector-curvature="0" /></g><g
           id="g608"
           transform="translate(37.4773,73.8082)"><path
             d="m 0,0 c 0.047,-0.453 -0.282,-0.859 -0.735,-0.906 -0.453,-0.047 -0.859,0.282 -0.906,0.735 -0.047,0.453 0.282,0.859 0.735,0.906 C -0.453,0.782 -0.047,0.453 0,0"
             style="fill:#242c36;fill-opacity:1;fill-rule:nonzero;stroke:none"
             id="path610"
             inkscape:connector-curvature="0" /></g><g
           id="g612"
           transform="translate(37.4773,80.519)"><path
             d="m 0,0 c 0.047,-0.453 -0.282,-0.859 -0.735,-0.906 -0.453,-0.047 -0.859,0.282 -0.906,0.735 -0.047,0.453 0.282,0.859 0.735,0.906 C -0.453,0.782 -0.047,0.453 0,0"
             style="fill:#242c36;fill-opacity:1;fill-rule:nonzero;stroke:none"
             id="path614"
             inkscape:connector-curvature="0" /></g><g
           id="g616"
           transform="translate(37.4773,93.9406)"><path
             d="m 0,0 c 0.047,-0.453 -0.282,-0.859 -0.735,-0.906 -0.453,-0.047 -0.859,0.282 -0.906,0.735 -0.047,0.453 0.282,0.859 0.735,0.906 C -0.453,0.782 -0.047,0.453 0,0"
             style="fill:#242c36;fill-opacity:1;fill-rule:nonzero;stroke:none"
             id="path618"
             inkscape:connector-curvature="0" /></g><g
           id="g620"
           transform="translate(37.4773,87.2298)"><path
             d="m 0,0 c 0.047,-0.453 -0.282,-0.859 -0.735,-0.906 -0.453,-0.047 -0.859,0.282 -0.906,0.735 -0.047,0.453 0.282,0.859 0.735,0.906 C -0.453,0.782 -0.047,0.453 0,0"
             style="fill:#242c36;fill-opacity:1;fill-rule:nonzero;stroke:none"
             id="path622"
             inkscape:connector-curvature="0" /></g><g
           id="g624"
           transform="translate(42.517,67.8369)"><path
             d="M 0,0 C 0.456,0 0.825,-0.369 0.825,-0.825 0.825,-1.281 0.456,-1.65 0,-1.65 c -0.456,0 -0.825,0.369 -0.825,0.825 C -0.825,-0.369 -0.456,0 0,0"
             style="fill:#242c36;fill-opacity:1;fill-rule:nonzero;stroke:none"
             id="path626"
             inkscape:connector-curvature="0" /></g><g
           id="g628"
           transform="translate(43.3376,73.8082)"><path
             d="m 0,0 c 0.047,-0.453 -0.282,-0.859 -0.735,-0.906 -0.453,-0.047 -0.859,0.282 -0.906,0.735 -0.047,0.453 0.282,0.859 0.735,0.906 C -0.453,0.782 -0.047,0.453 0,0"
             style="fill:#242c36;fill-opacity:1;fill-rule:nonzero;stroke:none"
             id="path630"
             inkscape:connector-curvature="0" /></g><g
           id="g632"
           transform="translate(43.3376,80.519)"><path
             d="m 0,0 c 0.047,-0.453 -0.282,-0.859 -0.735,-0.906 -0.453,-0.047 -0.859,0.282 -0.906,0.735 -0.047,0.453 0.282,0.859 0.735,0.906 C -0.453,0.782 -0.047,0.453 0,0"
             style="fill:#242c36;fill-opacity:1;fill-rule:nonzero;stroke:none"
             id="path634"
             inkscape:connector-curvature="0" /></g><g
           id="g636"
           transform="translate(43.3376,93.9406)"><path
             d="m 0,0 c 0.047,-0.453 -0.282,-0.859 -0.735,-0.906 -0.453,-0.047 -0.859,0.282 -0.906,0.735 -0.047,0.453 0.282,0.859 0.735,0.906 C -0.453,0.782 -0.047,0.453 0,0"
             style="fill:#242c36;fill-opacity:1;fill-rule:nonzero;stroke:none"
             id="path638"
             inkscape:connector-curvature="0" /></g><g
           id="g640"
           transform="translate(43.3376,87.2298)"><path
             d="m 0,0 c 0.047,-0.453 -0.282,-0.859 -0.735,-0.906 -0.453,-0.047 -0.859,0.282 -0.906,0.735 -0.047,0.453 0.282,0.859 0.735,0.906 C -0.453,0.782 -0.047,0.453 0,0"
             style="fill:#242c36;fill-opacity:1;fill-rule:nonzero;stroke:none"
             id="path642"
             inkscape:connector-curvature="0" /></g><g
           id="g644"
           transform="translate(48.756,67.8369)"><path
             d="M 0,0 C 0.456,0 0.825,-0.369 0.825,-0.825 0.825,-1.281 0.456,-1.65 0,-1.65 c -0.456,0 -0.825,0.369 -0.825,0.825 C -0.825,-0.369 -0.456,0 0,0"
             style="fill:#242c36;fill-opacity:1;fill-rule:nonzero;stroke:none"
             id="path646"
             inkscape:connector-curvature="0" /></g><g
           id="g648"
           transform="translate(49.5765,73.8082)"><path
             d="m 0,0 c 0.047,-0.453 -0.282,-0.859 -0.735,-0.906 -0.453,-0.047 -0.859,0.282 -0.906,0.735 -0.047,0.453 0.282,0.859 0.735,0.906 C -0.453,0.782 -0.047,0.453 0,0"
             style="fill:#242c36;fill-opacity:1;fill-rule:nonzero;stroke:none"
             id="path650"
             inkscape:connector-curvature="0" /></g><g
           id="g652"
           transform="translate(49.5765,80.519)"><path
             d="m 0,0 c 0.047,-0.453 -0.282,-0.859 -0.735,-0.906 -0.453,-0.047 -0.859,0.282 -0.906,0.735 -0.047,0.453 0.282,0.859 0.735,0.906 C -0.453,0.782 -0.047,0.453 0,0"
             style="fill:#242c36;fill-opacity:1;fill-rule:nonzero;stroke:none"
             id="path654"
             inkscape:connector-curvature="0" /></g><g
           id="g656"
           transform="translate(49.5765,93.9406)"><path
             d="m 0,0 c 0.047,-0.453 -0.282,-0.859 -0.735,-0.906 -0.453,-0.047 -0.859,0.282 -0.906,0.735 -0.047,0.453 0.282,0.859 0.735,0.906 C -0.453,0.782 -0.047,0.453 0,0"
             style="fill:#242c36;fill-opacity:1;fill-rule:nonzero;stroke:none"
             id="path658"
             inkscape:connector-curvature="0" /></g><g
           id="g660"
           transform="translate(49.5765,87.2298)"><path
             d="m 0,0 c 0.047,-0.453 -0.282,-0.859 -0.735,-0.906 -0.453,-0.047 -0.859,0.282 -0.906,0.735 -0.047,0.453 0.282,0.859 0.735,0.906 C -0.453,0.782 -0.047,0.453 0,0"
             style="fill:#242c36;fill-opacity:1;fill-rule:nonzero;stroke:none"
             id="path662"
             inkscape:connector-curvature="0" /></g><g
           id="g664"
           transform="translate(54.6163,67.8369)"><path
             d="M 0,0 C 0.456,0 0.825,-0.369 0.825,-0.825 0.825,-1.281 0.456,-1.65 0,-1.65 c -0.456,0 -0.825,0.369 -0.825,0.825 C -0.825,-0.369 -0.456,0 0,0"
             style="fill:#242c36;fill-opacity:1;fill-rule:nonzero;stroke:none"
             id="path666"
             inkscape:connector-curvature="0" /></g><g
           id="g668"
           transform="translate(55.4368,73.8082)"><path
             d="m 0,0 c 0.047,-0.453 -0.282,-0.859 -0.735,-0.906 -0.453,-0.047 -0.859,0.282 -0.906,0.735 -0.047,0.453 0.282,0.859 0.735,0.906 C -0.453,0.782 -0.047,0.453 0,0"
             style="fill:#242c36;fill-opacity:1;fill-rule:nonzero;stroke:none"
             id="path670"
             inkscape:connector-curvature="0" /></g><g
           id="g672"
           transform="translate(55.4368,80.519)"><path
             d="m 0,0 c 0.047,-0.453 -0.282,-0.859 -0.735,-0.906 -0.453,-0.047 -0.859,0.282 -0.906,0.735 -0.047,0.453 0.282,0.859 0.735,0.906 C -0.453,0.782 -0.047,0.453 0,0"
             style="fill:#242c36;fill-opacity:1;fill-rule:nonzero;stroke:none"
             id="path674"
             inkscape:connector-curvature="0" /></g><g
           id="g676"
           transform="translate(55.4368,93.9406)"><path
             d="m 0,0 c 0.047,-0.453 -0.282,-0.859 -0.735,-0.906 -0.453,-0.047 -0.859,0.282 -0.906,0.735 -0.047,0.453 0.282,0.859 0.735,0.906 C -0.453,0.782 -0.047,0.453 0,0"
             style="fill:#242c36;fill-opacity:1;fill-rule:nonzero;stroke:none"
             id="path678"
             inkscape:connector-curvature="0" /></g><g
           id="g680"
           transform="translate(55.4368,87.2298)"><path
             d="m 0,0 c 0.047,-0.453 -0.282,-0.859 -0.735,-0.906 -0.453,-0.047 -0.859,0.282 -0.906,0.735 -0.047,0.453 0.282,0.859 0.735,0.906 C -0.453,0.782 -0.047,0.453 0,0"
             style="fill:#242c36;fill-opacity:1;fill-rule:nonzero;stroke:none"
             id="path682"
             inkscape:connector-curvature="0" /></g><g
           id="g684"
           transform="translate(64.9835,99.7358)"><path
             d="M 0,0 C 0.456,0 0.825,-0.369 0.825,-0.825 0.825,-1.281 0.456,-1.65 0,-1.65 c -0.456,0 -0.825,0.369 -0.825,0.825 C -0.825,-0.369 -0.456,0 0,0"
             style="fill:#242c36;fill-opacity:1;fill-rule:nonzero;stroke:none"
             id="path686"
             inkscape:connector-curvature="0" /></g><g
           id="g688"
           transform="translate(65.804,105.7072)"><path
             d="m 0,0 c 0.047,-0.453 -0.282,-0.859 -0.735,-0.906 -0.453,-0.047 -0.859,0.282 -0.906,0.735 -0.047,0.453 0.282,0.859 0.735,0.906 C -0.453,0.782 -0.047,0.453 0,0"
             style="fill:#242c36;fill-opacity:1;fill-rule:nonzero;stroke:none"
             id="path690"
             inkscape:connector-curvature="0" /></g><g
           id="g692"
           transform="translate(70.8437,99.7358)"><path
             d="M 0,0 C 0.456,0 0.825,-0.369 0.825,-0.825 0.825,-1.281 0.456,-1.65 0,-1.65 c -0.456,0 -0.825,0.369 -0.825,0.825 C -0.825,-0.369 -0.456,0 0,0"
             style="fill:#242c36;fill-opacity:1;fill-rule:nonzero;stroke:none"
             id="path694"
             inkscape:connector-curvature="0" /></g><g
           id="g696"
           transform="translate(71.6643,105.7072)"><path
             d="m 0,0 c 0.047,-0.453 -0.282,-0.859 -0.735,-0.906 -0.453,-0.047 -0.859,0.282 -0.906,0.735 -0.047,0.453 0.282,0.859 0.735,0.906 C -0.453,0.782 -0.047,0.453 0,0"
             style="fill:#242c36;fill-opacity:1;fill-rule:nonzero;stroke:none"
             id="path698"
             inkscape:connector-curvature="0" /></g><g
           id="g700"
           transform="translate(77.0827,99.7358)"><path
             d="M 0,0 C 0.456,0 0.825,-0.369 0.825,-0.825 0.825,-1.281 0.456,-1.65 0,-1.65 c -0.456,0 -0.825,0.369 -0.825,0.825 C -0.825,-0.369 -0.456,0 0,0"
             style="fill:#242c36;fill-opacity:1;fill-rule:nonzero;stroke:none"
             id="path702"
             inkscape:connector-curvature="0" /></g><g
           id="g704"
           transform="translate(77.9032,105.7072)"><path
             d="m 0,0 c 0.047,-0.453 -0.282,-0.859 -0.735,-0.906 -0.453,-0.047 -0.859,0.282 -0.906,0.735 -0.047,0.453 0.282,0.859 0.735,0.906 C -0.453,0.782 -0.047,0.453 0,0"
             style="fill:#242c36;fill-opacity:1;fill-rule:nonzero;stroke:none"
             id="path706"
             inkscape:connector-curvature="0" /></g><g
           id="g708"
           transform="translate(82.943,99.7358)"><path
             d="M 0,0 C 0.456,0 0.825,-0.369 0.825,-0.825 0.825,-1.281 0.456,-1.65 0,-1.65 c -0.456,0 -0.825,0.369 -0.825,0.825 C -0.825,-0.369 -0.456,0 0,0"
             style="fill:#242c36;fill-opacity:1;fill-rule:nonzero;stroke:none"
             id="path710"
             inkscape:connector-curvature="0" /></g><g
           id="g712"
           transform="translate(83.7635,105.7072)"><path
             d="m 0,0 c 0.047,-0.453 -0.282,-0.859 -0.735,-0.906 -0.453,-0.047 -0.859,0.282 -0.906,0.735 -0.047,0.453 0.282,0.859 0.735,0.906 C -0.453,0.782 -0.047,0.453 0,0"
             style="fill:#242c36;fill-opacity:1;fill-rule:nonzero;stroke:none"
             id="path714"
             inkscape:connector-curvature="0" /></g><g
           id="g716"
           transform="translate(88.1055,99.7358)"><path
             d="M 0,0 C 0.456,0 0.825,-0.369 0.825,-0.825 0.825,-1.281 0.456,-1.65 0,-1.65 c -0.456,0 -0.825,0.369 -0.825,0.825 C -0.825,-0.369 -0.456,0 0,0"
             style="fill:#242c36;fill-opacity:1;fill-rule:nonzero;stroke:none"
             id="path718"
             inkscape:connector-curvature="0" /></g><g
           id="g720"
           transform="translate(88.926,105.7072)"><path
             d="m 0,0 c 0.047,-0.453 -0.282,-0.859 -0.735,-0.906 -0.453,-0.047 -0.859,0.282 -0.906,0.735 -0.047,0.453 0.282,0.859 0.735,0.906 C -0.453,0.782 -0.047,0.453 0,0"
             style="fill:#242c36;fill-opacity:1;fill-rule:nonzero;stroke:none"
             id="path722"
             inkscape:connector-curvature="0" /></g><g
           id="g724"
           transform="translate(93.9657,99.7358)"><path
             d="M 0,0 C 0.456,0 0.825,-0.369 0.825,-0.825 0.825,-1.281 0.456,-1.65 0,-1.65 c -0.456,0 -0.825,0.369 -0.825,0.825 C -0.825,-0.369 -0.456,0 0,0"
             style="fill:#242c36;fill-opacity:1;fill-rule:nonzero;stroke:none"
             id="path726"
             inkscape:connector-curvature="0" /></g><g
           id="g728"
           transform="translate(94.7863,105.7072)"><path
             d="m 0,0 c 0.047,-0.453 -0.282,-0.859 -0.735,-0.906 -0.453,-0.047 -0.859,0.282 -0.906,0.735 -0.047,0.453 0.282,0.859 0.735,0.906 C -0.453,0.782 -0.047,0.453 0,0"
             style="fill:#242c36;fill-opacity:1;fill-rule:nonzero;stroke:none"
             id="path730"
             inkscape:connector-curvature="0" /></g><g
           id="g732"
           transform="translate(100.2047,99.7358)"><path
             d="M 0,0 C 0.456,0 0.825,-0.369 0.825,-0.825 0.825,-1.281 0.456,-1.65 0,-1.65 c -0.456,0 -0.825,0.369 -0.825,0.825 C -0.825,-0.369 -0.456,0 0,0"
             style="fill:#242c36;fill-opacity:1;fill-rule:nonzero;stroke:none"
             id="path734"
             inkscape:connector-curvature="0" /></g><g
           id="g736"
           transform="translate(101.0252,105.7072)"><path
             d="m 0,0 c 0.047,-0.453 -0.282,-0.859 -0.735,-0.906 -0.453,-0.047 -0.859,0.282 -0.906,0.735 -0.047,0.453 0.282,0.859 0.735,0.906 C -0.453,0.782 -0.047,0.453 0,0"
             style="fill:#242c36;fill-opacity:1;fill-rule:nonzero;stroke:none"
             id="path738"
             inkscape:connector-curvature="0" /></g><g
           id="g740"
           transform="translate(16.6125,99.7358)"><path
             d="M 0,0 C 0.456,0 0.825,-0.369 0.825,-0.825 0.825,-1.281 0.456,-1.65 0,-1.65 c -0.456,0 -0.825,0.369 -0.825,0.825 C -0.825,-0.369 -0.456,0 0,0"
             style="fill:#242c36;fill-opacity:1;fill-rule:nonzero;stroke:none"
             id="path742"
             inkscape:connector-curvature="0" /></g><g
           id="g744"
           transform="translate(17.433,105.7072)"><path
             d="m 0,0 c 0.047,-0.453 -0.282,-0.859 -0.735,-0.906 -0.453,-0.047 -0.859,0.282 -0.906,0.735 -0.047,0.453 0.282,0.859 0.735,0.906 C -0.453,0.782 -0.047,0.453 0,0"
             style="fill:#242c36;fill-opacity:1;fill-rule:nonzero;stroke:none"
             id="path746"
             inkscape:connector-curvature="0" /></g><g
           id="g748"
           transform="translate(22.4728,99.7358)"><path
             d="M 0,0 C 0.456,0 0.825,-0.369 0.825,-0.825 0.825,-1.281 0.456,-1.65 0,-1.65 c -0.456,0 -0.825,0.369 -0.825,0.825 C -0.825,-0.369 -0.456,0 0,0"
             style="fill:#242c36;fill-opacity:1;fill-rule:nonzero;stroke:none"
             id="path750"
             inkscape:connector-curvature="0" /></g><g
           id="g752"
           transform="translate(23.2933,105.7072)"><path
             d="m 0,0 c 0.047,-0.453 -0.282,-0.859 -0.735,-0.906 -0.453,-0.047 -0.859,0.282 -0.906,0.735 -0.047,0.453 0.282,0.859 0.735,0.906 C -0.453,0.782 -0.047,0.453 0,0"
             style="fill:#242c36;fill-opacity:1;fill-rule:nonzero;stroke:none"
             id="path754"
             inkscape:connector-curvature="0" /></g><g
           id="g756"
           transform="translate(28.7118,99.7358)"><path
             d="M 0,0 C 0.456,0 0.825,-0.369 0.825,-0.825 0.825,-1.281 0.456,-1.65 0,-1.65 c -0.456,0 -0.825,0.369 -0.825,0.825 C -0.825,-0.369 -0.456,0 0,0"
             style="fill:#242c36;fill-opacity:1;fill-rule:nonzero;stroke:none"
             id="path758"
             inkscape:connector-curvature="0" /></g><g
           id="g760"
           transform="translate(29.5323,105.7072)"><path
             d="m 0,0 c 0.047,-0.453 -0.282,-0.859 -0.735,-0.906 -0.453,-0.047 -0.859,0.282 -0.906,0.735 -0.047,0.453 0.282,0.859 0.735,0.906 C -0.453,0.782 -0.047,0.453 0,0"
             style="fill:#242c36;fill-opacity:1;fill-rule:nonzero;stroke:none"
             id="path762"
             inkscape:connector-curvature="0" /></g><g
           id="g764"
           transform="translate(34.572,99.7358)"><path
             d="M 0,0 C 0.456,0 0.825,-0.369 0.825,-0.825 0.825,-1.281 0.456,-1.65 0,-1.65 c -0.456,0 -0.825,0.369 -0.825,0.825 C -0.825,-0.369 -0.456,0 0,0"
             style="fill:#242c36;fill-opacity:1;fill-rule:nonzero;stroke:none"
             id="path766"
             inkscape:connector-curvature="0" /></g><g
           id="g768"
           transform="translate(35.3926,105.7072)"><path
             d="m 0,0 c 0.047,-0.453 -0.282,-0.859 -0.735,-0.906 -0.453,-0.047 -0.859,0.282 -0.906,0.735 -0.047,0.453 0.282,0.859 0.735,0.906 C -0.453,0.782 -0.047,0.453 0,0"
             style="fill:#242c36;fill-opacity:1;fill-rule:nonzero;stroke:none"
             id="path770"
             inkscape:connector-curvature="0" /></g><g
           id="g772"
           transform="translate(39.7345,99.7358)"><path
             d="M 0,0 C 0.456,0 0.825,-0.369 0.825,-0.825 0.825,-1.281 0.456,-1.65 0,-1.65 c -0.456,0 -0.825,0.369 -0.825,0.825 C -0.825,-0.369 -0.456,0 0,0"
             style="fill:#242c36;fill-opacity:1;fill-rule:nonzero;stroke:none"
             id="path774"
             inkscape:connector-curvature="0" /></g><g
           id="g776"
           transform="translate(40.555,105.7072)"><path
             d="m 0,0 c 0.047,-0.453 -0.282,-0.859 -0.735,-0.906 -0.453,-0.047 -0.859,0.282 -0.906,0.735 -0.047,0.453 0.282,0.859 0.735,0.906 C -0.453,0.782 -0.047,0.453 0,0"
             style="fill:#242c36;fill-opacity:1;fill-rule:nonzero;stroke:none"
             id="path778"
             inkscape:connector-curvature="0" /></g><g
           id="g780"
           transform="translate(45.5948,99.7358)"><path
             d="M 0,0 C 0.456,0 0.825,-0.369 0.825,-0.825 0.825,-1.281 0.456,-1.65 0,-1.65 c -0.456,0 -0.825,0.369 -0.825,0.825 C -0.825,-0.369 -0.456,0 0,0"
             style="fill:#242c36;fill-opacity:1;fill-rule:nonzero;stroke:none"
             id="path782"
             inkscape:connector-curvature="0" /></g><g
           id="g784"
           transform="translate(46.4153,105.7072)"><path
             d="m 0,0 c 0.047,-0.453 -0.282,-0.859 -0.735,-0.906 -0.453,-0.047 -0.859,0.282 -0.906,0.735 -0.047,0.453 0.282,0.859 0.735,0.906 C -0.453,0.782 -0.047,0.453 0,0"
             style="fill:#242c36;fill-opacity:1;fill-rule:nonzero;stroke:none"
             id="path786"
             inkscape:connector-curvature="0" /></g><g
           id="g788"
           transform="translate(51.8338,99.7358)"><path
             d="M 0,0 C 0.456,0 0.825,-0.369 0.825,-0.825 0.825,-1.281 0.456,-1.65 0,-1.65 c -0.456,0 -0.825,0.369 -0.825,0.825 C -0.825,-0.369 -0.456,0 0,0"
             style="fill:#242c36;fill-opacity:1;fill-rule:nonzero;stroke:none"
             id="path790"
             inkscape:connector-curvature="0" /></g><g
           id="g792"
           transform="translate(52.6543,105.7072)"><path
             d="m 0,0 c 0.047,-0.453 -0.282,-0.859 -0.735,-0.906 -0.453,-0.047 -0.859,0.282 -0.906,0.735 -0.047,0.453 0.282,0.859 0.735,0.906 C -0.453,0.782 -0.047,0.453 0,0"
             style="fill:#242c36;fill-opacity:1;fill-rule:nonzero;stroke:none"
             id="path794"
             inkscape:connector-curvature="0" /></g><g
           id="g796"
           transform="translate(57.694,99.7358)"><path
             d="M 0,0 C 0.456,0 0.825,-0.369 0.825,-0.825 0.825,-1.281 0.456,-1.65 0,-1.65 c -0.456,0 -0.825,0.369 -0.825,0.825 C -0.825,-0.369 -0.456,0 0,0"
             style="fill:#242c36;fill-opacity:1;fill-rule:nonzero;stroke:none"
             id="path798"
             inkscape:connector-curvature="0" /></g><g
           id="g800"
           transform="translate(58.5146,105.7072)"><path
             d="m 0,0 c 0.047,-0.453 -0.282,-0.859 -0.735,-0.906 -0.453,-0.047 -0.859,0.282 -0.906,0.735 -0.047,0.453 0.282,0.859 0.735,0.906 C -0.453,0.782 -0.047,0.453 0,0"
             style="fill:#242c36;fill-opacity:1;fill-rule:nonzero;stroke:none"
             id="path802"
             inkscape:connector-curvature="0" /></g></g></g></g></svg>