<?xml version="1.0" encoding="UTF-8" standalone="no"?>
<svg
   xmlns:dc="http://purl.org/dc/elements/1.1/"
   xmlns:cc="http://creativecommons.org/ns#"
   xmlns:rdf="http://www.w3.org/1999/02/22-rdf-syntax-ns#"
   xmlns:svg="http://www.w3.org/2000/svg"
   xmlns="http://www.w3.org/2000/svg"
   viewBox="0 0 284.548 309.23199"
   height="309.23199"
   width="284.548"
   xml:space="preserve"
   id="svg2"
   version="1.1"><metadata
     id="metadata8"><rdf:RDF><cc:Work
         rdf:about=""><dc:format>image/svg+xml</dc:format><dc:type
           rdf:resource="http://purl.org/dc/dcmitype/StillImage" /><dc:title></dc:title></cc:Work></rdf:RDF></metadata><defs
     id="defs6"><clipPath
       id="clipPath18"
       clipPathUnits="userSpaceOnUse"><path
         id="path16"
         d="M 0,231.924 H 213.411 V 0 H 0 Z" /></clipPath><clipPath
       id="clipPath26"
       clipPathUnits="userSpaceOnUse"><path
         id="path24"
         d="M 20.4152,35.4746 H 192.999 V 0 H 20.4152 Z" /></clipPath><radialGradient
       id="radialGradient38"
       spreadMethod="pad"
       gradientTransform="matrix(80.339111,0,0,-16.507469,107.18177,17.688024)"
       gradientUnits="userSpaceOnUse"
       r="1"
       cy="0"
       cx="0"
       fy="0"
       fx="0"><stop
         id="stop32"
         offset="0"
         style="stop-opacity:1;stop-color:#923319" /><stop
         id="stop34"
         offset="0.24709567"
         style="stop-opacity:1;stop-color:#923319" /><stop
         id="stop36"
         offset="1"
         style="stop-opacity:1;stop-color:#ffffff" /></radialGradient><radialGradient
       id="radialGradient80"
       spreadMethod="pad"
       gradientTransform="matrix(210.87415,0,0,-210.87415,132.30261,182.86279)"
       gradientUnits="userSpaceOnUse"
       r="1"
       cy="0"
       cx="0"
       fy="0"
       fx="0"><stop
         id="stop66"
         offset="0"
         style="stop-opacity:1;stop-color:#f37230" /><stop
         id="stop68"
         offset="0.104396"
         style="stop-opacity:1;stop-color:#f37230" /><stop
         id="stop70"
         offset="0.285714"
         style="stop-opacity:1;stop-color:#ed1c24" /><stop
         id="stop72"
         offset="0.417582"
         style="stop-opacity:1;stop-color:#e01b22" /><stop
         id="stop74"
         offset="0.637363"
         style="stop-opacity:1;stop-color:#aa1c21" /><stop
         id="stop76"
         offset="0.912088"
         style="stop-opacity:1;stop-color:#f5876b" /><stop
         id="stop78"
         offset="1"
         style="stop-opacity:1;stop-color:#f5876b" /></radialGradient><radialGradient
       id="radialGradient108"
       spreadMethod="pad"
       gradientTransform="matrix(201.75282,0,0,-201.75282,129.88316,189.96562)"
       gradientUnits="userSpaceOnUse"
       r="1"
       cy="0"
       cx="0"
       fy="0"
       fx="0"><stop
         id="stop96"
         offset="0"
         style="stop-opacity:1;stop-color:#ffffff" /><stop
         id="stop98"
         offset="0.3"
         style="stop-opacity:1;stop-color:#ffffff" /><stop
         id="stop100"
         offset="0.554945"
         style="stop-opacity:1;stop-color:#bbbdbf" /><stop
         id="stop102"
         offset="0.714286"
         style="stop-opacity:1;stop-color:#afb1b4" /><stop
         id="stop104"
         offset="0.917582"
         style="stop-opacity:1;stop-color:#ffffff" /><stop
         id="stop106"
         offset="1"
         style="stop-opacity:1;stop-color:#ffffff" /></radialGradient><clipPath
       id="clipPath118"
       clipPathUnits="userSpaceOnUse"><path
         id="path116"
         d="M 0,231.924 H 213.411 V 0 H 0 Z" /></clipPath><linearGradient
       id="linearGradient140"
       spreadMethod="pad"
       gradientTransform="matrix(-26.090219,30.013365,30.013365,26.090219,194.71941,178.32996)"
       gradientUnits="userSpaceOnUse"
       y2="0"
       x2="1"
       y1="0"
       x1="0"><stop
         id="stop136"
         offset="0"
         style="stop-opacity:1;stop-color:#e6e7e8" /><stop
         id="stop138"
         offset="1"
         style="stop-opacity:1;stop-color:#ffffff" /></linearGradient><clipPath
       id="clipPath150"
       clipPathUnits="userSpaceOnUse"><path
         id="path148"
         d="M 0,231.924 H 213.411 V 0 H 0 Z" /></clipPath><clipPath
       id="clipPath158"
       clipPathUnits="userSpaceOnUse"><path
         id="path156"
         d="M 38.1696,226.009 H 175.23 V 127.942 H 38.1696 Z" /></clipPath><linearGradient
       id="linearGradient168"
       spreadMethod="pad"
       gradientTransform="matrix(0,-94.688896,-94.688896,0,106.69969,225.65331)"
       gradientUnits="userSpaceOnUse"
       y2="0"
       x2="1"
       y1="0"
       x1="0"><stop
         id="stop164"
         offset="0"
         style="stop-opacity:1;stop-color:#ffffff" /><stop
         id="stop166"
         offset="1"
         style="stop-opacity:1;stop-color:#000000" /></linearGradient></defs><g
     transform="matrix(1.3333333,0,0,-1.3333333,0,309.232)"
     id="g10"><g
       id="g12"><g
         clip-path="url(#clipPath18)"
         id="g14"><g
           id="g20"><g
             id="g22" /><g
             id="g52"><g
               style="opacity:0.75999499"
               id="g50"
               clip-path="url(#clipPath26)"><g
                 id="g48"><g
                   id="g46"><g
                     id="g44"><g
                       id="g42"><path
                         id="path40"
                         style="fill:url(#radialGradient38);fill-rule:evenodd;stroke:none"
                         d="m 106.71,0 c 47.529,0 86.289,7.953 86.289,17.744 0,9.777 -38.76,17.731 -86.289,17.731 -47.533,0 -86.295,-7.954 -86.295,-17.731 C 20.415,7.953 59.177,0 106.71,0" /></g></g></g></g></g></g></g></g></g><g
       id="g54"><g
         id="g56"><g
           id="g62"><g
             id="g64"><path
               id="path82"
               style="fill:url(#radialGradient80);stroke:none"
               d="m 106.407,231.924 c -29.914,-0.048 -59.605,-12.59 -80.519,-37.09 v 0 C -11.995,150.898 -7.744,84.894 34.985,46.144 v 0 c 0.674,-0.613 1.352,-1.216 2.045,-1.809 v 0 C 81.176,6.276 149.049,10.85 187.527,55.48 v 0 C 226,100.102 221.011,167.499 176.385,205.979 v 0 c -0.7,0.601 -1.403,1.189 -2.112,1.77 v 0 c -0.703,0.581 -1.422,1.147 -2.135,1.706 v 0 h -0.005 c -0.715,0.56 -1.439,1.108 -2.167,1.645 v 0 h -0.005 c -0.728,0.538 -1.458,1.067 -2.202,1.584 v 0 c -18.397,12.867 -39.776,19.216 -61.059,19.24 v 0 z" /></g></g></g></g><g
       id="g84"><g
         id="g86"><g
           id="g92"><g
             id="g94"><path
               id="path110"
               style="fill:url(#radialGradient108);stroke:none"
               d="M 48.082,172.547 C 6.414,125.407 4.208,73.077 37.03,44.335 v 0 c -12.618,12.062 0.581,44.777 45.957,97.853 v 0 c 45.387,53.08 82.858,72.88 93.398,63.791 v 0 c -10.23,8.82 -23.707,13.185 -38.694,13.184 v 0 c -28.448,-0.002 -62.317,-15.74 -89.609,-46.616 m 92.095,-79.05 C 101.038,47.644 61.261,26.262 37.03,44.335 v 0 C 73.218,14.323 134.405,16.392 175.328,64.316 v 0 c 40.932,47.909 34.324,112.984 1.057,141.663 v 0 c 22.424,-19.335 2.946,-66.627 -36.208,-112.482" /></g></g></g></g><g
       id="g112"><g
         clip-path="url(#clipPath118)"
         id="g114"><g
           transform="translate(197.4534,181.3799)"
           id="g120"><path
             id="path122"
             style="fill:#000000;fill-opacity:1;fill-rule:evenodd;stroke:none"
             d="m 0,0 c -3.94,1.042 -14.305,8.234 -25.609,17.97 -11.3,9.753 -19.944,18.951 -21.545,22.69 9.416,-4.158 18.392,-9.76 26.597,-16.831 0.373,-0.326 0.738,-0.651 1.108,-0.98 C -11.736,16.019 -5.249,8.306 0,0" /></g></g></g><g
       id="g124"><g
         id="g126"><g
           id="g132"><g
             id="g134"><path
               id="path142"
               style="fill:url(#linearGradient140);stroke:none"
               d="m 171.337,200.122 c 11.299,-9.74 21.662,-16.932 25.609,-17.975 v 0 c -5.249,8.306 -11.743,16.02 -19.453,22.849 v 0 c -0.366,0.331 -0.738,0.658 -1.108,0.983 v 0 c -8.201,7.068 -17.177,12.671 -26.598,16.828 v 0 c 1.601,-3.739 10.243,-12.937 21.55,-22.685" /></g></g></g></g><g
       id="g144"><g
         clip-path="url(#clipPath150)"
         id="g146"><g
           id="g152"><g
             id="g154" /><g
             id="g182"><g
               style="opacity:0.63999897"
               id="g180"
               clip-path="url(#clipPath158)"><g
                 id="g178"><g
                   id="g176"><g
                     id="g174"><g
                       id="g172"><path
                         id="path170"
                         style="fill:url(#linearGradient168);fill-rule:evenodd;stroke:none"
                         d="m 106.7,127.942 c 37.742,0 68.53,22.028 68.53,49.035 0,27.004 -30.788,49.032 -68.53,49.032 -37.748,0 -68.53,-22.028 -68.53,-49.032 0,-27.007 30.782,-49.035 68.53,-49.035" /></g></g></g></g></g></g></g></g></g></g></svg>