<?xml version="1.0" encoding="UTF-8" standalone="no"?>
<svg
   xmlns:dc="http://purl.org/dc/elements/1.1/"
   xmlns:cc="http://creativecommons.org/ns#"
   xmlns:rdf="http://www.w3.org/1999/02/22-rdf-syntax-ns#"
   xmlns:svg="http://www.w3.org/2000/svg"
   xmlns="http://www.w3.org/2000/svg"
   viewBox="0 0 78.27813 94.820663"
   height="94.820663"
   width="78.27813"
   xml:space="preserve"
   id="svg2"
   version="1.1"><metadata
     id="metadata8"><rdf:RDF><cc:Work
         rdf:about=""><dc:format>image/svg+xml</dc:format><dc:type
           rdf:resource="http://purl.org/dc/dcmitype/StillImage" /><dc:title></dc:title></cc:Work></rdf:RDF></metadata><defs
     id="defs6"><clipPath
       id="clipPath18"
       clipPathUnits="userSpaceOnUse"><path
         id="path16"
         d="M 0,71.115 H 58.709 V 0 H 0 Z" /></clipPath><clipPath
       id="clipPath26"
       clipPathUnits="userSpaceOnUse"><path
         id="path24"
         d="M 0,59.0575 H 58.7086 V 0 H 0 Z" /></clipPath><clipPath
       id="clipPath54"
       clipPathUnits="userSpaceOnUse"><path
         id="path52"
         d="M 21.1516,59.0575 H 37.9354 V 53.6399 H 21.1516 Z" /></clipPath><clipPath
       id="clipPath78"
       clipPathUnits="userSpaceOnUse"><path
         id="path76"
         d="M 20.3488,69.1199 H 30.6816 V 60.8555 H 20.3488 Z" /></clipPath><clipPath
       id="clipPath94"
       clipPathUnits="userSpaceOnUse"><path
         id="path92"
         d="m 30.7947,66.9547 h 4.2627 v -4.9725 h -4.2627 z" /></clipPath><clipPath
       id="clipPath114"
       clipPathUnits="userSpaceOnUse"><path
         id="path112"
         d="m 24.7356,71.098 h 6.4358 v -4.005 h -6.4358 z" /></clipPath><clipPath
       id="clipPath130"
       clipPathUnits="userSpaceOnUse"><path
         id="path128"
         d="M 22.5649,40.8341 H 50.7632 V 16.7898 H 22.5649 Z" /></clipPath><clipPath
       id="clipPath146"
       clipPathUnits="userSpaceOnUse"><path
         id="path144"
         d="M 32.9261,36.8092 H 44.9438 V 26.0277 H 32.9261 Z" /></clipPath><clipPath
       id="clipPath162"
       clipPathUnits="userSpaceOnUse"><path
         id="path160"
         d="M 7.49821,39.6021 H 41.6334 V 4.25533 H 7.49821 Z" /></clipPath><clipPath
       id="clipPath166"
       clipPathUnits="userSpaceOnUse"><path
         id="path164"
         d="M 7.49821,39.6021 H 41.6334 V 4.25533 H 7.49821 Z" /></clipPath><clipPath
       id="clipPath190"
       clipPathUnits="userSpaceOnUse"><path
         id="path188"
         d="m 20.3488,40.042 h 2.9458 v -2.9459 h -2.9458 z" /></clipPath><clipPath
       id="clipPath206"
       clipPathUnits="userSpaceOnUse"><path
         id="path204"
         d="m 41.6334,13.4901 h 2.946 v -2.9459 h -2.946 z" /></clipPath><clipPath
       id="clipPath222"
       clipPathUnits="userSpaceOnUse"><path
         id="path220"
         d="m 26.0387,15.9039 h 2.0744 v -2.0741 h -2.0744 z" /></clipPath><clipPath
       id="clipPath238"
       clipPathUnits="userSpaceOnUse"><path
         id="path236"
         d="m 31.2436,6.90021 h 1.2817 V 5.6185 h -1.2817 z" /></clipPath><clipPath
       id="clipPath254"
       clipPathUnits="userSpaceOnUse"><path
         id="path252"
         d="m 27.8813,25.2911 h 1.4731 v -1.4728 h -1.4731 z" /></clipPath><clipPath
       id="clipPath270"
       clipPathUnits="userSpaceOnUse"><path
         id="path268"
         d="m 30.0583,50.4143 h 1.4728 v -1.4729 h -1.4728 z" /></clipPath><clipPath
       id="clipPath286"
       clipPathUnits="userSpaceOnUse"><path
         id="path284"
         d="m 51.2302,25.2911 h 1.473 v -1.4728 h -1.473 z" /></clipPath></defs><g
     transform="matrix(1.3333333,0,0,-1.3333333,0,94.820667)"
     id="g10"><g
       id="g12"><g
         clip-path="url(#clipPath18)"
         id="g14"><g
           id="g20"><g
             id="g22" /><g
             id="g34"><g
               style="opacity:0.55000299"
               id="g32"
               clip-path="url(#clipPath26)"><g
                 id="g30"
                 transform="translate(21.1516,59.0575)"><path
                   id="path28"
                   style="fill:#a4cad3;fill-opacity:1;fill-rule:nonzero;stroke:none"
                   d="m 0,0 1.855,-13.256 c 0,0 -20.759,-1.761 -22.791,-20.047 -2.031,-18.286 10.468,-25.485 29.814,-25.75 19.346,-0.265 29.548,12.016 28.621,25.619 -0.928,13.602 -15.503,19.465 -22.526,20.178 L 16.784,0 Z" /></g></g></g></g><g
           transform="translate(12.4014,15.9445)"
           id="g36"><path
             id="path38"
             style="fill:#56e8a1;fill-opacity:1;fill-rule:nonzero;stroke:none"
             d="M 0,0 C 0.238,-0.082 1.553,-0.615 1.727,-0.673 2.639,-0.982 3.555,-1.284 4.492,-1.512 5.44,-1.743 6.39,-1.97 7.353,-2.134 c 0.19,-0.032 1.763,-0.219 1.936,-0.254 3.23,-0.288 6.466,-0.406 9.707,-0.507 3.525,-0.109 7.086,-0.247 10.603,0.094 0.247,0.024 0.432,0.039 0.573,0.05 0.024,0.004 0.044,0.008 0.069,0.013 0.85,0.164 1.704,0.327 2.537,0.566 0.533,0.153 1.067,0.308 1.594,0.483 0.293,0.151 1.311,0.609 1.525,0.737 3.207,1.917 5.983,4.274 8.943,6.231 0.218,1.487 0.233,2.996 -0.046,4.492 -9.3,2.357 -17.631,2.702 -28.845,3.057 -10.295,0.327 -22.342,-1.434 -26.492,-3.66 -0.025,-1.003 0.015,-1.97 0.099,-2.907 C -7.063,4.016 -3.719,1.711 0,0" /></g><g
           transform="translate(29.4668,18.9245)"
           id="g40"><path
             id="path42"
             style="fill:#26b258;fill-opacity:1;fill-rule:nonzero;stroke:none"
             d="m 0,0 c -13.327,0.029 -23.905,3.029 -27.608,6.188 -0.083,-3.343 0.495,-6.326 1.373,-8.89 2.184,-6.375 7.583,-11.144 14.139,-12.695 3.319,-0.784 7.331,-1.496 11.192,-1.574 4.189,-0.085 8.242,0.373 11.565,0.962 5.336,0.947 10.084,4.028 13.058,8.558 2.595,3.952 4.954,9.172 4.009,14.242 C 24.408,3.328 14.449,-0.031 0,0" /></g><g
           transform="translate(29.9249,2.1411)"
           id="g44"><path
             id="path46"
             style="fill:#e2eef1;fill-opacity:1;fill-rule:nonzero;stroke:none"
             d="m 0,0 c -16.351,0.246 -26.915,6.924 -25.198,23.887 1.717,16.962 20.819,18.595 20.819,18.595 L -6.123,56.099 H 5.133 L 3.309,42.482 C 9.244,41.821 23.407,36.383 24.191,23.765 24.974,11.147 16.351,-0.246 0,0 M 28.726,23.482 C 27.798,37.085 13.223,42.947 6.2,43.66 L 8.01,56.916 H -8.773 L -6.918,43.66 c 0,0 -20.76,-1.761 -22.791,-20.047 C -31.741,5.328 -19.241,-1.872 0.105,-2.137 19.45,-2.402 29.653,9.88 28.726,23.482" /></g><g
           id="g48"><g
             id="g50" /><g
             id="g62"><g
               style="opacity:0.55000299"
               id="g60"
               clip-path="url(#clipPath54)"><g
                 id="g58"
                 transform="translate(28.328,53.7599)"><path
                   id="path56"
                   style="fill:#a4cad3;fill-opacity:1;fill-rule:nonzero;stroke:none"
                   d="M 0,0 C 2.782,-0.297 6.028,-0.041 8.986,0.745 L 9.607,5.298 H -7.176 L -6.66,1.607 C -4.475,0.92 -2.287,0.244 0,0" /></g></g></g></g><g
           transform="translate(29.6248,66.4117)"
           id="g64"><path
             id="path66"
             style="fill:#eff6f7;fill-opacity:1;fill-rule:nonzero;stroke:none"
             d="m 0,0 c 0,0 -12.396,-0.557 -12.175,-3.853 0.22,-3.296 5.068,-5.757 12.505,-5.71 7.438,0.046 11.57,2.924 11.294,4.967 C 11.349,-2.553 7.823,-0.186 0,0" /></g><g
           transform="translate(20.3488,69.1199)"
           id="g68"><path
             id="path70"
             style="fill:#615f5f;fill-opacity:1;fill-rule:nonzero;stroke:none"
             d="m 0,0 1.377,-6.386 c 0,0 2.808,-1.925 7.893,-1.878 5.086,0.047 7.576,2.301 7.576,2.301 l 1.165,5.634 z" /></g><g
           id="g72"><g
             id="g74" /><g
             id="g86"><g
               style="opacity:0.75"
               id="g84"
               clip-path="url(#clipPath78)"><g
                 id="g82"
                 transform="translate(27.5183,68.007)"><path
                   id="path80"
                   style="fill:#615f5f;fill-opacity:1;fill-rule:nonzero;stroke:none"
                   d="m 0,0 c -0.011,0.329 -0.005,0.656 0.016,0.982 l -7.185,0.131 1.377,-6.386 c 0,0 2.807,-1.925 7.893,-1.878 0.369,0.004 0.72,0.021 1.062,0.047 C 1.305,-5.306 0.099,-2.844 0,0" /></g></g></g></g><g
           id="g88"><g
             id="g90" /><g
             id="g102"><g
               id="g100"
               clip-path="url(#clipPath94)"><g
                 id="g98"
                 transform="translate(31.2226,66.4805)"><path
                   id="path96"
                   style="fill:#615f5f;fill-opacity:1;fill-rule:nonzero;stroke:none"
                   d="m 0,0 c -0.006,-0.717 -0.039,-1.431 -0.115,-2.135 -0.085,-0.788 -0.197,-1.576 -0.313,-2.363 0.363,0.048 0.727,0.096 1.089,0.147 0.871,0.122 1.729,0.329 2.571,0.587 0.11,1.041 0.24,2.08 0.4,3.115 C 3.69,-0.277 3.76,0.098 3.835,0.474 2.386,-0.057 1.323,-0.084 0,0" /></g></g></g></g><g
           transform="translate(20.3488,69.1199)"
           id="g104"><path
             id="path106"
             style="fill:#898787;fill-opacity:1;fill-rule:nonzero;stroke:none"
             d="m 0,0 c 0,0 2.993,-2.23 9.456,-2.019 6.463,0.211 8.555,1.69 8.555,1.69 0,0 -2.035,2.31 -9.005,2.324 C 2.861,2.008 0.605,0.568 0,0" /></g><g
           id="g108"><g
             id="g110" /><g
             id="g122"><g
               id="g120"
               clip-path="url(#clipPath114)"><g
                 id="g118"
                 transform="translate(28.5504,70.0544)"><path
                   id="path116"
                   style="fill:#898787;fill-opacity:1;fill-rule:nonzero;stroke:none"
                   d="m 0,0 c -1.161,-0.763 -2.319,-1.531 -3.478,-2.298 -0.113,-0.088 -0.224,-0.18 -0.337,-0.268 1.266,-0.252 2.809,-0.423 4.656,-0.392 0.074,0.204 0.143,0.409 0.226,0.61 0.467,1.14 0.999,2.247 1.554,3.343 C 2.308,1.016 1.984,1.032 1.65,1.044 1.099,0.696 0.542,0.356 0,0" /></g></g></g></g><g
           id="g124"><g
             id="g126" /><g
             id="g138"><g
               style="opacity:0.32000703"
               id="g136"
               clip-path="url(#clipPath130)"><g
                 id="g134"
                 transform="translate(50.5126,25.0844)"><path
                   id="path132"
                   style="fill:#ffff83;fill-opacity:1;fill-rule:nonzero;stroke:none"
                   d="m 0,0 c -1.418,-6.083 -8.534,-9.743 -16.299,-7.747 -8.345,2.143 -13.484,9.698 -11.037,16.345 2.306,6.263 10.363,8.769 17.657,6.084 C -2.845,12.165 1.345,5.772 0,0" /></g></g></g></g><g
           id="g140"><g
             id="g142" /><g
             id="g154"><g
               style="opacity:0.75"
               id="g152"
               clip-path="url(#clipPath146)"><g
                 id="g150"
                 transform="translate(44.5512,28.9083)"><path
                   id="path148"
                   style="fill:#ffff83;fill-opacity:1;fill-rule:nonzero;stroke:none"
                   d="m 0,0 c -1.177,-2.634 -4.646,-3.646 -7.748,-2.259 -3.102,1.386 -4.662,4.645 -3.485,7.279 1.178,2.634 4.647,3.646 7.748,2.26 C -0.383,5.893 1.177,2.634 0,0" /></g></g></g></g><g
           id="g156"><g
             id="g158" /><g
             id="g182"><g
               id="g180"
               clip-path="url(#clipPath162)"><g
                 id="g178"><g
                   id="g168" /><g
                   id="g176"><g
                     style="opacity:0.55000299"
                     id="g174"
                     clip-path="url(#clipPath166)"><g
                       id="g172"
                       transform="translate(16.0061,39.6021)"><path
                         id="path170"
                         style="fill:#01182c;fill-opacity:1;fill-rule:nonzero;stroke:none"
                         d="m 0,0 c -3.686,-2.538 -8.237,-7.333 -8.482,-12.685 -0.013,-0.288 -0.021,-0.573 -0.024,-0.857 -0.133,-11.062 8.377,-20.333 19.372,-21.569 4.799,-0.539 10.218,-0.283 14.761,2.153 -4.583,2.723 -11.502,7.49 -17.101,12.903 C 3.186,-14.893 -0.4,-1.254 0,0" /></g></g></g></g></g></g></g><g
           id="g184"><g
             id="g186" /><g
             id="g198"><g
               style="opacity:0.55000299"
               id="g196"
               clip-path="url(#clipPath190)"><g
                 id="g194"
                 transform="translate(23.2946,38.569)"><path
                   id="path192"
                   style="fill:#eaf1d0;fill-opacity:1;fill-rule:nonzero;stroke:none"
                   d="m 0,0 c 0,-0.813 -0.659,-1.473 -1.473,-1.473 -0.813,0 -1.473,0.66 -1.473,1.473 0,0.814 0.66,1.473 1.473,1.473 C -0.659,1.473 0,0.814 0,0" /></g></g></g></g><g
           id="g200"><g
             id="g202" /><g
             id="g214"><g
               style="opacity:0.55000299"
               id="g212"
               clip-path="url(#clipPath206)"><g
                 id="g210"
                 transform="translate(44.5794,12.0172)"><path
                   id="path208"
                   style="fill:#a9c43a;fill-opacity:1;fill-rule:nonzero;stroke:none"
                   d="m 0,0 c 0,-0.814 -0.659,-1.473 -1.473,-1.473 -0.814,0 -1.473,0.659 -1.473,1.473 0,0.813 0.659,1.473 1.473,1.473 C -0.659,1.473 0,0.813 0,0" /></g></g></g></g><g
           id="g216"><g
             id="g218" /><g
             id="g230"><g
               style="opacity:0.55000299"
               id="g228"
               clip-path="url(#clipPath222)"><g
                 id="g226"
                 transform="translate(28.1131,14.8668)"><path
                   id="path224"
                   style="fill:#a9c43a;fill-opacity:1;fill-rule:nonzero;stroke:none"
                   d="m 0,0 c 0,-0.573 -0.464,-1.037 -1.037,-1.037 -0.573,0 -1.037,0.464 -1.037,1.037 0,0.573 0.464,1.037 1.037,1.037 C -0.464,1.037 0,0.573 0,0" /></g></g></g></g><g
           id="g232"><g
             id="g234" /><g
             id="g246"><g
               style="opacity:0.55000299"
               id="g244"
               clip-path="url(#clipPath238)"><g
                 id="g242"
                 transform="translate(32.5253,6.2594)"><path
                   id="path240"
                   style="fill:#a9c43a;fill-opacity:1;fill-rule:nonzero;stroke:none"
                   d="m 0,0 c 0,-0.354 -0.287,-0.641 -0.641,-0.641 -0.354,0 -0.641,0.287 -0.641,0.641 0,0.354 0.287,0.641 0.641,0.641 C -0.287,0.641 0,0.354 0,0" /></g></g></g></g><g
           id="g248"><g
             id="g250" /><g
             id="g262"><g
               style="opacity:0.55000299"
               id="g260"
               clip-path="url(#clipPath254)"><g
                 id="g258"
                 transform="translate(29.3544,24.5548)"><path
                   id="path256"
                   style="fill:#a9c43a;fill-opacity:1;fill-rule:nonzero;stroke:none"
                   d="m 0,0 c 0,-0.407 -0.33,-0.737 -0.737,-0.737 -0.406,0 -0.736,0.33 -0.736,0.737 0,0.407 0.33,0.736 0.736,0.736 C -0.33,0.736 0,0.407 0,0" /></g></g></g></g><g
           id="g264"><g
             id="g266" /><g
             id="g278"><g
               style="opacity:0.55000299"
               id="g276"
               clip-path="url(#clipPath270)"><g
                 id="g274"
                 transform="translate(31.5311,49.6778)"><path
                   id="path272"
                   style="fill:#eaf1d0;fill-opacity:1;fill-rule:nonzero;stroke:none"
                   d="m 0,0 c 0,-0.407 -0.33,-0.736 -0.736,-0.736 -0.407,0 -0.737,0.329 -0.737,0.736 0,0.407 0.33,0.736 0.737,0.736 C -0.33,0.736 0,0.407 0,0" /></g></g></g></g><g
           id="g280"><g
             id="g282" /><g
             id="g294"><g
               style="opacity:0.55000299"
               id="g292"
               clip-path="url(#clipPath286)"><g
                 id="g290"
                 transform="translate(52.7032,24.5548)"><path
                   id="path288"
                   style="fill:#a9c43a;fill-opacity:1;fill-rule:nonzero;stroke:none"
                   d="m 0,0 c 0,-0.407 -0.33,-0.737 -0.736,-0.737 -0.407,0 -0.737,0.33 -0.737,0.737 0,0.407 0.33,0.736 0.737,0.736 C -0.33,0.736 0,0.407 0,0" /></g></g></g></g></g></g></g></svg>