<?xml version="1.0" encoding="UTF-8" standalone="no"?>
<svg
   xmlns:dc="http://purl.org/dc/elements/1.1/"
   xmlns:cc="http://creativecommons.org/ns#"
   xmlns:rdf="http://www.w3.org/1999/02/22-rdf-syntax-ns#"
   xmlns:svg="http://www.w3.org/2000/svg"
   xmlns="http://www.w3.org/2000/svg"
   viewBox="0 0 99.685867 91.218933"
   height="91.218933"
   width="99.685867"
   xml:space="preserve"
   id="svg2"
   version="1.1"><metadata
     id="metadata8"><rdf:RDF><cc:Work
         rdf:about=""><dc:format>image/svg+xml</dc:format><dc:type
           rdf:resource="http://purl.org/dc/dcmitype/StillImage" /><dc:title></dc:title></cc:Work></rdf:RDF></metadata><defs
     id="defs6"><clipPath
       id="clipPath18"
       clipPathUnits="userSpaceOnUse"><path
         id="path16"
         d="M 0,68.414 H 74.764 V 0 H 0 Z" /></clipPath><clipPath
       id="clipPath34"
       clipPathUnits="userSpaceOnUse"><path
         id="path32"
         d="M 8.47231,26.4229 H 54.739 V 1.51601 H 8.47231 Z" /></clipPath><clipPath
       id="clipPath70"
       clipPathUnits="userSpaceOnUse"><path
         id="path68"
         d="M 30.5525,60.1896 H 47.196 V 49.577 H 30.5525 Z" /></clipPath><clipPath
       id="clipPath86"
       clipPathUnits="userSpaceOnUse"><path
         id="path84"
         d="M 17.641,55.8772 H 51.2085 V 36.9165 H 17.641 Z" /></clipPath><clipPath
       id="clipPath110"
       clipPathUnits="userSpaceOnUse"><path
         id="path108"
         d="m 30.0414,37.3639 h 41.606 V 11.2186 h -41.606 z" /></clipPath><clipPath
       id="clipPath146"
       clipPathUnits="userSpaceOnUse"><path
         id="path144"
         d="M 59.8153,63.1107 H 73.4692 V 49.5975 H 59.8153 Z" /></clipPath><clipPath
       id="clipPath162"
       clipPathUnits="userSpaceOnUse"><path
         id="path160"
         d="M 46.2232,62.3144 H 74.0349 V 36.3283 H 46.2232 Z" /></clipPath><clipPath
       id="clipPath178"
       clipPathUnits="userSpaceOnUse"><path
         id="path176"
         d="M 27.7432,63.0806 H 73.2818 V 9.96921 H 27.7432 Z" /></clipPath><clipPath
       id="clipPath194"
       clipPathUnits="userSpaceOnUse"><path
         id="path192"
         d="m 11.7618,61.6405 h 45.507 V 4.657 h -45.507 z" /></clipPath><clipPath
       id="clipPath214"
       clipPathUnits="userSpaceOnUse"><path
         id="path212"
         d="M 21.4216,35.8375 H 66.6189 V 10.372 H 21.4216 Z" /></clipPath><clipPath
       id="clipPath250"
       clipPathUnits="userSpaceOnUse"><path
         id="path248"
         d="M 45.9936,67.4259 H 61.8549 V 55.857 H 45.9936 Z" /></clipPath><clipPath
       id="clipPath266"
       clipPathUnits="userSpaceOnUse"><path
         id="path264"
         d="m 32.7807,64.1459 h 32.073 V 42.9188 h -32.073 z" /></clipPath></defs><g
     transform="matrix(1.3333333,0,0,-1.3333333,0,91.218933)"
     id="g10"><g
       id="g12"><g
         clip-path="url(#clipPath18)"
         id="g14"><g
           transform="translate(0,48.5826)"
           id="g20"><path
             id="path22"
             style="fill:#31c4e6;fill-opacity:1;fill-rule:nonzero;stroke:none"
             d="m 0,0 15.704,-48.583 35.076,11.268 c 4.794,1.793 7.41,3.141 6.191,7.132 -3.045,9.976 -11.932,38.249 -12.747,40.173 -1.003,2.366 -1.352,4.347 -8.249,2.05 z" /></g><g
           transform="translate(0,48.5826)"
           id="g24"><path
             id="path26"
             style="fill:#ef0c28;fill-opacity:1;fill-rule:nonzero;stroke:none"
             d="m 0,0 15.704,-48.583 35.076,11.268 c 4.794,1.793 7.41,3.141 6.191,7.132 -3.045,9.976 -11.932,38.249 -12.747,40.173 -1.003,2.366 -1.352,4.347 -8.249,2.05 z" /></g><g
           id="g28"><g
             id="g30" /><g
             id="g42"><g
               style="opacity:0.32000703"
               id="g40"
               clip-path="url(#clipPath34)"><g
                 id="g38"
                 transform="translate(37.8648,13.3204)"><path
                   id="path36"
                   style="fill:#856261;fill-opacity:1;fill-rule:nonzero;stroke:none"
                   d="m 0,0 c -7.018,0.341 -13.053,1.782 -19.074,5.461 -3.34,2.041 -7.209,4.621 -10.319,7.641 l 8.052,-24.906 33.202,10.665 c 2.234,0.836 3.966,1.571 5.013,2.552 C 11.687,-0.075 5.887,-0.286 0,0" /></g></g></g></g><g
           transform="translate(16.9541,48.4163)"
           id="g44"><path
             id="path46"
             style="fill:#848484;fill-opacity:1;fill-rule:nonzero;stroke:none"
             d="M 0,0 0.748,-2.406 13.495,1.826 12.728,4.31 Z" /></g><g
           transform="translate(12.1616,39.2021)"
           id="g48"><path
             id="path50"
             style="fill:#848484;fill-opacity:1;fill-rule:nonzero;stroke:none"
             d="M 0,0 26.458,8.619 C 26.377,8.882 26.301,9.146 26.227,9.411 L -0.246,0.699 C -0.163,0.466 -0.081,0.233 0,0" /></g><g
           transform="translate(13.3906,35.5744)"
           id="g52"><path
             id="path54"
             style="fill:#848484;fill-opacity:1;fill-rule:nonzero;stroke:none"
             d="M 0,0 26.522,8.557 C 26.425,8.813 26.33,9.068 26.235,9.324 L -0.234,0.696 C -0.156,0.464 -0.079,0.233 0,0" /></g><g
           transform="translate(14.6128,31.974)"
           id="g56"><path
             id="path58"
             style="fill:#848484;fill-opacity:1;fill-rule:nonzero;stroke:none"
             d="M 0,0 26.57,8.49 C 26.494,8.75 26.414,9.008 26.333,9.267 L -0.228,0.691 C -0.15,0.46 -0.076,0.23 0,0" /></g><g
           transform="translate(15.6834,28.3546)"
           id="g60"><path
             id="path62"
             style="fill:#848484;fill-opacity:1;fill-rule:nonzero;stroke:none"
             d="m 0,0 26.611,8.421 c -0.088,0.253 -0.169,0.51 -0.25,0.766 L -0.184,0.699 C -0.121,0.466 -0.058,0.234 0,0" /></g><g
           id="g64"><g
             id="g66" /><g
             id="g78"><g
               style="opacity:0.55000299"
               id="g76"
               clip-path="url(#clipPath70)"><g
                 id="g74"
                 transform="translate(30.5525,58.8077)"><path
                   id="path72"
                   style="fill:#31c4e6;fill-opacity:1;fill-rule:nonzero;stroke:none"
                   d="m 0,0 16.643,-9.231 c -0.482,1.506 -0.926,2.886 -1.318,4.093 L 4.13,1.382 Z" /></g></g></g></g><g
           id="g80"><g
             id="g82" /><g
             id="g94"><g
               style="opacity:0.55000299"
               id="g92"
               clip-path="url(#clipPath86)"><g
                 id="g90"
                 transform="translate(17.641,54.4865)"><path
                   id="path88"
                   style="fill:#31c4e6;fill-opacity:1;fill-rule:nonzero;stroke:none"
                   d="m 0,0 33.567,-17.57 c -0.423,1.347 -0.847,2.692 -1.266,4.018 L 4.155,1.391 Z" /></g></g></g></g><g
           transform="translate(27.6525,60.9674)"
           id="g96"><path
             id="path98"
             style="fill:#31c4e6;fill-opacity:1;fill-rule:nonzero;stroke:none"
             d="m 0,0 2.467,-50.998 36.801,1.712 c 5.096,0.479 7.973,1.096 7.839,5.267 -0.333,10.425 -1.524,40.039 -1.809,42.109 -0.35,2.546 -0.169,4.549 -7.426,4.133 z" /></g><g
           transform="translate(27.6525,60.9674)"
           id="g100"><path
             id="path102"
             style="fill:#ffc346;fill-opacity:1;fill-rule:nonzero;stroke:none"
             d="m 0,0 2.467,-50.998 36.801,1.712 c 5.096,0.479 7.973,1.096 7.839,5.267 -0.333,10.425 -1.524,40.039 -1.809,42.109 -0.35,2.546 -0.169,4.549 -7.426,4.133 z" /></g><g
           id="g104"><g
             id="g106" /><g
             id="g118"><g
               style="opacity:0.64999402"
               id="g116"
               clip-path="url(#clipPath110)"><g
                 id="g114"
                 transform="translate(54.9901,17.0377)"><path
                   id="path112"
                   style="fill:#ceae63;fill-opacity:1;fill-rule:nonzero;stroke:none"
                   d="m 0,0 c -6.685,2.163 -12.134,5.13 -16.985,10.254 -2.69,2.843 -5.751,6.344 -7.964,10.072 l 1.265,-26.145 34.836,1.621 c 2.375,0.223 4.238,0.481 5.505,1.153 C 11.261,-3.126 5.608,-1.815 0,0" /></g></g></g></g><g
           transform="translate(43.9744,56.3776)"
           id="g120"><path
             id="path122"
             style="fill:#ada2ab;fill-opacity:1;fill-rule:nonzero;stroke:none"
             d="m 0,0 0.093,-2.518 13.411,0.755 -0.092,2.598 z" /></g><g
           transform="translate(36.9411,48.7354)"
           id="g124"><path
             id="path126"
             style="fill:#ada2ab;fill-opacity:1;fill-rule:nonzero;stroke:none"
             d="m 0,0 27.791,1.407 c -0.009,0.275 -0.014,0.55 -0.017,0.825 L -0.055,0.739 C -0.035,0.493 -0.017,0.246 0,0" /></g><g
           transform="translate(37.1797,44.9126)"
           id="g128"><path
             id="path130"
             style="fill:#ada2ab;fill-opacity:1;fill-rule:nonzero;stroke:none"
             d="M 0,0 27.837,1.331 C 27.81,1.604 27.785,1.875 27.76,2.146 L -0.044,0.733 C -0.03,0.489 -0.015,0.245 0,0" /></g><g
           transform="translate(37.4189,41.118)"
           id="g132"><path
             id="path134"
             style="fill:#ada2ab;fill-opacity:1;fill-rule:nonzero;stroke:none"
             d="M 0,0 27.865,1.254 C 27.86,1.524 27.849,1.795 27.84,2.065 L -0.04,0.727 C -0.025,0.484 -0.013,0.242 0,0" /></g><g
           transform="translate(37.5067,37.3447)"
           id="g136"><path
             id="path138"
             style="fill:#ada2ab;fill-opacity:1;fill-rule:nonzero;stroke:none"
             d="m 0,0 27.887,1.177 c -0.019,0.267 -0.03,0.535 -0.042,0.804 L 0.005,0.723 C 0.005,0.482 0.005,0.241 0,0" /></g><g
           id="g140"><g
             id="g142" /><g
             id="g154"><g
               style="opacity:0.55000299"
               id="g152"
               clip-path="url(#clipPath146)"><g
                 id="g150"
                 transform="translate(59.8153,62.8556)"><path
                   id="path148"
                   style="fill:#31c4e6;fill-opacity:1;fill-rule:nonzero;stroke:none"
                   d="m 0,0 13.654,-13.258 c -0.072,1.579 -0.14,3.027 -0.203,4.295 L 4.347,0.255 Z" /></g></g></g></g><g
           id="g156"><g
             id="g158" /><g
             id="g170"><g
               style="opacity:0.55000299"
               id="g168"
               clip-path="url(#clipPath162)"><g
                 id="g166"
                 transform="translate(46.2232,62.0576)"><path
                   id="path164"
                   style="fill:#31c4e6;fill-opacity:1;fill-rule:nonzero;stroke:none"
                   d="m 0,0 27.812,-25.729 c -0.057,1.411 -0.115,2.819 -0.173,4.209 L 4.374,0.257 Z" /></g></g></g></g><g
           id="g172"><g
             id="g174" /><g
             id="g186"><g
               style="opacity:0.64999402"
               id="g184"
               clip-path="url(#clipPath178)"><g
                 id="g182"
                 transform="translate(68.8306,41.1656)"><path
                   id="path180"
                   style="fill:#ceae63;fill-opacity:1;fill-rule:nonzero;stroke:none"
                   d="m 0,0 v 0 c -0.016,0.07 -0.032,0.14 -0.048,0.21 -0.298,1.296 -0.595,2.588 -0.889,3.864 -0.003,0.01 -0.005,0.021 -0.007,0.031 -1.965,8.512 -3.768,16.172 -4.238,17.81 l -1.777,-0.104 -2.056,-0.121 -9.218,-0.541 -4.374,-0.257 -8.587,-0.504 -0.879,-0.219 -9.014,-2.242 2.376,-49.123 15.269,0.71 20.987,4.951 c 4.92,1.409 7.635,2.545 6.736,6.62 C 3.355,-14.72 1.688,-7.353 0,0" /></g></g></g></g><g
           id="g188"><g
             id="g190" /><g
             id="g202"><g
               style="opacity:0.32000703"
               id="g200"
               clip-path="url(#clipPath194)"><g
                 id="g198"
                 transform="translate(51.2085,36.9165)"><path
                   id="path196"
                   style="fill:#967877;fill-opacity:1;fill-rule:nonzero;stroke:none"
                   d="m 0,0 v 0 c -0.018,0.058 -0.036,0.116 -0.055,0.174 -3.215,10.219 -6.452,20.357 -6.929,21.482 -0.691,1.631 -1.074,3.078 -3.501,3.068 l -6.646,-1.653 -2.751,-0.921 -0.774,-0.259 -8.756,-2.93 -4.155,-1.391 -5.88,-1.968 11.383,-47.862 26.566,6.267 1.07,0.344 c 4.793,1.794 7.409,3.141 6.191,7.132 C 4.509,-14.409 2.264,-7.197 0,0" /></g></g></g></g><g
           transform="translate(14.7281,58.5977)"
           id="g204"><path
             id="path206"
             style="fill:#31c4e6;fill-opacity:1;fill-rule:nonzero;stroke:none"
             d="m 0,0 11.813,-49.672 35.857,8.458 c 4.921,1.409 7.635,2.545 6.736,6.62 -2.247,10.186 -8.87,39.074 -9.53,41.056 -0.813,2.438 -1.005,4.44 -8.061,2.696 z" /></g><g
           id="g208"><g
             id="g210" /><g
             id="g222"><g
               style="opacity:0.32000703"
               id="g220"
               clip-path="url(#clipPath214)"><g
                 id="g218"
                 transform="translate(49.6858,20.4517)"><path
                   id="path216"
                   style="fill:#31c4e6;fill-opacity:1;fill-rule:nonzero;stroke:none"
                   d="m 0,0 c -6.969,0.895 -12.871,2.809 -18.582,6.952 -3.168,2.299 -6.821,5.177 -9.682,8.434 l 6.056,-25.466 33.942,8.007 c 2.294,0.657 4.077,1.252 5.199,2.147 C 11.644,-0.999 5.846,-0.751 0,0" /></g></g></g></g><g
           transform="translate(31.6159,57.0913)"
           id="g224"><path
             id="path226"
             style="fill:#056877;fill-opacity:1;fill-rule:nonzero;stroke:none"
             d="M 0,0 0.555,-2.458 13.597,0.753 13.029,3.29 Z" /></g><g
           transform="translate(26.1098,48.2848)"
           id="g228"><path
             id="path230"
             style="fill:#056877;fill-opacity:1;fill-rule:nonzero;stroke:none"
             d="m 0,0 27.057,6.5 c -0.06,0.268 -0.115,0.537 -0.168,0.808 L -0.19,0.716 C -0.125,0.478 -0.062,0.239 0,0" /></g><g
           transform="translate(27.0481,44.5714)"
           id="g232"><path
             id="path234"
             style="fill:#056877;fill-opacity:1;fill-rule:nonzero;stroke:none"
             d="M 0,0 27.116,6.433 C 27.039,6.696 26.965,6.958 26.89,7.22 L -0.178,0.712 C -0.119,0.475 -0.06,0.238 0,0" /></g><g
           transform="translate(27.9818,40.8856)"
           id="g236"><path
             id="path238"
             style="fill:#056877;fill-opacity:1;fill-rule:nonzero;stroke:none"
             d="M 0,0 27.158,6.362 C 27.103,6.627 27.043,6.891 26.984,7.155 L -0.173,0.707 C -0.113,0.471 -0.058,0.236 0,0" /></g><g
           transform="translate(28.7628,37.193)"
           id="g240"><path
             id="path242"
             style="fill:#056877;fill-opacity:1;fill-rule:nonzero;stroke:none"
             d="M 0,0 27.194,6.291 C 27.126,6.55 27.066,6.811 27.005,7.073 L -0.128,0.711 C -0.084,0.474 -0.04,0.238 0,0" /></g><g
           id="g244"><g
             id="g246" /><g
             id="g258"><g
               style="opacity:0.55000299"
               id="g256"
               clip-path="url(#clipPath250)"><g
                 id="g254"
                 transform="translate(45.9936,66.3748)"><path
                   id="path252"
                   style="fill:#31c4e6;fill-opacity:1;fill-rule:nonzero;stroke:none"
                   d="m 0,0 15.861,-10.518 c -0.361,1.54 -0.695,2.95 -0.99,4.184 L 4.226,1.051 Z" /></g></g></g></g><g
           id="g260"><g
             id="g262" /><g
             id="g274"><g
               style="opacity:0.55000299"
               id="g272"
               clip-path="url(#clipPath266)"><g
                 id="g270"
                 transform="translate(32.7807,63.0882)"><path
                   id="path268"
                   style="fill:#31c4e6;fill-opacity:1;fill-rule:nonzero;stroke:none"
                   d="m 0,0 32.073,-20.169 c -0.316,1.376 -0.632,2.75 -0.945,4.105 L 4.252,1.058 Z" /></g></g></g></g></g></g></g></svg>