<?xml version="1.0" encoding="UTF-8" standalone="no"?>
<svg
   xmlns:dc="http://purl.org/dc/elements/1.1/"
   xmlns:cc="http://creativecommons.org/ns#"
   xmlns:rdf="http://www.w3.org/1999/02/22-rdf-syntax-ns#"
   xmlns:svg="http://www.w3.org/2000/svg"
   xmlns="http://www.w3.org/2000/svg"
   viewBox="0 0 148.27068 148.26933"
   height="148.26933"
   width="148.27068"
   xml:space="preserve"
   id="svg2"
   version="1.1"><metadata
     id="metadata8"><rdf:RDF><cc:Work
         rdf:about=""><dc:format>image/svg+xml</dc:format><dc:type
           rdf:resource="http://purl.org/dc/dcmitype/StillImage" /><dc:title></dc:title></cc:Work></rdf:RDF></metadata><defs
     id="defs6"><clipPath
       id="clipPath18"
       clipPathUnits="userSpaceOnUse"><path
         id="path16"
         d="M 0,111.202 H 111.203 V 0 H 0 Z" /></clipPath></defs><g
     transform="matrix(1.3333333,0,0,-1.3333333,0,148.26933)"
     id="g10"><g
       id="g12"><g
         clip-path="url(#clipPath18)"
         id="g14"><g
           transform="translate(8.0274,107.1881)"
           id="g20"><path
             id="path22"
             style="fill:#282828;fill-opacity:1;fill-rule:nonzero;stroke:none"
             d="m 0,0 c 0,-2.217 -1.797,-4.014 -4.015,-4.014 -2.216,0 -4.012,1.797 -4.012,4.014 0,2.217 1.796,4.014 4.012,4.014 C -1.797,4.014 0,2.217 0,0" /></g><g
           transform="translate(28.6627,107.1881)"
           id="g24"><path
             id="path26"
             style="fill:#282828;fill-opacity:1;fill-rule:nonzero;stroke:none"
             d="m 0,0 c 0,-2.217 -1.797,-4.014 -4.014,-4.014 -2.217,0 -4.013,1.797 -4.013,4.014 0,2.217 1.796,4.014 4.013,4.014 C -1.797,4.014 0,2.217 0,0" /></g><g
           transform="translate(49.2971,107.1881)"
           id="g28"><path
             id="path30"
             style="fill:#282828;fill-opacity:1;fill-rule:nonzero;stroke:none"
             d="m 0,0 c 0,-2.217 -1.797,-4.014 -4.012,-4.014 -2.218,0 -4.014,1.797 -4.014,4.014 0,2.217 1.796,4.014 4.014,4.014 C -1.797,4.014 0,2.217 0,0" /></g><g
           transform="translate(69.9324,107.1881)"
           id="g32"><path
             id="path34"
             style="fill:#282828;fill-opacity:1;fill-rule:nonzero;stroke:none"
             d="m 0,0 c 0,-2.217 -1.797,-4.014 -4.014,-4.014 -2.216,0 -4.012,1.797 -4.012,4.014 0,2.217 1.796,4.014 4.012,4.014 C -1.797,4.014 0,2.217 0,0" /></g><g
           transform="translate(90.5677,107.1881)"
           id="g36"><path
             id="path38"
             style="fill:#282828;fill-opacity:1;fill-rule:nonzero;stroke:none"
             d="m 0,0 c 0,-2.217 -1.796,-4.014 -4.014,-4.014 -2.216,0 -4.013,1.797 -4.013,4.014 0,2.217 1.797,4.014 4.013,4.014 C -1.796,4.014 0,2.217 0,0" /></g><g
           transform="translate(111.2031,107.1881)"
           id="g40"><path
             id="path42"
             style="fill:#282828;fill-opacity:1;fill-rule:nonzero;stroke:none"
             d="m 0,0 c 0,-2.217 -1.798,-4.014 -4.014,-4.014 -2.217,0 -4.013,1.797 -4.013,4.014 0,2.217 1.796,4.014 4.013,4.014 C -1.798,4.014 0,2.217 0,0" /></g><g
           transform="translate(8.0274,86.5532)"
           id="g44"><path
             id="path46"
             style="fill:#282828;fill-opacity:1;fill-rule:nonzero;stroke:none"
             d="m 0,0 c 0,-2.217 -1.797,-4.014 -4.015,-4.014 -2.216,0 -4.012,1.797 -4.012,4.014 0,2.216 1.796,4.013 4.012,4.013 C -1.797,4.013 0,2.216 0,0" /></g><g
           transform="translate(28.6627,86.5532)"
           id="g48"><path
             id="path50"
             style="fill:#282828;fill-opacity:1;fill-rule:nonzero;stroke:none"
             d="m 0,0 c 0,-2.217 -1.797,-4.014 -4.014,-4.014 -2.217,0 -4.013,1.797 -4.013,4.014 0,2.216 1.796,4.013 4.013,4.013 C -1.797,4.013 0,2.216 0,0" /></g><g
           transform="translate(49.2971,86.5532)"
           id="g52"><path
             id="path54"
             style="fill:#282828;fill-opacity:1;fill-rule:nonzero;stroke:none"
             d="m 0,0 c 0,-2.217 -1.797,-4.014 -4.012,-4.014 -2.218,0 -4.014,1.797 -4.014,4.014 0,2.216 1.796,4.013 4.014,4.013 C -1.797,4.013 0,2.216 0,0" /></g><g
           transform="translate(69.9324,86.5532)"
           id="g56"><path
             id="path58"
             style="fill:#282828;fill-opacity:1;fill-rule:nonzero;stroke:none"
             d="m 0,0 c 0,-2.217 -1.797,-4.014 -4.014,-4.014 -2.216,0 -4.012,1.797 -4.012,4.014 0,2.216 1.796,4.013 4.012,4.013 C -1.797,4.013 0,2.216 0,0" /></g><g
           transform="translate(90.5677,86.5532)"
           id="g60"><path
             id="path62"
             style="fill:#282828;fill-opacity:1;fill-rule:nonzero;stroke:none"
             d="m 0,0 c 0,-2.217 -1.796,-4.014 -4.014,-4.014 -2.216,0 -4.013,1.797 -4.013,4.014 0,2.216 1.797,4.013 4.013,4.013 C -1.796,4.013 0,2.216 0,0" /></g><g
           transform="translate(111.2031,86.5532)"
           id="g64"><path
             id="path66"
             style="fill:#282828;fill-opacity:1;fill-rule:nonzero;stroke:none"
             d="m 0,0 c 0,-2.217 -1.798,-4.014 -4.014,-4.014 -2.217,0 -4.013,1.797 -4.013,4.014 0,2.216 1.796,4.013 4.013,4.013 C -1.798,4.013 0,2.216 0,0" /></g><g
           transform="translate(8.0274,65.9178)"
           id="g68"><path
             id="path70"
             style="fill:#282828;fill-opacity:1;fill-rule:nonzero;stroke:none"
             d="m 0,0 c 0,-2.216 -1.797,-4.013 -4.015,-4.013 -2.216,0 -4.012,1.797 -4.012,4.013 0,2.217 1.796,4.015 4.012,4.015 C -1.797,4.015 0,2.217 0,0" /></g><g
           transform="translate(28.6627,65.9178)"
           id="g72"><path
             id="path74"
             style="fill:#282828;fill-opacity:1;fill-rule:nonzero;stroke:none"
             d="m 0,0 c 0,-2.216 -1.797,-4.013 -4.014,-4.013 -2.217,0 -4.013,1.797 -4.013,4.013 0,2.217 1.796,4.015 4.013,4.015 C -1.797,4.015 0,2.217 0,0" /></g><g
           transform="translate(49.2971,65.9178)"
           id="g76"><path
             id="path78"
             style="fill:#282828;fill-opacity:1;fill-rule:nonzero;stroke:none"
             d="m 0,0 c 0,-2.216 -1.797,-4.013 -4.012,-4.013 -2.218,0 -4.014,1.797 -4.014,4.013 0,2.217 1.796,4.015 4.014,4.015 C -1.797,4.015 0,2.217 0,0" /></g><g
           transform="translate(69.9324,65.9178)"
           id="g80"><path
             id="path82"
             style="fill:#282828;fill-opacity:1;fill-rule:nonzero;stroke:none"
             d="m 0,0 c 0,-2.216 -1.797,-4.013 -4.014,-4.013 -2.216,0 -4.012,1.797 -4.012,4.013 0,2.217 1.796,4.015 4.012,4.015 C -1.797,4.015 0,2.217 0,0" /></g><g
           transform="translate(90.5677,65.9178)"
           id="g84"><path
             id="path86"
             style="fill:#282828;fill-opacity:1;fill-rule:nonzero;stroke:none"
             d="m 0,0 c 0,-2.216 -1.796,-4.013 -4.014,-4.013 -2.216,0 -4.013,1.797 -4.013,4.013 0,2.217 1.797,4.015 4.013,4.015 C -1.796,4.015 0,2.217 0,0" /></g><g
           transform="translate(111.2031,65.9178)"
           id="g88"><path
             id="path90"
             style="fill:#282828;fill-opacity:1;fill-rule:nonzero;stroke:none"
             d="m 0,0 c 0,-2.216 -1.798,-4.013 -4.014,-4.013 -2.217,0 -4.013,1.797 -4.013,4.013 0,2.217 1.796,4.015 4.013,4.015 C -1.798,4.015 0,2.217 0,0" /></g><g
           transform="translate(8.0274,45.2838)"
           id="g92"><path
             id="path94"
             style="fill:#282828;fill-opacity:1;fill-rule:nonzero;stroke:none"
             d="m 0,0 c 0,-2.217 -1.797,-4.014 -4.015,-4.014 -2.216,0 -4.012,1.797 -4.012,4.014 0,2.217 1.796,4.013 4.012,4.013 C -1.797,4.013 0,2.217 0,0" /></g><g
           transform="translate(28.6627,45.2838)"
           id="g96"><path
             id="path98"
             style="fill:#282828;fill-opacity:1;fill-rule:nonzero;stroke:none"
             d="m 0,0 c 0,-2.217 -1.797,-4.014 -4.014,-4.014 -2.217,0 -4.013,1.797 -4.013,4.014 0,2.217 1.796,4.013 4.013,4.013 C -1.797,4.013 0,2.217 0,0" /></g><g
           transform="translate(49.2971,45.2838)"
           id="g100"><path
             id="path102"
             style="fill:#282828;fill-opacity:1;fill-rule:nonzero;stroke:none"
             d="m 0,0 c 0,-2.217 -1.797,-4.014 -4.012,-4.014 -2.218,0 -4.014,1.797 -4.014,4.014 0,2.217 1.796,4.013 4.014,4.013 C -1.797,4.013 0,2.217 0,0" /></g><g
           transform="translate(69.9324,45.2838)"
           id="g104"><path
             id="path106"
             style="fill:#282828;fill-opacity:1;fill-rule:nonzero;stroke:none"
             d="m 0,0 c 0,-2.217 -1.797,-4.014 -4.014,-4.014 -2.216,0 -4.012,1.797 -4.012,4.014 0,2.217 1.796,4.013 4.012,4.013 C -1.797,4.013 0,2.217 0,0" /></g><g
           transform="translate(90.5677,45.2838)"
           id="g108"><path
             id="path110"
             style="fill:#282828;fill-opacity:1;fill-rule:nonzero;stroke:none"
             d="m 0,0 c 0,-2.217 -1.796,-4.014 -4.014,-4.014 -2.216,0 -4.013,1.797 -4.013,4.014 0,2.217 1.797,4.013 4.013,4.013 C -1.796,4.013 0,2.217 0,0" /></g><g
           transform="translate(111.2031,45.2838)"
           id="g112"><path
             id="path114"
             style="fill:#282828;fill-opacity:1;fill-rule:nonzero;stroke:none"
             d="m 0,0 c 0,-2.217 -1.798,-4.014 -4.014,-4.014 -2.217,0 -4.013,1.797 -4.013,4.014 0,2.217 1.796,4.013 4.013,4.013 C -1.798,4.013 0,2.217 0,0" /></g><g
           transform="translate(8.0274,24.6485)"
           id="g116"><path
             id="path118"
             style="fill:#282828;fill-opacity:1;fill-rule:nonzero;stroke:none"
             d="m 0,0 c 0,-2.216 -1.797,-4.013 -4.015,-4.013 -2.216,0 -4.012,1.797 -4.012,4.013 0,2.217 1.796,4.014 4.012,4.014 C -1.797,4.014 0,2.217 0,0" /></g><g
           transform="translate(28.6627,24.6485)"
           id="g120"><path
             id="path122"
             style="fill:#282828;fill-opacity:1;fill-rule:nonzero;stroke:none"
             d="m 0,0 c 0,-2.216 -1.797,-4.013 -4.014,-4.013 -2.217,0 -4.013,1.797 -4.013,4.013 0,2.217 1.796,4.014 4.013,4.014 C -1.797,4.014 0,2.217 0,0" /></g><g
           transform="translate(49.2971,24.6485)"
           id="g124"><path
             id="path126"
             style="fill:#282828;fill-opacity:1;fill-rule:nonzero;stroke:none"
             d="m 0,0 c 0,-2.216 -1.797,-4.013 -4.012,-4.013 -2.218,0 -4.014,1.797 -4.014,4.013 0,2.217 1.796,4.014 4.014,4.014 C -1.797,4.014 0,2.217 0,0" /></g><g
           transform="translate(69.9324,24.6485)"
           id="g128"><path
             id="path130"
             style="fill:#282828;fill-opacity:1;fill-rule:nonzero;stroke:none"
             d="m 0,0 c 0,-2.216 -1.797,-4.013 -4.014,-4.013 -2.216,0 -4.012,1.797 -4.012,4.013 0,2.217 1.796,4.014 4.012,4.014 C -1.797,4.014 0,2.217 0,0" /></g><g
           transform="translate(90.5677,24.6485)"
           id="g132"><path
             id="path134"
             style="fill:#282828;fill-opacity:1;fill-rule:nonzero;stroke:none"
             d="m 0,0 c 0,-2.216 -1.796,-4.013 -4.014,-4.013 -2.216,0 -4.013,1.797 -4.013,4.013 0,2.217 1.797,4.014 4.013,4.014 C -1.796,4.014 0,2.217 0,0" /></g><g
           transform="translate(111.2031,24.6485)"
           id="g136"><path
             id="path138"
             style="fill:#282828;fill-opacity:1;fill-rule:nonzero;stroke:none"
             d="m 0,0 c 0,-2.216 -1.798,-4.013 -4.014,-4.013 -2.217,0 -4.013,1.797 -4.013,4.013 0,2.217 1.796,4.014 4.013,4.014 C -1.798,4.014 0,2.217 0,0" /></g><g
           transform="translate(8.0274,4.0136)"
           id="g140"><path
             id="path142"
             style="fill:#282828;fill-opacity:1;fill-rule:nonzero;stroke:none"
             d="m 0,0 c 0,-2.217 -1.797,-4.014 -4.015,-4.014 -2.216,0 -4.012,1.797 -4.012,4.014 0,2.217 1.796,4.013 4.012,4.013 C -1.797,4.013 0,2.217 0,0" /></g><g
           transform="translate(28.6627,4.0136)"
           id="g144"><path
             id="path146"
             style="fill:#282828;fill-opacity:1;fill-rule:nonzero;stroke:none"
             d="m 0,0 c 0,-2.217 -1.797,-4.014 -4.014,-4.014 -2.217,0 -4.013,1.797 -4.013,4.014 0,2.217 1.796,4.013 4.013,4.013 C -1.797,4.013 0,2.217 0,0" /></g><g
           transform="translate(49.2971,4.0136)"
           id="g148"><path
             id="path150"
             style="fill:#282828;fill-opacity:1;fill-rule:nonzero;stroke:none"
             d="m 0,0 c 0,-2.217 -1.797,-4.014 -4.012,-4.014 -2.218,0 -4.014,1.797 -4.014,4.014 0,2.217 1.796,4.013 4.014,4.013 C -1.797,4.013 0,2.217 0,0" /></g><g
           transform="translate(69.9324,4.0136)"
           id="g152"><path
             id="path154"
             style="fill:#282828;fill-opacity:1;fill-rule:nonzero;stroke:none"
             d="m 0,0 c 0,-2.217 -1.797,-4.014 -4.014,-4.014 -2.216,0 -4.012,1.797 -4.012,4.014 0,2.217 1.796,4.013 4.012,4.013 C -1.797,4.013 0,2.217 0,0" /></g><g
           transform="translate(90.5677,4.0136)"
           id="g156"><path
             id="path158"
             style="fill:#282828;fill-opacity:1;fill-rule:nonzero;stroke:none"
             d="m 0,0 c 0,-2.217 -1.796,-4.014 -4.014,-4.014 -2.216,0 -4.013,1.797 -4.013,4.014 0,2.217 1.797,4.013 4.013,4.013 C -1.796,4.013 0,2.217 0,0" /></g><g
           transform="translate(111.2031,4.0136)"
           id="g160"><path
             id="path162"
             style="fill:#282828;fill-opacity:1;fill-rule:nonzero;stroke:none"
             d="m 0,0 c 0,-2.217 -1.798,-4.014 -4.014,-4.014 -2.217,0 -4.013,1.797 -4.013,4.014 0,2.217 1.796,4.013 4.013,4.013 C -1.798,4.013 0,2.217 0,0" /></g></g></g></g></svg>