<?xml version="1.0" encoding="UTF-8" standalone="no"?>
<svg
   xmlns:dc="http://purl.org/dc/elements/1.1/"
   xmlns:cc="http://creativecommons.org/ns#"
   xmlns:rdf="http://www.w3.org/1999/02/22-rdf-syntax-ns#"
   xmlns:svg="http://www.w3.org/2000/svg"
   xmlns="http://www.w3.org/2000/svg"
   viewBox="0 0 82.62413 100.36187"
   height="100.36187"
   width="82.62413"
   xml:space="preserve"
   id="svg2"
   version="1.1"><metadata
     id="metadata8"><rdf:RDF><cc:Work
         rdf:about=""><dc:format>image/svg+xml</dc:format><dc:type
           rdf:resource="http://purl.org/dc/dcmitype/StillImage" /><dc:title></dc:title></cc:Work></rdf:RDF></metadata><defs
     id="defs6"><clipPath
       id="clipPath18"
       clipPathUnits="userSpaceOnUse"><path
         id="path16"
         d="M 0,75.271 H 61.968 V 0 H 0 Z" /></clipPath><clipPath
       id="clipPath30"
       clipPathUnits="userSpaceOnUse"><path
         id="path28"
         d="M 24.381,7.63892 H 47.3319 V 2.12827 H 24.381 Z" /></clipPath><clipPath
       id="clipPath54"
       clipPathUnits="userSpaceOnUse"><path
         id="path52"
         d="m 33.4001,17.6111 h 5.019 v -4.4208 h -5.019 z" /></clipPath><clipPath
       id="clipPath74"
       clipPathUnits="userSpaceOnUse"><path
         id="path72"
         d="M 23.9288,26.4463 H 48.9623 V 15.4988 H 23.9288 Z" /></clipPath><clipPath
       id="clipPath90"
       clipPathUnits="userSpaceOnUse"><path
         id="path88"
         d="M 3.01942,70.6026 H 46.0729 V 17.6273 H 3.01942 Z" /></clipPath><radialGradient
       id="radialGradient118"
       spreadMethod="pad"
       gradientTransform="matrix(26.267962,0,0,-26.267962,38.252762,48.028877)"
       gradientUnits="userSpaceOnUse"
       r="1"
       cy="0"
       cx="0"
       fy="0"
       fx="0"><stop
         id="stop112"
         offset="0"
         style="stop-opacity:1;stop-color:#31c4e6" /><stop
         id="stop114"
         offset="0.50086849"
         style="stop-opacity:1;stop-color:#31c4e6" /><stop
         id="stop116"
         offset="1"
         style="stop-opacity:1;stop-color:#00b5e0" /></radialGradient><clipPath
       id="clipPath128"
       clipPathUnits="userSpaceOnUse"><path
         id="path126"
         d="M 0,75.271 H 61.968 V 0 H 0 Z" /></clipPath><clipPath
       id="clipPath196"
       clipPathUnits="userSpaceOnUse"><path
         id="path194"
         d="M 26.674,68.4532 H 53.5125 V 43.3456 H 26.674 Z" /></clipPath><clipPath
       id="clipPath212"
       clipPathUnits="userSpaceOnUse"><path
         id="path210"
         d="M 35.9228,63.5192 H 46.9724 V 54.5794 H 35.9228 Z" /></clipPath><clipPath
       id="clipPath228"
       clipPathUnits="userSpaceOnUse"><path
         id="path226"
         d="M 8.11475,64.865 H 57.2713 V 21.6167 H 8.11475 Z" /></clipPath><radialGradient
       id="radialGradient240"
       spreadMethod="pad"
       gradientTransform="matrix(32.885941,0,0,-32.885941,35.284038,48.861214)"
       gradientUnits="userSpaceOnUse"
       r="1"
       cy="0"
       cx="0"
       fy="0"
       fx="0"><stop
         id="stop234"
         offset="0"
         style="stop-opacity:1;stop-color:#81a6b5" /><stop
         id="stop236"
         offset="0.9076634"
         style="stop-opacity:1;stop-color:#12509b" /><stop
         id="stop238"
         offset="1"
         style="stop-opacity:1;stop-color:#12509b" /></radialGradient></defs><g
     transform="matrix(1.3333333,0,0,-1.3333333,0,100.36187)"
     id="g10"><g
       id="g12"><g
         clip-path="url(#clipPath18)"
         id="g14"><g
           transform="translate(49.6935,5.9585)"
           id="g20"><path
             id="path22"
             style="fill:#666464;fill-opacity:1;fill-rule:nonzero;stroke:none"
             d="m 0,0 c 0,0 -6.26,4.049 -13.864,3.948 -7.603,-0.101 -14.228,-3.612 -14.228,-3.612 0,0 4.23,-4.374 13.539,-4.237 C -5.244,-3.763 0,0 0,0" /></g><g
           id="g24"><g
             id="g26" /><g
             id="g38"><g
               style="opacity:0.55000299"
               id="g36"
               clip-path="url(#clipPath30)"><g
                 id="g34"
                 transform="translate(33.7764,7.525)"><path
                   id="path32"
                   style="fill:#666464;fill-opacity:1;fill-rule:nonzero;stroke:none"
                   d="M 0,0 C 1.439,0.275 1.219,-0.038 2.817,-0.017 7.344,0.043 11.345,-1.521 13.556,-2.6 11.631,-3.609 7.532,-5.309 1.622,-5.396 -0.55,-5.428 -7.821,-3.648 -9.395,-3.275 -7.676,-1.808 0,0 0,0" /></g></g></g></g><g
           transform="translate(49.6935,5.9585)"
           id="g40"><path
             id="path42"
             style="fill:#3d3d3d;fill-opacity:1;fill-rule:nonzero;stroke:none"
             d="m 0,0 0.943,-2.285 c 0,0 -13.718,-8.266 -29.614,0 l 0.579,2.621 c 0,0 9.438,-4.503 15.099,-3.898 C -7.331,-2.957 0,0 0,0" /></g><g
           transform="translate(33.4001,17.0447)"
           id="g44"><path
             id="path46"
             style="fill:#3d3d3d;fill-opacity:1;fill-rule:nonzero;stroke:none"
             d="M 0,0 C 0,0 2.296,-0.769 5.019,0.566 L 4.111,-3.342 c -0.295,-1.27 -0.147,-2.59 0.425,-3.784 l 2.003,-4.181 c 0,0 -4.95,-2.113 -8.388,-0.002 l 2.154,4.147 c 0.638,1.228 0.82,2.601 0.521,3.926 C 0.542,-1.98 0.193,-0.518 0,0" /></g><g
           id="g48"><g
             id="g50" /><g
             id="g62"><g
               id="g60"
               clip-path="url(#clipPath54)"><g
                 id="g58"
                 transform="translate(37.437,13.1903)"><path
                   id="path56"
                   style="fill:#3d3d3d;fill-opacity:1;fill-rule:nonzero;stroke:none"
                   d="m 0,0 c -1.084,0.086 -2.152,0.244 -3.195,0.504 -0.008,0.038 -0.008,0.076 -0.016,0.114 -0.284,1.257 -0.633,2.719 -0.826,3.236 0,0 2.296,-0.769 5.019,0.567 L 0.074,0.512 C 0.035,0.342 0.02,0.171 0,0" /></g></g></g></g><g
           transform="translate(25.07,74.2011)"
           id="g64"><path
             id="path66"
             style="fill:#3d3d3d;fill-opacity:1;fill-rule:nonzero;stroke:none"
             d="M 0,0 3.24,1.07 5.71,-6.46 1.84,-7.831 0.665,-2.829 c -4.296,-1.62 -26.599,-9.733 -19.885,-34.545 4.768,-17.621 22.064,-18.591 38.306,-16.799 l -1.191,5.097 3.239,1.321 2.758,-8.732 C 8.688,-60.361 -18.566,-61.305 -24.16,-37.374 -30.683,-9.469 0,0 0,0" /></g><g
           id="g68"><g
             id="g70" /><g
             id="g82"><g
               id="g80"
               clip-path="url(#clipPath74)"><g
                 id="g78"
                 transform="translate(26.382,19.6614)"><path
                   id="path76"
                   style="fill:#3d3d3d;fill-opacity:1;fill-rule:nonzero;stroke:none"
                   d="m 0,0 c -3.988,0.172 -2.477,-1.025 0.037,-2.05 0.554,-0.227 8.168,-1.921 8.683,-2.113 4.948,0.281 9.756,1.17 13.86,2.216 L 19.822,6.785 16.582,5.464 17.774,0.366 C 11.528,-0.323 5.423,-0.741 0,0" /></g></g></g></g><g
           id="g84"><g
             id="g86" /><g
             id="g98"><g
               id="g96"
               clip-path="url(#clipPath90)"><g
                 id="g94"
                 transform="translate(45.9913,19.5449)"><path
                   id="path92"
                   style="fill:#3d3d3d;fill-opacity:1;fill-rule:nonzero;stroke:none"
                   d="m 0,0 c -0.659,-0.023 -1.322,0.148 -1.931,0.473 -16.207,-1.782 -33.452,-0.777 -38.21,16.809 -6.008,22.204 11.613,30.841 18.046,33.776 -4.95,-1.861 -25.768,-10.73 -19.816,-34.213 C -36.506,-4.48 -13.736,-3.443 0.082,-0.012 0.055,-0.007 0.026,-0.005 0,0" /></g></g></g></g></g></g><g
       id="g100"><g
         id="g102"><g
           id="g108"><g
             id="g110"><path
               id="path120"
               style="fill:url(#radialGradient118);stroke:none"
               d="M 6.869,45.425 C 6.869,32.26 19.218,20.52 34.419,20.52 v 0 c 15.2,0 26.287,7.685 27.495,24.905 v 0 c 0.033,0.474 0.051,0.945 0.054,1.413 v 0 0.276 C 61.883,60.153 50.142,70.361 35.566,70.361 v 0 C 15.147,70.361 6.869,58.591 6.869,45.425" /></g></g></g></g><g
       id="g122"><g
         clip-path="url(#clipPath128)"
         id="g124"><g
           transform="translate(10.741,52.1661)"
           id="g130"><path
             id="path132"
             style="fill:#ffc346;fill-opacity:1;fill-rule:nonzero;stroke:none"
             d="m 0,0 c -0.366,-1.578 -0.348,-2.791 -1.166,-4.327 -0.749,-1.407 -1.098,-2.093 -1.076,-3.8 0.027,-2.193 -0.664,-8.751 3.202,-7.733 3.199,0.842 1.452,5.056 3.723,6.893 1.076,0.87 2.469,0.528 3.13,1.922 0.601,1.266 -0.185,2.633 0.873,3.807 1.883,2.089 5.781,1.207 7.185,3.718 -2.289,1.342 -4.872,2.479 -3.586,5.925 0.479,1.284 2.01,2.332 2,3.843 -0.013,2.009 -1.447,0.581 -2.765,1.602 -1.091,0.844 -0.006,2.437 -0.985,3.165 C 10.19,15.272 9.633,15.212 9.029,15.016 4.743,12.936 1.621,9.952 -0.479,6.426 3.044,6.893 0.303,1.308 0,0" /></g><g
           transform="translate(20.3476,42.8791)"
           id="g134"><path
             id="path136"
             style="fill:#ffc346;fill-opacity:1;fill-rule:nonzero;stroke:none"
             d="M 0,0 C 0.092,0.027 0.168,0.055 0.238,0.077 0.383,0.212 0.519,0.39 0.641,0.641 Z" /></g><g
           transform="translate(20.5856,42.9559)"
           id="g138"><path
             id="path140"
             style="fill:#ffc346;fill-opacity:1;fill-rule:nonzero;stroke:none"
             d="m 0,0 c -0.814,-0.762 -1.942,0.011 -2.799,-0.714 -0.347,-0.293 -0.82,-3.2 -0.489,-3.694 1.137,-1.696 3.776,3.204 3.822,4.304 C 0.302,0.06 0.169,0.051 0,0" /></g><g
           transform="translate(51.9126,28.7036)"
           id="g142"><path
             id="path144"
             style="fill:#ffc346;fill-opacity:1;fill-rule:nonzero;stroke:none"
             d="m 0,0 1.226,0.35 c -1.983,0.203 -2.548,-0.937 -4.164,-1.628 -1.445,-0.617 -3.216,-0.194 -4.727,-0.863 -2.332,-1.031 -6.125,-5.222 -1.089,-4.206 0.618,0.125 1.399,0.615 1.973,0.267 0.105,-0.064 0.176,-0.152 0.234,-0.248 3.068,1.093 5.816,2.642 8.177,4.669 C 1.587,-0.828 1.132,-0.185 0,0" /></g><g
           transform="translate(55.6024,28.6492)"
           id="g146"><path
             id="path148"
             style="fill:#ffc346;fill-opacity:1;fill-rule:nonzero;stroke:none"
             d="M 0,0 C 0.382,0.14 0.66,0.525 0.828,1.003 0.561,0.663 0.284,0.333 0,0.013 0,0.008 0,0.004 0,0" /></g><g
           transform="translate(55.2543,32.6312)"
           id="g150"><path
             id="path152"
             style="fill:#ffc346;fill-opacity:1;fill-rule:nonzero;stroke:none"
             d="m 0,0 c -0.85,-1.226 0.396,-2.578 0.348,-3.969 0.284,0.32 0.561,0.65 0.828,0.99 C 1.624,-1.706 1.284,0.232 0,0" /></g><g
           transform="translate(52.5322,36.6343)"
           id="g154"><path
             id="path156"
             style="fill:#ffc346;fill-opacity:1;fill-rule:nonzero;stroke:none"
             d="m 0,0 c -0.895,-0.71 -2.189,-0.301 -3.038,-1.001 -0.84,-0.693 -0.7,-2.049 0.472,-2.526 1.835,-0.744 1.763,1.064 2.278,2.09 0.224,0.447 1.132,0.921 1.1,1.441 C 0.76,0.862 0.376,0.298 0,0" /></g><g
           transform="translate(44.5389,38.7076)"
           id="g158"><path
             id="path160"
             style="fill:#ffc346;fill-opacity:1;fill-rule:nonzero;stroke:none"
             d="m 0,0 c 0.175,-0.224 0.289,0.43 0.467,0.329 -0.471,-0.992 0.343,-2.124 0.329,-3.203 -0.007,-0.586 -0.439,-3.6 1,-1.6 C 2.523,-3.462 1.428,1.987 0,0" /></g><g
           transform="translate(54.4538,40.4772)"
           id="g162"><path
             id="path164"
             style="fill:#ffc346;fill-opacity:1;fill-rule:nonzero;stroke:none"
             d="M 0,0 0.131,0.657 C 0.097,0.642 0.06,0.63 0.028,0.613 -0.011,0.415 -0.018,0.206 0,0" /></g><g
           transform="translate(55.7105,41.2536)"
           id="g166"><path
             id="path168"
             style="fill:#ffc346;fill-opacity:1;fill-rule:nonzero;stroke:none"
             d="m 0,0 c -0.36,0.092 -0.758,0.04 -1.09,-0.104 0.132,-1.996 -1.362,-2.7 0.033,-4.651 0.629,0.631 0.639,1.325 0.769,2.217 0.038,0.265 -0.148,0.819 -0.132,1.113 C -0.392,-0.913 0.12,-0.66 0,0" /></g><g
           transform="translate(54.5851,41.1345)"
           id="g170"><path
             id="path172"
             style="fill:#ffc346;fill-opacity:1;fill-rule:nonzero;stroke:none"
             d="M 0,0 C 0.012,0.005 0.023,0.01 0.035,0.015 0.032,0.059 0.033,0.099 0.029,0.143 Z" /></g><g
           transform="translate(31.4039,56.8452)"
           id="g174"><path
             id="path176"
             style="fill:#ffc346;fill-opacity:1;fill-rule:nonzero;stroke:none"
             d="m 0,0 c -0.579,0.841 -0.643,0.643 -0.809,1.726 -0.189,1.243 0.254,2.357 -0.44,3.402 -0.291,0.437 -0.897,0.983 -1.496,1.24 L -2.73,6.369 C -2.736,6.369 -2.743,6.37 -2.749,6.37 -3.127,6.53 -3.5,6.57 -3.791,6.397 -4.782,6.412 -5.838,6.316 -6.3,5.408 -6.682,4.655 -6.5,2.7 -6.693,1.726 c -0.758,-3.83 1.661,-3.843 4.764,-3.843 1.071,0 3.026,-0.529 2.89,0.969 C 0.916,-0.66 0.247,-0.359 0,0" /></g><g
           transform="translate(49.7433,66.7652)"
           id="g178"><path
             id="path180"
             style="fill:#ffc346;fill-opacity:1;fill-rule:nonzero;stroke:none"
             d="M 0,0 C 0.716,-0.4 1.409,-0.831 2.075,-1.288 1.407,-0.687 0.7,-0.187 0,0" /></g><g
           transform="translate(47.9282,66.3769)"
           id="g182"><path
             id="path184"
             style="fill:#ffc346;fill-opacity:1;fill-rule:nonzero;stroke:none"
             d="m 0,0 c -1.843,-1.52 0.441,-1.953 0.132,-3.166 -0.181,-0.709 -1.095,-0.533 -1.621,-0.645 0.117,0.025 -2.007,-0.253 -1.712,-0.358 -0.033,-0.082 -0.09,-0.114 -0.169,-0.098 -0.123,1.512 -1.571,2.974 -3.034,1.93 -1.378,1.433 0.893,2.519 1.056,3.955 -0.822,0.037 -1.82,0.194 -2.497,-0.329 -0.895,-0.693 -0.45,-1.522 -1.606,-1.857 -0.163,-0.048 -0.779,0.449 -1.156,0.299 -0.578,-0.229 -0.593,-0.823 -0.926,-1.296 -0.495,-0.701 -0.965,-1.81 -1.637,-2.398 -0.736,-0.645 -1.172,-1.267 -1.64,0 -0.513,1.387 0.954,1.317 1.16,2.411 0.288,1.534 -3.004,2.307 -2.746,-0.145 -1.188,-0.094 -2.091,1.101 -3.502,0.937 -1.882,-0.219 -1.297,-0.755 0.324,-1.282 3.239,-1.051 2.95,-2.4 3.718,-5.248 0.845,-3.133 4.187,-1.701 4.288,-4.839 0.051,-1.59 0.527,-1.986 1.081,-3.363 0.608,-1.51 0.058,-2.113 -0.289,-3.514 -0.242,-0.976 -0.902,-2.686 0.329,-2.891 1.267,0.639 2.213,0.816 2.881,2.242 0.329,0.703 -0.133,0.998 0.642,1.484 0.651,0.409 1.454,-0.106 2.081,-0.051 1.166,0.102 2.247,1.13 3.358,0.336 1.537,-1.098 0.248,-2.422 0.485,-3.69 0.238,-1.266 1.964,-1.544 2.289,-2.683 0.345,-1.208 -1.774,-1.776 -1.496,-2.922 0.563,-2.317 1.524,1.115 1.761,1.325 0.399,0.352 1.36,0.027 1.656,0.39 0.279,0.343 0.166,1.514 0.121,1.968 -0.125,1.273 -0.826,2.092 0.793,2.566 1.152,0.337 2.611,-0.885 3.686,-0.328 1.695,0.877 -0.256,1.493 -0.452,2.438 -0.248,1.198 1.145,2.057 0.629,3.338 1.803,1.008 1.745,-1.959 1.765,-3.025 1.661,-0.006 0.099,2.487 -0.063,3.302 -0.275,1.379 0.506,2.357 0.327,3.718 -0.329,2.503 -1.7,6.191 -3.499,7.882 C 5.841,-2.972 4.911,-1.818 3.891,-0.9 3.224,-0.442 2.532,-0.012 1.815,0.388 1.194,0.555 0.578,0.476 0,0" /></g><g
           transform="translate(26.8764,68.7827)"
           id="g186"><path
             id="path188"
             style="fill:#ffc346;fill-opacity:1;fill-rule:nonzero;stroke:none"
             d="m 0,0 c 0.466,-0.814 -0.808,-2.037 0.357,-2.368 0.689,-0.196 0.764,0.641 1.289,0.77 0.481,0.119 0.777,0.059 1.272,0.072 C 3.82,-1.501 4.591,-2.158 5.179,-1.09 5.036,-1.005 4.928,-0.842 4.703,-0.737 4.77,-0.006 5.148,0.239 4.68,0.837 4.532,1.026 4.367,1.202 4.192,1.365 2.228,1.18 0.393,0.876 -1.31,0.458 -0.798,0.507 -0.33,0.576 0,0" /></g><g
           id="g190"><g
             id="g192" /><g
             id="g204"><g
               style="opacity:0.55000299"
               id="g202"
               clip-path="url(#clipPath196)"><g
                 id="g200"
                 transform="translate(52.5436,51.1596)"><path
                   id="path198"
                   style="fill:#80bfea;fill-opacity:1;fill-rule:nonzero;stroke:none"
                   d="m 0,0 c -3.528,-7.669 -9.931,-9.267 -16.887,-6.639 -6.957,2.628 -10.58,10.133 -8.305,16.156 2.275,6.023 8.098,9.976 17.443,6.445 C -0.792,13.334 2.835,6.161 0,0" /></g></g></g></g><g
           id="g206"><g
             id="g208" /><g
             id="g220"><g
               style="opacity:0.55000299"
               id="g218"
               clip-path="url(#clipPath212)"><g
                 id="g216"
                 transform="translate(46.6794,57.058)"><path
                   id="path214"
                   style="fill:#cce5f6;fill-opacity:1;fill-rule:nonzero;stroke:none"
                   d="m 0,0 c -1.25,-2.606 -3.832,-3.005 -6.75,-1.902 -2.918,1.102 -4.595,3.834 -3.816,5.894 0.778,2.06 3.062,3.301 6.982,1.82 C -0.666,4.71 1.004,2.094 0,0" /></g></g></g></g><g
           id="g222"><g
             id="g224" /><g
             id="g254"><g
               style="opacity:0.35000604"
               id="g252"
               clip-path="url(#clipPath228)"><g
                 id="g250"><g
                   id="g248"><g
                     id="g246"><g
                       id="g244"><path
                         id="path242"
                         style="fill:url(#radialGradient240);stroke:none"
                         d="m 41.736,29.459 c -14.466,0 -26.22,11.173 -26.22,23.703 0,4.17 0.879,8.191 2.76,11.703 C 11.202,60.484 8.115,53.162 8.115,45.319 c 0,-12.53 11.753,-23.702 26.22,-23.702 10.28,0 18.579,3.697 22.936,11.715 -4.253,-2.62 -9.558,-3.873 -15.535,-3.873" /></g></g></g></g></g></g></g></g></g></g></svg>