<?xml version="1.0" encoding="UTF-8" standalone="no"?>
<!-- Created with Inkscape (http://www.inkscape.org/) -->

<svg
   xmlns:dc="http://purl.org/dc/elements/1.1/"
   xmlns:cc="http://creativecommons.org/ns#"
   xmlns:rdf="http://www.w3.org/1999/02/22-rdf-syntax-ns#"
   xmlns:svg="http://www.w3.org/2000/svg"
   xmlns="http://www.w3.org/2000/svg"
   xmlns:sodipodi="http://sodipodi.sourceforge.net/DTD/sodipodi-0.dtd"
   xmlns:inkscape="http://www.inkscape.org/namespaces/inkscape"
   version="1.1"
   id="svg2"
   xml:space="preserve"
   width="100.63933"
   height="102.07413"
   viewBox="0 0 100.63933 102.07413"
   sodipodi:docname="paint.svg"
   inkscape:version="0.92.4 (5da689c313, 2019-01-14)"><metadata
     id="metadata8"><rdf:RDF><cc:Work
         rdf:about=""><dc:format>image/svg+xml</dc:format><dc:type
           rdf:resource="http://purl.org/dc/dcmitype/StillImage" /><dc:title></dc:title></cc:Work></rdf:RDF></metadata><defs
     id="defs6"><clipPath
       clipPathUnits="userSpaceOnUse"
       id="clipPath18"><path
         d="M 0,76.556 H 75.479 V 0 H 0 Z"
         id="path16"
         inkscape:connector-curvature="0" /></clipPath><clipPath
       clipPathUnits="userSpaceOnUse"
       id="clipPath34"><path
         d="M 12.3976,32.2687 H 72.5929 V 3.40123 H 12.3976 Z"
         id="path32"
         inkscape:connector-curvature="0" /></clipPath><clipPath
       clipPathUnits="userSpaceOnUse"
       id="clipPath50"><path
         d="m 23.2349,27.4387 h 0.0145 v -0.0303 h -0.0145 z"
         id="path48"
         inkscape:connector-curvature="0" /></clipPath><clipPath
       clipPathUnits="userSpaceOnUse"
       id="clipPath66"><path
         d="m 22.6235,28.7151 h 0.0587 v -0.1224 h -0.0587 z"
         id="path64"
         inkscape:connector-curvature="0" /></clipPath><clipPath
       clipPathUnits="userSpaceOnUse"
       id="clipPath82"><path
         d="m 22.7247,28.5039 h 0.0658 v -0.1374 h -0.0658 z"
         id="path80"
         inkscape:connector-curvature="0" /></clipPath><clipPath
       clipPathUnits="userSpaceOnUse"
       id="clipPath98"><path
         d="M 22.9035,28.1306 H 23.003 V 27.9228 H 22.9035 Z"
         id="path96"
         inkscape:connector-curvature="0" /></clipPath><clipPath
       clipPathUnits="userSpaceOnUse"
       id="clipPath114"><path
         d="m 23.0754,27.7716 h 0.0189 v -0.0393 h -0.0189 z"
         id="path112"
         inkscape:connector-curvature="0" /></clipPath><clipPath
       clipPathUnits="userSpaceOnUse"
       id="clipPath130"><path
         d="m 23.1764,27.5608 h 0.038 v -0.0791 h -0.038 z"
         id="path128"
         inkscape:connector-curvature="0" /></clipPath><clipPath
       clipPathUnits="userSpaceOnUse"
       id="clipPath178"><path
         d="m 26.3188,33.6989 h 5.8961 v -3.0322 h -5.8961 z"
         id="path176"
         inkscape:connector-curvature="0" /></clipPath><clipPath
       clipPathUnits="userSpaceOnUse"
       id="clipPath194"><path
         d="M 42.5405,39.2164 H 45.698 V 36.8301 H 42.5405 Z"
         id="path192"
         inkscape:connector-curvature="0" /></clipPath><clipPath
       clipPathUnits="userSpaceOnUse"
       id="clipPath238"><path
         d="m 28.471,62.7277 h 5.7648 V 57.0555 H 28.471 Z"
         id="path236"
         inkscape:connector-curvature="0" /></clipPath><clipPath
       clipPathUnits="userSpaceOnUse"
       id="clipPath254"><path
         d="m 23.5412,59.4516 h 7.0206 v -7.0783 h -7.0206 z"
         id="path252"
         inkscape:connector-curvature="0" /></clipPath><clipPath
       clipPathUnits="userSpaceOnUse"
       id="clipPath278"><path
         d="m 39.124,73.8871 h 7.5755 V 64.5365 H 39.124 Z"
         id="path276"
         inkscape:connector-curvature="0" /></clipPath><clipPath
       clipPathUnits="userSpaceOnUse"
       id="clipPath294"><path
         d="M 28.56,68.132 H 45.1656 V 57.0214 H 28.56 Z"
         id="path292"
         inkscape:connector-curvature="0" /></clipPath></defs><sodipodi:namedview
     pagecolor="#ffffff"
     bordercolor="#666666"
     borderopacity="1"
     objecttolerance="10"
     gridtolerance="10"
     guidetolerance="10"
     inkscape:pageopacity="0"
     inkscape:pageshadow="2"
     inkscape:window-width="742"
     inkscape:window-height="480"
     id="namedview4"
     showgrid="false"
     inkscape:zoom="2.3120452"
     inkscape:cx="50.319664"
     inkscape:cy="51.037064"
     inkscape:window-x="0"
     inkscape:window-y="0"
     inkscape:window-maximized="0"
     inkscape:current-layer="g10" /><g
     id="g10"
     inkscape:groupmode="layer"
     inkscape:label="Векторный смарт-объект1"
     transform="matrix(1.3333333,0,0,-1.3333333,0,102.07413)"><g
       id="g12"><g
         id="g14"
         clip-path="url(#clipPath18)"><g
           id="g20"
           transform="translate(51.8002,13.5147)"><path
             d="M 0,0 C 3.361,0.445 6.248,-0.415 6.447,-1.921 6.646,-3.428 4.083,-5.009 0.722,-5.454 -2.639,-5.899 -5.526,-5.039 -5.725,-3.533 -5.924,-2.027 -3.361,-0.445 0,0 M 8.342,5.086 H -8.633 V -8.742 H 8.342 Z"
             style="fill:#965440;fill-opacity:1;fill-rule:nonzero;stroke:none"
             id="path22"
             inkscape:connector-curvature="0" /></g><g
           id="g24"
           transform="translate(52.5223,10.6353)"><path
             d="m 0,0 c -3.361,-0.445 -6.248,0.415 -6.447,1.921 -0.2,1.507 2.364,3.088 5.725,3.533 C 2.639,5.899 5.526,5.039 5.725,3.533 5.924,2.027 3.361,0.445 0,0 m 21.073,33.979 c -1.454,1.802 -4.442,2.763 -5.791,3.202 -3.132,1.021 -6.816,1.285 -10.113,1.007 -8.34,-0.703 -15.818,-3.175 -23.32,-6.787 -10.134,-4.878 -25.435,-13.51 -23.877,-26.703 0.799,-6.767 7.124,-10.449 12.664,-12.215 7.172,-2.286 13.63,-3.393 21.149,-3.06 7.65,0.338 18.29,3.351 24.755,7.759 2.55,1.738 5.474,5.39 5.41,8.629 -0.03,1.506 -0.36,2.911 -1.238,3.824 -0.555,0.578 -1.33,0.958 -2.388,1.041 -0.031,0.003 -0.094,0.005 -0.186,0.008 -0.885,0.023 -4.411,0.04 -6.49,-0.117 -2.892,-0.22 -5.887,1.615 -4.092,4.793 1.519,2.691 5.436,3.893 8.02,5.494 2.562,1.586 5.177,3.347 6.656,5.739 0.769,1.242 1.54,4.041 -1.159,7.386"
             style="fill:#e6aa6c;fill-opacity:1;fill-rule:nonzero;stroke:none"
             id="path26"
             inkscape:connector-curvature="0" /></g><g
           id="g28"><g
             id="g30" /><g
             id="g42"><g
               clip-path="url(#clipPath34)"
               id="g40"
               style="opacity:0.55000299"><g
                 transform="translate(51.8002,16.0897)"
                 id="g38"><path
                   d="M 0,0 C 1.556,0.206 3.251,0.204 4.743,-0.339 5.589,-0.647 6.656,-1.313 6.427,-2.369 6.181,-3.501 4.849,-4.204 3.887,-4.616 2.299,-5.295 0.522,-5.596 -1.2,-5.57 c -1.149,0.017 -2.386,0.167 -3.414,0.716 -0.653,0.349 -1.266,0.966 -1.091,1.769 0.192,0.883 1.088,1.499 1.827,1.902 C -2.688,-0.534 -1.337,-0.177 0,0 m -29.188,12.649 c -0.552,1.153 1.681,-3.509 0,0 -0.552,1.153 -0.971,2.332 -1.288,3.53 0.011,-0.042 -5.208,-3.582 -7.295,-7.203 -1.316,-2.282 -1.963,-4.688 -1.463,-7.272 0.604,-3.122 2.324,-5.181 4.746,-7.241 4.258,-3.624 9.373,-4.699 15.694,-6.322 2.212,-0.568 5.527,-0.78 7.81,-0.821 8.394,-0.151 15.724,1.663 23.348,5.112 1.877,0.849 4.778,2.516 6.308,3.927 1.365,1.26 2.669,3.042 1.884,5.391 -0.838,2.507 -4.63,1.361 -5.658,1.402 C 13.304,3.216 11.714,3.344 10.178,3.7 8.156,4.168 6.233,5.226 5.36,7.191 1.473,6.101 -2.49,5.313 -6.469,4.641 -9.757,4.085 -13.118,3.452 -16.468,3.683 c -1.38,0.095 -2.757,0.35 -4.048,0.856 -1.263,0.495 -2.462,1.213 -3.558,2.006 -2.186,1.58 -3.948,3.67 -5.114,6.104"
                   style="fill:#d28c5e;fill-opacity:1;fill-rule:nonzero;stroke:none"
                   id="path36"
                   inkscape:connector-curvature="0" /></g></g></g></g><g
           id="g44"><g
             id="g46" /><g
             id="g58"><g
               clip-path="url(#clipPath50)"
               id="g56"
               style="opacity:0.55000299"><g
                 transform="translate(23.2349,27.4387)"
                 id="g54"><path
                   d="M 0,0 C 0.019,-0.039 0.02,-0.042 0,0"
                   style="fill:#d28c5e;fill-opacity:1;fill-rule:nonzero;stroke:none"
                   id="path52"
                   inkscape:connector-curvature="0" /></g></g></g></g><g
           id="g60"><g
             id="g62" /><g
             id="g74"><g
               clip-path="url(#clipPath66)"
               id="g72"
               style="opacity:0.55000299"><g
                 transform="translate(22.6235,28.7151)"
                 id="g70"><path
                   d="M 0,0 C 0.018,-0.037 0.038,-0.079 0.059,-0.122 0.039,-0.081 0.021,-0.043 0,0"
                   style="fill:#d28c5e;fill-opacity:1;fill-rule:nonzero;stroke:none"
                   id="path68"
                   inkscape:connector-curvature="0" /></g></g></g></g><g
           id="g76"><g
             id="g78" /><g
             id="g90"><g
               clip-path="url(#clipPath82)"
               id="g88"
               style="opacity:0.55000299"><g
                 transform="translate(22.7247,28.5039)"
                 id="g86"><path
                   d="M 0,0 C 0.021,-0.044 0.043,-0.09 0.066,-0.137 0.045,-0.093 0.023,-0.048 0,0"
                   style="fill:#d28c5e;fill-opacity:1;fill-rule:nonzero;stroke:none"
                   id="path84"
                   inkscape:connector-curvature="0" /></g></g></g></g><g
           id="g92"><g
             id="g94" /><g
             id="g106"><g
               clip-path="url(#clipPath98)"
               id="g104"
               style="opacity:0.55000299"><g
                 transform="translate(22.9035,28.1306)"
                 id="g102"><path
                   d="M 0,0 C 0.034,-0.071 0.067,-0.14 0.1,-0.208 0.07,-0.145 0.036,-0.076 0,0"
                   style="fill:#d28c5e;fill-opacity:1;fill-rule:nonzero;stroke:none"
                   id="path100"
                   inkscape:connector-curvature="0" /></g></g></g></g><g
           id="g108"><g
             id="g110" /><g
             id="g122"><g
               clip-path="url(#clipPath114)"
               id="g120"
               style="opacity:0.55000299"><g
                 transform="translate(23.0754,27.7716)"
                 id="g118"><path
                   d="M 0,0 C 0.007,-0.013 0.013,-0.026 0.019,-0.039 0.012,-0.026 0.007,-0.015 0,0"
                   style="fill:#d28c5e;fill-opacity:1;fill-rule:nonzero;stroke:none"
                   id="path116"
                   inkscape:connector-curvature="0" /></g></g></g></g><g
           id="g124"><g
             id="g126" /><g
             id="g138"><g
               clip-path="url(#clipPath130)"
               id="g136"
               style="opacity:0.55000299"><g
                 transform="translate(23.1764,27.5608)"
                 id="g134"><path
                   d="M 0,0 C 0.015,-0.031 0.027,-0.057 0.038,-0.079 0.028,-0.058 0.015,-0.032 0,0"
                   style="fill:#d28c5e;fill-opacity:1;fill-rule:nonzero;stroke:none"
                   id="path132"
                   inkscape:connector-curvature="0" /></g></g></g></g><g
           id="g140"
           transform="translate(69.9921,10.1959)"><path
             d="m 0,0 c -6.465,-4.407 -17.106,-7.42 -24.755,-7.759 -7.519,-0.333 -13.977,0.774 -21.15,3.06 -5.539,1.766 -11.864,5.448 -12.663,12.215 -0.266,2.25 -0.04,4.366 0.565,6.354 -1.268,-2.655 -1.869,-5.562 -1.495,-8.733 0.799,-6.767 7.125,-10.449 12.664,-12.215 7.172,-2.286 13.63,-3.393 21.149,-3.06 7.65,0.339 18.29,3.352 24.755,7.759 2.173,1.481 4.617,4.352 5.252,7.173 C 3.252,2.836 1.557,1.061 0,0"
             style="fill:#af6553;fill-opacity:1;fill-rule:nonzero;stroke:none"
             id="path142"
             inkscape:connector-curvature="0" /></g><g
           id="g144"
           transform="translate(69.0282,33.868)"><path
             d="m 0,0 c -2.585,-1.601 -6.501,-2.803 -8.021,-5.494 -0.371,-0.657 -0.535,-1.257 -0.539,-1.793 1.721,2.288 5.242,3.429 7.63,4.908 C 1.632,-0.792 4.247,0.969 5.726,3.36 6.015,3.826 6.304,4.512 6.409,5.364 4.898,3.162 2.426,1.503 0,0"
             style="fill:#c67931;fill-opacity:1;fill-rule:nonzero;stroke:none"
             id="path146"
             inkscape:connector-curvature="0" /></g><g
           id="g148"
           transform="translate(31.6309,30.7796)"><path
             d="M 0,0 C 1.234,2.069 2.215,1.885 4.499,2.839 5.98,3.457 6.71,3.518 6.075,5.385 5.808,6.168 3.226,7.094 2.32,6.888 -0.097,6.337 -3.558,4.521 -4.736,3.649 -6.409,2.41 -6.217,0.764 -4.431,-0.262 -2.54,-1.349 -1.019,-1.708 0,0"
             style="fill:#ffc346;fill-opacity:1;fill-rule:nonzero;stroke:none"
             id="path150"
             inkscape:connector-curvature="0" /></g><g
           id="g152"
           transform="translate(18.6008,20.3031)"><path
             d="M 0,0 C 1.71,2.153 5.204,0.742 7.038,2.85 8.927,5.021 7.047,7.018 5.309,7.635 3.544,9.059 -0.476,5.261 -1.994,4.052 -5.727,1.078 -2.508,-3.159 0,0"
             style="fill:#31c4e6;fill-opacity:1;fill-rule:nonzero;stroke:none"
             id="path154"
             inkscape:connector-curvature="0" /></g><g
           id="g156"
           transform="translate(24.4461,9.6572)"><path
             d="M 0,0 C 1.125,-0.562 2.311,-0.897 3.605,-0.083 5.999,1.423 4.304,4.903 1.825,4.619 1.564,4.589 0.5,4.718 0.426,4.796 0.04,5.202 -0.178,5.576 -0.372,6.018 -1.507,8.602 -4.838,9.357 -6.969,7.508 -10.092,4.796 -8.836,2.899 -6.458,2.216 -5.5,1.941 -4.46,2.477 -3.544,2.248 -2.531,1.995 -1.125,0.562 0,0"
             style="fill:#ef0c28;fill-opacity:1;fill-rule:nonzero;stroke:none"
             id="path158"
             inkscape:connector-curvature="0" /></g><g
           id="g160"
           transform="translate(39.1593,5.885)"><path
             d="M 0,0 C 1.91,0.456 4.707,-1.06 6.16,0.442 7.771,2.109 6.616,4.927 4.53,4.956 3.261,4.973 2.72,4.282 1.485,4.807 0.533,5.211 0.587,6.339 -0.864,6.529 -1.876,6.661 -3.132,6.426 -4.208,5.936 -6.437,4.919 -6.706,2.206 -6.721,2.083 -7.172,-1.774 -1.602,-0.029 0,0"
             style="fill:#ece0d6;fill-opacity:1;fill-rule:nonzero;stroke:none"
             id="path162"
             inkscape:connector-curvature="0" /></g><g
           id="g164"
           transform="translate(44.8309,36.6674)"><path
             d="M 0,0 C 0.4,0.226 0.761,0.512 1.121,0.798 2.685,2.042 4.832,0.446 7.135,1.122 9.609,1.847 10.393,4.269 9.439,5.791 9.074,6.374 7.362,8.023 3.884,5.302 2.55,4.258 0.875,5.076 -0.565,4.095 -1.585,3.4 -2.477,2.068 -2.554,0.669 -2.638,-0.86 -1.131,-0.638 0,0"
             style="fill:#26b258;fill-opacity:1;fill-rule:nonzero;stroke:none"
             id="path166"
             inkscape:connector-curvature="0" /></g><g
           id="g168"
           transform="translate(61.5623,40.5117)"><path
             d="M 0,0 C 2.753,1.336 4.415,-1.45 6.944,-0.74 8.227,-0.38 9.035,0.932 8.155,2.329 7.449,3.451 5.835,3.547 4.661,3.884 2.615,4.472 -1.216,5.309 -2.628,2.92 -4.753,-0.677 -1.568,-0.761 0,0"
             style="fill:#8422a9;fill-opacity:1;fill-rule:nonzero;stroke:none"
             id="path170"
             inkscape:connector-curvature="0" /></g><g
           id="g172"><g
             id="g174" /><g
             id="g186"><g
               clip-path="url(#clipPath178)"
               id="g184"
               style="opacity:0.75"><g
                 transform="translate(32.2149,33.115)"
                 id="g182"><path
                   d="m 0,0 c -0.905,-0.071 -1.367,-1.176 -2.366,-1.112 -0.302,0.019 -0.708,0.104 -0.93,0.324 -0.307,0.303 -0.387,0.745 -0.724,1.055 -0.528,0.487 -1.469,0.433 -1.8,-0.303 -0.345,-0.766 0.566,-1.622 1.143,-1.989 0.979,-0.622 2.342,-0.575 3.212,0.248 0.359,0.34 0.536,0.765 0.806,1.164 C -0.415,-0.253 -0.38,-0.208 0,0"
                   style="fill:#fefce8;fill-opacity:1;fill-rule:nonzero;stroke:none"
                   id="path180"
                   inkscape:connector-curvature="0" /></g></g></g></g><g
           id="g188"><g
             id="g190" /><g
             id="g202"><g
               clip-path="url(#clipPath194)"
               id="g200"
               style="opacity:0.75"><g
                 transform="translate(43.3325,39.2164)"
                 id="g198"><path
                   d="M 0,0 C -0.49,-0.444 -1.326,-2.025 -0.316,-2.338 0.606,-2.623 1.807,-1.577 2.365,-0.97 1.701,-1.012 0.97,-1.531 0.315,-1.365 -0.662,-1.117 -0.414,-0.467 0,0"
                   style="fill:#fefce8;fill-opacity:1;fill-rule:nonzero;stroke:none"
                   id="path196"
                   inkscape:connector-curvature="0" /></g></g></g></g><g
           id="g204"
           transform="translate(15.5515,22.646)"><path
             d="m 0,0 c -0.565,-0.654 -0.529,-1.875 0.065,-2.384 0.619,-0.589 1.557,-0.305 2.148,0.216 0.308,0.271 0.568,0.596 0.894,0.829 0.317,0.225 0.759,0.311 1.064,0.522 C 3.78,-0.702 3.244,-0.753 2.828,-0.827 2.34,-0.914 1.967,-1.352 1.506,-1.414 0.848,-1.501 0.205,-0.511 0,0"
             style="fill:#efefef;fill-opacity:1;fill-rule:nonzero;stroke:none"
             id="path206"
             inkscape:connector-curvature="0" /></g><g
           id="g208"
           transform="translate(16.6795,15.6752)"><path
             d="m 0,0 c -0.267,-0.244 -0.352,-0.758 -0.323,-1.098 0.035,-0.429 0.188,-0.861 0.404,-1.228 0.298,-0.505 0.836,-0.858 1.425,-0.873 0.751,-0.019 1.501,0.166 2.253,0.085 0.791,-0.084 1.407,-0.363 2.083,-0.744 1.43,-0.804 2.857,-2.694 4.717,-1.747 0.665,0.339 1.235,0.791 1.134,1.608 -0.034,0.27 -0.031,0.576 -0.302,0.723 -0.307,0.165 -0.432,0.039 -0.618,-0.193 -1.246,-1.554 -3.165,-0.392 -4.452,0.43 -0.866,0.553 -1.707,0.636 -2.699,0.74 -0.751,0.079 -1.534,0.054 -2.225,0.373 -0.424,0.195 -1.064,0.566 -1.324,0.921 -0.043,0.17 -0.094,0.343 -0.141,0.512 -0.008,0.122 0,0.278 0.025,0.406 C 0.02,-0.043 -0.084,-0.017 0,0"
             style="fill:#efefef;fill-opacity:1;fill-rule:nonzero;stroke:none"
             id="path210"
             inkscape:connector-curvature="0" /></g><g
           id="g212"
           transform="translate(34.0715,8.6895)"><path
             d="m 0,0 c -0.733,-0.813 -0.436,-2.281 0.68,-2.487 1.358,-0.251 2.75,0.65 4.103,0.776 1.367,0.127 5.614,-1.449 6.092,0.69 0.065,0.289 -0.017,0.723 -0.149,0.985 C 10.69,-0.944 8.733,-0.769 8.111,-0.613 6.951,-0.322 6.106,0.06 4.882,-0.116 3.77,-0.275 2.942,-1.047 1.889,-1.335 0.906,-1.605 0.017,-0.785 0.036,0.23 0.12,0.254 -0.09,0.004 0,0"
             style="fill:#efefef;fill-opacity:1;fill-rule:nonzero;stroke:none"
             id="path214"
             inkscape:connector-curvature="0" /></g><g
           id="g216"
           transform="translate(64.687,41.2525)"><path
             d="m 0,0 c 0.412,0.102 1.053,-0.358 1.439,-0.502 0.556,-0.207 1.067,-0.31 1.654,-0.285 0.48,0.021 1.07,0.083 1.32,0.58 C 4.578,0.123 4.518,0.839 4.261,1.088 4.267,0.723 3.715,0.419 3.419,0.331 2.942,0.188 2.495,0.389 2.043,0.501 1.622,0.606 1.156,0.679 0.709,0.621 0.447,0.587 -0.305,0.246 0,0"
             style="fill:#ece0d6;fill-opacity:1;fill-rule:nonzero;stroke:none"
             id="path218"
             inkscape:connector-curvature="0" /></g><g
           id="g220"
           transform="translate(23.4596,55.3847)"><path
             d="m 0,0 c 0,0 -8.487,-2.766 -14.209,-9.346 -5.722,-6.58 -9.251,-13.529 -9.251,-13.529 0,0 9.19,1.866 16.212,7.474 C -0.382,-9.918 3.179,-2.575 3.37,-2.956 3.56,-3.338 0,0 0,0"
             style="fill:#d28c5e;fill-opacity:1;fill-rule:nonzero;stroke:none"
             id="path222"
             inkscape:connector-curvature="0" /></g><g
           id="g224"
           transform="translate(22.692,51.9243)"><path
             d="m 0,0 c -0.16,0.26 -0.294,0.532 -0.407,0.812 -2.471,-1.839 -6.359,-4.844 -10.021,-8.145 -5.561,-5.014 -10.42,-10.6 -10.42,-10.6 0,0 6.413,3.275 12.879,8.473 3.731,2.998 6.706,6.436 8.562,8.685 C 0.377,-0.54 0.176,-0.286 0,0"
             style="fill:#b65e29;fill-opacity:1;fill-rule:nonzero;stroke:none"
             id="path226"
             inkscape:connector-curvature="0" /></g><g
           id="g228"
           transform="translate(29.2291,62.7277)"><path
             d="m 0,0 -6.973,-7.792 c 0,0 0.477,-3.222 3.487,-3.795 l 8.493,6.867 z"
             style="fill:#d4d4d4;fill-opacity:1;fill-rule:nonzero;stroke:none"
             id="path230"
             inkscape:connector-curvature="0" /></g><g
           id="g232"><g
             id="g234" /><g
             id="g246"><g
               clip-path="url(#clipPath238)"
               id="g244"><g
                 transform="translate(28.471,61.8806)"
                 id="g242"><path
                   d="m 0,0 c 0.424,-2.321 2.393,-3.924 4.588,-4.825 l 1.177,0.952 -5.007,4.72 z"
                   style="fill:#d4d4d4;fill-opacity:1;fill-rule:nonzero;stroke:none"
                   id="path240"
                   inkscape:connector-curvature="0" /></g></g></g></g><g
           id="g248"><g
             id="g250" /><g
             id="g262"><g
               clip-path="url(#clipPath254)"
               id="g260"><g
                 transform="translate(29.0259,59.4074)"
                 id="g258"><path
                   d="m 0,0 c -0.007,0.014 -0.011,0.03 -0.018,0.044 -1.833,-2.046 -3.634,-4.156 -5.467,-6.182 0.125,-0.582 0.807,-0.896 0.807,-0.896 l 6.214,5.342 C 0.886,-1.281 0.346,-0.676 0,0"
                   style="fill:#d4d4d4;fill-opacity:1;fill-rule:nonzero;stroke:none"
                   id="path256"
                   inkscape:connector-curvature="0" /></g></g></g></g><g
           id="g264"
           transform="translate(44.9166,76.5556)"><path
             d="m 0,0 c 0,0 -0.095,-5.658 -5.372,-4.577 -5.277,1.08 -9.409,1.462 -10.554,-4.006 -1.144,-5.467 0.143,-7.152 1.764,-9.012 1.622,-1.859 9.346,-3.552 13.208,0.811 C 3.099,-12.207 4.387,-3.767 0,0"
             style="fill:#d28c5e;fill-opacity:1;fill-rule:nonzero;stroke:none"
             id="path266"
             inkscape:connector-curvature="0" /></g><g
           id="g268"
           transform="translate(44.9166,76.5556)"><path
             d="m 0,0 c 0,0 -0.095,-5.658 -5.372,-4.577 -5.277,1.08 -9.409,1.462 -10.554,-4.006 -1.144,-5.467 0.143,-7.152 1.764,-9.012 1.622,-1.859 9.346,-3.552 13.208,0.811 C 3.099,-12.207 4.387,-3.767 0,0"
             style="fill:#9e4d38;fill-opacity:1;fill-rule:nonzero;stroke:none"
             id="path270"
             inkscape:connector-curvature="0" /></g><g
           id="g272"><g
             id="g274" /><g
             id="g286"><g
               clip-path="url(#clipPath278)"
               id="g284"
               style="opacity:0.32000703"><g
                 transform="translate(39.124,66.7516)"
                 id="g282"><path
                   d="M 0,0 C 0.474,-0.849 1.03,-1.445 1.736,-1.805 4.061,-2.989 6.995,-1.491 7.469,1.16 7.497,1.315 7.518,1.471 7.531,1.63 7.69,3.569 7.433,5.49 6.639,7.135 6.625,4.991 5.927,2.875 4.44,1.609 3.06,0.433 1.542,-0.029 0,0"
                   style="fill:#b57868;fill-opacity:1;fill-rule:nonzero;stroke:none"
                   id="path280"
                   inkscape:connector-curvature="0" /></g></g></g></g><g
           id="g288"><g
             id="g290" /><g
             id="g302"><g
               clip-path="url(#clipPath294)"
               id="g300"
               style="opacity:0.55000299"><g
                 transform="translate(41.4888,60.9335)"
                 id="g298"><path
                   d="m 0,0 c -1.711,0.304 -2.898,0.889 -4.093,2.159 -1.081,1.15 -1.143,3.07 -2.279,4.106 -1.429,1.302 -3.941,1.07 -6.207,0.346 -0.986,-5.121 0.268,-6.775 1.845,-8.584 1.621,-1.859 9.345,-3.552 13.208,0.811 0.44,0.497 0.834,1.051 1.203,1.628 C 2.579,-0.04 1.351,-0.24 0,0"
                   style="fill:#9e4d38;fill-opacity:1;fill-rule:nonzero;stroke:none"
                   id="path296"
                   inkscape:connector-curvature="0" /></g></g></g></g></g></g></g></svg>