<?xml version="1.0" encoding="UTF-8" standalone="no"?>
<svg
   xmlns:dc="http://purl.org/dc/elements/1.1/"
   xmlns:cc="http://creativecommons.org/ns#"
   xmlns:rdf="http://www.w3.org/1999/02/22-rdf-syntax-ns#"
   xmlns:svg="http://www.w3.org/2000/svg"
   xmlns="http://www.w3.org/2000/svg"
   viewBox="0 0 107.8692 63.801868"
   height="63.801868"
   width="107.8692"
   xml:space="preserve"
   id="svg2"
   version="1.1"><metadata
     id="metadata8"><rdf:RDF><cc:Work
         rdf:about=""><dc:format>image/svg+xml</dc:format><dc:type
           rdf:resource="http://purl.org/dc/dcmitype/StillImage" /><dc:title></dc:title></cc:Work></rdf:RDF></metadata><defs
     id="defs6"><clipPath
       id="clipPath18"
       clipPathUnits="userSpaceOnUse"><path
         id="path16"
         d="M 0,47.851 H 80.902 V 0 H 0 Z" /></clipPath><clipPath
       id="clipPath30"
       clipPathUnits="userSpaceOnUse"><path
         id="path28"
         d="m 65.7901,31.6815 h 13.0756 v -4.459 H 65.7901 Z" /></clipPath><clipPath
       id="clipPath50"
       clipPathUnits="userSpaceOnUse"><path
         id="path48"
         d="m 76.2812,29.4064 h 3.3242 v -1.7108 h -3.3242 z" /></clipPath><clipPath
       id="clipPath78"
       clipPathUnits="userSpaceOnUse"><path
         id="path76"
         d="M 4.1497,44.0578 H 75.016 V 27.2225 H 4.1497 Z" /></clipPath><clipPath
       id="clipPath114"
       clipPathUnits="userSpaceOnUse"><path
         id="path112"
         d="M 37.0595,15.2202 H 52.5353 V 4.51524 H 37.0595 Z" /></clipPath><clipPath
       id="clipPath142"
       clipPathUnits="userSpaceOnUse"><path
         id="path140"
         d="M 0,32.2572 H 58.6983 V 0.00244141 H 0 Z" /></clipPath></defs><g
     transform="matrix(1.3333333,0,0,-1.3333333,0,63.801867)"
     id="g10"><g
       id="g12"><g
         clip-path="url(#clipPath18)"
         id="g14"><g
           transform="translate(70.4866,35.1824)"
           id="g20"><path
             id="path22"
             style="fill:#faf3e9;fill-opacity:1;fill-rule:nonzero;stroke:none"
             d="M 0,0 C 0,0 9.893,-6.377 9.602,-6.953 9.31,-7.529 -1.254,-7.825 -3.131,-7.96 l -0.074,0.066 c -2.866,2.565 -1.388,7.31 2.427,7.795 z" /></g><g
           id="g24"><g
             id="g26" /><g
             id="g38"><g
               id="g36"
               clip-path="url(#clipPath30)"><g
                 id="g34"
                 transform="translate(72.9931,29.1969)"><path
                   id="path32"
                   style="fill:#e2e2c9;fill-opacity:1;fill-rule:nonzero;stroke:none"
                   d="M 0,0 C 1.977,-0.546 3.917,-0.997 5.873,-1.275 2.982,-1.653 -4.13,-1.866 -5.638,-1.974 l -0.074,0.066 C -7.059,-0.702 -7.436,0.984 -7.072,2.485 -4.836,1.363 -2.34,0.646 0,0" /></g></g></g></g><g
           transform="translate(76.3704,29.358)"
           id="g40"><path
             id="path42"
             style="fill:#b3b3b3;fill-opacity:1;fill-rule:nonzero;stroke:none"
             d="m 0,0 c 0.068,0.307 0.82,1.316 0.91,1.251 1.647,-1.173 3.622,-2.53 3.622,-2.53 0,0 -3.675,-0.412 -4.512,-0.382 0,0 -0.231,0.715 -0.02,1.661" /></g><g
           id="g44"><g
             id="g46" /><g
             id="g58"><g
               id="g56"
               clip-path="url(#clipPath50)"><g
                 id="g54"
                 transform="translate(76.3888,29.4064)"><path
                   id="path52"
                   style="fill:#a4a4a4;fill-opacity:1;fill-rule:nonzero;stroke:none"
                   d="m 0,0 c 0.425,-0.375 0.911,-0.686 1.448,-0.932 0.557,-0.254 1.166,-0.41 1.769,-0.534 -1.144,-0.116 -2.705,-0.262 -3.216,-0.243 0,0 -0.231,0.714 -0.019,1.661 C -0.016,-0.036 -0.005,-0.015 0,0" /></g></g></g></g><g
           transform="translate(7.345,47.8515)"
           id="g60"><path
             id="path62"
             style="fill:#ffdf4d;fill-opacity:1;fill-rule:nonzero;stroke:none"
             d="m 0,0 63.142,-12.669 c 0,0 -4.521,-2.701 -3.132,-7.96 L -2.284,-7.622 c 0,0 -1.34,2.16 -0.777,4.395 C -2.766,-2.057 -2.094,-1.219 0,0" /></g><g
           transform="translate(68.4061,33.1828)"
           id="g64"><path
             id="path66"
             style="fill:#ffc346;fill-opacity:1;fill-rule:nonzero;stroke:none"
             d="m 0,0 -63.291,13.006 c 0.467,0.518 1.162,1.041 2.23,1.663 L 2.081,2 C 2.081,2 0.958,1.329 0.004,0.006 0.003,0.003 0.001,0.002 0,0" /></g><g
           transform="translate(4.1504,43.5529)"
           id="g68"><path
             id="path70"
             style="fill:#ffc346;fill-opacity:1;fill-rule:nonzero;stroke:none"
             d="m 0,0 62.936,-13.806 c 0.012,-0.006 0.023,-0.012 0.034,-0.017 -0.028,-0.346 -0.024,-0.711 0.005,-1.09 0.004,-0.067 0.009,-0.135 0.016,-0.203 0.014,-0.137 0.029,-0.274 0.052,-0.415 0.039,-0.259 0.089,-0.524 0.162,-0.799 L 0.911,-3.323 c 0,0 -0.308,0.552 -0.608,1.385 C 0.128,-1.389 -0.011,-0.717 0,0" /></g><g
           id="g72"><g
             id="g74" /><g
             id="g86"><g
               id="g84"
               clip-path="url(#clipPath78)"><g
                 id="g82"
                 transform="translate(4.1503,43.5526)"><path
                   id="path80"
                   style="fill:#edd19c;fill-opacity:1;fill-rule:nonzero;stroke:none"
                   d="m 0,0 v 0 c 0.002,0.167 0.013,0.335 0.033,0.505 3.722,-1.534 7.472,-3.11 11.287,-4.271 5.524,-1.681 50.194,-10.8 52.443,-11.433 1.706,-0.48 7.103,-0.751 7.103,-0.751 -1.996,-0.12 -4.178,-0.213 -5.751,-0.283 -0.167,-0.008 -0.329,-0.015 -0.481,-0.022 -0.046,-0.002 -0.089,-0.004 -0.134,-0.006 -0.152,-0.007 -0.298,-0.014 -0.432,-0.021 -0.022,-0.001 -0.046,-0.002 -0.068,-0.003 -0.153,-0.008 -0.29,-0.015 -0.414,-0.022 -0.023,-0.001 -0.044,-0.002 -0.066,-0.004 -0.12,-0.006 -0.229,-0.013 -0.315,-0.019 L 0.911,-3.323 c 0,0 -0.454,0.735 -0.722,1.789 -0.005,0.021 -0.01,0.041 -0.015,0.062 C 0.064,-1.025 -0.008,-0.526 0,0" /></g></g></g></g><g
           transform="translate(11.5334,29.9666)"
           id="g88"><path
             id="path90"
             style="fill:#ffc346;fill-opacity:1;fill-rule:nonzero;stroke:none"
             d="M 0,0 C 0.165,-0.78 0.14,-1.619 -0.123,-2.374 -0.678,-3.962 -1.801,-5.323 -2.861,-6.626 L 41.928,-29.417 45.57,-22.1 0.181,1.557 -0.144,1.575 C -0.077,0.968 -0.079,0.374 0,0" /></g><g
           transform="translate(31.9112,11.515)"
           id="g92"><path
             id="path94"
             style="fill:#31c4e6;fill-opacity:1;fill-rule:nonzero;stroke:none"
             d="m 0,0 c 0.756,1.967 1.761,3.859 2.537,5.804 0.262,0.654 0.539,1.304 0.865,1.904 l -23.599,12.3 -0.325,0.019 c 0.067,-0.607 0.065,-1.202 0.144,-1.575 0.165,-0.781 0.141,-1.62 -0.123,-2.374 -0.555,-1.589 -1.678,-2.949 -2.738,-4.252 z" /></g><g
           transform="translate(30.799,12.0524)"
           id="g96"><path
             id="path98"
             style="fill:#ffc346;fill-opacity:1;fill-rule:nonzero;stroke:none"
             d="M 0,0 2.201,-1.122 5.706,6.55 3.676,7.608 Z" /></g><g
           transform="translate(11.7146,31.5231)"
           id="g100"><path
             id="path102"
             style="fill:#f9f6ef;fill-opacity:1;fill-rule:nonzero;stroke:none"
             d="M 0,0 -8.89,0.357 C -8.927,-0.388 -9.223,-1.12 -9.697,-1.688 L -3.03,-8.189 C 1.37,-4.606 0,0 0,0" /></g><g
           transform="translate(3.6926,31.8456)"
           id="g104"><path
             id="path106"
             style="fill:#3d3d3d;fill-opacity:1;fill-rule:nonzero;stroke:none"
             d="M 0,0 -3.035,0.406 C -3.613,0.483 -3.93,-0.247 -3.478,-0.616 l 2.329,-1.908 C -0.147,-2.179 0.41,-1.166 0,0" /></g><g
           id="g108"><g
             id="g110" /><g
             id="g122"><g
               style="opacity:0.55000299"
               id="g120"
               clip-path="url(#clipPath114)"><g
                 id="g118"
                 transform="translate(38.7194,14.7187)"><path
                   id="path116"
                   style="fill:#bfbebe;fill-opacity:1;fill-rule:nonzero;stroke:none"
                   d="m 0,0 0.037,0.501 -1.697,-3.421 15.299,-7.284 0.177,0.276 z" /></g></g></g></g><g
           transform="translate(38.7568,15.2202)"
           id="g124"><path
             id="path126"
             style="fill:#585555;fill-opacity:1;fill-rule:nonzero;stroke:none"
             d="M 0,0 -1.333,-2.856 13.779,-10.429 15.2,-7.67 Z" /></g><g
           transform="translate(38.7835,12.4615)"
           id="g128"><path
             id="path130"
             style="fill:#3d3d3d;fill-opacity:1;fill-rule:nonzero;stroke:none"
             d="m 0,0 13.027,-6.715 0.639,1.276 -13.03,6.86 z" /></g><g
           transform="translate(57.1036,7.8667)"
           id="g132"><path
             id="path134"
             style="fill:#3d3d3d;fill-opacity:1;fill-rule:nonzero;stroke:none"
             d="m 0,0 -3.643,-7.318 c 0,0 4.077,-2.051 6.026,1.777 C 3.97,-2.424 0,0 0,0" /></g><g
           id="g136"><g
             id="g138" /><g
             id="g150"><g
               style="opacity:0.55000299"
               id="g148"
               clip-path="url(#clipPath142)"><g
                 id="g146"
                 transform="translate(14.1222,23.0424)"><path
                   id="path144"
                   style="fill:#a9a8a8;fill-opacity:1;fill-rule:nonzero;stroke:none"
                   d="m 0,0 c -2.988,1.923 -3.051,3.199 -3.051,3.199 -1.472,0.406 -4.85,2.732 -5.707,5.395 -0.017,0.052 -0.036,0.096 -0.058,0.144 l -1.614,0.065 -3.034,0.406 c -0.579,0.077 -0.896,-0.653 -0.444,-1.022 l 2.33,-1.908 6.13,-5.978 -0.002,-0.003 0.011,-0.006 0.002,-0.001 v 0.001 l 22.125,-11.259 -0.011,-0.023 2.2,-1.123 0.012,0.026 20.45,-10.406 c 0,0 3.151,-1.583 5.237,0.638 C 34.963,-18.528 5.228,-3.364 0,0" /></g></g></g></g></g></g></g></svg>