<?xml version="1.0" encoding="UTF-8" standalone="no"?>
<svg
   xmlns:dc="http://purl.org/dc/elements/1.1/"
   xmlns:cc="http://creativecommons.org/ns#"
   xmlns:rdf="http://www.w3.org/1999/02/22-rdf-syntax-ns#"
   xmlns:svg="http://www.w3.org/2000/svg"
   xmlns="http://www.w3.org/2000/svg"
   viewBox="0 0 112.77573 72.371468"
   height="72.371468"
   width="112.77573"
   xml:space="preserve"
   id="svg2"
   version="1.1"><metadata
     id="metadata8"><rdf:RDF><cc:Work
         rdf:about=""><dc:format>image/svg+xml</dc:format><dc:type
           rdf:resource="http://purl.org/dc/dcmitype/StillImage" /><dc:title></dc:title></cc:Work></rdf:RDF></metadata><defs
     id="defs6"><clipPath
       id="clipPath26"
       clipPathUnits="userSpaceOnUse"><path
         id="path24"
         d="M 0,54.279 H 84.582 V 0 H 0 Z" /></clipPath><clipPath
       id="clipPath34"
       clipPathUnits="userSpaceOnUse"><path
         id="path32"
         d="M 44.4912,29.4824 H 56.8985 V 7.97971 H 44.4912 Z" /></clipPath><clipPath
       id="clipPath50"
       clipPathUnits="userSpaceOnUse"><path
         id="path48"
         d="M 63.8386,23.2744 H 84.5818 V 11.7037 H 63.8386 Z" /></clipPath><clipPath
       id="clipPath66"
       clipPathUnits="userSpaceOnUse"><path
         id="path64"
         d="M 11.6111,19.1509 H 34.7413 V 1.6512 H 11.6111 Z" /></clipPath><clipPath
       id="clipPath82"
       clipPathUnits="userSpaceOnUse"><path
         id="path80"
         d="M 29.3731,38.0362 H 40.6986 V 25.5108 H 29.3731 Z" /></clipPath><clipPath
       id="clipPath98"
       clipPathUnits="userSpaceOnUse"><path
         id="path96"
         d="M 0,54.2786 H 18.2015 V 21.4794 H 0 Z" /></clipPath></defs><g
     transform="matrix(1.3333333,0,0,-1.3333333,0,72.371467)"
     id="g10"><g
       transform="translate(14.4032,32.9541)"
       id="g12"><path
         id="path14"
         style="fill:#ec9430;fill-opacity:1;fill-rule:nonzero;stroke:none"
         d="m 0,0 33.235,-12.734 -13.379,-2.162 -8.132,-1.314 -9.825,-1.587 z m 58.309,-13.156 -1.913,0.873 -3.313,1.511 L 25.813,1.667 20.722,3.99 3.316,11.929 -8.568,17.35 -0.529,-24.467 Z" /></g><g
       transform="translate(0,54.279)"
       id="g16"><path
         id="path18"
         style="fill:#ffc346;fill-opacity:1;fill-rule:nonzero;stroke:none"
         d="m 0,0 3.032,-54.279 81.55,15.696 z M 14.885,-20.232 48.12,-32.967 16.785,-38.029 Z" /></g><g
       id="g20"><g
         clip-path="url(#clipPath26)"
         id="g22"><g
           id="g28"><g
             id="g30" /><g
             id="g42"><g
               style="opacity:0.32000703"
               id="g40"
               clip-path="url(#clipPath34)"><g
                 id="g38"
                 transform="translate(56.8985,28.3241)"><path
                   id="path36"
                   style="fill:#ffc346;fill-opacity:1;fill-rule:nonzero;stroke:none"
                   d="m 0,0 -2.539,1.158 c -1.516,-3.516 -3.31,-6.96 -4.826,-10.324 -1.679,-3.727 -3.36,-7.453 -5.042,-11.178 l 5.71,1.099 C -4.428,-12.837 -1.892,-6.515 0,0" /></g></g></g></g><g
           id="g44"><g
             id="g46" /><g
             id="g58"><g
               style="opacity:0.32000703"
               id="g56"
               clip-path="url(#clipPath50)"><g
                 id="g54"
                 transform="translate(84.5818,15.6962)"><path
                   id="path52"
                   style="fill:#ffc346;fill-opacity:1;fill-rule:nonzero;stroke:none"
                   d="m 0,0 -16.613,7.578 c -1.28,-3.886 -2.721,-7.725 -4.13,-11.57 z" /></g></g></g></g><g
           id="g60"><g
             id="g62" /><g
             id="g74"><g
               style="opacity:0.32000703"
               id="g72"
               clip-path="url(#clipPath66)"><g
                 id="g70"
                 transform="translate(29.8616,7.1323)"><path
                   id="path68"
                   style="fill:#ffc346;fill-opacity:1;fill-rule:nonzero;stroke:none"
                   d="M 0,0 C 1.615,4.008 3.284,8 4.88,12.019 L -8.622,9.838 c -2.485,-3.55 -4.808,-7.199 -6.503,-11.14 -0.718,-1.67 -1.803,-3.1 -3.125,-4.179 l 17.398,3.349 C -0.57,-1.42 -0.286,-0.709 0,0" /></g></g></g></g><g
           id="g76"><g
             id="g78" /><g
             id="g90"><g
               style="opacity:0.32000703"
               id="g88"
               clip-path="url(#clipPath82)"><g
                 id="g86"
                 transform="translate(37.4459,26.2721)"><path
                   id="path84"
                   style="fill:#ffc346;fill-opacity:1;fill-rule:nonzero;stroke:none"
                   d="m 0,0 c 1.112,3.131 2.161,6.295 3.253,9.442 l -5.092,2.322 C -3.893,8.568 -5.963,5.383 -8.073,2.224 l 7.79,-2.985 C -0.191,-0.507 -0.09,-0.255 0,0" /></g></g></g></g><g
           id="g92"><g
             id="g94" /><g
             id="g106"><g
               style="opacity:0.32000703"
               id="g104"
               clip-path="url(#clipPath98)"><g
                 id="g102"
                 transform="translate(12.6223,37.4494)"><path
                   id="path100"
                   style="fill:#ffc346;fill-opacity:1;fill-rule:nonzero;stroke:none"
                   d="m 0,0 c 1.891,2.822 3.739,5.672 5.579,8.527 l -18.201,8.302 1.832,-32.799 C -7.442,-10.508 -3.598,-5.37 0,0" /></g></g></g></g></g></g><g
       transform="translate(0,54.279)"
       id="g108"><path
         id="path110"
         style="fill:#ec9430;fill-opacity:1;fill-rule:nonzero;stroke:none"
         d="m 0,0 3.032,-54.279 1.766,0.35 -3.867,53.504 z" /></g><g
       transform="translate(9.14,1.1585)"
       id="g112"><path
         id="path114"
         style="fill:#844500;fill-opacity:1;fill-rule:nonzero;stroke:none"
         d="M 0,0 0.459,0.088 -0.37,4.403 -0.829,4.315 Z" /></g><g
       transform="translate(10.836,3.7215)"
       id="g116"><path
         id="path118"
         style="fill:#844500;fill-opacity:1;fill-rule:nonzero;stroke:none"
         d="M 0,0 0.415,-2.157 0.874,-2.069 0.459,0.088 Z" /></g><g
       transform="translate(12.9474,4.1274)"
       id="g120"><path
         id="path122"
         style="fill:#844500;fill-opacity:1;fill-rule:nonzero;stroke:none"
         d="M 0,0 0.415,-2.157 0.873,-2.069 0.459,0.088 Z" /></g><g
       transform="translate(15.0579,4.5333)"
       id="g124"><path
         id="path126"
         style="fill:#844500;fill-opacity:1;fill-rule:nonzero;stroke:none"
         d="M 0,0 0.415,-2.157 0.874,-2.069 0.459,0.088 Z" /></g><g
       transform="translate(17.1693,4.9392)"
       id="g128"><path
         id="path130"
         style="fill:#844500;fill-opacity:1;fill-rule:nonzero;stroke:none"
         d="M 0,0 0.414,-2.157 0.873,-2.069 0.459,0.088 Z" /></g><g
       transform="translate(19.6947,3.1875)"
       id="g132"><path
         id="path134"
         style="fill:#844500;fill-opacity:1;fill-rule:nonzero;stroke:none"
         d="M 0,0 0.459,0.088 -0.371,4.403 -0.829,4.315 Z" /></g><g
       transform="translate(21.3912,5.751)"
       id="g136"><path
         id="path138"
         style="fill:#844500;fill-opacity:1;fill-rule:nonzero;stroke:none"
         d="M 0,0 0.414,-2.157 0.873,-2.069 0.458,0.088 Z" /></g><g
       transform="translate(23.5017,6.1569)"
       id="g140"><path
         id="path142"
         style="fill:#844500;fill-opacity:1;fill-rule:nonzero;stroke:none"
         d="M 0,0 0.415,-2.157 0.874,-2.069 0.459,0.088 Z" /></g><g
       transform="translate(25.6131,6.5628)"
       id="g144"><path
         id="path146"
         style="fill:#844500;fill-opacity:1;fill-rule:nonzero;stroke:none"
         d="M 0,0 0.414,-2.158 0.873,-2.07 0.458,0.088 Z" /></g><g
       transform="translate(27.7236,6.9678)"
       id="g148"><path
         id="path150"
         style="fill:#844500;fill-opacity:1;fill-rule:nonzero;stroke:none"
         d="M 0,0 0.415,-2.157 0.874,-2.069 0.459,0.089 Z" /></g><g
       transform="translate(30.2493,5.2166)"
       id="g152"><path
         id="path154"
         style="fill:#844500;fill-opacity:1;fill-rule:nonzero;stroke:none"
         d="M 0,0 0.459,0.088 -0.371,4.403 -0.829,4.315 Z" /></g><g
       transform="translate(31.9455,7.7796)"
       id="g156"><path
         id="path158"
         style="fill:#844500;fill-opacity:1;fill-rule:nonzero;stroke:none"
         d="M 0,0 0.415,-2.157 0.874,-2.069 0.459,0.088 Z" /></g><g
       transform="translate(34.056,8.1855)"
       id="g160"><path
         id="path162"
         style="fill:#844500;fill-opacity:1;fill-rule:nonzero;stroke:none"
         d="M 0,0 0.415,-2.157 0.874,-2.069 0.459,0.088 Z" /></g><g
       transform="translate(36.1674,8.5914)"
       id="g164"><path
         id="path166"
         style="fill:#844500;fill-opacity:1;fill-rule:nonzero;stroke:none"
         d="M 0,0 0.415,-2.157 0.874,-2.069 0.459,0.088 Z" /></g><g
       transform="translate(38.2779,8.9973)"
       id="g168"><path
         id="path170"
         style="fill:#844500;fill-opacity:1;fill-rule:nonzero;stroke:none"
         d="M 0,0 0.415,-2.157 0.874,-2.069 0.459,0.088 Z" /></g><g
       transform="translate(40.8039,7.2456)"
       id="g172"><path
         id="path174"
         style="fill:#844500;fill-opacity:1;fill-rule:nonzero;stroke:none"
         d="M 0,0 0.459,0.088 -0.371,4.403 -0.83,4.315 Z" /></g><g
       transform="translate(42.4998,9.8091)"
       id="g176"><path
         id="path178"
         style="fill:#844500;fill-opacity:1;fill-rule:nonzero;stroke:none"
         d="M 0,0 0.415,-2.157 0.874,-2.069 0.459,0.088 Z" /></g><g
       transform="translate(44.6112,10.215)"
       id="g180"><path
         id="path182"
         style="fill:#844500;fill-opacity:1;fill-rule:nonzero;stroke:none"
         d="M 0,0 0.415,-2.157 0.873,-2.069 0.459,0.088 Z" /></g><g
       transform="translate(46.7217,10.6209)"
       id="g184"><path
         id="path186"
         style="fill:#844500;fill-opacity:1;fill-rule:nonzero;stroke:none"
         d="M 0,0 0.415,-2.158 0.874,-2.07 0.459,0.088 Z" /></g><g
       transform="translate(48.8331,11.0259)"
       id="g188"><path
         id="path190"
         style="fill:#844500;fill-opacity:1;fill-rule:nonzero;stroke:none"
         d="M 0,0 0.415,-2.157 0.873,-2.069 0.459,0.088 Z" /></g><g
       transform="translate(51.3585,9.2746)"
       id="g192"><path
         id="path194"
         style="fill:#844500;fill-opacity:1;fill-rule:nonzero;stroke:none"
         d="M 0,0 0.459,0.088 -0.371,4.403 -0.829,4.315 Z" /></g><g
       transform="translate(53.055,11.8377)"
       id="g196"><path
         id="path198"
         style="fill:#844500;fill-opacity:1;fill-rule:nonzero;stroke:none"
         d="M 0,0 0.414,-2.157 0.873,-2.069 0.459,0.088 Z" /></g><g
       transform="translate(55.1655,12.2436)"
       id="g200"><path
         id="path202"
         style="fill:#844500;fill-opacity:1;fill-rule:nonzero;stroke:none"
         d="M 0,0 0.415,-2.157 0.874,-2.069 0.459,0.088 Z" /></g><g
       transform="translate(57.2769,12.6495)"
       id="g204"><path
         id="path206"
         style="fill:#844500;fill-opacity:1;fill-rule:nonzero;stroke:none"
         d="M 0,0 0.414,-2.157 0.873,-2.069 0.458,0.088 Z" /></g><g
       transform="translate(59.3874,13.0554)"
       id="g208"><path
         id="path210"
         style="fill:#844500;fill-opacity:1;fill-rule:nonzero;stroke:none"
         d="M 0,0 0.415,-2.157 0.874,-2.069 0.459,0.088 Z" /></g><g
       transform="translate(61.9131,11.3037)"
       id="g212"><path
         id="path214"
         style="fill:#844500;fill-opacity:1;fill-rule:nonzero;stroke:none"
         d="M 0,0 0.459,0.088 -0.371,4.403 -0.829,4.315 Z" /></g><g
       transform="translate(63.6093,13.8672)"
       id="g216"><path
         id="path218"
         style="fill:#844500;fill-opacity:1;fill-rule:nonzero;stroke:none"
         d="M 0,0 0.415,-2.157 0.874,-2.069 0.459,0.088 Z" /></g><g
       transform="translate(65.7198,14.2731)"
       id="g220"><path
         id="path222"
         style="fill:#844500;fill-opacity:1;fill-rule:nonzero;stroke:none"
         d="M 0,0 0.415,-2.158 0.874,-2.07 0.459,0.088 Z" /></g><g
       transform="translate(67.8312,14.679)"
       id="g224"><path
         id="path226"
         style="fill:#844500;fill-opacity:1;fill-rule:nonzero;stroke:none"
         d="M 0,0 0.415,-2.158 0.874,-2.07 0.459,0.088 Z" /></g><g
       transform="translate(69.9417,15.084)"
       id="g228"><path
         id="path230"
         style="fill:#844500;fill-opacity:1;fill-rule:nonzero;stroke:none"
         d="M 0,0 0.415,-2.157 0.874,-2.069 0.459,0.088 Z" /></g><g
       transform="translate(71.6382,17.6476)"
       id="g232"><path
         id="path234"
         style="fill:#844500;fill-opacity:1;fill-rule:nonzero;stroke:none"
         d="M 0,0 0.829,-4.315 1.288,-4.227 0.459,0.088 Z" /></g></g></svg>