<svg xmlns="http://www.w3.org/2000/svg" height="94.821" width="78.278">
    <defs>
        <clipPath id="i" clipPathUnits="userSpaceOnUse">
            <path d="M7.498 39.602h34.135V4.255H7.498z"/>
        </clipPath>
        <clipPath id="a" clipPathUnits="userSpaceOnUse">
            <path d="M0 71.115h58.709V0H0z"/>
        </clipPath>
        <clipPath id="c" clipPathUnits="userSpaceOnUse">
            <path d="M21.152 59.057h16.783V53.64H21.152z"/>
        </clipPath>
        <clipPath id="d" clipPathUnits="userSpaceOnUse">
            <path d="M20.349 69.12h10.333v-8.265H20.349z"/>
        </clipPath>
        <clipPath id="e" clipPathUnits="userSpaceOnUse">
            <path d="M30.795 66.955h4.262v-4.973h-4.262z"/>
        </clipPath>
        <clipPath id="f" clipPathUnits="userSpaceOnUse">
            <path d="M24.736 71.098h6.435v-4.005h-6.435z"/>
        </clipPath>
        <clipPath id="g" clipPathUnits="userSpaceOnUse">
            <path d="M22.565 40.834h28.198V16.79H22.565z"/>
        </clipPath>
        <clipPath id="h" clipPathUnits="userSpaceOnUse">
            <path d="M32.926 36.81h12.018V26.027H32.926z"/>
        </clipPath>
        <clipPath id="b" clipPathUnits="userSpaceOnUse">
            <path d="M0 59.057h58.709V0H0z"/>
        </clipPath>
        <clipPath id="j" clipPathUnits="userSpaceOnUse">
            <path d="M7.498 39.602h34.135V4.255H7.498z"/>
        </clipPath>
        <clipPath id="k" clipPathUnits="userSpaceOnUse">
            <path d="M20.349 40.042h2.946v-2.946h-2.946z"/>
        </clipPath>
        <clipPath id="l" clipPathUnits="userSpaceOnUse">
            <path d="M41.633 13.49h2.946v-2.946h-2.946z"/>
        </clipPath>
        <clipPath id="m" clipPathUnits="userSpaceOnUse">
            <path d="M26.039 15.904h2.074V13.83H26.04z"/>
        </clipPath>
        <clipPath id="n" clipPathUnits="userSpaceOnUse">
            <path d="M31.244 6.9h1.281V5.618h-1.281z"/>
        </clipPath>
        <clipPath id="o" clipPathUnits="userSpaceOnUse">
            <path d="M27.881 25.291h1.473v-1.473h-1.473z"/>
        </clipPath>
        <clipPath id="p" clipPathUnits="userSpaceOnUse">
            <path d="M30.058 50.414h1.473v-1.473h-1.473z"/>
        </clipPath>
        <clipPath id="q" clipPathUnits="userSpaceOnUse">
            <path d="M51.23 25.291h1.473v-1.473H51.23z"/>
        </clipPath>
    </defs>
    <g clip-path="url(#a)" transform="matrix(1.33333 0 0 -1.33333 0 94.82)">
        <g clip-path="url(#b)" opacity=".55">
            <path d="M21.152 59.057l1.855-13.256S2.247 44.041.216 25.754C-1.815 7.468 10.684.27 30.03.004 49.376-.26 59.578 12.02 58.65 25.624 57.724 39.224 43.149 45.087 36.126 45.8l1.81 13.256z" fill="#a4cad3"/>
        </g>
        <path d="M12.401 15.944c.238-.082 1.553-.615 1.727-.673.912-.309 1.828-.61 2.765-.839.948-.23 1.898-.458 2.861-.622.19-.032 1.763-.219 1.936-.254 3.23-.287 6.466-.405 9.707-.506 3.525-.11 7.086-.248 10.603.093.247.024.432.04.573.05l.07.014c.85.163 1.703.326 2.536.565.533.154 1.067.309 1.594.484.293.15 1.311.609 1.525.737 3.207 1.917 5.983 4.274 8.943 6.23.218 1.488.233 2.997-.046 4.493-9.3 2.357-17.63 2.702-28.845 3.057-10.295.327-22.342-1.434-26.492-3.66a25.38 25.38 0 01.1-2.907c3.38-2.245 6.724-4.55 10.443-6.261" fill="#56e8a1"/>
        <path d="M29.467 18.924c-13.327.03-23.905 3.03-27.608 6.188a25.373 25.373 0 011.373-8.89C5.416 9.847 10.815 5.078 17.37 3.527c3.319-.784 7.33-1.496 11.192-1.574 4.189-.085 8.242.373 11.565.962 5.336.947 10.084 4.028 13.058 8.558 2.595 3.952 4.954 9.172 4.009 14.242-3.32-3.462-13.28-6.821-27.728-6.79" fill="#26b258"/>
        <path d="M29.925 2.141C13.574 2.387 3.01 9.065 4.727 26.028 6.444 42.99 25.546 44.623 25.546 44.623L23.802 58.24h11.256l-1.824-13.617c5.935-.66 20.098-6.099 20.882-18.717.783-12.618-7.84-24.01-24.191-23.765M58.65 25.623c-.928 13.603-15.503 19.465-22.526 20.178l1.81 13.256H21.152l1.855-13.256S2.247 44.041.216 25.754C-1.816 7.47 10.684.27 30.03.004c19.345-.265 29.548 12.017 28.62 25.62" fill="#e2eef1"/>
        <g clip-path="url(#c)" opacity=".55">
            <path d="M28.328 53.76c2.782-.297 6.028-.041 8.986.745l.621 4.553H21.152l.516-3.691c2.185-.687 4.373-1.363 6.66-1.607" fill="#a4cad3"/>
        </g>
        <path d="M29.625 66.412s-12.396-.557-12.175-3.853c.22-3.296 5.068-5.757 12.505-5.71 7.438.046 11.57 2.924 11.294 4.967-.275 2.043-3.801 4.41-11.624 4.596" fill="#eff6f7"/>
        <path d="M20.349 69.12l1.377-6.386s2.808-1.925 7.893-1.878c5.086.047 7.576 2.3 7.576 2.3l1.165 5.635z" fill="#615f5f"/>
        <g clip-path="url(#d)" opacity=".75">
            <path d="M27.518 68.007c-.01.329-.005.656.016.982l-7.185.131 1.377-6.386s2.807-1.925 7.893-1.878c.37.004.72.021 1.062.047a10.294 10.294 0 00-3.163 7.104" fill="#615f5f"/>
        </g>
        <g clip-path="url(#e)">
            <path d="M31.223 66.48a21.597 21.597 0 00-.115-2.134 61.371 61.371 0 00-.313-2.364c.363.049.727.097 1.089.148.87.121 1.729.328 2.57.586.11 1.042.24 2.08.4 3.116.059.372.129.747.204 1.123-1.45-.531-2.512-.558-3.835-.474" fill="#615f5f"/>
        </g>
        <path d="M20.349 69.12s2.993-2.23 9.456-2.02c6.463.212 8.555 1.69 8.555 1.69s-2.035 2.31-9.005 2.325c-6.145.013-8.401-1.427-9.006-1.995" fill="#898787"/>
        <g clip-path="url(#f)">
            <path d="M28.55 70.054c-1.16-.763-2.319-1.53-3.478-2.298-.113-.088-.224-.18-.337-.268 1.266-.252 2.81-.423 4.656-.392.074.204.143.41.226.61.467 1.14 1 2.247 1.554 3.343-.313.021-.637.037-.97.05-.552-.349-1.109-.689-1.65-1.045" fill="#898787"/>
        </g>
        <g clip-path="url(#g)" opacity=".32">
            <path d="M50.513 25.084c-1.418-6.083-8.534-9.743-16.3-7.747-8.344 2.143-13.483 9.698-11.036 16.345 2.306 6.263 10.363 8.77 17.657 6.084 6.834-2.517 11.024-8.91 9.679-14.682" fill="#ffff83"/>
        </g>
        <g clip-path="url(#h)" opacity=".75">
            <path d="M44.551 28.908c-1.177-2.634-4.646-3.646-7.748-2.259-3.102 1.386-4.662 4.645-3.485 7.28 1.178 2.633 4.647 3.645 7.748 2.26 3.102-1.388 4.662-4.647 3.485-7.28" fill="#ffff83"/>
        </g>
        <g clip-path="url(#i)">
            <g clip-path="url(#j)" opacity=".55">
                <path d="M16.006 39.602C12.32 37.064 7.77 32.27 7.524 26.917a24.79 24.79 0 01-.024-.857C7.367 14.998 15.877 5.727 26.872 4.491c4.8-.539 10.218-.283 14.761 2.153-4.583 2.723-11.502 7.49-17.1 12.903-5.34 5.162-8.927 18.801-8.527 20.055" fill="#01182c"/>
            </g>
        </g>
        <g>
            <g clip-path="url(#k)" opacity=".55">
                <path d="M23.295 38.569a1.473 1.473 0 10-2.946 0 1.473 1.473 0 002.946 0" fill="#eaf1d0"/>
            </g>
        </g>
        <g>
            <g clip-path="url(#l)" opacity=".55">
                <path d="M44.58 12.017a1.472 1.472 0 10-2.945-.001 1.472 1.472 0 002.944.001" fill="#a9c43a"/>
            </g>
        </g>
        <g>
            <g clip-path="url(#m)" opacity=".55">
                <path d="M28.113 14.867a1.037 1.037 0 10-2.073 0 1.037 1.037 0 002.073 0" fill="#a9c43a"/>
            </g>
        </g>
        <g>
            <g clip-path="url(#n)" opacity=".55">
                <path d="M32.525 6.26a.641.641 0 10-1.282 0 .641.641 0 001.282 0" fill="#a9c43a"/>
            </g>
        </g>
        <g>
            <g clip-path="url(#o)" opacity=".55">
                <path d="M29.354 24.555a.737.737 0 10-1.474 0 .737.737 0 001.474 0" fill="#a9c43a"/>
            </g>
        </g>
        <g>
            <g clip-path="url(#p)" opacity=".55">
                <path d="M31.531 49.678a.736.736 0 10-1.472 0 .736.736 0 001.472 0" fill="#eaf1d0"/>
            </g>
        </g>
        <g>
            <g clip-path="url(#q)" opacity=".55">
                <path d="M52.703 24.555a.737.737 0 10-1.473 0 .737.737 0 001.473 0" fill="#a9c43a"/>
            </g>
        </g>
    </g>
</svg>
