<svg xmlns="http://www.w3.org/2000/svg" height="91.219" width="99.686">
    <defs>
        <clipPath id="g" clipPathUnits="userSpaceOnUse">
            <path d="M46.223 62.314h27.812V36.328H46.223z"/>
        </clipPath>
        <clipPath id="a" clipPathUnits="userSpaceOnUse">
            <path d="M0 68.414h74.764V0H0z"/>
        </clipPath>
        <clipPath id="c" clipPathUnits="userSpaceOnUse">
            <path d="M30.552 60.19h16.644V49.577H30.553z"/>
        </clipPath>
        <clipPath id="d" clipPathUnits="userSpaceOnUse">
            <path d="M17.641 55.877h33.568v-18.96H17.64z"/>
        </clipPath>
        <clipPath id="e" clipPathUnits="userSpaceOnUse">
            <path d="M30.041 37.364h41.606V11.219H30.041z"/>
        </clipPath>
        <clipPath id="f" clipPathUnits="userSpaceOnUse">
            <path d="M59.815 63.11H73.47V49.598H59.815z"/>
        </clipPath>
        <clipPath id="b" clipPathUnits="userSpaceOnUse">
            <path d="M8.472 26.423H54.74V1.516H8.472z"/>
        </clipPath>
        <clipPath id="h" clipPathUnits="userSpaceOnUse">
            <path d="M27.743 63.08h45.539V9.97H27.743z"/>
        </clipPath>
        <clipPath id="i" clipPathUnits="userSpaceOnUse">
            <path d="M11.762 61.64h45.507V4.658H11.762z"/>
        </clipPath>
        <clipPath id="j" clipPathUnits="userSpaceOnUse">
            <path d="M21.422 35.837h45.197V10.372H21.422z"/>
        </clipPath>
        <clipPath id="k" clipPathUnits="userSpaceOnUse">
            <path d="M45.994 67.426h15.86V55.857h-15.86z"/>
        </clipPath>
        <clipPath id="l" clipPathUnits="userSpaceOnUse">
            <path d="M32.78 64.146h32.074V42.919H32.78z"/>
        </clipPath>
    </defs>
    <g clip-path="url(#a)" transform="matrix(1.33333 0 0 -1.33333 0 91.219)">
        <path d="M0 48.583L15.704 0 50.78 11.268c4.794 1.793 7.41 3.14 6.191 7.132-3.045 9.976-11.932 38.249-12.747 40.173-1.003 2.366-1.352 4.347-8.249 2.05z" fill="#31c4e6"/>
        <path d="M0 48.583L15.704 0 50.78 11.268c4.794 1.793 7.41 3.14 6.191 7.132-3.045 9.976-11.932 38.249-12.747 40.173-1.003 2.366-1.352 4.347-8.249 2.05z" fill="#ef0c28"/>
        <g clip-path="url(#b)" opacity=".32">
            <path d="M37.865 13.32c-7.018.341-13.053 1.782-19.074 5.461-3.34 2.041-7.21 4.621-10.32 7.641l8.053-24.906 33.202 10.665c2.234.836 3.966 1.571 5.013 2.552-5.187-1.488-10.987-1.699-16.874-1.413" fill="#856261"/>
        </g>
        <path d="M16.954 48.416l.748-2.406 12.747 4.232-.767 2.484z" fill="#848484"/>
        <path d="M12.162 39.202l26.458 8.62c-.081.262-.157.526-.231.791l-26.473-8.712.246-.699" fill="#848484"/>
        <path d="M13.39 35.574l26.523 8.557c-.097.256-.192.511-.287.767l-26.47-8.628.235-.696" fill="#848484"/>
        <path d="M14.613 31.974l26.57 8.49c-.076.26-.156.518-.237.777l-26.561-8.576c.078-.231.152-.461.228-.691" fill="#848484"/>
        <path d="M15.683 28.355l26.611 8.42c-.088.254-.169.51-.25.767L15.5 29.054c.063-.233.126-.465.184-.7" fill="#848484"/>
        <g clip-path="url(#c)" opacity=".55">
            <path d="M30.552 58.808l16.643-9.231c-.482 1.506-.926 2.886-1.318 4.093l-11.195 6.52z" fill="#31c4e6"/>
        </g>
        <g clip-path="url(#d)" opacity=".55">
            <path d="M17.641 54.486l33.567-17.57c-.423 1.348-.847 2.693-1.266 4.019L21.796 55.877z" fill="#31c4e6"/>
        </g>
        <path d="M27.652 60.967L30.12 9.97l36.802 1.712c5.095.48 7.972 1.096 7.838 5.267-.332 10.425-1.523 40.04-1.808 42.11-.35 2.545-.17 4.548-7.426 4.132z" fill="#31c4e6"/>
        <path d="M27.652 60.967L30.12 9.97l36.802 1.712c5.095.48 7.972 1.096 7.838 5.267-.332 10.425-1.523 40.04-1.808 42.11-.35 2.545-.17 4.548-7.426 4.132z" fill="#ffc346"/>
        <g clip-path="url(#e)" opacity=".65">
            <path d="M54.99 17.038c-6.685 2.163-12.134 5.13-16.985 10.254-2.69 2.843-5.75 6.344-7.964 10.072l1.265-26.145 34.836 1.62c2.375.224 4.238.482 5.505 1.154-5.396-.081-11.049 1.23-16.657 3.045" fill="#ceae63"/>
        </g>
        <path d="M43.974 56.378l.093-2.518 13.411.755-.092 2.598z" fill="#ada2ab"/>
        <path d="M36.941 48.735l27.791 1.407c-.009.275-.014.55-.017.825l-27.829-1.493c.02-.246.038-.493.055-.739" fill="#ada2ab"/>
        <path d="M37.18 44.913l27.837 1.33c-.027.274-.052.545-.077.816l-27.804-1.413.044-.733" fill="#ada2ab"/>
        <path d="M37.419 41.118l27.865 1.254c-.005.27-.016.541-.025.811l-27.88-1.338c.015-.243.027-.485.04-.727" fill="#ada2ab"/>
        <path d="M37.507 37.345l27.887 1.177c-.02.267-.03.535-.042.804l-27.84-1.258c0-.241 0-.482-.005-.723" fill="#ada2ab"/>
        <g clip-path="url(#f)" opacity=".55">
            <path d="M59.815 62.856L73.47 49.598c-.072 1.579-.14 3.027-.203 4.295l-9.104 9.218z" fill="#31c4e6"/>
        </g>
        <g clip-path="url(#g)" opacity=".55">
            <path d="M46.223 62.058l27.812-25.73c-.057 1.412-.115 2.82-.173 4.21L50.597 62.315z" fill="#31c4e6"/>
        </g>
        <g clip-path="url(#h)" opacity=".65">
            <path d="M68.83 41.166l-.047.21c-.298 1.296-.595 2.588-.89 3.864l-.006.03c-1.965 8.513-3.768 16.173-4.238 17.81l-1.777-.103-2.056-.121-9.218-.541-4.374-.257-8.587-.504-.88-.22-9.013-2.241L30.12 9.97l15.269.71 20.987 4.95c4.92 1.41 7.635 2.546 6.736 6.62a2677.185 2677.185 0 01-4.281 18.916" fill="#ceae63"/>
        </g>
        <g clip-path="url(#i)" opacity=".32">
            <path d="M51.209 36.916l-.056.175c-3.214 10.218-6.451 20.356-6.928 21.481-.692 1.631-1.075 3.078-3.502 3.068l-6.645-1.653-2.752-.92-.774-.26-8.756-2.93-4.155-1.39-5.88-1.969L23.144 4.658l26.566 6.267 1.07.344c4.793 1.793 7.41 3.14 6.191 7.131a2657.89 2657.89 0 01-5.762 18.518" fill="#967877"/>
        </g>
        <path d="M14.728 58.598L26.541 8.926l35.857 8.458c4.921 1.409 7.635 2.545 6.736 6.62-2.247 10.186-8.87 39.074-9.53 41.056-.813 2.438-1.005 4.44-8.06 2.696z" fill="#31c4e6"/>
        <g>
            <g clip-path="url(#j)" opacity=".32">
                <path d="M49.686 20.452c-6.97.895-12.871 2.809-18.582 6.952-3.168 2.299-6.821 5.177-9.682 8.434l6.056-25.466 33.942 8.007c2.294.657 4.077 1.252 5.199 2.147-5.29-1.073-11.087-.825-16.933-.074" fill="#31c4e6"/>
            </g>
        </g>
        <g>
            <path d="M31.616 57.091l.555-2.458 13.042 3.211-.568 2.537z" fill="#056877"/>
        </g>
        <g>
            <path d="M26.11 48.285l27.057 6.5c-.06.268-.115.537-.168.808L25.919 49c.066-.238.129-.477.19-.716" fill="#056877"/>
        </g>
        <g>
            <path d="M27.048 44.571l27.116 6.433c-.077.263-.15.525-.226.787L26.87 45.283l.178-.712" fill="#056877"/>
        </g>
        <g>
            <path d="M27.982 40.886l27.158 6.362c-.055.265-.115.529-.174.793l-27.157-6.448c.06-.236.115-.471.173-.707" fill="#056877"/>
        </g>
        <g>
            <path d="M28.763 37.193l27.194 6.291c-.068.259-.128.52-.19.782l-27.132-6.362c.044-.237.088-.473.128-.711" fill="#056877"/>
        </g>
        <g>
            <g clip-path="url(#k)" opacity=".55">
                <path d="M45.994 66.375l15.86-10.518a985.77 985.77 0 01-.99 4.184L50.22 67.426z" fill="#31c4e6"/>
            </g>
        </g>
        <g>
            <g clip-path="url(#l)" opacity=".55">
                <path d="M32.78 63.088L64.855 42.92c-.316 1.376-.632 2.75-.945 4.105L37.033 64.146z" fill="#31c4e6"/>
            </g>
        </g>
    </g>
</svg>
