<svg xmlns="http://www.w3.org/2000/svg" height="148.269" width="148.271">
    <defs>
        <clipPath id="a" clipPathUnits="userSpaceOnUse">
            <path d="M0 111.202h111.203V0H0z"/>
        </clipPath>
    </defs>
    <g clip-path="url(#a)" transform="matrix(1.33333 0 0 -1.33333 0 148.27)">
        <path d="M8.027 107.188a4.014 4.014 0 10-8.028 0 4.014 4.014 0 008.028 0" fill="#282828"/>
        <path d="M28.663 107.188a4.014 4.014 0 10-8.028 0 4.014 4.014 0 008.028 0" fill="#282828"/>
        <path d="M49.297 107.188a4.013 4.013 0 10-8.027-.001 4.013 4.013 0 008.027.001" fill="#282828"/>
        <path d="M69.932 107.188a4.014 4.014 0 10-8.027 0 4.014 4.014 0 008.027 0" fill="#282828"/>
        <path d="M90.568 107.188a4.013 4.013 0 10-8.027 0 4.014 4.014 0 108.027 0" fill="#282828"/>
        <path d="M111.203 107.188a4.014 4.014 0 10-8.029.001 4.014 4.014 0 008.03 0" fill="#282828"/>
        <path d="M8.027 86.553a4.014 4.014 0 10-8.028 0 4.014 4.014 0 008.028 0" fill="#282828"/>
        <path d="M28.663 86.553a4.014 4.014 0 10-8.028 0 4.014 4.014 0 008.028 0" fill="#282828"/>
        <path d="M49.297 86.553a4.013 4.013 0 10-8.027-.001 4.013 4.013 0 008.027.001" fill="#282828"/>
        <path d="M69.932 86.553a4.014 4.014 0 10-8.027 0 4.014 4.014 0 008.027 0" fill="#282828"/>
        <path d="M90.568 86.553a4.013 4.013 0 10-8.027-.001 4.013 4.013 0 008.027.001" fill="#282828"/>
        <path d="M111.203 86.553a4.014 4.014 0 10-8.029.001 4.014 4.014 0 008.03 0" fill="#282828"/>
        <path d="M8.027 65.918A4.014 4.014 0 100 65.919a4.014 4.014 0 008.027-.001" fill="#282828"/>
        <path d="M28.663 65.918a4.014 4.014 0 10-8.028.001 4.014 4.014 0 008.028-.001" fill="#282828"/>
        <path d="M49.297 65.918a4.013 4.013 0 10-8.026 0 4.013 4.013 0 008.026 0" fill="#282828"/>
        <path d="M69.932 65.918a4.014 4.014 0 10-8.027.001 4.014 4.014 0 008.027-.001" fill="#282828"/>
        <path d="M90.568 65.918a4.013 4.013 0 10-8.027 0 4.014 4.014 0 108.027 0" fill="#282828"/>
        <path d="M111.203 65.918a4.014 4.014 0 10-8.028.002 4.014 4.014 0 008.028-.002" fill="#282828"/>
        <path d="M8.027 45.284a4.014 4.014 0 10-8.028 0 4.014 4.014 0 008.028 0" fill="#282828"/>
        <path d="M28.663 45.284a4.014 4.014 0 10-8.028 0 4.014 4.014 0 008.028 0" fill="#282828"/>
        <path d="M49.297 45.284a4.013 4.013 0 10-8.027-.001 4.013 4.013 0 008.027 0" fill="#282828"/>
        <path d="M69.932 45.284a4.014 4.014 0 10-8.027 0 4.014 4.014 0 008.027 0" fill="#282828"/>
        <path d="M90.568 45.284a4.013 4.013 0 10-8.027-.002 4.013 4.013 0 008.027.002" fill="#282828"/>
        <path d="M111.203 45.284a4.014 4.014 0 10-8.029 0 4.014 4.014 0 008.03 0" fill="#282828"/>
        <path d="M8.027 24.648A4.014 4.014 0 100 24.65a4.014 4.014 0 008.027-.002" fill="#282828"/>
        <path d="M28.663 24.648a4.014 4.014 0 10-8.028.002 4.014 4.014 0 008.028-.002" fill="#282828"/>
        <path d="M49.297 24.648a4.013 4.013 0 10-8.026 0 4.013 4.013 0 008.026 0" fill="#282828"/>
        <path d="M69.932 24.648a4.014 4.014 0 10-8.027.002 4.014 4.014 0 008.027-.002" fill="#282828"/>
        <path d="M90.568 24.648a4.013 4.013 0 10-8.026 0 4.013 4.013 0 008.026 0" fill="#282828"/>
        <path d="M111.203 24.648a4.014 4.014 0 10-8.028.003 4.014 4.014 0 008.028-.003" fill="#282828"/>
        <path d="M8.027 4.014a4.014 4.014 0 10-8.028 0 4.014 4.014 0 008.028 0" fill="#282828"/>
        <path d="M28.663 4.014a4.014 4.014 0 10-8.028 0 4.014 4.014 0 008.028 0" fill="#282828"/>
        <path d="M49.297 4.014a4.013 4.013 0 10-8.027-.002 4.013 4.013 0 008.027.002" fill="#282828"/>
        <path d="M69.932 4.014a4.014 4.014 0 10-8.027 0 4.014 4.014 0 008.027 0" fill="#282828"/>
        <path d="M90.568 4.014a4.013 4.013 0 10-8.027-.002 4.013 4.013 0 008.027.002" fill="#282828"/>
        <path d="M111.203 4.014a4.014 4.014 0 10-8.029 0 4.014 4.014 0 008.03 0" fill="#282828"/>
    </g>
</svg>
