<svg xmlns="http://www.w3.org/2000/svg" height="100.362" width="82.624">
    <defs>
        <clipPath id="a" clipPathUnits="userSpaceOnUse">
            <path d="M0 75.271h61.968V0H0z"/>
        </clipPath>
        <clipPath id="c" clipPathUnits="userSpaceOnUse">
            <path d="M33.4 17.611h5.02v-4.42H33.4z"/>
        </clipPath>
        <clipPath id="d" clipPathUnits="userSpaceOnUse">
            <path d="M23.929 26.446h25.033V15.5H23.93z"/>
        </clipPath>
        <clipPath id="e" clipPathUnits="userSpaceOnUse">
            <path d="M3.02 70.603h43.053V17.627H3.019z"/>
        </clipPath>
        <clipPath id="b" clipPathUnits="userSpaceOnUse">
            <path d="M24.381 7.639h22.95v-5.51h-22.95z"/>
        </clipPath>
        <clipPath id="g" clipPathUnits="userSpaceOnUse">
            <path d="M0 75.271h61.968V0H0z"/>
        </clipPath>
        <clipPath id="h" clipPathUnits="userSpaceOnUse">
            <path d="M26.674 68.453h26.839V43.346H26.674z"/>
        </clipPath>
        <clipPath id="i" clipPathUnits="userSpaceOnUse">
            <path d="M35.923 63.52h11.05v-8.94h-11.05z"/>
        </clipPath>
        <clipPath id="j" clipPathUnits="userSpaceOnUse">
            <path d="M8.115 64.865H57.27V21.617H8.115z"/>
        </clipPath>
        <radialGradient id="k" spreadMethod="pad" gradientTransform="matrix(32.88594 0 0 -32.88594 35.284 48.861)" gradientUnits="userSpaceOnUse" r="1" cy="0" cx="0" fy="0" fx="0">
            <stop offset="0" stop-color="#81a6b5"/>
            <stop offset=".908" stop-color="#12509b"/>
            <stop offset="1" stop-color="#12509b"/>
        </radialGradient>
        <radialGradient id="f" spreadMethod="pad" gradientTransform="matrix(26.26796 0 0 -26.26796 38.253 48.029)" gradientUnits="userSpaceOnUse" r="1" cy="0" cx="0" fy="0" fx="0">
            <stop offset="0" stop-color="#31c4e6"/>
            <stop offset=".501" stop-color="#31c4e6"/>
            <stop offset="1" stop-color="#00b5e0"/>
        </radialGradient>
    </defs>
    <g clip-path="url(#a)" transform="matrix(1.33333 0 0 -1.33333 0 100.362)">
        <path d="M49.694 5.958s-6.26 4.05-13.865 3.948c-7.603-.1-14.228-3.612-14.228-3.612s4.23-4.373 13.54-4.237c9.308.138 14.552 3.901 14.552 3.901" fill="#666464"/>
        <g clip-path="url(#b)" opacity=".55">
            <path d="M33.776 7.525c1.44.275 1.22-.038 2.817-.017 4.527.06 8.528-1.504 10.74-2.583-1.926-1.009-6.025-2.709-11.935-2.796-2.172-.032-9.443 1.748-11.017 2.121 1.72 1.467 9.395 3.275 9.395 3.275" fill="#666464"/>
        </g>
        <path d="M49.694 5.958l.942-2.285s-13.718-8.265-29.614 0l.58 2.621S31.038 1.791 36.7 2.396c5.662.605 12.993 3.562 12.993 3.562" fill="#3d3d3d"/>
        <path d="M33.4 17.045s2.296-.77 5.02.566l-.909-3.908a5.718 5.718 0 01.425-3.784l2.003-4.181s-4.95-2.113-8.388-.002l2.154 4.147a5.729 5.729 0 01.521 3.926c-.284 1.256-.633 2.718-.826 3.236" fill="#3d3d3d"/>
        <g clip-path="url(#c)">
            <path d="M37.437 13.19a19.596 19.596 0 00-3.195.504c-.008.038-.008.076-.016.114-.284 1.257-.633 2.72-.826 3.236 0 0 2.296-.769 5.019.567l-.908-3.909c-.039-.17-.054-.34-.074-.512" fill="#3d3d3d"/>
        </g>
        <path d="M25.07 74.201l3.24 1.07 2.47-7.53-3.87-1.37-1.175 5.001C21.439 69.752-.864 61.64 5.85 36.827c4.768-17.62 22.064-18.59 38.306-16.799l-1.191 5.097 3.239 1.321 2.758-8.732C33.758 13.84 6.504 12.896.91 36.827c-6.523 27.905 24.16 37.374 24.16 37.374" fill="#3d3d3d"/>
        <g>
            <g clip-path="url(#d)">
                <path d="M26.382 19.661c-3.988.172-2.477-1.025.037-2.05.554-.227 8.168-1.92 8.683-2.113 4.948.281 9.756 1.17 13.86 2.216l-2.758 8.732-3.24-1.32 1.192-5.099c-6.246-.689-12.351-1.107-17.774-.366" fill="#3d3d3d"/>
            </g>
        </g>
        <g>
            <g clip-path="url(#e)">
                <path d="M45.991 19.545a3.83 3.83 0 00-1.93.473c-16.208-1.782-33.453-.777-38.21 16.809-6.009 22.204 11.612 30.84 18.045 33.776-4.95-1.861-25.768-10.73-19.816-34.213 5.405-21.325 28.175-20.288 41.993-16.857-.027.005-.056.007-.082.012" fill="#3d3d3d"/>
            </g>
        </g>
    </g>
    <path d="M6.869 45.425c0-13.165 12.349-24.905 27.55-24.905 15.2 0 26.287 7.685 27.495 24.905.033.474.051.945.054 1.413v.276c-.085 13.039-11.826 23.247-26.402 23.247-20.419 0-28.697-11.77-28.697-24.936" fill="url(#f)" transform="matrix(1.33333 0 0 -1.33333 0 100.362)"/>
    <g clip-path="url(#g)" transform="matrix(1.33333 0 0 -1.33333 0 100.362)">
        <path d="M10.741 52.166c-.366-1.578-.348-2.79-1.166-4.327-.749-1.407-1.098-2.093-1.076-3.8.027-2.193-.664-8.75 3.202-7.733 3.199.842 1.452 5.056 3.723 6.893 1.076.87 2.469.528 3.13 1.922.601 1.266-.185 2.633.873 3.807 1.883 2.09 5.781 1.207 7.185 3.718-2.289 1.342-4.872 2.48-3.586 5.925.479 1.284 2.01 2.332 2 3.843-.013 2.01-1.447.581-2.765 1.602-1.091.844-.006 2.437-.985 3.165-.345.257-.902.197-1.506.001-4.286-2.08-7.408-5.064-9.508-8.59 3.523.467.782-5.118.479-6.426" fill="#ffc346"/>
        <path d="M20.348 42.88c.092.026.168.054.238.076.145.135.28.313.403.564z" fill="#ffc346"/>
        <path d="M20.586 42.956c-.814-.762-1.942.01-2.8-.714-.346-.293-.82-3.2-.488-3.694 1.137-1.696 3.776 3.204 3.822 4.304-.232.164-.365.155-.534.104" fill="#ffc346"/>
        <path d="M51.913 28.704l1.226.35c-1.983.203-2.548-.937-4.164-1.628-1.445-.617-3.216-.194-4.727-.863-2.332-1.031-6.125-5.222-1.09-4.206.619.125 1.4.615 1.974.267a.7.7 0 00.234-.248c3.068 1.093 5.816 2.642 8.177 4.669-.043.83-.498 1.474-1.63 1.659" fill="#ffc346"/>
        <path d="M55.602 28.65c.382.14.66.524.828 1.002-.267-.34-.544-.67-.828-.99v-.013" fill="#ffc346"/>
        <path d="M55.254 32.631c-.85-1.226.396-2.578.348-3.969.284.32.561.65.828.99.448 1.273.108 3.211-1.176 2.98" fill="#ffc346"/>
        <path d="M52.532 36.634c-.895-.71-2.189-.3-3.038-1-.84-.694-.7-2.05.472-2.527 1.835-.744 1.763 1.064 2.278 2.09.224.447 1.132.921 1.1 1.441-.052.858-.436.294-.812-.004" fill="#ffc346"/>
        <path d="M44.539 38.708c.175-.224.289.43.467.329-.471-.992.343-2.124.329-3.203-.007-.586-.44-3.6 1-1.6.727 1.012-.368 6.46-1.796 4.474" fill="#ffc346"/>
        <path d="M54.454 40.477l.13.657c-.033-.015-.07-.027-.102-.044a2.201 2.201 0 01-.028-.613" fill="#ffc346"/>
        <path d="M55.71 41.254c-.36.092-.757.04-1.09-.104.133-1.996-1.361-2.7.034-4.651.628.63.638 1.325.768 2.217.039.265-.147.819-.131 1.113.028.512.54.765.42 1.425" fill="#ffc346"/>
        <path d="M54.585 41.135l.035.015c-.003.044-.002.084-.006.128z" fill="#ffc346"/>
        <path d="M31.404 56.845c-.58.841-.643.643-.81 1.726-.188 1.243.255 2.357-.44 3.402-.29.437-.896.983-1.495 1.24l.015.001-.02.001c-.377.16-.75.2-1.041.027-.991.015-2.047-.08-2.51-.989-.381-.753-.2-2.708-.392-3.682-.758-3.83 1.66-3.843 4.764-3.843 1.07 0 3.026-.529 2.89.97-.045.487-.714.788-.961 1.147" fill="#ffc346"/>
        <path d="M49.743 66.765c.716-.4 1.41-.83 2.075-1.288-.668.601-1.375 1.101-2.075 1.288" fill="#ffc346"/>
        <path d="M47.928 66.377c-1.843-1.52.441-1.953.132-3.166-.18-.71-1.095-.533-1.62-.645.116.025-2.008-.253-1.713-.358-.033-.082-.09-.114-.169-.098-.123 1.512-1.57 2.974-3.034 1.93-1.378 1.433.893 2.519 1.056 3.955-.822.037-1.82.194-2.497-.33-.895-.692-.45-1.521-1.606-1.856-.163-.048-.779.449-1.156.299-.578-.23-.593-.823-.926-1.296-.495-.701-.965-1.81-1.637-2.398-.736-.645-1.172-1.267-1.64 0-.513 1.387.954 1.317 1.16 2.41.288 1.535-3.004 2.308-2.746-.144-1.188-.094-2.09 1.1-3.502.937-1.882-.22-1.297-.755.324-1.282 3.24-1.051 2.95-2.4 3.718-5.248.845-3.133 4.187-1.701 4.288-4.84.051-1.59.527-1.985 1.081-3.362.608-1.51.058-2.113-.289-3.514-.242-.976-.902-2.686.33-2.891 1.266.639 2.212.816 2.88 2.242.33.703-.133.998.642 1.484.651.409 1.454-.106 2.081-.051 1.166.102 2.247 1.13 3.358.336 1.537-1.098.248-2.422.485-3.69.238-1.266 1.964-1.544 2.29-2.683.344-1.208-1.775-1.776-1.497-2.922.563-2.317 1.524 1.115 1.761 1.325.4.352 1.36.027 1.656.39.28.343.166 1.514.121 1.968-.125 1.273-.826 2.092.793 2.566 1.152.337 2.611-.885 3.686-.328 1.695.877-.256 1.493-.452 2.438-.248 1.198 1.145 2.057.63 3.338 1.802 1.008 1.744-1.96 1.764-3.025 1.661-.006.1 2.487-.063 3.302-.275 1.379.506 2.357.327 3.718-.329 2.503-1.7 6.19-3.499 7.882-.676.635-1.606 1.789-2.626 2.707-.667.458-1.359.888-2.076 1.288-.62.167-1.237.088-1.815-.388" fill="#ffc346"/>
        <path d="M26.876 68.783c.466-.814-.808-2.037.357-2.368.69-.196.764.64 1.29.77.48.119.776.059 1.271.072.902.025 1.673-.632 2.261.436-.143.085-.25.248-.476.353.067.73.445.976-.023 1.574a4.605 4.605 0 01-.488.528 38.075 38.075 0 01-5.502-.907c.512.049.98.118 1.31-.458" fill="#ffc346"/>
        <g clip-path="url(#h)" opacity=".55">
            <path d="M52.544 51.16c-3.528-7.67-9.931-9.267-16.887-6.64-6.957 2.629-10.58 10.134-8.305 16.157 2.275 6.023 8.098 9.976 17.443 6.445 6.957-2.628 10.584-9.801 7.749-15.962" fill="#80bfea"/>
        </g>
        <g clip-path="url(#i)" opacity=".55">
            <path d="M46.68 57.058c-1.25-2.606-3.833-3.005-6.75-1.902-2.919 1.102-4.596 3.834-3.817 5.894.778 2.06 3.062 3.301 6.982 1.82 2.918-1.102 4.588-3.718 3.584-5.812" fill="#cce5f6"/>
        </g>
        <g>
            <g clip-path="url(#j)" opacity=".35">
                <path d="M41.736 29.459c-14.466 0-26.22 11.173-26.22 23.703 0 4.17.879 8.191 2.76 11.703-7.074-4.381-10.161-11.703-10.161-19.546 0-12.53 11.753-23.702 26.22-23.702 10.28 0 18.579 3.697 22.936 11.715-4.253-2.62-9.558-3.873-15.535-3.873" fill="url(#k)"/>
            </g>
        </g>
    </g>
</svg>
