<svg xmlns="http://www.w3.org/2000/svg" height="63.802" width="107.869">
    <defs>
        <clipPath id="a" clipPathUnits="userSpaceOnUse">
            <path d="M0 47.851h80.902V0H0z"/>
        </clipPath>
        <clipPath id="b" clipPathUnits="userSpaceOnUse">
            <path d="M65.79 31.681h13.076v-4.459H65.79z"/>
        </clipPath>
        <clipPath id="c" clipPathUnits="userSpaceOnUse">
            <path d="M76.281 29.406h3.324v-1.71h-3.324z"/>
        </clipPath>
        <clipPath id="d" clipPathUnits="userSpaceOnUse">
            <path d="M4.15 44.058h70.866V27.223H4.15z"/>
        </clipPath>
        <clipPath id="e" clipPathUnits="userSpaceOnUse">
            <path d="M37.06 15.22h15.475V4.515H37.06z"/>
        </clipPath>
        <clipPath id="f" clipPathUnits="userSpaceOnUse">
            <path d="M0 32.257h58.698V.002H0z"/>
        </clipPath>
    </defs>
    <g clip-path="url(#a)" transform="matrix(1.33333 0 0 -1.33333 0 63.802)">
        <path d="M70.487 35.182s9.893-6.377 9.602-6.953c-.292-.576-10.856-.872-12.733-1.007l-.074.066c-2.866 2.565-1.388 7.31 2.427 7.795z" fill="#faf3e9"/>
        <g clip-path="url(#b)">
            <path d="M72.993 29.197c1.977-.546 3.917-.997 5.873-1.275-2.89-.378-10.003-.591-11.51-.7l-.075.067c-1.347 1.206-1.724 2.892-1.36 4.393 2.236-1.122 4.732-1.84 7.072-2.485" fill="#e2e2c9"/>
        </g>
        <path d="M76.37 29.358c.068.307.82 1.316.91 1.251a310.427 310.427 0 013.622-2.53s-3.675-.412-4.512-.382c0 0-.23.715-.02 1.661" fill="#b3b3b3"/>
        <g clip-path="url(#c)">
            <path d="M76.389 29.406a5.877 5.877 0 011.448-.932c.557-.254 1.166-.41 1.769-.534-1.144-.116-2.705-.262-3.216-.243 0 0-.231.714-.02 1.661.003.012.014.033.019.048" fill="#a4a4a4"/>
        </g>
        <path d="M7.345 47.852l63.142-12.67s-4.521-2.7-3.132-7.96L5.061 40.23s-1.34 2.16-.777 4.395c.295 1.17.967 2.007 3.061 3.226" fill="#ffdf4d"/>
        <path d="M68.406 33.183L5.116 46.189c.466.518 1.161 1.04 2.23 1.663l63.141-12.67s-1.123-.67-2.077-1.993c0-.003-.003-.004-.004-.006" fill="#ffc346"/>
        <path d="M4.15 43.553l62.936-13.806.034-.017a6.974 6.974 0 01.005-1.09 6.916 6.916 0 01.068-.618c.04-.26.09-.524.162-.8L5.061 40.23s-.308.552-.608 1.385a6.138 6.138 0 00-.303 1.938" fill="#ffc346"/>
        <g clip-path="url(#d)">
            <path d="M4.15 43.553c.002.167.013.335.033.505 3.722-1.534 7.472-3.11 11.287-4.271 5.524-1.681 50.194-10.8 52.443-11.433 1.706-.48 7.103-.751 7.103-.751-1.996-.12-4.178-.213-5.75-.283l-.482-.022-.134-.006a71.278 71.278 0 01-.432-.021l-.068-.003-.414-.022a16.11 16.11 0 01-.381-.023L5.061 40.23s-.454.735-.722 1.789l-.015.062c-.11.447-.182.946-.174 1.472" fill="#edd19c"/>
        </g>
        <path d="M11.533 29.967c.165-.78.14-1.62-.123-2.374-.555-1.588-1.678-2.95-2.738-4.252L53.462.55l3.641 7.317-45.389 23.657-.325.018c.067-.607.065-1.201.144-1.575" fill="#ffc346"/>
        <path d="M31.911 11.515c.756 1.967 1.761 3.859 2.537 5.804.262.654.54 1.304.865 1.904l-23.599 12.3-.325.019c.067-.607.065-1.202.144-1.575.165-.781.141-1.62-.123-2.374-.555-1.589-1.678-2.949-2.738-4.252z" fill="#31c4e6"/>
        <path d="M30.799 12.052L33 10.93l3.505 7.672-2.03 1.058z" fill="#ffc346"/>
        <path d="M11.715 31.523l-8.89.357a3.506 3.506 0 00-.807-2.045l6.667-6.5c4.4 3.582 3.03 8.188 3.03 8.188" fill="#f9f6ef"/>
        <path d="M3.693 31.846l-3.035.406c-.578.077-.895-.653-.443-1.022l2.329-1.908c1.002.345 1.559 1.358 1.149 2.524" fill="#3d3d3d"/>
        <g clip-path="url(#e)" opacity=".55">
            <path d="M38.72 14.719l.036.5-1.697-3.42 15.3-7.284.176.276z" fill="#bfbebe"/>
        </g>
        <g>
            <path d="M38.757 15.22l-1.333-2.856 15.112-7.573 1.42 2.76z" fill="#585555"/>
        </g>
        <g>
            <path d="M38.783 12.461L51.81 5.746l.64 1.276-13.03 6.86z" fill="#3d3d3d"/>
        </g>
        <g>
            <path d="M57.104 7.867L53.46.549s4.077-2.051 6.026 1.777c1.587 3.117-2.383 5.54-2.383 5.54" fill="#3d3d3d"/>
        </g>
        <g>
            <g clip-path="url(#f)" opacity=".55">
                <path d="M14.122 23.042c-2.988 1.923-3.05 3.2-3.05 3.2-1.473.405-4.85 2.731-5.708 5.394a1.311 1.311 0 01-.058.144l-1.614.065-3.034.406c-.579.077-.896-.653-.444-1.022l2.33-1.908 6.13-5.978-.002-.003.011-.006h.002L30.81 12.075l-.01-.023L33 10.93l.011.026L53.461.55s3.151-1.583 5.237.638C49.085 4.514 19.35 19.678 14.122 23.042" fill="#a9a8a8"/>
            </g>
        </g>
    </g>
</svg>
