<svg xmlns="http://www.w3.org/2000/svg" height="143.369" width="57.619">
    <defs>
        <clipPath id="a" clipPathUnits="userSpaceOnUse">
            <path d="M0 107.527h43.214V0H0z"/>
        </clipPath>
    </defs>
    <g clip-path="url(#a)" transform="matrix(1.33333 0 0 -1.33333 0 143.37)">
        <path d="M11.561 101.246a5.281 5.281 0 10-10.562 0 5.281 5.281 0 0010.562 0z" fill="none" stroke="#d7dddd" stroke-width="2" stroke-linecap="round" stroke-linejoin="round" stroke-miterlimit="10"/>
        <path d="M38.429 6.28a5.28 5.28 0 10-10.561 0 5.28 5.28 0 0010.56 0z" fill="none" stroke="#91c53f" stroke-width="2" stroke-linecap="round" stroke-linejoin="round" stroke-miterlimit="10"/>
        <path d="M3.222 35.173c2.007 2.007 4.836-.821 6.843 1.186 2.008 2.008-.821 4.836 1.188 6.844 2.009 2.009 4.837-.82 6.846 1.19 2.009 2.009-.82 4.837 1.189 6.846 2.01 2.01 4.838-.82 6.847 1.19 2.01 2.01-.82 4.838 1.19 6.848 2.009 2.008 4.838-.82 6.846 1.188 2.01 2.01-.818 4.839 1.192 6.849s4.84-.817 6.85 1.195" fill="none" stroke="#f5ca33" stroke-width="2" stroke-linecap="round" stroke-linejoin="round" stroke-miterlimit="10"/>
    </g>
</svg>
