<svg xmlns="http://www.w3.org/2000/svg" height="168.772" width="142.52">
    <defs>
        <clipPath id="a" clipPathUnits="userSpaceOnUse">
            <path d="M61.339 93.831l-38.348-66.42h76.695z"/>
        </clipPath>
    </defs>
    <path d="M27.074 69.9L0 116.793h108.297L81.222 69.899 54.15 23.006z" fill="#f5ca33"/>
    <g clip-path="url(#a)" transform="matrix(1.33333 0 0 -1.33333 0 168.772)">
        <path d="M62.726 27.754a.825.825 0 10-1.641-.17.825.825 0 001.641.17" fill="#242c36"/>
        <path d="M68.587 27.754a.825.825 0 10-1.642-.17.825.825 0 001.642.17" fill="#242c36"/>
        <path d="M74.826 27.754a.825.825 0 10-1.642-.17.825.825 0 001.642.17" fill="#242c36"/>
        <path d="M80.686 27.754a.825.825 0 10-1.642-.17.825.825 0 001.642.17" fill="#242c36"/>
        <path d="M85.848 27.754a.825.825 0 10-1.641-.17.825.825 0 001.641.17" fill="#242c36"/>
        <path d="M91.709 27.754a.825.825 0 10-1.642-.17.825.825 0 001.642.17" fill="#242c36"/>
        <path d="M97.948 27.754a.825.825 0 10-1.642-.17.825.825 0 001.642.17" fill="#242c36"/>
        <path d="M14.355 27.754a.825.825 0 10-1.641-.17.825.825 0 001.641.17" fill="#242c36"/>
        <path d="M20.216 27.754a.825.825 0 10-1.642-.17.825.825 0 001.642.17" fill="#242c36"/>
        <path d="M26.454 27.754a.825.825 0 10-1.641-.17.825.825 0 001.642.17" fill="#242c36"/>
        <path d="M32.315 27.754a.825.825 0 10-1.642-.17.825.825 0 001.642.17" fill="#242c36"/>
        <path d="M37.477 27.754a.825.825 0 10-1.641-.17.825.825 0 001.641.17" fill="#242c36"/>
        <path d="M43.338 27.754a.825.825 0 10-1.642-.17.825.825 0 001.642.17" fill="#242c36"/>
        <path d="M49.577 27.754a.825.825 0 10-1.642-.17.825.825 0 001.642.17" fill="#242c36"/>
        <path d="M55.437 27.754a.825.825 0 10-1.642-.17.825.825 0 001.642.17" fill="#242c36"/>
        <path d="M61.906 34.887a.825.825 0 100-1.65.825.825 0 000 1.65" fill="#242c36"/>
        <path d="M62.726 40.858a.825.825 0 10-1.641-.17.825.825 0 001.641.17" fill="#242c36"/>
        <path d="M62.726 47.569a.825.825 0 10-1.641-.17.825.825 0 001.641.17" fill="#242c36"/>
        <path d="M62.726 60.99a.825.825 0 10-1.641-.17.825.825 0 001.641.17" fill="#242c36"/>
        <path d="M62.726 54.28a.825.825 0 10-1.641-.171.825.825 0 001.641.17" fill="#242c36"/>
        <path d="M67.766 34.887a.825.825 0 100-1.65.825.825 0 000 1.65" fill="#242c36"/>
        <path d="M68.587 40.858a.825.825 0 10-1.642-.17.825.825 0 001.642.17" fill="#242c36"/>
        <path d="M68.587 47.569a.825.825 0 10-1.642-.17.825.825 0 001.642.17" fill="#242c36"/>
        <path d="M68.587 60.99a.825.825 0 10-1.642-.17.825.825 0 001.642.17" fill="#242c36"/>
        <path d="M68.587 54.28a.825.825 0 10-1.642-.171.825.825 0 001.642.17" fill="#242c36"/>
        <path d="M74.005 34.887a.825.825 0 100-1.65.825.825 0 000 1.65" fill="#242c36"/>
        <path d="M74.826 40.858a.825.825 0 10-1.642-.17.825.825 0 001.642.17" fill="#242c36"/>
        <path d="M74.826 47.569a.825.825 0 10-1.642-.17.825.825 0 001.642.17" fill="#242c36"/>
        <path d="M74.826 60.99a.825.825 0 10-1.642-.17.825.825 0 001.642.17" fill="#242c36"/>
        <path d="M74.826 54.28a.825.825 0 10-1.642-.171.825.825 0 001.642.17" fill="#242c36"/>
        <path d="M79.865 34.887a.825.825 0 10.001-1.65.825.825 0 000 1.65" fill="#242c36"/>
        <path d="M80.686 40.858a.825.825 0 10-1.642-.17.825.825 0 001.642.17" fill="#242c36"/>
        <path d="M80.686 47.569a.825.825 0 10-1.642-.17.825.825 0 001.642.17" fill="#242c36"/>
        <path d="M80.686 60.99a.825.825 0 10-1.642-.17.825.825 0 001.642.17" fill="#242c36"/>
        <path d="M80.686 54.28a.825.825 0 10-1.642-.171.825.825 0 001.642.17" fill="#242c36"/>
        <path d="M85.028 34.887a.825.825 0 100-1.65.825.825 0 000 1.65" fill="#242c36"/>
        <path d="M85.848 40.858a.825.825 0 10-1.641-.17.825.825 0 001.641.17" fill="#242c36"/>
        <path d="M85.848 47.569a.825.825 0 10-1.641-.17.825.825 0 001.641.17" fill="#242c36"/>
        <path d="M85.848 60.99a.825.825 0 10-1.641-.17.825.825 0 001.641.17" fill="#242c36"/>
        <path d="M85.848 54.28a.825.825 0 10-1.641-.171.825.825 0 001.641.17" fill="#242c36"/>
        <path d="M90.888 34.887a.825.825 0 100-1.65.825.825 0 000 1.65" fill="#242c36"/>
        <path d="M91.709 40.858a.825.825 0 10-1.642-.17.825.825 0 001.642.17" fill="#242c36"/>
        <path d="M91.709 47.569a.825.825 0 10-1.642-.17.825.825 0 001.642.17" fill="#242c36"/>
        <path d="M91.709 60.99a.825.825 0 10-1.642-.17.825.825 0 001.642.17" fill="#242c36"/>
        <path d="M91.709 54.28a.825.825 0 10-1.642-.171.825.825 0 001.642.17" fill="#242c36"/>
        <path d="M97.127 34.887a.825.825 0 100-1.65.825.825 0 000 1.65" fill="#242c36"/>
        <path d="M97.948 40.858a.825.825 0 10-1.642-.17.825.825 0 001.642.17" fill="#242c36"/>
        <path d="M97.948 47.569a.825.825 0 10-1.642-.17.825.825 0 001.642.17" fill="#242c36"/>
        <path d="M97.948 60.99a.825.825 0 10-1.642-.17.825.825 0 001.642.17" fill="#242c36"/>
        <path d="M97.948 54.28a.825.825 0 10-1.642-.171.825.825 0 001.642.17" fill="#242c36"/>
        <path d="M13.535 34.887a.825.825 0 100-1.65.825.825 0 000 1.65" fill="#242c36"/>
        <path d="M14.355 40.858a.825.825 0 10-1.641-.17.825.825 0 001.641.17" fill="#242c36"/>
        <path d="M14.355 47.569a.825.825 0 10-1.641-.17.825.825 0 001.641.17" fill="#242c36"/>
        <path d="M14.355 60.99a.825.825 0 10-1.641-.17.825.825 0 001.641.17" fill="#242c36"/>
        <path d="M14.355 54.28a.825.825 0 10-1.641-.171.825.825 0 001.641.17" fill="#242c36"/>
        <path d="M19.395 34.887a.825.825 0 100-1.65.825.825 0 000 1.65" fill="#242c36"/>
        <path d="M20.216 40.858a.825.825 0 10-1.642-.17.825.825 0 001.642.17" fill="#242c36"/>
        <path d="M20.216 47.569a.825.825 0 10-1.642-.17.825.825 0 001.642.17" fill="#242c36"/>
        <path d="M20.216 60.99a.825.825 0 10-1.642-.17.825.825 0 001.642.17" fill="#242c36"/>
        <path d="M20.216 54.28a.825.825 0 10-1.642-.171.825.825 0 001.642.17" fill="#242c36"/>
        <path d="M25.634 34.887a.825.825 0 100-1.65.825.825 0 000 1.65" fill="#242c36"/>
        <path d="M26.454 40.858a.825.825 0 10-1.641-.17.825.825 0 001.642.17" fill="#242c36"/>
        <path d="M26.454 47.569a.825.825 0 10-1.641-.17.825.825 0 001.642.17" fill="#242c36"/>
        <path d="M26.454 60.99a.825.825 0 10-1.641-.17.825.825 0 001.642.17" fill="#242c36"/>
        <path d="M26.454 54.28a.825.825 0 10-1.641-.171.825.825 0 001.642.17" fill="#242c36"/>
        <path d="M31.494 34.887a.825.825 0 10.001-1.65.825.825 0 000 1.65" fill="#242c36"/>
        <path d="M32.315 40.858a.825.825 0 10-1.642-.17.825.825 0 001.642.17" fill="#242c36"/>
        <path d="M32.315 47.569a.825.825 0 10-1.642-.17.825.825 0 001.642.17" fill="#242c36"/>
        <path d="M32.315 60.99a.825.825 0 10-1.642-.17.825.825 0 001.642.17" fill="#242c36"/>
        <path d="M32.315 54.28a.825.825 0 10-1.642-.171.825.825 0 001.642.17" fill="#242c36"/>
        <path d="M36.657 34.887a.825.825 0 100-1.65.825.825 0 000 1.65" fill="#242c36"/>
        <path d="M37.477 40.858a.825.825 0 10-1.641-.17.825.825 0 001.641.17" fill="#242c36"/>
        <path d="M37.477 47.569a.825.825 0 10-1.641-.17.825.825 0 001.641.17" fill="#242c36"/>
        <path d="M37.477 60.99a.825.825 0 10-1.641-.17.825.825 0 001.641.17" fill="#242c36"/>
        <path d="M37.477 54.28a.825.825 0 10-1.641-.171.825.825 0 001.641.17" fill="#242c36"/>
        <path d="M42.517 34.887a.825.825 0 100-1.65.825.825 0 000 1.65" fill="#242c36"/>
        <path d="M43.338 40.858a.825.825 0 10-1.642-.17.825.825 0 001.642.17" fill="#242c36"/>
        <path d="M43.338 47.569a.825.825 0 10-1.642-.17.825.825 0 001.642.17" fill="#242c36"/>
        <path d="M43.338 60.99a.825.825 0 10-1.642-.17.825.825 0 001.642.17" fill="#242c36"/>
        <path d="M43.338 54.28a.825.825 0 10-1.642-.171.825.825 0 001.642.17" fill="#242c36"/>
        <path d="M48.756 34.887a.825.825 0 100-1.65.825.825 0 000 1.65" fill="#242c36"/>
        <path d="M49.577 40.858a.825.825 0 10-1.642-.17.825.825 0 001.642.17" fill="#242c36"/>
        <path d="M49.577 47.569a.825.825 0 10-1.642-.17.825.825 0 001.642.17" fill="#242c36"/>
        <path d="M49.577 60.99a.825.825 0 10-1.642-.17.825.825 0 001.642.17" fill="#242c36"/>
        <path d="M49.577 54.28a.825.825 0 10-1.642-.171.825.825 0 001.642.17" fill="#242c36"/>
        <path d="M54.616 34.887a.825.825 0 10.001-1.65.825.825 0 000 1.65" fill="#242c36"/>
        <path d="M55.437 40.858a.825.825 0 10-1.642-.17.825.825 0 001.642.17" fill="#242c36"/>
        <path d="M55.437 47.569a.825.825 0 10-1.642-.17.825.825 0 001.642.17" fill="#242c36"/>
        <path d="M55.437 60.99a.825.825 0 10-1.642-.17.825.825 0 001.642.17" fill="#242c36"/>
        <path d="M55.437 54.28a.825.825 0 10-1.642-.171.825.825 0 001.642.17" fill="#242c36"/>
        <path d="M61.906 67.837a.825.825 0 100-1.65.825.825 0 000 1.65" fill="#242c36"/>
        <path d="M62.726 73.808a.825.825 0 10-1.641-.17.825.825 0 001.641.17" fill="#242c36"/>
        <path d="M62.726 80.519a.825.825 0 10-1.641-.17.825.825 0 001.641.17" fill="#242c36"/>
        <path d="M62.726 93.94a.825.825 0 10-1.641-.17.825.825 0 001.641.17" fill="#242c36"/>
        <path d="M62.726 87.23a.825.825 0 10-1.641-.17.825.825 0 001.641.17" fill="#242c36"/>
        <path d="M67.766 67.837a.825.825 0 100-1.65.825.825 0 000 1.65" fill="#242c36"/>
        <path d="M68.587 73.808a.825.825 0 10-1.642-.17.825.825 0 001.642.17" fill="#242c36"/>
        <path d="M68.587 80.519a.825.825 0 10-1.642-.17.825.825 0 001.642.17" fill="#242c36"/>
        <path d="M68.587 93.94a.825.825 0 10-1.642-.17.825.825 0 001.642.17" fill="#242c36"/>
        <path d="M68.587 87.23a.825.825 0 10-1.642-.17.825.825 0 001.642.17" fill="#242c36"/>
        <path d="M74.005 67.837a.825.825 0 100-1.65.825.825 0 000 1.65" fill="#242c36"/>
        <path d="M74.826 73.808a.825.825 0 10-1.642-.17.825.825 0 001.642.17" fill="#242c36"/>
        <path d="M74.826 80.519a.825.825 0 10-1.642-.17.825.825 0 001.642.17" fill="#242c36"/>
        <path d="M74.826 93.94a.825.825 0 10-1.642-.17.825.825 0 001.642.17" fill="#242c36"/>
        <path d="M74.826 87.23a.825.825 0 10-1.642-.17.825.825 0 001.642.17" fill="#242c36"/>
        <path d="M79.865 67.837a.825.825 0 10.001-1.65.825.825 0 000 1.65" fill="#242c36"/>
        <path d="M80.686 73.808a.825.825 0 10-1.642-.17.825.825 0 001.642.17" fill="#242c36"/>
        <path d="M80.686 80.519a.825.825 0 10-1.642-.17.825.825 0 001.642.17" fill="#242c36"/>
        <path d="M80.686 93.94a.825.825 0 10-1.642-.17.825.825 0 001.642.17" fill="#242c36"/>
        <path d="M80.686 87.23a.825.825 0 10-1.642-.17.825.825 0 001.642.17" fill="#242c36"/>
        <path d="M85.028 67.837a.825.825 0 100-1.65.825.825 0 000 1.65" fill="#242c36"/>
        <path d="M85.848 73.808a.825.825 0 10-1.641-.17.825.825 0 001.641.17" fill="#242c36"/>
        <path d="M85.848 80.519a.825.825 0 10-1.641-.17.825.825 0 001.641.17" fill="#242c36"/>
        <path d="M85.848 93.94a.825.825 0 10-1.641-.17.825.825 0 001.641.17" fill="#242c36"/>
        <path d="M85.848 87.23a.825.825 0 10-1.641-.17.825.825 0 001.641.17" fill="#242c36"/>
        <path d="M90.888 67.837a.825.825 0 100-1.65.825.825 0 000 1.65" fill="#242c36"/>
        <path d="M91.709 73.808a.825.825 0 10-1.642-.17.825.825 0 001.642.17" fill="#242c36"/>
        <path d="M91.709 80.519a.825.825 0 10-1.642-.17.825.825 0 001.642.17" fill="#242c36"/>
        <path d="M91.709 93.94a.825.825 0 10-1.642-.17.825.825 0 001.642.17" fill="#242c36"/>
        <path d="M91.709 87.23a.825.825 0 10-1.642-.17.825.825 0 001.642.17" fill="#242c36"/>
        <path d="M97.127 67.837a.825.825 0 100-1.65.825.825 0 000 1.65" fill="#242c36"/>
        <path d="M97.948 73.808a.825.825 0 10-1.642-.17.825.825 0 001.642.17" fill="#242c36"/>
        <path d="M97.948 80.519a.825.825 0 10-1.642-.17.825.825 0 001.642.17" fill="#242c36"/>
        <path d="M97.948 93.94a.825.825 0 10-1.642-.17.825.825 0 001.642.17" fill="#242c36"/>
        <path d="M97.948 87.23a.825.825 0 10-1.642-.17.825.825 0 001.642.17" fill="#242c36"/>
        <path d="M13.535 67.837a.825.825 0 100-1.65.825.825 0 000 1.65" fill="#242c36"/>
        <path d="M14.355 73.808a.825.825 0 10-1.641-.17.825.825 0 001.641.17" fill="#242c36"/>
        <path d="M14.355 80.519a.825.825 0 10-1.641-.17.825.825 0 001.641.17" fill="#242c36"/>
        <path d="M14.355 93.94a.825.825 0 10-1.641-.17.825.825 0 001.641.17" fill="#242c36"/>
        <path d="M14.355 87.23a.825.825 0 10-1.641-.17.825.825 0 001.641.17" fill="#242c36"/>
        <path d="M19.395 67.837a.825.825 0 100-1.65.825.825 0 000 1.65" fill="#242c36"/>
        <path d="M20.216 73.808a.825.825 0 10-1.642-.17.825.825 0 001.642.17" fill="#242c36"/>
        <path d="M20.216 80.519a.825.825 0 10-1.642-.17.825.825 0 001.642.17" fill="#242c36"/>
        <path d="M20.216 93.94a.825.825 0 10-1.642-.17.825.825 0 001.642.17" fill="#242c36"/>
        <path d="M20.216 87.23a.825.825 0 10-1.642-.17.825.825 0 001.642.17" fill="#242c36"/>
        <path d="M25.634 67.837a.825.825 0 100-1.65.825.825 0 000 1.65" fill="#242c36"/>
        <path d="M26.454 73.808a.825.825 0 10-1.641-.17.825.825 0 001.642.17" fill="#242c36"/>
        <path d="M26.454 80.519a.825.825 0 10-1.641-.17.825.825 0 001.642.17" fill="#242c36"/>
        <path d="M26.454 93.94a.825.825 0 10-1.641-.17.825.825 0 001.642.17" fill="#242c36"/>
        <path d="M26.454 87.23a.825.825 0 10-1.641-.17.825.825 0 001.642.17" fill="#242c36"/>
        <path d="M31.494 67.837a.825.825 0 10.001-1.65.825.825 0 000 1.65" fill="#242c36"/>
        <path d="M32.315 73.808a.825.825 0 10-1.642-.17.825.825 0 001.642.17" fill="#242c36"/>
        <path d="M32.315 80.519a.825.825 0 10-1.642-.17.825.825 0 001.642.17" fill="#242c36"/>
        <path d="M32.315 93.94a.825.825 0 10-1.642-.17.825.825 0 001.642.17" fill="#242c36"/>
        <path d="M32.315 87.23a.825.825 0 10-1.642-.17.825.825 0 001.642.17" fill="#242c36"/>
        <path d="M36.657 67.837a.825.825 0 100-1.65.825.825 0 000 1.65" fill="#242c36"/>
        <path d="M37.477 73.808a.825.825 0 10-1.641-.17.825.825 0 001.641.17" fill="#242c36"/>
        <path d="M37.477 80.519a.825.825 0 10-1.641-.17.825.825 0 001.641.17" fill="#242c36"/>
        <path d="M37.477 93.94a.825.825 0 10-1.641-.17.825.825 0 001.641.17" fill="#242c36"/>
        <path d="M37.477 87.23a.825.825 0 10-1.641-.17.825.825 0 001.641.17" fill="#242c36"/>
        <path d="M42.517 67.837a.825.825 0 100-1.65.825.825 0 000 1.65" fill="#242c36"/>
        <path d="M43.338 73.808a.825.825 0 10-1.642-.17.825.825 0 001.642.17" fill="#242c36"/>
        <path d="M43.338 80.519a.825.825 0 10-1.642-.17.825.825 0 001.642.17" fill="#242c36"/>
        <path d="M43.338 93.94a.825.825 0 10-1.642-.17.825.825 0 001.642.17" fill="#242c36"/>
        <path d="M43.338 87.23a.825.825 0 10-1.642-.17.825.825 0 001.642.17" fill="#242c36"/>
        <path d="M48.756 67.837a.825.825 0 100-1.65.825.825 0 000 1.65" fill="#242c36"/>
        <path d="M49.577 73.808a.825.825 0 10-1.642-.17.825.825 0 001.642.17" fill="#242c36"/>
        <path d="M49.577 80.519a.825.825 0 10-1.642-.17.825.825 0 001.642.17" fill="#242c36"/>
        <path d="M49.577 93.94a.825.825 0 10-1.642-.17.825.825 0 001.642.17" fill="#242c36"/>
        <path d="M49.577 87.23a.825.825 0 10-1.642-.17.825.825 0 001.642.17" fill="#242c36"/>
        <path d="M54.616 67.837a.825.825 0 10.001-1.65.825.825 0 000 1.65" fill="#242c36"/>
        <path d="M55.437 73.808a.825.825 0 10-1.642-.17.825.825 0 001.642.17" fill="#242c36"/>
        <path d="M55.437 80.519a.825.825 0 10-1.642-.17.825.825 0 001.642.17" fill="#242c36"/>
        <path d="M55.437 93.94a.825.825 0 10-1.642-.17.825.825 0 001.642.17" fill="#242c36"/>
        <path d="M55.437 87.23a.825.825 0 10-1.642-.17.825.825 0 001.642.17" fill="#242c36"/>
        <path d="M64.984 99.736a.825.825 0 100-1.65.825.825 0 000 1.65" fill="#242c36"/>
        <path d="M65.804 105.707a.825.825 0 10-1.641-.17.825.825 0 001.641.17" fill="#242c36"/>
        <path d="M70.844 99.736a.825.825 0 100-1.65.825.825 0 000 1.65" fill="#242c36"/>
        <path d="M71.664 105.707a.825.825 0 10-1.641-.17.825.825 0 001.641.17" fill="#242c36"/>
        <path d="M77.083 99.736a.825.825 0 100-1.65.825.825 0 000 1.65" fill="#242c36"/>
        <path d="M77.903 105.707a.825.825 0 10-1.641-.17.825.825 0 001.641.17" fill="#242c36"/>
        <path d="M82.943 99.736a.825.825 0 100-1.65.825.825 0 000 1.65" fill="#242c36"/>
        <path d="M83.763 105.707a.825.825 0 10-1.641-.17.825.825 0 001.641.17" fill="#242c36"/>
        <path d="M88.106 99.736a.825.825 0 100-1.65.825.825 0 000 1.65" fill="#242c36"/>
        <path d="M88.926 105.707a.825.825 0 10-1.641-.17.825.825 0 001.641.17" fill="#242c36"/>
        <path d="M93.966 99.736a.825.825 0 100-1.65.825.825 0 000 1.65" fill="#242c36"/>
        <path d="M94.786 105.707a.825.825 0 10-1.641-.17.825.825 0 001.641.17" fill="#242c36"/>
        <path d="M100.205 99.736a.825.825 0 100-1.65.825.825 0 000 1.65" fill="#242c36"/>
        <path d="M101.025 105.707a.825.825 0 10-1.641-.17.825.825 0 001.641.17" fill="#242c36"/>
        <path d="M16.613 99.736a.825.825 0 100-1.65.825.825 0 000 1.65" fill="#242c36"/>
        <path d="M17.433 105.707a.825.825 0 10-1.641-.17.825.825 0 001.641.17" fill="#242c36"/>
        <path d="M22.473 99.736a.825.825 0 100-1.65.825.825 0 000 1.65" fill="#242c36"/>
        <path d="M23.293 105.707a.825.825 0 10-1.641-.17.825.825 0 001.641.17" fill="#242c36"/>
        <path d="M28.712 99.736a.825.825 0 100-1.65.825.825 0 000 1.65" fill="#242c36"/>
        <path d="M29.532 105.707a.825.825 0 10-1.641-.17.825.825 0 001.641.17" fill="#242c36"/>
        <path d="M34.572 99.736a.825.825 0 100-1.65.825.825 0 000 1.65" fill="#242c36"/>
        <path d="M35.393 105.707a.825.825 0 10-1.642-.17.825.825 0 001.642.17" fill="#242c36"/>
        <path d="M39.734 99.736a.825.825 0 10.001-1.65.825.825 0 000 1.65" fill="#242c36"/>
        <path d="M40.555 105.707a.825.825 0 10-1.641-.17.825.825 0 001.641.17" fill="#242c36"/>
        <path d="M45.595 99.736a.825.825 0 100-1.65.825.825 0 000 1.65" fill="#242c36"/>
        <path d="M46.415 105.707a.825.825 0 10-1.641-.17.825.825 0 001.641.17" fill="#242c36"/>
        <path d="M51.834 99.736a.825.825 0 100-1.65.825.825 0 000 1.65" fill="#242c36"/>
        <path d="M52.654 105.707a.825.825 0 10-1.641-.17.825.825 0 001.641.17" fill="#242c36"/>
        <path d="M57.694 99.736a.825.825 0 100-1.65.825.825 0 000 1.65" fill="#242c36"/>
        <path d="M58.515 105.707a.825.825 0 10-1.642-.17.825.825 0 001.642.17" fill="#242c36"/>
    </g>
</svg>
