<svg xmlns="http://www.w3.org/2000/svg" height="154.429" width="120.982">
    <defs>
        <clipPath id="a" clipPathUnits="userSpaceOnUse">
            <path d="M0 115.822h90.736V0H0z"/>
        </clipPath>
    </defs>
    <path d="M78.179 24.713L84.8 49.426l18.092-18.092 18.09-18.092-24.713-6.621L71.557 0z" fill="#ffcb0e"/>
    <g clip-path="url(#a)" transform="matrix(1.33333 0 0 -1.33333 0 154.43)">
        <path d="M9.176 67.102a5.122 5.122 0 01-5.115-5.117 5.121 5.121 0 015.115-5.114 5.12 5.12 0 015.116 5.114 5.122 5.122 0 01-5.116 5.117m0-14.292C4.116 52.81 0 56.926 0 61.985c0 5.061 4.117 9.178 9.176 9.178 5.06 0 9.178-4.117 9.178-9.178 0-5.059-4.117-9.175-9.178-9.175" fill="#e2ddce"/>
        <path d="M58.565 48.864a2.968 2.968 0 002.099-5.069L17.988 1.12a2.97 2.97 0 00-4.199 4.2l42.676 42.675c.58.58 1.34.87 2.1.87" fill="#ffcb0e"/>
        <path d="M58.565 48.864a2.968 2.968 0 002.099-5.069L17.988 1.12a2.97 2.97 0 00-4.199 4.2l42.676 42.675c.58.58 1.34.87 2.1.87z" fill="none" stroke="#f5f9fa" stroke-width=".5" stroke-miterlimit="10"/>
    </g>
</svg>
