<svg xmlns="http://www.w3.org/2000/svg" width="100.639" height="102.074">
    <defs>
        <clipPath clipPathUnits="userSpaceOnUse" id="h">
            <path d="M23.176 27.56h.038v-.078h-.038z"/>
        </clipPath>
        <clipPath clipPathUnits="userSpaceOnUse" id="a">
            <path d="M0 76.556h75.479V0H0z"/>
        </clipPath>
        <clipPath clipPathUnits="userSpaceOnUse" id="c">
            <path d="M23.235 27.439h.014v-.03h-.014z"/>
        </clipPath>
        <clipPath clipPathUnits="userSpaceOnUse" id="d">
            <path d="M22.623 28.715h.06v-.122h-.06z"/>
        </clipPath>
        <clipPath clipPathUnits="userSpaceOnUse" id="e">
            <path d="M22.725 28.504h.065v-.137h-.065z"/>
        </clipPath>
        <clipPath clipPathUnits="userSpaceOnUse" id="f">
            <path d="M22.904 28.13h.099v-.207h-.1z"/>
        </clipPath>
        <clipPath clipPathUnits="userSpaceOnUse" id="g">
            <path d="M23.075 27.772h.02v-.04h-.02z"/>
        </clipPath>
        <clipPath clipPathUnits="userSpaceOnUse" id="b">
            <path d="M12.398 32.269h60.195V3.4H12.398z"/>
        </clipPath>
        <clipPath clipPathUnits="userSpaceOnUse" id="i">
            <path d="M26.319 33.699h5.896v-3.032h-5.896z"/>
        </clipPath>
        <clipPath clipPathUnits="userSpaceOnUse" id="j">
            <path d="M42.54 39.216h3.158V36.83h-3.157z"/>
        </clipPath>
        <clipPath clipPathUnits="userSpaceOnUse" id="k">
            <path d="M28.471 62.728h5.765v-5.672H28.47z"/>
        </clipPath>
        <clipPath clipPathUnits="userSpaceOnUse" id="l">
            <path d="M23.541 59.452h7.02v-7.079h-7.02z"/>
        </clipPath>
        <clipPath clipPathUnits="userSpaceOnUse" id="m">
            <path d="M39.124 73.887h7.575v-9.35h-7.575z"/>
        </clipPath>
        <clipPath clipPathUnits="userSpaceOnUse" id="n">
            <path d="M28.56 68.132h16.606v-11.11H28.56z"/>
        </clipPath>
    </defs>
    <g clip-path="url(#a)" transform="matrix(1.33333 0 0 -1.33333 0 102.074)">
        <path d="M51.8 13.515c3.361.445 6.248-.415 6.447-1.921.2-1.507-2.364-3.088-5.725-3.533-3.36-.445-6.248.415-6.447 1.92-.199 1.507 2.364 3.089 5.725 3.534m8.342 5.086H43.167V4.773h16.975z" fill="#965440"/>
        <path d="M52.522 10.635c-3.36-.445-6.248.415-6.447 1.921-.2 1.507 2.364 3.088 5.725 3.533 3.361.445 6.248-.415 6.447-1.92.2-1.507-2.364-3.089-5.725-3.534m21.073 33.98c-1.454 1.801-4.442 2.762-5.79 3.201-3.133 1.021-6.817 1.285-10.114 1.007-8.34-.703-15.818-3.175-23.32-6.787-10.134-4.878-25.435-13.51-23.877-26.703.8-6.767 7.124-10.449 12.664-12.215C30.33.832 36.788-.275 44.308.058c7.65.338 18.29 3.351 24.754 7.76 2.55 1.737 5.474 5.39 5.41 8.628-.03 1.506-.36 2.911-1.238 3.824-.555.578-1.33.958-2.388 1.041-.03.003-.094.005-.186.008-.885.023-4.41.04-6.49-.117-2.892-.22-5.887 1.615-4.092 4.793 1.52 2.691 5.436 3.893 8.02 5.494 2.562 1.586 5.177 3.347 6.656 5.74.77 1.241 1.54 4.04-1.159 7.385" fill="#e6aa6c"/>
        <g clip-path="url(#b)" opacity=".55">
            <path d="M51.8 16.09c1.556.206 3.251.204 4.743-.34.846-.307 1.913-.973 1.684-2.03-.246-1.131-1.578-1.834-2.54-2.246-1.588-.68-3.365-.98-5.087-.954-1.149.017-2.386.167-3.414.716-.653.349-1.266.966-1.09 1.769.191.883 1.087 1.499 1.826 1.902 1.19.649 2.541 1.006 3.878 1.183M22.612 28.739c-.552 1.153 1.681-3.51 0 0a19.97 19.97 0 00-1.288 3.53c.011-.042-5.208-3.582-7.295-7.203-1.316-2.282-1.963-4.688-1.463-7.272.604-3.122 2.324-5.181 4.746-7.241 4.258-3.624 9.373-4.7 15.694-6.322 2.212-.568 5.527-.78 7.81-.821 8.394-.151 15.724 1.663 23.348 5.112 1.877.849 4.778 2.516 6.308 3.927 1.365 1.26 2.67 3.042 1.884 5.39-.838 2.508-4.63 1.362-5.658 1.403-1.594.064-3.184.192-4.72.548-2.022.468-3.945 1.526-4.818 3.49-3.887-1.09-7.85-1.877-11.829-2.55-3.288-.555-6.649-1.188-9.999-.957-1.38.095-2.757.35-4.048.856-1.263.495-2.462 1.213-3.558 2.006a16.138 16.138 0 00-5.114 6.104" fill="#d28c5e"/>
        </g>
        <g clip-path="url(#c)" opacity=".55">
            <path d="M23.235 27.439c.019-.04.02-.042 0 0" fill="#d28c5e"/>
        </g>
        <g clip-path="url(#d)" opacity=".55">
            <path d="M22.623 28.715l.06-.122c-.02.041-.038.08-.06.122" fill="#d28c5e"/>
        </g>
        <g clip-path="url(#e)" opacity=".55">
            <path d="M22.725 28.504c.02-.044.043-.09.066-.137l-.066.137" fill="#d28c5e"/>
        </g>
        <g clip-path="url(#f)" opacity=".55">
            <path d="M22.904 28.13l.1-.207-.1.208" fill="#d28c5e"/>
        </g>
        <g clip-path="url(#g)" opacity=".55">
            <path d="M23.075 27.772l.02-.04-.02.04" fill="#d28c5e"/>
        </g>
        <g clip-path="url(#h)" opacity=".55">
            <path d="M23.176 27.56l.038-.078-.038.079" fill="#d28c5e"/>
        </g>
        <path d="M69.992 10.196c-6.465-4.407-17.106-7.42-24.755-7.76-7.519-.332-13.977.775-21.15 3.06-5.539 1.767-11.864 5.449-12.663 12.216-.266 2.25-.04 4.366.565 6.354-1.268-2.655-1.869-5.562-1.495-8.733.8-6.767 7.125-10.45 12.664-12.215C30.33.832 36.788-.275 44.308.058c7.65.339 18.29 3.352 24.754 7.759 2.173 1.48 4.617 4.352 5.252 7.173-1.07-1.958-2.765-3.733-4.322-4.794" fill="#af6553"/>
        <path d="M69.028 33.868c-2.585-1.601-6.5-2.803-8.02-5.494-.372-.657-.536-1.257-.54-1.793 1.721 2.288 5.242 3.429 7.63 4.908 2.562 1.587 5.177 3.348 6.656 5.739.29.466.578 1.152.683 2.004-1.51-2.202-3.983-3.861-6.409-5.364" fill="#c67931"/>
        <path d="M31.63 30.78c1.235 2.069 2.216 1.885 4.5 2.839 1.48.618 2.21.679 1.576 2.546-.267.783-2.85 1.709-3.755 1.503-2.417-.551-5.878-2.367-7.056-3.24-1.673-1.238-1.481-2.884.305-3.91 1.89-1.087 3.412-1.446 4.43.262" fill="#ffc346"/>
        <path d="M18.6 20.303c1.71 2.153 5.205.742 7.039 2.85 1.889 2.171.009 4.168-1.73 4.785-1.764 1.424-5.784-2.374-7.302-3.583-3.733-2.974-.514-7.21 1.994-4.052" fill="#31c4e6"/>
        <path d="M24.446 9.657c1.125-.562 2.311-.897 3.605-.083 2.394 1.506.7 4.986-1.78 4.702-.26-.03-1.325.1-1.399.177-.386.406-.604.78-.798 1.222-1.135 2.584-4.466 3.34-6.597 1.49-3.123-2.712-1.867-4.609.511-5.292.958-.275 1.998.261 2.914.032 1.013-.253 2.42-1.686 3.544-2.248" fill="#ef0c28"/>
        <path d="M39.16 5.885c1.91.456 4.706-1.06 6.16.442 1.61 1.667.455 4.485-1.63 4.514-1.27.017-1.81-.674-3.046-.149-.952.404-.898 1.532-2.349 1.722-1.012.132-2.268-.103-3.344-.593-2.229-1.017-2.498-3.73-2.513-3.853-.45-3.857 5.12-2.112 6.721-2.083" fill="#ece0d6"/>
        <path d="M44.83 36.667c.4.226.762.512 1.122.798 1.564 1.244 3.71-.352 6.014.324 2.474.725 3.258 3.147 2.304 4.67-.365.582-2.077 2.231-5.555-.49-1.334-1.044-3.01-.226-4.45-1.207-1.02-.695-1.911-2.027-1.988-3.426-.084-1.529 1.423-1.307 2.554-.669" fill="#26b258"/>
        <path d="M61.562 40.512c2.753 1.336 4.415-1.45 6.944-.74 1.283.36 2.091 1.672 1.211 3.069-.706 1.122-2.32 1.218-3.494 1.555-2.046.588-5.877 1.425-7.289-.964-2.125-3.597 1.06-3.681 2.628-2.92" fill="#8422a9"/>
        <g clip-path="url(#i)" opacity=".75">
            <path d="M32.215 33.115c-.905-.071-1.367-1.176-2.366-1.112-.302.019-.708.104-.93.324-.307.303-.387.745-.724 1.055-.528.487-1.47.433-1.8-.303-.345-.766.566-1.622 1.143-1.989.979-.622 2.342-.575 3.212.248.359.34.536.765.806 1.164.244.36.279.405.659.613" fill="#fefce8"/>
        </g>
        <g clip-path="url(#j)" opacity=".75">
            <path d="M43.333 39.216c-.49-.444-1.326-2.025-.316-2.338.921-.285 2.122.761 2.68 1.368-.664-.042-1.395-.56-2.05-.395-.976.248-.728.898-.314 1.365" fill="#fefce8"/>
        </g>
        <path d="M15.552 22.646c-.565-.654-.53-1.875.065-2.384.618-.589 1.556-.305 2.147.216.309.271.569.596.895.829.317.225.759.311 1.064.522-.391.115-.927.064-1.343-.01-.488-.087-.861-.525-1.322-.587-.658-.087-1.301.903-1.506 1.414" fill="#efefef"/>
        <path d="M16.68 15.675c-.267-.244-.352-.758-.323-1.098.035-.429.188-.86.404-1.228.298-.505.836-.858 1.425-.873.75-.019 1.5.166 2.253.085.79-.084 1.407-.363 2.083-.744 1.43-.804 2.857-2.694 4.717-1.747.665.34 1.235.791 1.134 1.608-.034.27-.031.576-.302.723-.307.165-.432.04-.618-.193-1.246-1.554-3.165-.392-4.452.43-.866.553-1.707.636-2.7.74-.75.08-1.533.054-2.224.373-.424.195-1.064.566-1.324.921-.043.17-.094.343-.141.512a1.7 1.7 0 00.025.406c.062.042-.042.068.042.085" fill="#efefef"/>
        <path d="M34.072 8.69c-.734-.813-.437-2.281.68-2.487 1.357-.251 2.75.65 4.102.776 1.368.127 5.615-1.45 6.093.69.064.289-.018.723-.15.985-.035-.909-1.992-.734-2.614-.578-1.16.291-2.006.673-3.23.497-1.112-.159-1.94-.93-2.993-1.219-.983-.27-1.872.55-1.853 1.565.084.024-.126-.226-.036-.23" fill="#efefef"/>
        <path d="M64.687 41.252c.412.102 1.053-.358 1.439-.502.556-.207 1.067-.31 1.654-.285.48.021 1.07.083 1.32.58.165.33.105 1.046-.152 1.295.006-.365-.546-.669-.842-.757-.477-.142-.924.059-1.376.17-.421.106-.887.179-1.334.12-.262-.033-1.014-.374-.709-.62" fill="#ece0d6"/>
        <g>
            <path d="M23.46 55.385s-8.487-2.766-14.21-9.346C3.53 39.459 0 32.509 0 32.509s9.19 1.867 16.212 7.475c6.866 5.483 10.427 12.826 10.618 12.445.19-.382-3.37 2.956-3.37 2.956" fill="#d28c5e"/>
        </g>
        <g>
            <path d="M22.692 51.924c-.16.26-.294.532-.407.812-2.471-1.839-6.359-4.844-10.021-8.145-5.561-5.014-10.42-10.6-10.42-10.6s6.413 3.275 12.879 8.473c3.731 2.998 6.706 6.436 8.562 8.685a5.069 5.069 0 00-.593.775" fill="#b65e29"/>
        </g>
        <g>
            <path d="M29.23 62.728l-6.974-7.792s.477-3.222 3.487-3.795l8.493 6.867z" fill="#d4d4d4"/>
        </g>
        <g>
            <g clip-path="url(#k)">
                <path d="M28.471 61.88c.424-2.32 2.393-3.923 4.588-4.824l1.177.952-5.007 4.72z" fill="#d4d4d4"/>
            </g>
        </g>
        <g>
            <g clip-path="url(#l)">
                <path d="M29.026 59.407c-.007.014-.011.03-.018.044-1.833-2.046-3.634-4.156-5.467-6.182.125-.582.807-.896.807-.896l6.214 5.342a4.393 4.393 0 00-1.536 1.692" fill="#d4d4d4"/>
            </g>
        </g>
        <g>
            <path d="M44.917 76.556s-.095-5.658-5.372-4.577c-5.277 1.08-9.41 1.462-10.554-4.006-1.144-5.467.143-7.152 1.764-9.012 1.622-1.86 9.346-3.552 13.208.81 4.053 4.578 5.34 13.018.954 16.785" fill="#d28c5e"/>
        </g>
        <g>
            <path d="M44.917 76.556s-.095-5.658-5.372-4.577c-5.277 1.08-9.41 1.462-10.554-4.006-1.144-5.467.143-7.152 1.764-9.012 1.622-1.86 9.346-3.552 13.208.81 4.053 4.578 5.34 13.018.954 16.785" fill="#9e4d38"/>
        </g>
        <g>
            <g clip-path="url(#m)" opacity=".32">
                <path d="M39.124 66.752c.474-.85 1.03-1.445 1.736-1.805 2.325-1.184 5.259.314 5.733 2.965.028.155.049.31.062.47.159 1.939-.098 3.86-.892 5.505-.014-2.144-.712-4.26-2.199-5.526-1.38-1.176-2.898-1.638-4.44-1.61" fill="#b57868"/>
            </g>
        </g>
        <g>
            <g clip-path="url(#n)" opacity=".55">
                <path d="M41.489 60.934c-1.711.304-2.898.889-4.093 2.159-1.081 1.15-1.143 3.07-2.28 4.105-1.428 1.303-3.94 1.07-6.206.347-.986-5.122.268-6.776 1.845-8.585 1.62-1.859 9.345-3.552 13.208.811.44.497.834 1.051 1.203 1.628a6.071 6.071 0 00-3.677-.466" fill="#9e4d38"/>
            </g>
        </g>
    </g>
</svg>
