<svg xmlns="http://www.w3.org/2000/svg" height="72.371" width="112.776">
    <defs>
        <clipPath id="a" clipPathUnits="userSpaceOnUse">
            <path d="M0 54.279h84.582V0H0z"/>
        </clipPath>
        <clipPath id="b" clipPathUnits="userSpaceOnUse">
            <path d="M44.491 29.482h12.407V7.98H44.492z"/>
        </clipPath>
        <clipPath id="c" clipPathUnits="userSpaceOnUse">
            <path d="M63.839 23.274h20.743v-11.57H63.839z"/>
        </clipPath>
        <clipPath id="d" clipPathUnits="userSpaceOnUse">
            <path d="M11.611 19.15h23.13V1.652h-23.13z"/>
        </clipPath>
        <clipPath id="e" clipPathUnits="userSpaceOnUse">
            <path d="M29.373 38.036H40.7V25.511H29.373z"/>
        </clipPath>
        <clipPath id="f" clipPathUnits="userSpaceOnUse">
            <path d="M0 54.279h18.201v-32.8H0z"/>
        </clipPath>
    </defs>
    <path d="M19.204 28.433L63.518 45.41l-17.84 2.883-10.842 1.752-13.1 2.116zM96.95 45.974l-2.551-1.164-4.417-2.015-36.36-16.585-6.788-3.097-23.208-10.586L7.78 5.3 18.5 61.055z" fill="#ec9430"/>
    <path d="M0 0L4.043 72.37l108.733-20.928zm19.847 26.975l44.313 16.98-41.78 6.75z" fill="#ffc346"/>
    <g clip-path="url(#a)" transform="matrix(1.33333 0 0 -1.33333 0 72.371)">
        <g clip-path="url(#b)" opacity=".32">
            <path d="M56.898 28.324l-2.539 1.158c-1.516-3.516-3.31-6.96-4.826-10.324-1.679-3.727-3.36-7.453-5.042-11.178l5.71 1.1c2.27 6.407 4.805 12.73 6.697 19.244" fill="#ffc346"/>
        </g>
        <g clip-path="url(#c)" opacity=".32">
            <path d="M84.582 15.696l-16.613 7.578c-1.28-3.886-2.721-7.725-4.13-11.57z" fill="#ffc346"/>
        </g>
        <g clip-path="url(#d)" opacity=".32">
            <path d="M29.862 7.132c1.615 4.008 3.284 8 4.88 12.02L21.24 16.97c-2.485-3.55-4.808-7.199-6.503-11.14a10.99 10.99 0 00-3.125-4.179l17.398 3.35c.282.711.566 1.422.852 2.131" fill="#ffc346"/>
        </g>
        <g>
            <g clip-path="url(#e)" opacity=".32">
                <path d="M37.446 26.272c1.112 3.131 2.16 6.295 3.253 9.442l-5.092 2.322a645.013 645.013 0 00-6.234-9.54l7.79-2.985c.092.254.193.506.283.761" fill="#ffc346"/>
            </g>
        </g>
        <g>
            <g clip-path="url(#f)" opacity=".32">
                <path d="M12.622 37.45a569.801 569.801 0 015.58 8.526L0 54.278 1.832 21.48c3.348 5.462 7.192 10.6 10.79 15.97" fill="#ffc346"/>
            </g>
        </g>
    </g>
    <path d="M0 0L4.043 72.37l2.354-.466L1.241.566z" fill="#ec9430"/>
    <path d="M12.187 70.827l.612-.118-1.106-5.753-.612.117z" fill="#844500"/>
    <path d="M14.448 67.41l.553 2.875.612-.117-.553-2.876z" fill="#844500"/>
    <path d="M17.263 66.868l.554 2.876.61-.117-.552-2.876z" fill="#844500"/>
    <path d="M20.077 66.327l.554 2.876.612-.117-.554-2.876z" fill="#844500"/>
    <path d="M22.892 65.786l.552 2.876.612-.117-.552-2.876z" fill="#844500"/>
    <path d="M26.26 68.121l.612-.117-1.107-5.753-.61.117z" fill="#844500"/>
    <path d="M28.522 64.703l.552 2.876.612-.117-.554-2.876z" fill="#844500"/>
    <path d="M31.336 64.162l.553 2.876.612-.117-.553-2.876z" fill="#844500"/>
    <path d="M34.15 63.621l.553 2.877.612-.117-.554-2.877z" fill="#844500"/>
    <path d="M36.965 63.081l.553 2.876.612-.117-.553-2.878z" fill="#844500"/>
    <path d="M40.332 65.416l.612-.117-1.106-5.754-.61.118z" fill="#844500"/>
    <path d="M42.594 61.999l.553 2.876.612-.118-.553-2.876z" fill="#844500"/>
    <path d="M45.408 61.457l.553 2.876.612-.117-.553-2.876z" fill="#844500"/>
    <path d="M48.223 60.916l.554 2.876.612-.117-.554-2.876z" fill="#844500"/>
    <path d="M51.037 60.375l.554 2.876.612-.117-.554-2.876z" fill="#844500"/>
    <path d="M54.405 62.71l.612-.117-1.106-5.753-.612.117z" fill="#844500"/>
    <path d="M56.666 59.293l.554 2.876.612-.118-.554-2.876z" fill="#844500"/>
    <path d="M59.482 58.751l.553 2.876.61-.117-.551-2.876z" fill="#844500"/>
    <path d="M62.296 58.21l.553 2.878.612-.118-.553-2.877z" fill="#844500"/>
    <path d="M65.11 57.67l.554 2.876.61-.117-.551-2.876z" fill="#844500"/>
    <path d="M68.478 60.005l.612-.117-1.107-5.753-.61.117z" fill="#844500"/>
    <path d="M70.74 56.588l.552 2.876.612-.117-.552-2.876z" fill="#844500"/>
    <path d="M73.554 56.047l.553 2.876.612-.118-.553-2.876z" fill="#844500"/>
    <path d="M76.37 55.505l.551 2.876.612-.117-.553-2.876z" fill="#844500"/>
    <path d="M79.183 54.964l.554 2.876.612-.117-.554-2.876z" fill="#844500"/>
    <path d="M82.55 57.3l.613-.117-1.107-5.754-.61.118z" fill="#844500"/>
    <path d="M84.812 53.882l.554 2.876.612-.117-.554-2.876z" fill="#844500"/>
    <path d="M87.626 53.34l.554 2.878.612-.117-.554-2.878z" fill="#844500"/>
    <path d="M90.442 52.8l.553 2.877.612-.118-.553-2.877z" fill="#844500"/>
    <path d="M93.256 52.26l.553 2.875.612-.117-.553-2.876z" fill="#844500"/>
    <path d="M95.518 48.841l1.105 5.754.612-.118-1.105-5.753z" fill="#844500"/>
</svg>
